<?xml version="1.0" encoding="utf-8" standalone="no"?>
<!DOCTYPE svg PUBLIC "-//W3C//DTD SVG 1.1//EN"
  "http://www.w3.org/Graphics/SVG/1.1/DTD/svg11.dtd">
<svg xmlns:xlink="http://www.w3.org/1999/xlink" width="684pt" height="488.111562pt" viewBox="0 0 684 488.111562" xmlns="http://www.w3.org/2000/svg" version="1.1">
 <metadata>
  <rdf:RDF xmlns:dc="http://purl.org/dc/elements/1.1/" xmlns:cc="http://creativecommons.org/ns#" xmlns:rdf="http://www.w3.org/1999/02/22-rdf-syntax-ns#">
   <cc:Work>
    <dc:type rdf:resource="http://purl.org/dc/dcmitype/StillImage"/>
    <dc:date>2026-03-31T10:30:11.908201</dc:date>
    <dc:format>image/svg+xml</dc:format>
    <dc:creator>
     <cc:Agent>
      <dc:title>Matplotlib v3.10.8, https://matplotlib.org/</dc:title>
     </cc:Agent>
    </dc:creator>
   </cc:Work>
  </rdf:RDF>
 </metadata>
 <defs>
  <style type="text/css">*{stroke-linejoin: round; stroke-linecap: butt}</style>
 </defs>
 <g id="figure_1">
  <g id="patch_1">
   <path d="M 0 488.111562 
L 684 488.111562 
L 684 0 
L 0 0 
z
" style="fill: #ffffff"/>
  </g>
  <g id="axes_1">
   <g id="patch_2">
    <path d="M 18.36 198.167562 
L 107.64 198.167562 
Q 113.22 198.167562 113.22 192.623562 
L 113.22 103.919562 
Q 113.22 98.375562 107.64 98.375562 
L 18.36 98.375562 
Q 12.78 98.375562 12.78 103.919562 
L 12.78 192.623562 
Q 12.78 198.167562 18.36 198.167562 
z
" clip-path="url(#pbc22b0ee14)" style="fill: #8b4513; stroke: #000000; stroke-width: 2; stroke-linejoin: miter"/>
   </g>
   <g id="patch_3">
    <path d="M 185.76 198.167562 
L 275.04 198.167562 
Q 280.62 198.167562 280.62 192.623562 
L 280.62 103.919562 
Q 280.62 98.375562 275.04 98.375562 
L 185.76 98.375562 
Q 180.18 98.375562 180.18 103.919562 
L 180.18 192.623562 
Q 180.18 198.167562 185.76 198.167562 
z
" clip-path="url(#pbc22b0ee14)" style="fill: #daa520; stroke: #000000; stroke-width: 2; stroke-linejoin: miter"/>
   </g>
   <g id="patch_4">
    <path d="M 353.16 198.167562 
L 442.44 198.167562 
Q 448.02 198.167562 448.02 192.623562 
L 448.02 103.919562 
Q 448.02 98.375562 442.44 98.375562 
L 353.16 98.375562 
Q 347.58 98.375562 347.58 103.919562 
L 347.58 192.623562 
Q 347.58 198.167562 353.16 198.167562 
z
" clip-path="url(#pbc22b0ee14)" style="fill: #daa520; stroke: #000000; stroke-width: 2; stroke-linejoin: miter"/>
   </g>
   <g id="patch_5">
    <path d="M 520.56 198.167562 
L 609.84 198.167562 
Q 615.42 198.167562 615.42 192.623562 
L 615.42 103.919562 
Q 615.42 98.375562 609.84 98.375562 
L 520.56 98.375562 
Q 514.98 98.375562 514.98 103.919562 
L 514.98 192.623562 
Q 514.98 198.167562 520.56 198.167562 
z
" clip-path="url(#pbc22b0ee14)" style="fill: #daa520; stroke: #000000; stroke-width: 2; stroke-linejoin: miter"/>
   </g>
   <g id="patch_6">
    <path d="M 520.56 364.487562 
L 609.84 364.487562 
Q 615.42 364.487562 615.42 358.943562 
L 615.42 270.239562 
Q 615.42 264.695562 609.84 264.695562 
L 520.56 264.695562 
Q 514.98 264.695562 514.98 270.239562 
L 514.98 358.943562 
Q 514.98 364.487562 520.56 364.487562 
z
" clip-path="url(#pbc22b0ee14)" style="fill: #8b7355; stroke: #000000; stroke-width: 2; stroke-linejoin: miter"/>
   </g>
   <g id="patch_7">
    <path d="M 297.36 475.367562 
L 386.64 475.367562 
Q 392.22 475.367562 392.22 469.823562 
L 392.22 381.119562 
Q 392.22 375.575562 386.64 375.575562 
L 297.36 375.575562 
Q 291.78 375.575562 291.78 381.119562 
L 291.78 469.823562 
Q 291.78 475.367562 297.36 475.367562 
z
" clip-path="url(#pbc22b0ee14)" style="fill: #4169e1; stroke: #000000; stroke-width: 2; stroke-linejoin: miter"/>
   </g>
   <g id="text_1">
    <!-- Œuf -->
    <g style="fill: #ffffff" transform="translate(53.28125 145.443594) scale(0.1 -0.1)">
     <defs>
      <path id="Arial-BoldMT-152" d="M 6203 778 
L 6203 0 
L 3256 0 
L 3256 541 
Q 2897 -78 2056 -78 
Q 1241 -78 784 453 
Q 225 1103 225 2297 
Q 225 3478 772 4113 
Q 1241 4659 2013 4659 
Q 2403 4659 2729 4500 
Q 3056 4341 3256 4075 
L 3256 4581 
L 6116 4581 
L 6116 3806 
L 4059 3806 
L 4059 2788 
L 5941 2788 
L 5941 2013 
L 4059 2013 
L 4059 778 
L 6203 778 
z
M 2191 3869 
Q 1728 3869 1453 3528 
Q 1178 3188 1178 2366 
Q 1178 1438 1488 1038 
Q 1722 734 2191 734 
Q 2756 734 2979 1164 
Q 3203 1594 3203 2347 
Q 3203 3188 2929 3528 
Q 2656 3869 2191 3869 
z
" transform="scale(0.015625)"/>
      <path id="Arial-BoldMT-75" d="M 2644 0 
L 2644 497 
Q 2463 231 2167 78 
Q 1872 -75 1544 -75 
Q 1209 -75 943 72 
Q 678 219 559 484 
Q 441 750 441 1219 
L 441 3319 
L 1319 3319 
L 1319 1794 
Q 1319 1094 1367 936 
Q 1416 778 1544 686 
Q 1672 594 1869 594 
Q 2094 594 2272 717 
Q 2450 841 2515 1023 
Q 2581 1206 2581 1919 
L 2581 3319 
L 3459 3319 
L 3459 0 
L 2644 0 
z
" transform="scale(0.015625)"/>
      <path id="Arial-BoldMT-66" d="M 75 3319 
L 563 3319 
L 563 3569 
Q 563 3988 652 4194 
Q 741 4400 980 4529 
Q 1219 4659 1584 4659 
Q 1959 4659 2319 4547 
L 2200 3934 
Q 1991 3984 1797 3984 
Q 1606 3984 1523 3895 
Q 1441 3806 1441 3553 
L 1441 3319 
L 2097 3319 
L 2097 2628 
L 1441 2628 
L 1441 0 
L 563 0 
L 563 2628 
L 75 2628 
L 75 3319 
z
" transform="scale(0.015625)"/>
     </defs>
     <use xlink:href="#Arial-BoldMT-152"/>
     <use xlink:href="#Arial-BoldMT-75" transform="translate(100 0)"/>
     <use xlink:href="#Arial-BoldMT-66" transform="translate(161.083984 0)"/>
    </g>
    <!-- (24h) -->
    <g style="fill: #ffffff" transform="translate(51.055469 156.152656) scale(0.1 -0.1)">
     <defs>
      <path id="Arial-BoldMT-28" d="M 1916 -1347 
L 1313 -1347 
Q 834 -625 584 153 
Q 334 931 334 1659 
Q 334 2563 644 3369 
Q 913 4069 1325 4659 
L 1925 4659 
Q 1497 3713 1336 3048 
Q 1175 2384 1175 1641 
Q 1175 1128 1270 590 
Q 1366 53 1531 -431 
Q 1641 -750 1916 -1347 
z
" transform="scale(0.015625)"/>
      <path id="Arial-BoldMT-32" d="M 3238 816 
L 3238 0 
L 159 0 
Q 209 463 459 877 
Q 709 1291 1447 1975 
Q 2041 2528 2175 2725 
Q 2356 2997 2356 3263 
Q 2356 3556 2198 3714 
Q 2041 3872 1763 3872 
Q 1488 3872 1325 3706 
Q 1163 3541 1138 3156 
L 263 3244 
Q 341 3969 753 4284 
Q 1166 4600 1784 4600 
Q 2463 4600 2850 4234 
Q 3238 3869 3238 3325 
Q 3238 3016 3127 2736 
Q 3016 2456 2775 2150 
Q 2616 1947 2200 1565 
Q 1784 1184 1673 1059 
Q 1563 934 1494 816 
L 3238 816 
z
" transform="scale(0.015625)"/>
      <path id="Arial-BoldMT-34" d="M 1994 0 
L 1994 922 
L 119 922 
L 119 1691 
L 2106 4600 
L 2844 4600 
L 2844 1694 
L 3413 1694 
L 3413 922 
L 2844 922 
L 2844 0 
L 1994 0 
z
M 1994 1694 
L 1994 3259 
L 941 1694 
L 1994 1694 
z
" transform="scale(0.015625)"/>
      <path id="Arial-BoldMT-68" d="M 1334 4581 
L 1334 2897 
Q 1759 3394 2350 3394 
Q 2653 3394 2897 3281 
Q 3141 3169 3264 2994 
Q 3388 2819 3433 2606 
Q 3478 2394 3478 1947 
L 3478 0 
L 2600 0 
L 2600 1753 
Q 2600 2275 2550 2415 
Q 2500 2556 2373 2639 
Q 2247 2722 2056 2722 
Q 1838 2722 1666 2615 
Q 1494 2509 1414 2295 
Q 1334 2081 1334 1663 
L 1334 0 
L 456 0 
L 456 4581 
L 1334 4581 
z
" transform="scale(0.015625)"/>
      <path id="Arial-BoldMT-29" d="M 216 -1347 
Q 475 -791 581 -494 
Q 688 -197 778 190 
Q 869 578 912 926 
Q 956 1275 956 1641 
Q 956 2384 797 3048 
Q 638 3713 209 4659 
L 806 4659 
Q 1278 3988 1539 3234 
Q 1800 2481 1800 1706 
Q 1800 1053 1594 306 
Q 1359 -531 822 -1347 
L 216 -1347 
z
" transform="scale(0.015625)"/>
     </defs>
     <use xlink:href="#Arial-BoldMT-28"/>
     <use xlink:href="#Arial-BoldMT-32" transform="translate(33.300781 0)"/>
     <use xlink:href="#Arial-BoldMT-34" transform="translate(88.916016 0)"/>
     <use xlink:href="#Arial-BoldMT-68" transform="translate(144.53125 0)"/>
     <use xlink:href="#Arial-BoldMT-29" transform="translate(205.615234 0)"/>
    </g>
   </g>
   <g id="text_2">
    <!-- Larve L1 -->
    <g style="fill: #ffffff" transform="translate(209.835156 145.443594) scale(0.1 -0.1)">
     <defs>
      <path id="Arial-BoldMT-4c" d="M 491 0 
L 491 4544 
L 1416 4544 
L 1416 772 
L 3716 772 
L 3716 0 
L 491 0 
z
" transform="scale(0.015625)"/>
      <path id="Arial-BoldMT-61" d="M 1116 2306 
L 319 2450 
Q 453 2931 781 3162 
Q 1109 3394 1756 3394 
Q 2344 3394 2631 3255 
Q 2919 3116 3036 2902 
Q 3153 2688 3153 2116 
L 3144 1091 
Q 3144 653 3186 445 
Q 3228 238 3344 0 
L 2475 0 
Q 2441 88 2391 259 
Q 2369 338 2359 363 
Q 2134 144 1878 34 
Q 1622 -75 1331 -75 
Q 819 -75 523 203 
Q 228 481 228 906 
Q 228 1188 362 1408 
Q 497 1628 739 1745 
Q 981 1863 1438 1950 
Q 2053 2066 2291 2166 
L 2291 2253 
Q 2291 2506 2166 2614 
Q 2041 2722 1694 2722 
Q 1459 2722 1328 2630 
Q 1197 2538 1116 2306 
z
M 2291 1594 
Q 2122 1538 1756 1459 
Q 1391 1381 1278 1306 
Q 1106 1184 1106 997 
Q 1106 813 1243 678 
Q 1381 544 1594 544 
Q 1831 544 2047 700 
Q 2206 819 2256 991 
Q 2291 1103 2291 1419 
L 2291 1594 
z
" transform="scale(0.015625)"/>
      <path id="Arial-BoldMT-72" d="M 1300 0 
L 422 0 
L 422 3319 
L 1238 3319 
L 1238 2847 
Q 1447 3181 1614 3287 
Q 1781 3394 1994 3394 
Q 2294 3394 2572 3228 
L 2300 2463 
Q 2078 2606 1888 2606 
Q 1703 2606 1575 2504 
Q 1447 2403 1373 2137 
Q 1300 1872 1300 1025 
L 1300 0 
z
" transform="scale(0.015625)"/>
      <path id="Arial-BoldMT-76" d="M 1372 0 
L 34 3319 
L 956 3319 
L 1581 1625 
L 1763 1059 
Q 1834 1275 1853 1344 
Q 1897 1484 1947 1625 
L 2578 3319 
L 3481 3319 
L 2163 0 
L 1372 0 
z
" transform="scale(0.015625)"/>
      <path id="Arial-BoldMT-65" d="M 2381 1056 
L 3256 909 
Q 3088 428 2723 176 
Q 2359 -75 1813 -75 
Q 947 -75 531 491 
Q 203 944 203 1634 
Q 203 2459 634 2926 
Q 1066 3394 1725 3394 
Q 2466 3394 2894 2905 
Q 3322 2416 3303 1406 
L 1103 1406 
Q 1113 1016 1316 798 
Q 1519 581 1822 581 
Q 2028 581 2168 693 
Q 2309 806 2381 1056 
z
M 2431 1944 
Q 2422 2325 2234 2523 
Q 2047 2722 1778 2722 
Q 1491 2722 1303 2513 
Q 1116 2303 1119 1944 
L 2431 1944 
z
" transform="scale(0.015625)"/>
      <path id="Arial-BoldMT-20" transform="scale(0.015625)"/>
      <path id="Arial-BoldMT-31" d="M 2519 0 
L 1641 0 
L 1641 3309 
Q 1159 2859 506 2644 
L 506 3441 
Q 850 3553 1253 3867 
Q 1656 4181 1806 4600 
L 2519 4600 
L 2519 0 
z
" transform="scale(0.015625)"/>
     </defs>
     <use xlink:href="#Arial-BoldMT-4c"/>
     <use xlink:href="#Arial-BoldMT-61" transform="translate(61.083984 0)"/>
     <use xlink:href="#Arial-BoldMT-72" transform="translate(116.699219 0)"/>
     <use xlink:href="#Arial-BoldMT-76" transform="translate(155.615234 0)"/>
     <use xlink:href="#Arial-BoldMT-65" transform="translate(211.230469 0)"/>
     <use xlink:href="#Arial-BoldMT-20" transform="translate(266.845703 0)"/>
     <use xlink:href="#Arial-BoldMT-4c" transform="translate(294.628906 0)"/>
     <use xlink:href="#Arial-BoldMT-31" transform="translate(355.712891 0)"/>
    </g>
    <!-- (24h) -->
    <g style="fill: #ffffff" transform="translate(218.455469 156.152656) scale(0.1 -0.1)">
     <use xlink:href="#Arial-BoldMT-28"/>
     <use xlink:href="#Arial-BoldMT-32" transform="translate(33.300781 0)"/>
     <use xlink:href="#Arial-BoldMT-34" transform="translate(88.916016 0)"/>
     <use xlink:href="#Arial-BoldMT-68" transform="translate(144.53125 0)"/>
     <use xlink:href="#Arial-BoldMT-29" transform="translate(205.615234 0)"/>
    </g>
   </g>
   <g id="text_3">
    <!-- Larve L2 -->
    <g style="fill: #ffffff" transform="translate(377.235156 145.443594) scale(0.1 -0.1)">
     <use xlink:href="#Arial-BoldMT-4c"/>
     <use xlink:href="#Arial-BoldMT-61" transform="translate(61.083984 0)"/>
     <use xlink:href="#Arial-BoldMT-72" transform="translate(116.699219 0)"/>
     <use xlink:href="#Arial-BoldMT-76" transform="translate(155.615234 0)"/>
     <use xlink:href="#Arial-BoldMT-65" transform="translate(211.230469 0)"/>
     <use xlink:href="#Arial-BoldMT-20" transform="translate(266.845703 0)"/>
     <use xlink:href="#Arial-BoldMT-4c" transform="translate(294.628906 0)"/>
     <use xlink:href="#Arial-BoldMT-32" transform="translate(355.712891 0)"/>
    </g>
    <!-- (24h) -->
    <g style="fill: #ffffff" transform="translate(385.855469 156.152656) scale(0.1 -0.1)">
     <use xlink:href="#Arial-BoldMT-28"/>
     <use xlink:href="#Arial-BoldMT-32" transform="translate(33.300781 0)"/>
     <use xlink:href="#Arial-BoldMT-34" transform="translate(88.916016 0)"/>
     <use xlink:href="#Arial-BoldMT-68" transform="translate(144.53125 0)"/>
     <use xlink:href="#Arial-BoldMT-29" transform="translate(205.615234 0)"/>
    </g>
   </g>
   <g id="text_4">
    <!-- Larve L3 -->
    <g style="fill: #ffffff" transform="translate(544.635156 145.443594) scale(0.1 -0.1)">
     <defs>
      <path id="Arial-BoldMT-33" d="M 241 1216 
L 1091 1319 
Q 1131 994 1309 822 
Q 1488 650 1741 650 
Q 2013 650 2198 856 
Q 2384 1063 2384 1413 
Q 2384 1744 2206 1937 
Q 2028 2131 1772 2131 
Q 1603 2131 1369 2066 
L 1466 2781 
Q 1822 2772 2009 2936 
Q 2197 3100 2197 3372 
Q 2197 3603 2059 3740 
Q 1922 3878 1694 3878 
Q 1469 3878 1309 3722 
Q 1150 3566 1116 3266 
L 306 3403 
Q 391 3819 561 4067 
Q 731 4316 1036 4458 
Q 1341 4600 1719 4600 
Q 2366 4600 2756 4188 
Q 3078 3850 3078 3425 
Q 3078 2822 2419 2463 
Q 2813 2378 3048 2084 
Q 3284 1791 3284 1375 
Q 3284 772 2843 347 
Q 2403 -78 1747 -78 
Q 1125 -78 715 280 
Q 306 638 241 1216 
z
" transform="scale(0.015625)"/>
     </defs>
     <use xlink:href="#Arial-BoldMT-4c"/>
     <use xlink:href="#Arial-BoldMT-61" transform="translate(61.083984 0)"/>
     <use xlink:href="#Arial-BoldMT-72" transform="translate(116.699219 0)"/>
     <use xlink:href="#Arial-BoldMT-76" transform="translate(155.615234 0)"/>
     <use xlink:href="#Arial-BoldMT-65" transform="translate(211.230469 0)"/>
     <use xlink:href="#Arial-BoldMT-20" transform="translate(266.845703 0)"/>
     <use xlink:href="#Arial-BoldMT-4c" transform="translate(294.628906 0)"/>
     <use xlink:href="#Arial-BoldMT-33" transform="translate(355.712891 0)"/>
    </g>
    <!-- (48h) -->
    <g style="fill: #ffffff" transform="translate(553.255469 156.152656) scale(0.1 -0.1)">
     <defs>
      <path id="Arial-BoldMT-38" d="M 1025 2472 
Q 684 2616 529 2867 
Q 375 3119 375 3419 
Q 375 3931 733 4265 
Q 1091 4600 1750 4600 
Q 2403 4600 2764 4265 
Q 3125 3931 3125 3419 
Q 3125 3100 2959 2851 
Q 2794 2603 2494 2472 
Q 2875 2319 3073 2025 
Q 3272 1731 3272 1347 
Q 3272 713 2867 316 
Q 2463 -81 1791 -81 
Q 1166 -81 750 247 
Q 259 634 259 1309 
Q 259 1681 443 1992 
Q 628 2303 1025 2472 
z
M 1206 3356 
Q 1206 3094 1354 2947 
Q 1503 2800 1750 2800 
Q 2000 2800 2150 2948 
Q 2300 3097 2300 3359 
Q 2300 3606 2151 3754 
Q 2003 3903 1759 3903 
Q 1506 3903 1356 3753 
Q 1206 3603 1206 3356 
z
M 1125 1394 
Q 1125 1031 1311 828 
Q 1497 625 1775 625 
Q 2047 625 2225 820 
Q 2403 1016 2403 1384 
Q 2403 1706 2222 1901 
Q 2041 2097 1763 2097 
Q 1441 2097 1283 1875 
Q 1125 1653 1125 1394 
z
" transform="scale(0.015625)"/>
     </defs>
     <use xlink:href="#Arial-BoldMT-28"/>
     <use xlink:href="#Arial-BoldMT-34" transform="translate(33.300781 0)"/>
     <use xlink:href="#Arial-BoldMT-38" transform="translate(88.916016 0)"/>
     <use xlink:href="#Arial-BoldMT-68" transform="translate(144.53125 0)"/>
     <use xlink:href="#Arial-BoldMT-29" transform="translate(205.615234 0)"/>
    </g>
   </g>
   <g id="text_5">
    <!-- Pupe -->
    <g style="fill: #ffffff" transform="translate(552.976562 311.763594) scale(0.1 -0.1)">
     <defs>
      <path id="Arial-BoldMT-50" d="M 466 0 
L 466 4581 
L 1950 4581 
Q 2794 4581 3050 4513 
Q 3444 4409 3709 4064 
Q 3975 3719 3975 3172 
Q 3975 2750 3822 2462 
Q 3669 2175 3433 2011 
Q 3197 1847 2953 1794 
Q 2622 1728 1994 1728 
L 1391 1728 
L 1391 0 
L 466 0 
z
M 1391 3806 
L 1391 2506 
L 1897 2506 
Q 2444 2506 2628 2578 
Q 2813 2650 2917 2803 
Q 3022 2956 3022 3159 
Q 3022 3409 2875 3571 
Q 2728 3734 2503 3775 
Q 2338 3806 1838 3806 
L 1391 3806 
z
" transform="scale(0.015625)"/>
      <path id="Arial-BoldMT-70" d="M 434 3319 
L 1253 3319 
L 1253 2831 
Q 1413 3081 1684 3237 
Q 1956 3394 2288 3394 
Q 2866 3394 3269 2941 
Q 3672 2488 3672 1678 
Q 3672 847 3265 386 
Q 2859 -75 2281 -75 
Q 2006 -75 1782 34 
Q 1559 144 1313 409 
L 1313 -1263 
L 434 -1263 
L 434 3319 
z
M 1303 1716 
Q 1303 1156 1525 889 
Q 1747 622 2066 622 
Q 2372 622 2575 867 
Q 2778 1113 2778 1672 
Q 2778 2194 2568 2447 
Q 2359 2700 2050 2700 
Q 1728 2700 1515 2451 
Q 1303 2203 1303 1716 
z
" transform="scale(0.015625)"/>
     </defs>
     <use xlink:href="#Arial-BoldMT-50"/>
     <use xlink:href="#Arial-BoldMT-75" transform="translate(66.699219 0)"/>
     <use xlink:href="#Arial-BoldMT-70" transform="translate(127.783203 0)"/>
     <use xlink:href="#Arial-BoldMT-65" transform="translate(188.867188 0)"/>
    </g>
    <!-- (4-5 jours) -->
    <g style="fill: #ffffff" transform="translate(541.032031 322.472656) scale(0.1 -0.1)">
     <defs>
      <path id="Arial-BoldMT-2d" d="M 359 1222 
L 359 2100 
L 2084 2100 
L 2084 1222 
L 359 1222 
z
" transform="scale(0.015625)"/>
      <path id="Arial-BoldMT-35" d="M 284 1178 
L 1159 1269 
Q 1197 972 1381 798 
Q 1566 625 1806 625 
Q 2081 625 2272 848 
Q 2463 1072 2463 1522 
Q 2463 1944 2273 2155 
Q 2084 2366 1781 2366 
Q 1403 2366 1103 2031 
L 391 2134 
L 841 4519 
L 3163 4519 
L 3163 3697 
L 1506 3697 
L 1369 2919 
Q 1663 3066 1969 3066 
Q 2553 3066 2959 2641 
Q 3366 2216 3366 1538 
Q 3366 972 3038 528 
Q 2591 -78 1797 -78 
Q 1163 -78 763 262 
Q 363 603 284 1178 
z
" transform="scale(0.015625)"/>
      <path id="Arial-BoldMT-6a" d="M 441 3769 
L 441 4581 
L 1319 4581 
L 1319 3769 
L 441 3769 
z
M 1319 3319 
L 1319 103 
Q 1319 -531 1236 -792 
Q 1153 -1053 917 -1200 
Q 681 -1347 316 -1347 
Q 184 -1347 32 -1323 
Q -119 -1300 -294 -1253 
L -141 -503 
Q -78 -516 -23 -523 
Q 31 -531 78 -531 
Q 213 -531 298 -473 
Q 384 -416 412 -334 
Q 441 -253 441 153 
L 441 3319 
L 1319 3319 
z
" transform="scale(0.015625)"/>
      <path id="Arial-BoldMT-6f" d="M 256 1706 
Q 256 2144 472 2553 
Q 688 2963 1083 3178 
Q 1478 3394 1966 3394 
Q 2719 3394 3200 2905 
Q 3681 2416 3681 1669 
Q 3681 916 3195 420 
Q 2709 -75 1972 -75 
Q 1516 -75 1102 131 
Q 688 338 472 736 
Q 256 1134 256 1706 
z
M 1156 1659 
Q 1156 1166 1390 903 
Q 1625 641 1969 641 
Q 2313 641 2545 903 
Q 2778 1166 2778 1666 
Q 2778 2153 2545 2415 
Q 2313 2678 1969 2678 
Q 1625 2678 1390 2415 
Q 1156 2153 1156 1659 
z
" transform="scale(0.015625)"/>
      <path id="Arial-BoldMT-73" d="M 150 947 
L 1031 1081 
Q 1088 825 1259 692 
Q 1431 559 1741 559 
Q 2081 559 2253 684 
Q 2369 772 2369 919 
Q 2369 1019 2306 1084 
Q 2241 1147 2013 1200 
Q 950 1434 666 1628 
Q 272 1897 272 2375 
Q 272 2806 612 3100 
Q 953 3394 1669 3394 
Q 2350 3394 2681 3172 
Q 3013 2950 3138 2516 
L 2309 2363 
Q 2256 2556 2107 2659 
Q 1959 2763 1684 2763 
Q 1338 2763 1188 2666 
Q 1088 2597 1088 2488 
Q 1088 2394 1175 2328 
Q 1294 2241 1995 2081 
Q 2697 1922 2975 1691 
Q 3250 1456 3250 1038 
Q 3250 581 2869 253 
Q 2488 -75 1741 -75 
Q 1063 -75 667 200 
Q 272 475 150 947 
z
" transform="scale(0.015625)"/>
     </defs>
     <use xlink:href="#Arial-BoldMT-28"/>
     <use xlink:href="#Arial-BoldMT-34" transform="translate(33.300781 0)"/>
     <use xlink:href="#Arial-BoldMT-2d" transform="translate(88.916016 0)"/>
     <use xlink:href="#Arial-BoldMT-35" transform="translate(122.216797 0)"/>
     <use xlink:href="#Arial-BoldMT-20" transform="translate(177.832031 0)"/>
     <use xlink:href="#Arial-BoldMT-6a" transform="translate(205.615234 0)"/>
     <use xlink:href="#Arial-BoldMT-6f" transform="translate(233.398438 0)"/>
     <use xlink:href="#Arial-BoldMT-75" transform="translate(294.482422 0)"/>
     <use xlink:href="#Arial-BoldMT-72" transform="translate(355.566406 0)"/>
     <use xlink:href="#Arial-BoldMT-73" transform="translate(394.482422 0)"/>
     <use xlink:href="#Arial-BoldMT-29" transform="translate(450.097656 0)"/>
    </g>
   </g>
   <g id="text_6">
    <!-- Adulte -->
    <g style="fill: #ffffff" transform="translate(326.446875 422.643594) scale(0.1 -0.1)">
     <defs>
      <path id="Arial-BoldMT-41" d="M 4597 0 
L 3591 0 
L 3191 1041 
L 1359 1041 
L 981 0 
L 0 0 
L 1784 4581 
L 2763 4581 
L 4597 0 
z
M 2894 1813 
L 2263 3513 
L 1644 1813 
L 2894 1813 
z
" transform="scale(0.015625)"/>
      <path id="Arial-BoldMT-64" d="M 3503 0 
L 2688 0 
L 2688 488 
Q 2484 203 2207 64 
Q 1931 -75 1650 -75 
Q 1078 -75 670 386 
Q 263 847 263 1672 
Q 263 2516 659 2955 
Q 1056 3394 1663 3394 
Q 2219 3394 2625 2931 
L 2625 4581 
L 3503 4581 
L 3503 0 
z
M 1159 1731 
Q 1159 1200 1306 963 
Q 1519 619 1900 619 
Q 2203 619 2415 876 
Q 2628 1134 2628 1647 
Q 2628 2219 2422 2470 
Q 2216 2722 1894 2722 
Q 1581 2722 1370 2473 
Q 1159 2225 1159 1731 
z
" transform="scale(0.015625)"/>
      <path id="Arial-BoldMT-6c" d="M 459 0 
L 459 4581 
L 1338 4581 
L 1338 0 
L 459 0 
z
" transform="scale(0.015625)"/>
      <path id="Arial-BoldMT-74" d="M 1981 3319 
L 1981 2619 
L 1381 2619 
L 1381 1281 
Q 1381 875 1398 808 
Q 1416 741 1477 697 
Q 1538 653 1625 653 
Q 1747 653 1978 738 
L 2053 56 
Q 1747 -75 1359 -75 
Q 1122 -75 931 4 
Q 741 84 652 211 
Q 563 338 528 553 
Q 500 706 500 1172 
L 500 2619 
L 97 2619 
L 97 3319 
L 500 3319 
L 500 3978 
L 1381 4491 
L 1381 3319 
L 1981 3319 
z
" transform="scale(0.015625)"/>
     </defs>
     <use xlink:href="#Arial-BoldMT-41"/>
     <use xlink:href="#Arial-BoldMT-64" transform="translate(72.216797 0)"/>
     <use xlink:href="#Arial-BoldMT-75" transform="translate(133.300781 0)"/>
     <use xlink:href="#Arial-BoldMT-6c" transform="translate(194.384766 0)"/>
     <use xlink:href="#Arial-BoldMT-74" transform="translate(222.167969 0)"/>
     <use xlink:href="#Arial-BoldMT-65" transform="translate(255.46875 0)"/>
    </g>
    <!-- (Imago) -->
    <g style="fill: #ffffff" transform="translate(323.946875 433.352656) scale(0.1 -0.1)">
     <defs>
      <path id="Arial-BoldMT-49" d="M 438 0 
L 438 4581 
L 1363 4581 
L 1363 0 
L 438 0 
z
" transform="scale(0.015625)"/>
      <path id="Arial-BoldMT-6d" d="M 394 3319 
L 1203 3319 
L 1203 2866 
Q 1638 3394 2238 3394 
Q 2556 3394 2790 3262 
Q 3025 3131 3175 2866 
Q 3394 3131 3647 3262 
Q 3900 3394 4188 3394 
Q 4553 3394 4806 3245 
Q 5059 3097 5184 2809 
Q 5275 2597 5275 2122 
L 5275 0 
L 4397 0 
L 4397 1897 
Q 4397 2391 4306 2534 
Q 4184 2722 3931 2722 
Q 3747 2722 3584 2609 
Q 3422 2497 3350 2280 
Q 3278 2063 3278 1594 
L 3278 0 
L 2400 0 
L 2400 1819 
Q 2400 2303 2353 2443 
Q 2306 2584 2207 2653 
Q 2109 2722 1941 2722 
Q 1738 2722 1575 2612 
Q 1413 2503 1342 2297 
Q 1272 2091 1272 1613 
L 1272 0 
L 394 0 
L 394 3319 
z
" transform="scale(0.015625)"/>
      <path id="Arial-BoldMT-67" d="M 378 -219 
L 1381 -341 
Q 1406 -516 1497 -581 
Q 1622 -675 1891 -675 
Q 2234 -675 2406 -572 
Q 2522 -503 2581 -350 
Q 2622 -241 2622 53 
L 2622 538 
Q 2228 0 1628 0 
Q 959 0 569 566 
Q 263 1013 263 1678 
Q 263 2513 664 2953 
Q 1066 3394 1663 3394 
Q 2278 3394 2678 2853 
L 2678 3319 
L 3500 3319 
L 3500 341 
Q 3500 -247 3403 -537 
Q 3306 -828 3131 -993 
Q 2956 -1159 2664 -1253 
Q 2372 -1347 1925 -1347 
Q 1081 -1347 728 -1058 
Q 375 -769 375 -325 
Q 375 -281 378 -219 
z
M 1163 1728 
Q 1163 1200 1367 954 
Q 1572 709 1872 709 
Q 2194 709 2416 961 
Q 2638 1213 2638 1706 
Q 2638 2222 2425 2472 
Q 2213 2722 1888 2722 
Q 1572 2722 1367 2476 
Q 1163 2231 1163 1728 
z
" transform="scale(0.015625)"/>
     </defs>
     <use xlink:href="#Arial-BoldMT-28"/>
     <use xlink:href="#Arial-BoldMT-49" transform="translate(33.300781 0)"/>
     <use xlink:href="#Arial-BoldMT-6d" transform="translate(61.083984 0)"/>
     <use xlink:href="#Arial-BoldMT-61" transform="translate(150 0)"/>
     <use xlink:href="#Arial-BoldMT-67" transform="translate(205.615234 0)"/>
     <use xlink:href="#Arial-BoldMT-6f" transform="translate(266.699219 0)"/>
     <use xlink:href="#Arial-BoldMT-29" transform="translate(327.783203 0)"/>
    </g>
   </g>
   <g id="patch_8">
    <path d="M 109.63782 148.271562 
Q 146.697669 148.271562 181.52145 148.271562 
" style="fill: none; stroke: #ff0000; stroke-width: 2; stroke-linecap: round"/>
    <path d="M 173.52145 144.271562 
L 181.52145 148.271562 
L 173.52145 152.271562 
" style="fill: none; stroke: #ff0000; stroke-width: 2; stroke-linecap: round"/>
   </g>
   <g id="patch_9">
    <path d="M 277.03782 148.271562 
Q 314.097669 148.271562 348.92145 148.271562 
" style="fill: none; stroke: #ff0000; stroke-width: 2; stroke-linecap: round"/>
    <path d="M 340.92145 144.271562 
L 348.92145 148.271562 
L 340.92145 152.271562 
" style="fill: none; stroke: #ff0000; stroke-width: 2; stroke-linecap: round"/>
   </g>
   <g id="patch_10">
    <path d="M 444.43782 148.271562 
Q 481.497669 148.271562 516.32145 148.271562 
" style="fill: none; stroke: #ff0000; stroke-width: 2; stroke-linecap: round"/>
    <path d="M 508.32145 144.271562 
L 516.32145 148.271562 
L 508.32145 152.271562 
" style="fill: none; stroke: #ff0000; stroke-width: 2; stroke-linecap: round"/>
   </g>
   <g id="patch_11">
    <path d="M 565.2 194.627442 
Q 565.2 231.434355 565.2 266.005201 
" style="fill: none; stroke: #ff0000; stroke-width: 2; stroke-linecap: round"/>
    <path d="M 569.2 258.005201 
L 565.2 266.005201 
L 561.2 258.005201 
" style="fill: none; stroke: #ff0000; stroke-width: 2; stroke-linecap: round"/>
   </g>
   <g id="patch_12">
    <path d="M 518.561499 314.591562 
Q 453.601192 314.591562 390.876953 314.591562 
" style="fill: none; stroke: #ff0000; stroke-width: 2; stroke-linecap: round"/>
    <path d="M 398.876953 318.591562 
L 390.876953 314.591562 
L 398.876953 310.591562 
" style="fill: none; stroke: #ff0000; stroke-width: 2; stroke-linecap: round"/>
   </g>
   <g id="patch_13">
    <path d="M 295.938605 379.707338 
Q 202.497549 286.869127 110.642739 195.606929 
" style="fill: none; stroke: #ff0000; stroke-width: 2; stroke-linecap: round"/>
    <path d="M 113.498612 204.083013 
L 110.642739 195.606929 
L 119.13713 198.407881 
" style="fill: none; stroke: #ff0000; stroke-width: 2; stroke-linecap: round"/>
   </g>
   <g id="text_7">
    <g id="patch_14">
     <path d="M 243.262969 79.535141 
L 440.737031 79.535141 
Q 444.037031 79.535141 444.037031 76.235141 
L 444.037031 53.987984 
Q 444.037031 50.687984 440.737031 50.687984 
L 243.262969 50.687984 
Q 239.962969 50.687984 239.962969 53.987984 
L 239.962969 76.235141 
Q 239.962969 79.535141 243.262969 79.535141 
z
" style="fill: #fff8dc; opacity: 0.8; stroke: #000000; stroke-linejoin: miter"/>
    </g>
    <!-- Cycle complet: ~10 jours à 25°C -->
    <g style="fill: #262626" transform="translate(263.22625 61.995641) scale(0.11 -0.11)">
     <defs>
      <path id="Arial-ItalicMT-43" d="M 3859 1613 
L 4466 1528 
Q 4178 734 3628 328 
Q 3078 -78 2394 -78 
Q 1559 -78 1070 431 
Q 581 941 581 1891 
Q 581 3128 1325 3938 
Q 1988 4659 2972 4659 
Q 3700 4659 4151 4268 
Q 4603 3878 4675 3219 
L 4103 3166 
Q 4013 3663 3730 3908 
Q 3447 4153 3000 4153 
Q 2159 4153 1641 3406 
Q 1191 2763 1191 1878 
Q 1191 1172 1537 800 
Q 1884 428 2441 428 
Q 2916 428 3300 737 
Q 3684 1047 3859 1613 
z
" transform="scale(0.015625)"/>
      <path id="Arial-ItalicMT-79" d="M 0 -1281 
L 34 -750 
Q 209 -800 375 -800 
Q 547 -800 653 -722 
Q 791 -619 953 -334 
L 1134 -9 
L 581 3319 
L 1138 3319 
L 1388 1641 
Q 1463 1144 1516 647 
L 3000 3319 
L 3591 3319 
L 1475 -441 
Q 1169 -991 931 -1169 
Q 694 -1347 384 -1347 
Q 188 -1347 0 -1281 
z
" transform="scale(0.015625)"/>
      <path id="Arial-ItalicMT-63" d="M 2503 1209 
L 3069 1150 
Q 2856 528 2464 226 
Q 2072 -75 1572 -75 
Q 1031 -75 695 275 
Q 359 625 359 1253 
Q 359 1797 575 2322 
Q 791 2847 1192 3120 
Q 1594 3394 2109 3394 
Q 2644 3394 2956 3092 
Q 3269 2791 3269 2294 
L 2713 2256 
Q 2709 2572 2529 2750 
Q 2350 2928 2056 2928 
Q 1716 2928 1466 2712 
Q 1216 2497 1073 2058 
Q 931 1619 931 1213 
Q 931 788 1118 575 
Q 1306 363 1581 363 
Q 1856 363 2107 572 
Q 2359 781 2503 1209 
z
" transform="scale(0.015625)"/>
      <path id="Arial-ItalicMT-6c" d="M 169 0 
L 1125 4581 
L 1691 4581 
L 734 0 
L 169 0 
z
" transform="scale(0.015625)"/>
      <path id="Arial-ItalicMT-65" d="M 2650 1128 
L 3200 1072 
Q 3081 663 2654 294 
Q 2228 -75 1638 -75 
Q 1269 -75 961 95 
Q 653 266 492 591 
Q 331 916 331 1331 
Q 331 1875 582 2386 
Q 834 2897 1234 3145 
Q 1634 3394 2100 3394 
Q 2694 3394 3048 3025 
Q 3403 2656 3403 2019 
Q 3403 1775 3359 1519 
L 916 1519 
Q 903 1422 903 1344 
Q 903 878 1117 633 
Q 1331 388 1641 388 
Q 1931 388 2212 578 
Q 2494 769 2650 1128 
z
M 1006 1950 
L 2869 1950 
Q 2872 2038 2872 2075 
Q 2872 2500 2659 2726 
Q 2447 2953 2113 2953 
Q 1750 2953 1451 2703 
Q 1153 2453 1006 1950 
z
" transform="scale(0.015625)"/>
      <path id="Arial-ItalicMT-20" transform="scale(0.015625)"/>
      <path id="Arial-ItalicMT-6f" d="M 313 1259 
Q 313 2231 884 2869 
Q 1356 3394 2122 3394 
Q 2722 3394 3089 3019 
Q 3456 2644 3456 2006 
Q 3456 1434 3225 942 
Q 2994 450 2567 187 
Q 2141 -75 1669 -75 
Q 1281 -75 964 90 
Q 647 256 480 559 
Q 313 863 313 1259 
z
M 878 1316 
Q 878 847 1103 605 
Q 1328 363 1675 363 
Q 1856 363 2034 436 
Q 2213 509 2366 659 
Q 2519 809 2626 1001 
Q 2734 1194 2800 1416 
Q 2897 1725 2897 2009 
Q 2897 2459 2670 2707 
Q 2444 2956 2100 2956 
Q 1834 2956 1615 2829 
Q 1397 2703 1220 2459 
Q 1044 2216 961 1892 
Q 878 1569 878 1316 
z
" transform="scale(0.015625)"/>
      <path id="Arial-ItalicMT-6d" d="M 209 0 
L 903 3319 
L 1469 3319 
L 1353 2772 
Q 1669 3125 1917 3259 
Q 2166 3394 2456 3394 
Q 2766 3394 2973 3230 
Q 3181 3066 3247 2772 
Q 3500 3084 3779 3239 
Q 4059 3394 4369 3394 
Q 4784 3394 4992 3197 
Q 5200 3000 5200 2644 
Q 5200 2491 5128 2138 
L 4681 0 
L 4116 0 
L 4572 2194 
Q 4631 2463 4631 2578 
Q 4631 2741 4528 2834 
Q 4425 2928 4238 2928 
Q 3984 2928 3721 2775 
Q 3459 2622 3314 2373 
Q 3169 2125 3059 1609 
L 2722 0 
L 2156 0 
L 2625 2241 
Q 2675 2469 2675 2566 
Q 2675 2728 2573 2828 
Q 2472 2928 2309 2928 
Q 2069 2928 1805 2775 
Q 1541 2622 1375 2348 
Q 1209 2075 1103 1569 
L 775 0 
L 209 0 
z
" transform="scale(0.015625)"/>
      <path id="Arial-ItalicMT-70" d="M -66 -1272 
L 894 3319 
L 1416 3319 
L 1319 2856 
Q 1609 3159 1839 3276 
Q 2069 3394 2325 3394 
Q 2800 3394 3112 3048 
Q 3425 2703 3425 2059 
Q 3425 1541 3253 1114 
Q 3081 688 2831 428 
Q 2581 169 2325 47 
Q 2069 -75 1800 -75 
Q 1203 -75 875 531 
L 500 -1272 
L -66 -1272 
z
M 1053 1356 
Q 1053 984 1106 841 
Q 1184 638 1362 513 
Q 1541 388 1775 388 
Q 2263 388 2563 936 
Q 2863 1484 2863 2056 
Q 2863 2478 2661 2708 
Q 2459 2938 2159 2938 
Q 1944 2938 1759 2823 
Q 1575 2709 1417 2482 
Q 1259 2256 1156 1928 
Q 1053 1600 1053 1356 
z
" transform="scale(0.015625)"/>
      <path id="Arial-ItalicMT-74" d="M 1534 459 
L 1441 -3 
Q 1238 -56 1047 -56 
Q 709 -56 509 109 
Q 359 234 359 450 
Q 359 559 441 953 
L 844 2881 
L 397 2881 
L 488 3319 
L 934 3319 
L 1106 4134 
L 1753 4525 
L 1500 3319 
L 2056 3319 
L 1963 2881 
L 1409 2881 
L 1025 1047 
Q 953 697 953 628 
Q 953 528 1011 475 
Q 1069 422 1200 422 
Q 1388 422 1534 459 
z
" transform="scale(0.015625)"/>
      <path id="Arial-ItalicMT-3a" d="M 925 2678 
L 1059 3319 
L 1697 3319 
L 1566 2678 
L 925 2678 
z
M 366 0 
L 500 641 
L 1141 641 
L 1003 0 
L 366 0 
z
" transform="scale(0.015625)"/>
      <path id="Arial-ItalicMT-7e" d="M 513 1741 
L 513 2381 
Q 844 2756 1381 2756 
Q 1569 2756 1775 2701 
Q 1981 2647 2363 2484 
Q 2578 2394 2686 2366 
Q 2794 2338 2903 2338 
Q 3106 2338 3323 2459 
Q 3541 2581 3709 2766 
L 3709 2103 
Q 3509 1916 3304 1831 
Q 3100 1747 2844 1747 
Q 2656 1747 2486 1790 
Q 2316 1834 1945 2000 
Q 1575 2166 1328 2166 
Q 1128 2166 951 2080 
Q 775 1994 513 1741 
z
" transform="scale(0.015625)"/>
      <path id="Arial-ItalicMT-31" d="M 1541 0 
L 2266 3459 
Q 1797 3091 947 2869 
L 1053 3381 
Q 1475 3550 1886 3822 
Q 2297 4094 2503 4297 
Q 2628 4422 2741 4600 
L 3069 4600 
L 2109 0 
L 1541 0 
z
" transform="scale(0.015625)"/>
      <path id="Arial-ItalicMT-30" d="M 453 1503 
Q 453 2084 626 2684 
Q 800 3284 1012 3643 
Q 1225 4003 1453 4206 
Q 1681 4409 1901 4504 
Q 2122 4600 2391 4600 
Q 2916 4600 3267 4209 
Q 3619 3819 3619 3081 
Q 3619 2322 3375 1578 
Q 3088 697 2575 256 
Q 2181 -78 1678 -78 
Q 1163 -78 808 326 
Q 453 731 453 1503 
z
M 1000 1359 
Q 1000 938 1141 700 
Q 1331 372 1706 372 
Q 2034 372 2303 669 
Q 2691 1088 2886 1895 
Q 3081 2703 3081 3216 
Q 3081 3709 2892 3928 
Q 2703 4147 2394 4147 
Q 2169 4147 1973 4031 
Q 1778 3916 1600 3634 
Q 1347 3238 1159 2447 
Q 1000 1772 1000 1359 
z
" transform="scale(0.015625)"/>
      <path id="Arial-ItalicMT-6a" d="M 1016 3941 
L 1150 4581 
L 1709 4581 
L 1575 3941 
L 1016 3941 
z
M -775 -1247 
L -675 -766 
Q -481 -819 -331 -819 
Q -150 -819 -42 -698 
Q 66 -578 181 -31 
L 878 3319 
L 1444 3319 
L 725 -134 
Q 591 -781 416 -1016 
Q 181 -1328 -238 -1328 
Q -459 -1328 -775 -1247 
z
" transform="scale(0.015625)"/>
      <path id="Arial-ItalicMT-75" d="M 2478 600 
Q 1881 -75 1256 -75 
Q 872 -75 636 145 
Q 400 366 400 684 
Q 400 894 506 1403 
L 906 3319 
L 1472 3319 
L 1028 1197 
Q 972 931 972 784 
Q 972 597 1086 492 
Q 1200 388 1422 388 
Q 1659 388 1886 503 
Q 2113 619 2277 816 
Q 2441 1013 2544 1281 
Q 2613 1453 2703 1884 
L 3003 3319 
L 3569 3319 
L 2875 0 
L 2353 0 
L 2478 600 
z
" transform="scale(0.015625)"/>
      <path id="Arial-ItalicMT-72" d="M 213 0 
L 906 3319 
L 1406 3319 
L 1266 2641 
Q 1522 3025 1767 3209 
Q 2013 3394 2269 3394 
Q 2438 3394 2684 3272 
L 2453 2747 
Q 2306 2853 2131 2853 
Q 1834 2853 1521 2522 
Q 1209 2191 1031 1331 
L 750 0 
L 213 0 
z
" transform="scale(0.015625)"/>
      <path id="Arial-ItalicMT-73" d="M 266 1134 
L 831 1169 
Q 831 925 906 753 
Q 981 581 1182 472 
Q 1384 363 1653 363 
Q 2028 363 2215 513 
Q 2403 663 2403 866 
Q 2403 1013 2291 1144 
Q 2175 1275 1726 1467 
Q 1278 1659 1153 1738 
Q 944 1866 837 2039 
Q 731 2213 731 2438 
Q 731 2831 1043 3112 
Q 1356 3394 1919 3394 
Q 2544 3394 2870 3105 
Q 3197 2816 3209 2344 
L 2656 2306 
Q 2644 2606 2444 2781 
Q 2244 2956 1878 2956 
Q 1584 2956 1421 2822 
Q 1259 2688 1259 2531 
Q 1259 2375 1400 2256 
Q 1494 2175 1884 2006 
Q 2534 1725 2703 1563 
Q 2972 1303 2972 931 
Q 2972 684 2820 446 
Q 2669 209 2358 67 
Q 2047 -75 1625 -75 
Q 1050 -75 647 209 
Q 244 494 266 1134 
z
" transform="scale(0.015625)"/>
      <path id="Arial-ItalicMT-e0" d="M 2450 413 
Q 2156 159 1884 42 
Q 1613 -75 1303 -75 
Q 844 -75 562 195 
Q 281 466 281 888 
Q 281 1166 407 1380 
Q 534 1594 743 1723 
Q 953 1853 1256 1909 
Q 1447 1947 1980 1969 
Q 2513 1991 2744 2081 
Q 2809 2313 2809 2466 
Q 2809 2663 2666 2775 
Q 2469 2931 2091 2931 
Q 1734 2931 1507 2773 
Q 1281 2616 1178 2325 
L 606 2375 
Q 781 2869 1161 3131 
Q 1541 3394 2119 3394 
Q 2734 3394 3094 3100 
Q 3369 2881 3369 2531 
Q 3369 2266 3291 1916 
L 3106 1091 
Q 3019 697 3019 450 
Q 3019 294 3088 0 
L 2516 0 
Q 2469 163 2450 413 
z
M 2659 1681 
Q 2541 1634 2405 1609 
Q 2269 1584 1950 1556 
Q 1456 1513 1253 1445 
Q 1050 1378 947 1231 
Q 844 1084 844 906 
Q 844 669 1008 516 
Q 1172 363 1475 363 
Q 1756 363 2015 511 
Q 2275 659 2425 925 
Q 2575 1191 2659 1681 
z
M 2397 3722 
L 1787 4581 
L 2475 4581 
L 2837 3722 
L 2397 3722 
z
" transform="scale(0.015625)"/>
      <path id="Arial-ItalicMT-32" d="M 375 0 
Q 463 409 617 686 
Q 772 963 1028 1211 
Q 1284 1459 2016 2044 
Q 2459 2397 2622 2566 
Q 2856 2809 2963 3044 
Q 3034 3203 3034 3391 
Q 3034 3706 2811 3926 
Q 2588 4147 2263 4147 
Q 1941 4147 1700 3923 
Q 1459 3700 1356 3206 
L 803 3288 
Q 884 3897 1276 4248 
Q 1669 4600 2253 4600 
Q 2644 4600 2961 4437 
Q 3278 4275 3437 3981 
Q 3597 3688 3597 3375 
Q 3597 2919 3272 2497 
Q 3072 2234 2097 1463 
Q 1678 1131 1473 918 
Q 1269 706 1166 519 
L 3216 519 
L 3106 0 
L 375 0 
z
" transform="scale(0.015625)"/>
      <path id="Arial-ItalicMT-35" d="M 447 1309 
L 1022 1366 
Q 1016 1244 1016 1219 
Q 1016 1013 1120 803 
Q 1225 594 1404 483 
Q 1584 372 1784 372 
Q 2047 372 2319 553 
Q 2591 734 2759 1081 
Q 2928 1428 2928 1769 
Q 2928 2153 2701 2384 
Q 2475 2616 2106 2616 
Q 1859 2616 1639 2497 
Q 1419 2378 1228 2141 
L 734 2175 
L 1425 4519 
L 3663 4519 
L 3553 4000 
L 1813 4000 
L 1469 2834 
Q 1663 2975 1867 3045 
Q 2072 3116 2288 3116 
Q 2813 3116 3150 2769 
Q 3488 2422 3488 1819 
Q 3488 1291 3256 845 
Q 3025 400 2620 161 
Q 2216 -78 1747 -78 
Q 1353 -78 1050 100 
Q 747 278 595 590 
Q 444 903 444 1216 
Q 444 1247 447 1309 
z
" transform="scale(0.015625)"/>
      <path id="Arial-ItalicMT-b0" d="M 853 3794 
Q 853 4153 1108 4406 
Q 1363 4659 1719 4659 
Q 2081 4659 2334 4406 
Q 2588 4153 2588 3794 
Q 2588 3434 2333 3179 
Q 2078 2925 1719 2925 
Q 1363 2925 1108 3178 
Q 853 3431 853 3794 
z
M 1194 3794 
Q 1194 3575 1348 3420 
Q 1503 3266 1722 3266 
Q 1938 3266 2092 3420 
Q 2247 3575 2247 3794 
Q 2247 4013 2092 4167 
Q 1938 4322 1722 4322 
Q 1503 4322 1348 4167 
Q 1194 4013 1194 3794 
z
" transform="scale(0.015625)"/>
     </defs>
     <use xlink:href="#Arial-ItalicMT-43"/>
     <use xlink:href="#Arial-ItalicMT-79" transform="translate(72.216797 0)"/>
     <use xlink:href="#Arial-ItalicMT-63" transform="translate(122.216797 0)"/>
     <use xlink:href="#Arial-ItalicMT-6c" transform="translate(172.216797 0)"/>
     <use xlink:href="#Arial-ItalicMT-65" transform="translate(194.433594 0)"/>
     <use xlink:href="#Arial-ItalicMT-20" transform="translate(250.048828 0)"/>
     <use xlink:href="#Arial-ItalicMT-63" transform="translate(277.832031 0)"/>
     <use xlink:href="#Arial-ItalicMT-6f" transform="translate(327.832031 0)"/>
     <use xlink:href="#Arial-ItalicMT-6d" transform="translate(383.447266 0)"/>
     <use xlink:href="#Arial-ItalicMT-70" transform="translate(466.748047 0)"/>
     <use xlink:href="#Arial-ItalicMT-6c" transform="translate(522.363281 0)"/>
     <use xlink:href="#Arial-ItalicMT-65" transform="translate(544.580078 0)"/>
     <use xlink:href="#Arial-ItalicMT-74" transform="translate(600.195312 0)"/>
     <use xlink:href="#Arial-ItalicMT-3a" transform="translate(627.978516 0)"/>
     <use xlink:href="#Arial-ItalicMT-20" transform="translate(655.761719 0)"/>
     <use xlink:href="#Arial-ItalicMT-7e" transform="translate(683.544922 0)"/>
     <use xlink:href="#Arial-ItalicMT-31" transform="translate(741.943359 0)"/>
     <use xlink:href="#Arial-ItalicMT-30" transform="translate(797.558594 0)"/>
     <use xlink:href="#Arial-ItalicMT-20" transform="translate(853.173828 0)"/>
     <use xlink:href="#Arial-ItalicMT-6a" transform="translate(880.957031 0)"/>
     <use xlink:href="#Arial-ItalicMT-6f" transform="translate(903.173828 0)"/>
     <use xlink:href="#Arial-ItalicMT-75" transform="translate(958.789062 0)"/>
     <use xlink:href="#Arial-ItalicMT-72" transform="translate(1014.404297 0)"/>
     <use xlink:href="#Arial-ItalicMT-73" transform="translate(1047.705078 0)"/>
     <use xlink:href="#Arial-ItalicMT-20" transform="translate(1097.705078 0)"/>
     <use xlink:href="#Arial-ItalicMT-e0" transform="translate(1125.488281 0)"/>
     <use xlink:href="#Arial-ItalicMT-20" transform="translate(1181.103516 0)"/>
     <use xlink:href="#Arial-ItalicMT-32" transform="translate(1208.886719 0)"/>
     <use xlink:href="#Arial-ItalicMT-35" transform="translate(1264.501953 0)"/>
     <use xlink:href="#Arial-ItalicMT-b0" transform="translate(1320.117188 0)"/>
     <use xlink:href="#Arial-ItalicMT-43" transform="translate(1360.107422 0)"/>
    </g>
    <!-- Métamorphose complète (holométabole) -->
    <g style="fill: #262626" transform="translate(243.262969 73.919984) scale(0.11 -0.11)">
     <defs>
      <path id="Arial-ItalicMT-4d" d="M 281 0 
L 1238 4581 
L 1991 4581 
L 2453 1613 
Q 2544 1028 2572 491 
Q 2763 953 3209 1744 
L 4816 4581 
L 5581 4581 
L 4625 0 
L 4022 0 
L 4500 2228 
Q 4666 3000 4975 3959 
Q 4778 3513 4488 2997 
L 2781 0 
L 2191 0 
L 1731 2938 
Q 1669 3341 1641 3878 
Q 1563 3275 1488 2922 
L 878 0 
L 281 0 
z
" transform="scale(0.015625)"/>
      <path id="Arial-ItalicMT-e9" d="M 2650 1128 
L 3200 1072 
Q 3081 663 2654 294 
Q 2228 -75 1638 -75 
Q 1269 -75 961 95 
Q 653 266 492 591 
Q 331 916 331 1331 
Q 331 1875 582 2386 
Q 834 2897 1234 3145 
Q 1634 3394 2100 3394 
Q 2694 3394 3048 3025 
Q 3403 2656 3403 2019 
Q 3403 1775 3359 1519 
L 916 1519 
Q 903 1422 903 1344 
Q 903 878 1117 633 
Q 1331 388 1641 388 
Q 1931 388 2212 578 
Q 2494 769 2650 1128 
z
M 1006 1950 
L 2869 1950 
Q 2872 2038 2872 2075 
Q 2872 2500 2659 2726 
Q 2447 2953 2113 2953 
Q 1750 2953 1451 2703 
Q 1153 2453 1006 1950 
z
M 1785 3722 
L 2373 4581 
L 3085 4581 
L 2254 3722 
L 1785 3722 
z
" transform="scale(0.015625)"/>
      <path id="Arial-ItalicMT-61" d="M 2450 413 
Q 2156 159 1884 42 
Q 1613 -75 1303 -75 
Q 844 -75 562 195 
Q 281 466 281 888 
Q 281 1166 407 1380 
Q 534 1594 743 1723 
Q 953 1853 1256 1909 
Q 1447 1947 1980 1969 
Q 2513 1991 2744 2081 
Q 2809 2313 2809 2466 
Q 2809 2663 2666 2775 
Q 2469 2931 2091 2931 
Q 1734 2931 1507 2773 
Q 1281 2616 1178 2325 
L 606 2375 
Q 781 2869 1161 3131 
Q 1541 3394 2119 3394 
Q 2734 3394 3094 3100 
Q 3369 2881 3369 2531 
Q 3369 2266 3291 1916 
L 3106 1091 
Q 3019 697 3019 450 
Q 3019 294 3088 0 
L 2516 0 
Q 2469 163 2450 413 
z
M 2659 1681 
Q 2541 1634 2405 1609 
Q 2269 1584 1950 1556 
Q 1456 1513 1253 1445 
Q 1050 1378 947 1231 
Q 844 1084 844 906 
Q 844 669 1008 516 
Q 1172 363 1475 363 
Q 1756 363 2015 511 
Q 2275 659 2425 925 
Q 2575 1191 2659 1681 
z
" transform="scale(0.015625)"/>
      <path id="Arial-ItalicMT-68" d="M 213 0 
L 1169 4581 
L 1734 4581 
L 1369 2822 
Q 1684 3128 1956 3261 
Q 2228 3394 2516 3394 
Q 2928 3394 3156 3176 
Q 3384 2959 3384 2603 
Q 3384 2428 3284 1959 
L 2875 0 
L 2309 0 
L 2731 2009 
Q 2822 2447 2822 2559 
Q 2822 2722 2709 2825 
Q 2597 2928 2384 2928 
Q 2078 2928 1800 2767 
Q 1522 2606 1364 2326 
Q 1206 2047 1075 1425 
L 778 0 
L 213 0 
z
" transform="scale(0.015625)"/>
      <path id="Arial-ItalicMT-e8" d="M 2650 1128 
L 3200 1072 
Q 3081 663 2654 294 
Q 2228 -75 1638 -75 
Q 1269 -75 961 95 
Q 653 266 492 591 
Q 331 916 331 1331 
Q 331 1875 582 2386 
Q 834 2897 1234 3145 
Q 1634 3394 2100 3394 
Q 2694 3394 3048 3025 
Q 3403 2656 3403 2019 
Q 3403 1775 3359 1519 
L 916 1519 
Q 903 1422 903 1344 
Q 903 878 1117 633 
Q 1331 388 1641 388 
Q 1931 388 2212 578 
Q 2494 769 2650 1128 
z
M 1006 1950 
L 2869 1950 
Q 2872 2038 2872 2075 
Q 2872 2500 2659 2726 
Q 2447 2953 2113 2953 
Q 1750 2953 1451 2703 
Q 1153 2453 1006 1950 
z
M 2397 3722 
L 1787 4581 
L 2475 4581 
L 2837 3722 
L 2397 3722 
z
" transform="scale(0.015625)"/>
      <path id="Arial-ItalicMT-28" d="M 1031 -1347 
Q 541 -272 541 863 
Q 541 1619 739 2270 
Q 938 2922 1344 3559 
Q 1613 3984 2203 4659 
L 2644 4659 
Q 2278 4269 1870 3559 
Q 1463 2850 1278 2165 
Q 1094 1481 1094 791 
Q 1094 -241 1453 -1347 
L 1031 -1347 
z
" transform="scale(0.015625)"/>
      <path id="Arial-ItalicMT-62" d="M 213 0 
L 1169 4581 
L 1734 4581 
L 1394 2944 
Q 1663 3191 1881 3292 
Q 2100 3394 2338 3394 
Q 2803 3394 3114 3047 
Q 3425 2700 3425 2038 
Q 3425 1597 3300 1231 
Q 3175 866 2990 617 
Q 2806 369 2609 220 
Q 2413 72 2206 -1 
Q 2000 -75 1809 -75 
Q 1481 -75 1231 98 
Q 981 272 841 628 
L 709 0 
L 213 0 
z
M 1050 1363 
L 1047 1256 
Q 1047 831 1250 609 
Q 1453 388 1756 388 
Q 2053 388 2301 595 
Q 2550 803 2709 1243 
Q 2869 1684 2869 2056 
Q 2869 2475 2667 2706 
Q 2466 2938 2169 2938 
Q 1863 2938 1606 2702 
Q 1350 2466 1178 1975 
Q 1050 1609 1050 1363 
z
" transform="scale(0.015625)"/>
      <path id="Arial-ItalicMT-29" d="M 1269 4659 
Q 1763 3584 1763 2453 
Q 1763 1694 1564 1044 
Q 1366 394 959 -247 
Q 688 -672 100 -1347 
L -341 -1347 
Q 22 -953 431 -243 
Q 841 466 1023 1148 
Q 1206 1831 1206 2525 
Q 1206 3556 847 4659 
L 1269 4659 
z
" transform="scale(0.015625)"/>
     </defs>
     <use xlink:href="#Arial-ItalicMT-4d"/>
     <use xlink:href="#Arial-ItalicMT-e9" transform="translate(83.300781 0)"/>
     <use xlink:href="#Arial-ItalicMT-74" transform="translate(138.916016 0)"/>
     <use xlink:href="#Arial-ItalicMT-61" transform="translate(166.699219 0)"/>
     <use xlink:href="#Arial-ItalicMT-6d" transform="translate(222.314453 0)"/>
     <use xlink:href="#Arial-ItalicMT-6f" transform="translate(305.615234 0)"/>
     <use xlink:href="#Arial-ItalicMT-72" transform="translate(361.230469 0)"/>
     <use xlink:href="#Arial-ItalicMT-70" transform="translate(394.53125 0)"/>
     <use xlink:href="#Arial-ItalicMT-68" transform="translate(450.146484 0)"/>
     <use xlink:href="#Arial-ItalicMT-6f" transform="translate(505.761719 0)"/>
     <use xlink:href="#Arial-ItalicMT-73" transform="translate(561.376953 0)"/>
     <use xlink:href="#Arial-ItalicMT-65" transform="translate(611.376953 0)"/>
     <use xlink:href="#Arial-ItalicMT-20" transform="translate(666.992188 0)"/>
     <use xlink:href="#Arial-ItalicMT-63" transform="translate(694.775391 0)"/>
     <use xlink:href="#Arial-ItalicMT-6f" transform="translate(744.775391 0)"/>
     <use xlink:href="#Arial-ItalicMT-6d" transform="translate(800.390625 0)"/>
     <use xlink:href="#Arial-ItalicMT-70" transform="translate(883.691406 0)"/>
     <use xlink:href="#Arial-ItalicMT-6c" transform="translate(939.306641 0)"/>
     <use xlink:href="#Arial-ItalicMT-e8" transform="translate(961.523438 0)"/>
     <use xlink:href="#Arial-ItalicMT-74" transform="translate(1017.138672 0)"/>
     <use xlink:href="#Arial-ItalicMT-65" transform="translate(1044.921875 0)"/>
     <use xlink:href="#Arial-ItalicMT-20" transform="translate(1100.537109 0)"/>
     <use xlink:href="#Arial-ItalicMT-28" transform="translate(1128.320312 0)"/>
     <use xlink:href="#Arial-ItalicMT-68" transform="translate(1161.621094 0)"/>
     <use xlink:href="#Arial-ItalicMT-6f" transform="translate(1217.236328 0)"/>
     <use xlink:href="#Arial-ItalicMT-6c" transform="translate(1272.851562 0)"/>
     <use xlink:href="#Arial-ItalicMT-6f" transform="translate(1295.068359 0)"/>
     <use xlink:href="#Arial-ItalicMT-6d" transform="translate(1350.683594 0)"/>
     <use xlink:href="#Arial-ItalicMT-e9" transform="translate(1433.984375 0)"/>
     <use xlink:href="#Arial-ItalicMT-74" transform="translate(1489.599609 0)"/>
     <use xlink:href="#Arial-ItalicMT-61" transform="translate(1517.382812 0)"/>
     <use xlink:href="#Arial-ItalicMT-62" transform="translate(1572.998047 0)"/>
     <use xlink:href="#Arial-ItalicMT-6f" transform="translate(1628.613281 0)"/>
     <use xlink:href="#Arial-ItalicMT-6c" transform="translate(1684.228516 0)"/>
     <use xlink:href="#Arial-ItalicMT-65" transform="translate(1706.445312 0)"/>
     <use xlink:href="#Arial-ItalicMT-29" transform="translate(1762.060547 0)"/>
    </g>
   </g>
   <g id="text_8">
    <!-- Cycle de Vie de Drosophila melanogaster -->
    <g style="fill: #262626" transform="translate(204.807656 17.391562) scale(0.14 -0.14)">
     <defs>
      <path id="Arial-BoldMT-43" d="M 3397 1684 
L 4294 1400 
Q 4088 650 3608 286 
Q 3128 -78 2391 -78 
Q 1478 -78 890 545 
Q 303 1169 303 2250 
Q 303 3394 893 4026 
Q 1484 4659 2447 4659 
Q 3288 4659 3813 4163 
Q 4125 3869 4281 3319 
L 3366 3100 
Q 3284 3456 3026 3662 
Q 2769 3869 2400 3869 
Q 1891 3869 1573 3503 
Q 1256 3138 1256 2319 
Q 1256 1450 1568 1081 
Q 1881 713 2381 713 
Q 2750 713 3015 947 
Q 3281 1181 3397 1684 
z
" transform="scale(0.015625)"/>
      <path id="Arial-BoldMT-79" d="M 44 3319 
L 978 3319 
L 1772 963 
L 2547 3319 
L 3456 3319 
L 2284 125 
L 2075 -453 
Q 1959 -744 1854 -897 
Q 1750 -1050 1614 -1145 
Q 1478 -1241 1279 -1294 
Q 1081 -1347 831 -1347 
Q 578 -1347 334 -1294 
L 256 -606 
Q 463 -647 628 -647 
Q 934 -647 1081 -467 
Q 1228 -288 1306 -9 
L 44 3319 
z
" transform="scale(0.015625)"/>
      <path id="Arial-BoldMT-63" d="M 3353 2338 
L 2488 2181 
Q 2444 2441 2289 2572 
Q 2134 2703 1888 2703 
Q 1559 2703 1364 2476 
Q 1169 2250 1169 1719 
Q 1169 1128 1367 884 
Q 1566 641 1900 641 
Q 2150 641 2309 783 
Q 2469 925 2534 1272 
L 3397 1125 
Q 3263 531 2881 228 
Q 2500 -75 1859 -75 
Q 1131 -75 698 384 
Q 266 844 266 1656 
Q 266 2478 700 2936 
Q 1134 3394 1875 3394 
Q 2481 3394 2839 3133 
Q 3197 2872 3353 2338 
z
" transform="scale(0.015625)"/>
      <path id="Arial-BoldMT-56" d="M 1634 0 
L -3 4581 
L 1000 4581 
L 2159 1191 
L 3281 4581 
L 4263 4581 
L 2622 0 
L 1634 0 
z
" transform="scale(0.015625)"/>
      <path id="Arial-BoldMT-69" d="M 459 3769 
L 459 4581 
L 1338 4581 
L 1338 3769 
L 459 3769 
z
M 459 0 
L 459 3319 
L 1338 3319 
L 1338 0 
L 459 0 
z
" transform="scale(0.015625)"/>
      <path id="Arial-BoldMT-44" d="M 463 4581 
L 2153 4581 
Q 2725 4581 3025 4494 
Q 3428 4375 3715 4072 
Q 4003 3769 4153 3330 
Q 4303 2891 4303 2247 
Q 4303 1681 4163 1272 
Q 3991 772 3672 463 
Q 3431 228 3022 97 
Q 2716 0 2203 0 
L 463 0 
L 463 4581 
z
M 1388 3806 
L 1388 772 
L 2078 772 
Q 2466 772 2638 816 
Q 2863 872 3011 1006 
Q 3159 1141 3253 1448 
Q 3347 1756 3347 2288 
Q 3347 2819 3253 3103 
Q 3159 3388 2990 3547 
Q 2822 3706 2563 3763 
Q 2369 3806 1803 3806 
L 1388 3806 
z
" transform="scale(0.015625)"/>
      <path id="Arial-BoldMT-6e" d="M 3478 0 
L 2600 0 
L 2600 1694 
Q 2600 2231 2544 2389 
Q 2488 2547 2361 2634 
Q 2234 2722 2056 2722 
Q 1828 2722 1647 2597 
Q 1466 2472 1398 2265 
Q 1331 2059 1331 1503 
L 1331 0 
L 453 0 
L 453 3319 
L 1269 3319 
L 1269 2831 
Q 1703 3394 2363 3394 
Q 2653 3394 2893 3289 
Q 3134 3184 3257 3021 
Q 3381 2859 3429 2653 
Q 3478 2447 3478 2063 
L 3478 0 
z
" transform="scale(0.015625)"/>
     </defs>
     <use xlink:href="#Arial-BoldMT-43"/>
     <use xlink:href="#Arial-BoldMT-79" transform="translate(72.216797 0)"/>
     <use xlink:href="#Arial-BoldMT-63" transform="translate(127.832031 0)"/>
     <use xlink:href="#Arial-BoldMT-6c" transform="translate(183.447266 0)"/>
     <use xlink:href="#Arial-BoldMT-65" transform="translate(211.230469 0)"/>
     <use xlink:href="#Arial-BoldMT-20" transform="translate(266.845703 0)"/>
     <use xlink:href="#Arial-BoldMT-64" transform="translate(294.628906 0)"/>
     <use xlink:href="#Arial-BoldMT-65" transform="translate(355.712891 0)"/>
     <use xlink:href="#Arial-BoldMT-20" transform="translate(411.328125 0)"/>
     <use xlink:href="#Arial-BoldMT-56" transform="translate(439.111328 0)"/>
     <use xlink:href="#Arial-BoldMT-69" transform="translate(504.060547 0)"/>
     <use xlink:href="#Arial-BoldMT-65" transform="translate(531.84375 0)"/>
     <use xlink:href="#Arial-BoldMT-20" transform="translate(587.458984 0)"/>
     <use xlink:href="#Arial-BoldMT-64" transform="translate(615.242188 0)"/>
     <use xlink:href="#Arial-BoldMT-65" transform="translate(676.326172 0)"/>
     <use xlink:href="#Arial-BoldMT-20" transform="translate(731.941406 0)"/>
     <use xlink:href="#Arial-BoldMT-44" transform="translate(759.724609 0)"/>
     <use xlink:href="#Arial-BoldMT-72" transform="translate(831.941406 0)"/>
     <use xlink:href="#Arial-BoldMT-6f" transform="translate(870.857422 0)"/>
     <use xlink:href="#Arial-BoldMT-73" transform="translate(931.941406 0)"/>
     <use xlink:href="#Arial-BoldMT-6f" transform="translate(987.556641 0)"/>
     <use xlink:href="#Arial-BoldMT-70" transform="translate(1048.640625 0)"/>
     <use xlink:href="#Arial-BoldMT-68" transform="translate(1109.724609 0)"/>
     <use xlink:href="#Arial-BoldMT-69" transform="translate(1170.808594 0)"/>
     <use xlink:href="#Arial-BoldMT-6c" transform="translate(1198.591797 0)"/>
     <use xlink:href="#Arial-BoldMT-61" transform="translate(1226.375 0)"/>
     <use xlink:href="#Arial-BoldMT-20" transform="translate(1281.990234 0)"/>
     <use xlink:href="#Arial-BoldMT-6d" transform="translate(1309.773438 0)"/>
     <use xlink:href="#Arial-BoldMT-65" transform="translate(1398.689453 0)"/>
     <use xlink:href="#Arial-BoldMT-6c" transform="translate(1454.304688 0)"/>
     <use xlink:href="#Arial-BoldMT-61" transform="translate(1482.087891 0)"/>
     <use xlink:href="#Arial-BoldMT-6e" transform="translate(1537.703125 0)"/>
     <use xlink:href="#Arial-BoldMT-6f" transform="translate(1598.787109 0)"/>
     <use xlink:href="#Arial-BoldMT-67" transform="translate(1659.871094 0)"/>
     <use xlink:href="#Arial-BoldMT-61" transform="translate(1720.955078 0)"/>
     <use xlink:href="#Arial-BoldMT-73" transform="translate(1776.570312 0)"/>
     <use xlink:href="#Arial-BoldMT-74" transform="translate(1832.185547 0)"/>
     <use xlink:href="#Arial-BoldMT-65" transform="translate(1865.486328 0)"/>
     <use xlink:href="#Arial-BoldMT-72" transform="translate(1921.101562 0)"/>
    </g>
   </g>
  </g>
 </g>
 <defs>
  <clipPath id="pbc22b0ee14">
   <rect x="7.2" y="37.391562" width="669.6" height="443.52"/>
  </clipPath>
 </defs>
</svg>
