<?xml version="1.0" encoding="utf-8" standalone="no"?>
<!DOCTYPE svg PUBLIC "-//W3C//DTD SVG 1.1//EN"
  "http://www.w3.org/Graphics/SVG/1.1/DTD/svg11.dtd">
<svg xmlns:xlink="http://www.w3.org/1999/xlink" width="1000.8pt" height="709.2pt" viewBox="0 0 1000.8 709.2" xmlns="http://www.w3.org/2000/svg" version="1.1">
 <metadata>
  <rdf:RDF xmlns:dc="http://purl.org/dc/elements/1.1/" xmlns:cc="http://creativecommons.org/ns#" xmlns:rdf="http://www.w3.org/1999/02/22-rdf-syntax-ns#">
   <cc:Work>
    <dc:type rdf:resource="http://purl.org/dc/dcmitype/StillImage"/>
    <dc:date>2026-03-31T10:30:14.833972</dc:date>
    <dc:format>image/svg+xml</dc:format>
    <dc:creator>
     <cc:Agent>
      <dc:title>Matplotlib v3.10.8, https://matplotlib.org/</dc:title>
     </cc:Agent>
    </dc:creator>
   </cc:Work>
  </rdf:RDF>
 </metadata>
 <defs>
  <style type="text/css">*{stroke-linejoin: round; stroke-linecap: butt}</style>
 </defs>
 <g id="figure_1">
  <g id="patch_1">
   <path d="M 0 709.2 
L 1000.8 709.2 
L 1000.8 0 
L 0 0 
z
" style="fill: #ffffff"/>
  </g>
  <g id="axes_1">
   <g id="patch_2">
    <path d="M 55.98 233.592 
L 153.54 233.592 
L 153.54 138.516 
L 55.98 138.516 
z
" clip-path="url(#pd2e4f21bba)" style="fill: #dda0dd; stroke: #000000; stroke-linejoin: miter"/>
   </g>
   <g id="patch_3">
    <path d="M 251.1 211.4076 
C 261.449286 211.4076 271.376085 208.736185 278.694135 203.981702 
C 286.012185 199.22722 290.124 192.777853 290.124 186.054 
C 290.124 179.330147 286.012185 172.88078 278.694135 168.126298 
C 271.376085 163.371815 261.449286 160.7004 251.1 160.7004 
C 240.750714 160.7004 230.823915 163.371815 223.505865 168.126298 
C 216.187815 172.88078 212.076 179.330147 212.076 186.054 
C 212.076 192.777853 216.187815 199.22722 223.505865 203.981702 
C 230.823915 208.736185 240.750714 211.4076 251.1 211.4076 
z
" clip-path="url(#pd2e4f21bba)" style="fill: #ff6347; stroke: #ff6347; stroke-linejoin: miter"/>
   </g>
   <g id="patch_4">
    <path d="M 397.44 176.5464 
C 406.495625 176.5464 415.181574 174.208912 421.584868 170.04874 
C 427.988162 165.888568 431.586 160.245372 431.586 154.362 
C 431.586 148.478628 427.988162 142.835432 421.584868 138.67526 
C 415.181574 134.515088 406.495625 132.1776 397.44 132.1776 
C 388.384375 132.1776 379.698426 134.515088 373.295132 138.67526 
C 366.891838 142.835432 363.294 148.478628 363.294 154.362 
C 363.294 160.245372 366.891838 165.888568 373.295132 170.04874 
C 379.698426 174.208912 388.384375 176.5464 397.44 176.5464 
z
" clip-path="url(#pd2e4f21bba)" style="fill: #ff6347; stroke: #ff6347; stroke-linejoin: miter"/>
   </g>
   <g id="patch_5">
    <path d="M 397.44 239.9304 
C 406.495625 239.9304 415.181574 237.592912 421.584868 233.43274 
C 427.988162 229.272568 431.586 223.629372 431.586 217.746 
C 431.586 211.862628 427.988162 206.219432 421.584868 202.05926 
C 415.181574 197.899088 406.495625 195.5616 397.44 195.5616 
C 388.384375 195.5616 379.698426 197.899088 373.295132 202.05926 
C 366.891838 206.219432 363.294 211.862628 363.294 217.746 
C 363.294 223.629372 366.891838 229.272568 373.295132 233.43274 
C 379.698426 237.592912 388.384375 239.9304 397.44 239.9304 
z
" clip-path="url(#pd2e4f21bba)" style="fill: #ffa500; stroke: #ffa500; stroke-linejoin: miter"/>
   </g>
   <g id="text_1">
    <!-- Cap Cell -->
    <g style="fill: #262626" transform="translate(87.503203 188.435484) scale(0.09 -0.09)">
     <defs>
      <path id="ArialMT-43" d="M 3763 1606 
L 4369 1453 
Q 4178 706 3683 314 
Q 3188 -78 2472 -78 
Q 1731 -78 1267 223 
Q 803 525 561 1097 
Q 319 1669 319 2325 
Q 319 3041 592 3573 
Q 866 4106 1370 4382 
Q 1875 4659 2481 4659 
Q 3169 4659 3637 4309 
Q 4106 3959 4291 3325 
L 3694 3184 
Q 3534 3684 3231 3912 
Q 2928 4141 2469 4141 
Q 1941 4141 1586 3887 
Q 1231 3634 1087 3207 
Q 944 2781 944 2328 
Q 944 1744 1114 1308 
Q 1284 872 1643 656 
Q 2003 441 2422 441 
Q 2931 441 3284 734 
Q 3638 1028 3763 1606 
z
" transform="scale(0.015625)"/>
      <path id="ArialMT-61" d="M 2588 409 
Q 2275 144 1986 34 
Q 1697 -75 1366 -75 
Q 819 -75 525 192 
Q 231 459 231 875 
Q 231 1119 342 1320 
Q 453 1522 633 1644 
Q 813 1766 1038 1828 
Q 1203 1872 1538 1913 
Q 2219 1994 2541 2106 
Q 2544 2222 2544 2253 
Q 2544 2597 2384 2738 
Q 2169 2928 1744 2928 
Q 1347 2928 1158 2789 
Q 969 2650 878 2297 
L 328 2372 
Q 403 2725 575 2942 
Q 747 3159 1072 3276 
Q 1397 3394 1825 3394 
Q 2250 3394 2515 3294 
Q 2781 3194 2906 3042 
Q 3031 2891 3081 2659 
Q 3109 2516 3109 2141 
L 3109 1391 
Q 3109 606 3145 398 
Q 3181 191 3288 0 
L 2700 0 
Q 2613 175 2588 409 
z
M 2541 1666 
Q 2234 1541 1622 1453 
Q 1275 1403 1131 1340 
Q 988 1278 909 1158 
Q 831 1038 831 891 
Q 831 666 1001 516 
Q 1172 366 1500 366 
Q 1825 366 2078 508 
Q 2331 650 2450 897 
Q 2541 1088 2541 1459 
L 2541 1666 
z
" transform="scale(0.015625)"/>
      <path id="ArialMT-70" d="M 422 -1272 
L 422 3319 
L 934 3319 
L 934 2888 
Q 1116 3141 1344 3267 
Q 1572 3394 1897 3394 
Q 2322 3394 2647 3175 
Q 2972 2956 3137 2557 
Q 3303 2159 3303 1684 
Q 3303 1175 3120 767 
Q 2938 359 2589 142 
Q 2241 -75 1856 -75 
Q 1575 -75 1351 44 
Q 1128 163 984 344 
L 984 -1272 
L 422 -1272 
z
M 931 1641 
Q 931 1000 1190 694 
Q 1450 388 1819 388 
Q 2194 388 2461 705 
Q 2728 1022 2728 1688 
Q 2728 2322 2467 2637 
Q 2206 2953 1844 2953 
Q 1484 2953 1207 2617 
Q 931 2281 931 1641 
z
" transform="scale(0.015625)"/>
      <path id="ArialMT-20" transform="scale(0.015625)"/>
      <path id="ArialMT-65" d="M 2694 1069 
L 3275 997 
Q 3138 488 2766 206 
Q 2394 -75 1816 -75 
Q 1088 -75 661 373 
Q 234 822 234 1631 
Q 234 2469 665 2931 
Q 1097 3394 1784 3394 
Q 2450 3394 2872 2941 
Q 3294 2488 3294 1666 
Q 3294 1616 3291 1516 
L 816 1516 
Q 847 969 1125 678 
Q 1403 388 1819 388 
Q 2128 388 2347 550 
Q 2566 713 2694 1069 
z
M 847 1978 
L 2700 1978 
Q 2663 2397 2488 2606 
Q 2219 2931 1791 2931 
Q 1403 2931 1139 2672 
Q 875 2413 847 1978 
z
" transform="scale(0.015625)"/>
      <path id="ArialMT-6c" d="M 409 0 
L 409 4581 
L 972 4581 
L 972 0 
L 409 0 
z
" transform="scale(0.015625)"/>
     </defs>
     <use xlink:href="#ArialMT-43"/>
     <use xlink:href="#ArialMT-61" transform="translate(72.216797 0)"/>
     <use xlink:href="#ArialMT-70" transform="translate(127.832031 0)"/>
     <use xlink:href="#ArialMT-20" transform="translate(183.447266 0)"/>
     <use xlink:href="#ArialMT-43" transform="translate(211.230469 0)"/>
     <use xlink:href="#ArialMT-65" transform="translate(283.447266 0)"/>
     <use xlink:href="#ArialMT-6c" transform="translate(339.0625 0)"/>
     <use xlink:href="#ArialMT-6c" transform="translate(361.279297 0)"/>
    </g>
   </g>
   <g id="text_2">
    <!-- GSC -->
    <g style="fill: #ffffff" transform="translate(241.348359 188.386969) scale(0.09 -0.09)">
     <defs>
      <path id="Arial-BoldMT-47" d="M 2597 1684 
L 2597 2456 
L 4591 2456 
L 4591 631 
Q 4300 350 3748 136 
Q 3197 -78 2631 -78 
Q 1913 -78 1378 223 
Q 844 525 575 1086 
Q 306 1647 306 2306 
Q 306 3022 606 3578 
Q 906 4134 1484 4431 
Q 1925 4659 2581 4659 
Q 3434 4659 3914 4301 
Q 4394 3944 4531 3313 
L 3613 3141 
Q 3516 3478 3248 3673 
Q 2981 3869 2581 3869 
Q 1975 3869 1617 3484 
Q 1259 3100 1259 2344 
Q 1259 1528 1621 1120 
Q 1984 713 2572 713 
Q 2863 713 3155 827 
Q 3447 941 3656 1103 
L 3656 1684 
L 2597 1684 
z
" transform="scale(0.015625)"/>
      <path id="Arial-BoldMT-53" d="M 231 1491 
L 1131 1578 
Q 1213 1125 1461 912 
Q 1709 700 2131 700 
Q 2578 700 2804 889 
Q 3031 1078 3031 1331 
Q 3031 1494 2936 1608 
Q 2841 1722 2603 1806 
Q 2441 1863 1863 2006 
Q 1119 2191 819 2459 
Q 397 2838 397 3381 
Q 397 3731 595 4036 
Q 794 4341 1167 4500 
Q 1541 4659 2069 4659 
Q 2931 4659 3367 4281 
Q 3803 3903 3825 3272 
L 2900 3231 
Q 2841 3584 2645 3739 
Q 2450 3894 2059 3894 
Q 1656 3894 1428 3728 
Q 1281 3622 1281 3444 
Q 1281 3281 1419 3166 
Q 1594 3019 2269 2859 
Q 2944 2700 3267 2529 
Q 3591 2359 3773 2064 
Q 3956 1769 3956 1334 
Q 3956 941 3737 597 
Q 3519 253 3119 86 
Q 2719 -81 2122 -81 
Q 1253 -81 787 320 
Q 322 722 231 1491 
z
" transform="scale(0.015625)"/>
      <path id="Arial-BoldMT-43" d="M 3397 1684 
L 4294 1400 
Q 4088 650 3608 286 
Q 3128 -78 2391 -78 
Q 1478 -78 890 545 
Q 303 1169 303 2250 
Q 303 3394 893 4026 
Q 1484 4659 2447 4659 
Q 3288 4659 3813 4163 
Q 4125 3869 4281 3319 
L 3366 3100 
Q 3284 3456 3026 3662 
Q 2769 3869 2400 3869 
Q 1891 3869 1573 3503 
Q 1256 3138 1256 2319 
Q 1256 1450 1568 1081 
Q 1881 713 2381 713 
Q 2750 713 3015 947 
Q 3281 1181 3397 1684 
z
" transform="scale(0.015625)"/>
     </defs>
     <use xlink:href="#Arial-BoldMT-47"/>
     <use xlink:href="#Arial-BoldMT-53" transform="translate(77.783203 0)"/>
     <use xlink:href="#Arial-BoldMT-43" transform="translate(144.482422 0)"/>
    </g>
   </g>
   <g id="patch_6">
    <path d="M 292.121169 186.054 
Q 319.391562 186.054 344.425886 186.054 
" style="fill: none; stroke: #0000ff; stroke-width: 2; stroke-linecap: round"/>
    <path d="M 340.425886 184.054 
L 344.425886 186.054 
L 340.425886 188.054 
" style="fill: none; stroke: #0000ff; stroke-width: 2; stroke-linecap: round"/>
   </g>
   <g id="text_3">
    <!-- GSC -->
    <g style="fill: #ffffff" transform="translate(388.771875 156.430125) scale(0.08 -0.08)">
     <defs>
      <path id="ArialMT-47" d="M 2638 1797 
L 2638 2334 
L 4578 2338 
L 4578 638 
Q 4131 281 3656 101 
Q 3181 -78 2681 -78 
Q 2006 -78 1454 211 
Q 903 500 622 1047 
Q 341 1594 341 2269 
Q 341 2938 620 3517 
Q 900 4097 1425 4378 
Q 1950 4659 2634 4659 
Q 3131 4659 3532 4498 
Q 3934 4338 4162 4050 
Q 4391 3763 4509 3300 
L 3963 3150 
Q 3859 3500 3706 3700 
Q 3553 3900 3268 4020 
Q 2984 4141 2638 4141 
Q 2222 4141 1919 4014 
Q 1616 3888 1430 3681 
Q 1244 3475 1141 3228 
Q 966 2803 966 2306 
Q 966 1694 1177 1281 
Q 1388 869 1791 669 
Q 2194 469 2647 469 
Q 3041 469 3416 620 
Q 3791 772 3984 944 
L 3984 1797 
L 2638 1797 
z
" transform="scale(0.015625)"/>
      <path id="ArialMT-53" d="M 288 1472 
L 859 1522 
Q 900 1178 1048 958 
Q 1197 738 1509 602 
Q 1822 466 2213 466 
Q 2559 466 2825 569 
Q 3091 672 3220 851 
Q 3350 1031 3350 1244 
Q 3350 1459 3225 1620 
Q 3100 1781 2813 1891 
Q 2628 1963 1997 2114 
Q 1366 2266 1113 2400 
Q 784 2572 623 2826 
Q 463 3081 463 3397 
Q 463 3744 659 4045 
Q 856 4347 1234 4503 
Q 1613 4659 2075 4659 
Q 2584 4659 2973 4495 
Q 3363 4331 3572 4012 
Q 3781 3694 3797 3291 
L 3216 3247 
Q 3169 3681 2898 3903 
Q 2628 4125 2100 4125 
Q 1550 4125 1298 3923 
Q 1047 3722 1047 3438 
Q 1047 3191 1225 3031 
Q 1400 2872 2139 2705 
Q 2878 2538 3153 2413 
Q 3553 2228 3743 1945 
Q 3934 1663 3934 1294 
Q 3934 928 3725 604 
Q 3516 281 3123 101 
Q 2731 -78 2241 -78 
Q 1619 -78 1198 103 
Q 778 284 539 648 
Q 300 1013 288 1472 
z
" transform="scale(0.015625)"/>
     </defs>
     <use xlink:href="#ArialMT-47"/>
     <use xlink:href="#ArialMT-53" transform="translate(77.783203 0)"/>
     <use xlink:href="#ArialMT-43" transform="translate(144.482422 0)"/>
    </g>
   </g>
   <g id="text_4">
    <!-- Cystoblaste -->
    <g style="fill: #ffffff" transform="translate(376.5425 219.816) scale(0.08 -0.08)">
     <defs>
      <path id="ArialMT-79" d="M 397 -1278 
L 334 -750 
Q 519 -800 656 -800 
Q 844 -800 956 -737 
Q 1069 -675 1141 -563 
Q 1194 -478 1313 -144 
Q 1328 -97 1363 -6 
L 103 3319 
L 709 3319 
L 1400 1397 
Q 1534 1031 1641 628 
Q 1738 1016 1872 1384 
L 2581 3319 
L 3144 3319 
L 1881 -56 
Q 1678 -603 1566 -809 
Q 1416 -1088 1222 -1217 
Q 1028 -1347 759 -1347 
Q 597 -1347 397 -1278 
z
" transform="scale(0.015625)"/>
      <path id="ArialMT-73" d="M 197 991 
L 753 1078 
Q 800 744 1014 566 
Q 1228 388 1613 388 
Q 2000 388 2187 545 
Q 2375 703 2375 916 
Q 2375 1106 2209 1216 
Q 2094 1291 1634 1406 
Q 1016 1563 777 1677 
Q 538 1791 414 1992 
Q 291 2194 291 2438 
Q 291 2659 392 2848 
Q 494 3038 669 3163 
Q 800 3259 1026 3326 
Q 1253 3394 1513 3394 
Q 1903 3394 2198 3281 
Q 2494 3169 2634 2976 
Q 2775 2784 2828 2463 
L 2278 2388 
Q 2241 2644 2061 2787 
Q 1881 2931 1553 2931 
Q 1166 2931 1000 2803 
Q 834 2675 834 2503 
Q 834 2394 903 2306 
Q 972 2216 1119 2156 
Q 1203 2125 1616 2013 
Q 2213 1853 2448 1751 
Q 2684 1650 2818 1456 
Q 2953 1263 2953 975 
Q 2953 694 2789 445 
Q 2625 197 2315 61 
Q 2006 -75 1616 -75 
Q 969 -75 630 194 
Q 291 463 197 991 
z
" transform="scale(0.015625)"/>
      <path id="ArialMT-74" d="M 1650 503 
L 1731 6 
Q 1494 -44 1306 -44 
Q 1000 -44 831 53 
Q 663 150 594 308 
Q 525 466 525 972 
L 525 2881 
L 113 2881 
L 113 3319 
L 525 3319 
L 525 4141 
L 1084 4478 
L 1084 3319 
L 1650 3319 
L 1650 2881 
L 1084 2881 
L 1084 941 
Q 1084 700 1114 631 
Q 1144 563 1211 522 
Q 1278 481 1403 481 
Q 1497 481 1650 503 
z
" transform="scale(0.015625)"/>
      <path id="ArialMT-6f" d="M 213 1659 
Q 213 2581 725 3025 
Q 1153 3394 1769 3394 
Q 2453 3394 2887 2945 
Q 3322 2497 3322 1706 
Q 3322 1066 3130 698 
Q 2938 331 2570 128 
Q 2203 -75 1769 -75 
Q 1072 -75 642 372 
Q 213 819 213 1659 
z
M 791 1659 
Q 791 1022 1069 705 
Q 1347 388 1769 388 
Q 2188 388 2466 706 
Q 2744 1025 2744 1678 
Q 2744 2294 2464 2611 
Q 2184 2928 1769 2928 
Q 1347 2928 1069 2612 
Q 791 2297 791 1659 
z
" transform="scale(0.015625)"/>
      <path id="ArialMT-62" d="M 941 0 
L 419 0 
L 419 4581 
L 981 4581 
L 981 2947 
Q 1338 3394 1891 3394 
Q 2197 3394 2470 3270 
Q 2744 3147 2920 2923 
Q 3097 2700 3197 2384 
Q 3297 2069 3297 1709 
Q 3297 856 2875 390 
Q 2453 -75 1863 -75 
Q 1275 -75 941 416 
L 941 0 
z
M 934 1684 
Q 934 1088 1097 822 
Q 1363 388 1816 388 
Q 2184 388 2453 708 
Q 2722 1028 2722 1663 
Q 2722 2313 2464 2622 
Q 2206 2931 1841 2931 
Q 1472 2931 1203 2611 
Q 934 2291 934 1684 
z
" transform="scale(0.015625)"/>
     </defs>
     <use xlink:href="#ArialMT-43"/>
     <use xlink:href="#ArialMT-79" transform="translate(72.216797 0)"/>
     <use xlink:href="#ArialMT-73" transform="translate(122.216797 0)"/>
     <use xlink:href="#ArialMT-74" transform="translate(172.216797 0)"/>
     <use xlink:href="#ArialMT-6f" transform="translate(200 0)"/>
     <use xlink:href="#ArialMT-62" transform="translate(255.615234 0)"/>
     <use xlink:href="#ArialMT-6c" transform="translate(311.230469 0)"/>
     <use xlink:href="#ArialMT-61" transform="translate(333.447266 0)"/>
     <use xlink:href="#ArialMT-73" transform="translate(389.0625 0)"/>
     <use xlink:href="#ArialMT-74" transform="translate(439.0625 0)"/>
     <use xlink:href="#ArialMT-65" transform="translate(466.845703 0)"/>
    </g>
   </g>
   <g id="text_5">
    <!-- 1. Division GSC -->
    <g style="fill: #262626" transform="translate(210.147344 37.44) scale(0.11 -0.11)">
     <defs>
      <path id="Arial-BoldMT-31" d="M 2519 0 
L 1641 0 
L 1641 3309 
Q 1159 2859 506 2644 
L 506 3441 
Q 850 3553 1253 3867 
Q 1656 4181 1806 4600 
L 2519 4600 
L 2519 0 
z
" transform="scale(0.015625)"/>
      <path id="Arial-BoldMT-2e" d="M 459 0 
L 459 878 
L 1338 878 
L 1338 0 
L 459 0 
z
" transform="scale(0.015625)"/>
      <path id="Arial-BoldMT-20" transform="scale(0.015625)"/>
      <path id="Arial-BoldMT-44" d="M 463 4581 
L 2153 4581 
Q 2725 4581 3025 4494 
Q 3428 4375 3715 4072 
Q 4003 3769 4153 3330 
Q 4303 2891 4303 2247 
Q 4303 1681 4163 1272 
Q 3991 772 3672 463 
Q 3431 228 3022 97 
Q 2716 0 2203 0 
L 463 0 
L 463 4581 
z
M 1388 3806 
L 1388 772 
L 2078 772 
Q 2466 772 2638 816 
Q 2863 872 3011 1006 
Q 3159 1141 3253 1448 
Q 3347 1756 3347 2288 
Q 3347 2819 3253 3103 
Q 3159 3388 2990 3547 
Q 2822 3706 2563 3763 
Q 2369 3806 1803 3806 
L 1388 3806 
z
" transform="scale(0.015625)"/>
      <path id="Arial-BoldMT-69" d="M 459 3769 
L 459 4581 
L 1338 4581 
L 1338 3769 
L 459 3769 
z
M 459 0 
L 459 3319 
L 1338 3319 
L 1338 0 
L 459 0 
z
" transform="scale(0.015625)"/>
      <path id="Arial-BoldMT-76" d="M 1372 0 
L 34 3319 
L 956 3319 
L 1581 1625 
L 1763 1059 
Q 1834 1275 1853 1344 
Q 1897 1484 1947 1625 
L 2578 3319 
L 3481 3319 
L 2163 0 
L 1372 0 
z
" transform="scale(0.015625)"/>
      <path id="Arial-BoldMT-73" d="M 150 947 
L 1031 1081 
Q 1088 825 1259 692 
Q 1431 559 1741 559 
Q 2081 559 2253 684 
Q 2369 772 2369 919 
Q 2369 1019 2306 1084 
Q 2241 1147 2013 1200 
Q 950 1434 666 1628 
Q 272 1897 272 2375 
Q 272 2806 612 3100 
Q 953 3394 1669 3394 
Q 2350 3394 2681 3172 
Q 3013 2950 3138 2516 
L 2309 2363 
Q 2256 2556 2107 2659 
Q 1959 2763 1684 2763 
Q 1338 2763 1188 2666 
Q 1088 2597 1088 2488 
Q 1088 2394 1175 2328 
Q 1294 2241 1995 2081 
Q 2697 1922 2975 1691 
Q 3250 1456 3250 1038 
Q 3250 581 2869 253 
Q 2488 -75 1741 -75 
Q 1063 -75 667 200 
Q 272 475 150 947 
z
" transform="scale(0.015625)"/>
      <path id="Arial-BoldMT-6f" d="M 256 1706 
Q 256 2144 472 2553 
Q 688 2963 1083 3178 
Q 1478 3394 1966 3394 
Q 2719 3394 3200 2905 
Q 3681 2416 3681 1669 
Q 3681 916 3195 420 
Q 2709 -75 1972 -75 
Q 1516 -75 1102 131 
Q 688 338 472 736 
Q 256 1134 256 1706 
z
M 1156 1659 
Q 1156 1166 1390 903 
Q 1625 641 1969 641 
Q 2313 641 2545 903 
Q 2778 1166 2778 1666 
Q 2778 2153 2545 2415 
Q 2313 2678 1969 2678 
Q 1625 2678 1390 2415 
Q 1156 2153 1156 1659 
z
" transform="scale(0.015625)"/>
      <path id="Arial-BoldMT-6e" d="M 3478 0 
L 2600 0 
L 2600 1694 
Q 2600 2231 2544 2389 
Q 2488 2547 2361 2634 
Q 2234 2722 2056 2722 
Q 1828 2722 1647 2597 
Q 1466 2472 1398 2265 
Q 1331 2059 1331 1503 
L 1331 0 
L 453 0 
L 453 3319 
L 1269 3319 
L 1269 2831 
Q 1703 3394 2363 3394 
Q 2653 3394 2893 3289 
Q 3134 3184 3257 3021 
Q 3381 2859 3429 2653 
Q 3478 2447 3478 2063 
L 3478 0 
z
" transform="scale(0.015625)"/>
     </defs>
     <use xlink:href="#Arial-BoldMT-31"/>
     <use xlink:href="#Arial-BoldMT-2e" transform="translate(55.615234 0)"/>
     <use xlink:href="#Arial-BoldMT-20" transform="translate(83.398438 0)"/>
     <use xlink:href="#Arial-BoldMT-44" transform="translate(111.181641 0)"/>
     <use xlink:href="#Arial-BoldMT-69" transform="translate(183.398438 0)"/>
     <use xlink:href="#Arial-BoldMT-76" transform="translate(211.181641 0)"/>
     <use xlink:href="#Arial-BoldMT-69" transform="translate(266.796875 0)"/>
     <use xlink:href="#Arial-BoldMT-73" transform="translate(294.580078 0)"/>
     <use xlink:href="#Arial-BoldMT-69" transform="translate(350.195312 0)"/>
     <use xlink:href="#Arial-BoldMT-6f" transform="translate(377.978516 0)"/>
     <use xlink:href="#Arial-BoldMT-6e" transform="translate(439.0625 0)"/>
     <use xlink:href="#Arial-BoldMT-20" transform="translate(500.146484 0)"/>
     <use xlink:href="#Arial-BoldMT-47" transform="translate(527.929688 0)"/>
     <use xlink:href="#Arial-BoldMT-53" transform="translate(605.712891 0)"/>
     <use xlink:href="#Arial-BoldMT-43" transform="translate(672.412109 0)"/>
    </g>
   </g>
  </g>
  <g id="axes_2">
   <g id="patch_7">
    <path d="M 862.367109 248.066008 
C 868.835413 248.066008 875.039662 246.396374 879.613443 243.424822 
C 884.187225 240.453271 886.757109 236.422417 886.757109 232.220008 
C 886.757109 228.0176 884.187225 223.986746 879.613443 221.015194 
C 875.039662 218.043643 868.835413 216.374008 862.367109 216.374008 
C 855.898805 216.374008 849.694556 218.043643 845.120775 221.015194 
C 840.546993 223.986746 837.977109 228.0176 837.977109 232.220008 
C 837.977109 236.422417 840.546993 240.453271 845.120775 243.424822 
C 849.694556 246.396374 855.898805 248.066008 862.367109 248.066008 
z
" clip-path="url(#p56a66f466c)" style="fill: #ffd700; stroke: #000000; stroke-linejoin: miter"/>
   </g>
   <g id="line2d_1">
    <path d="M 847.26 201.9 
L 871.65 201.9 
" clip-path="url(#p56a66f466c)" style="fill: none; stroke: #000000; stroke-width: 2; stroke-linecap: round"/>
   </g>
   <g id="line2d_2">
    <path d="M 839.833687 177.643993 
L 862.367109 171.579992 
" clip-path="url(#p56a66f466c)" style="fill: none; stroke: #000000; stroke-width: 2; stroke-linecap: round"/>
   </g>
   <g id="line2d_3">
    <path d="M 818.685338 157.080744 
L 835.931672 145.87593 
" clip-path="url(#p56a66f466c)" style="fill: none; stroke: #000000; stroke-width: 2; stroke-linecap: round"/>
   </g>
   <g id="line2d_4">
    <path d="M 787.034596 143.34082 
L 796.368245 128.701025 
" clip-path="url(#p56a66f466c)" style="fill: none; stroke: #000000; stroke-width: 2; stroke-linecap: round"/>
   </g>
   <g id="line2d_5">
    <path d="M 749.7 138.516 
L 749.7 122.67 
" clip-path="url(#p56a66f466c)" style="fill: none; stroke: #000000; stroke-width: 2; stroke-linecap: round"/>
   </g>
   <g id="line2d_6">
    <path d="M 712.365404 143.34082 
L 703.031755 128.701025 
" clip-path="url(#p56a66f466c)" style="fill: none; stroke: #000000; stroke-width: 2; stroke-linecap: round"/>
   </g>
   <g id="line2d_7">
    <path d="M 680.714662 157.080744 
L 663.468328 145.87593 
" clip-path="url(#p56a66f466c)" style="fill: none; stroke: #000000; stroke-width: 2; stroke-linecap: round"/>
   </g>
   <g id="line2d_8">
    <path d="M 659.566313 177.643993 
L 637.032891 171.579992 
" clip-path="url(#p56a66f466c)" style="fill: none; stroke: #000000; stroke-width: 2; stroke-linecap: round"/>
   </g>
   <g id="line2d_9">
    <path d="M 652.14 201.9 
L 627.75 201.9 
" clip-path="url(#p56a66f466c)" style="fill: none; stroke: #000000; stroke-width: 2; stroke-linecap: round"/>
   </g>
   <g id="line2d_10">
    <path d="M 659.566313 226.156007 
L 637.032891 232.220008 
" clip-path="url(#p56a66f466c)" style="fill: none; stroke: #000000; stroke-width: 2; stroke-linecap: round"/>
   </g>
   <g id="line2d_11">
    <path d="M 680.714662 246.719256 
L 663.468328 257.92407 
" clip-path="url(#p56a66f466c)" style="fill: none; stroke: #000000; stroke-width: 2; stroke-linecap: round"/>
   </g>
   <g id="line2d_12">
    <path d="M 712.365404 260.45918 
L 703.031755 275.098975 
" clip-path="url(#p56a66f466c)" style="fill: none; stroke: #000000; stroke-width: 2; stroke-linecap: round"/>
   </g>
   <g id="line2d_13">
    <path d="M 749.7 265.284 
L 749.7 281.13 
" clip-path="url(#p56a66f466c)" style="fill: none; stroke: #000000; stroke-width: 2; stroke-linecap: round"/>
   </g>
   <g id="line2d_14">
    <path d="M 787.034596 260.45918 
L 796.368245 275.098975 
" clip-path="url(#p56a66f466c)" style="fill: none; stroke: #000000; stroke-width: 2; stroke-linecap: round"/>
   </g>
   <g id="line2d_15">
    <path d="M 818.685338 246.719256 
L 835.931672 257.92407 
" clip-path="url(#p56a66f466c)" style="fill: none; stroke: #000000; stroke-width: 2; stroke-linecap: round"/>
   </g>
   <g id="line2d_16">
    <path d="M 839.833687 226.156007 
L 862.367109 232.220008 
" clip-path="url(#p56a66f466c)" style="fill: none; stroke: #000000; stroke-width: 2; stroke-linecap: round"/>
   </g>
   <g id="text_6">
    <!-- 4 divisions mitotiques -->
    <g style="fill: #262626" transform="translate(706.932422 81.458812) scale(0.09 -0.09)">
     <defs>
      <path id="Arial-ItalicMT-34" d="M 1913 0 
L 2159 1169 
L 291 1169 
L 409 1728 
L 2975 4581 
L 3438 4581 
L 2828 1669 
L 3472 1669 
L 3369 1169 
L 2725 1169 
L 2478 0 
L 1913 0 
z
M 2263 1669 
L 2663 3581 
L 956 1669 
L 2263 1669 
z
" transform="scale(0.015625)"/>
      <path id="Arial-ItalicMT-20" transform="scale(0.015625)"/>
      <path id="Arial-ItalicMT-64" d="M 2450 481 
Q 1966 -75 1438 -75 
Q 966 -75 652 273 
Q 338 622 338 1284 
Q 338 1891 586 2392 
Q 834 2894 1207 3144 
Q 1581 3394 1956 3394 
Q 2575 3394 2891 2797 
L 3266 4581 
L 3828 4581 
L 2872 0 
L 2350 0 
L 2450 481 
z
M 900 1391 
Q 900 1044 969 844 
Q 1038 644 1203 511 
Q 1369 378 1600 378 
Q 1984 378 2297 778 
Q 2716 1309 2716 2091 
Q 2716 2484 2509 2706 
Q 2303 2928 1991 2928 
Q 1788 2928 1620 2837 
Q 1453 2747 1289 2530 
Q 1125 2313 1012 1978 
Q 900 1644 900 1391 
z
" transform="scale(0.015625)"/>
      <path id="Arial-ItalicMT-69" d="M 1016 3941 
L 1150 4581 
L 1713 4581 
L 1578 3941 
L 1016 3941 
z
M 191 0 
L 884 3319 
L 1450 3319 
L 756 0 
L 191 0 
z
" transform="scale(0.015625)"/>
      <path id="Arial-ItalicMT-76" d="M 1050 0 
L 506 3319 
L 1056 3319 
L 1341 1491 
Q 1388 1191 1456 513 
Q 1619 866 1872 1322 
L 2981 3319 
L 3578 3319 
L 1678 0 
L 1050 0 
z
" transform="scale(0.015625)"/>
      <path id="Arial-ItalicMT-73" d="M 266 1134 
L 831 1169 
Q 831 925 906 753 
Q 981 581 1182 472 
Q 1384 363 1653 363 
Q 2028 363 2215 513 
Q 2403 663 2403 866 
Q 2403 1013 2291 1144 
Q 2175 1275 1726 1467 
Q 1278 1659 1153 1738 
Q 944 1866 837 2039 
Q 731 2213 731 2438 
Q 731 2831 1043 3112 
Q 1356 3394 1919 3394 
Q 2544 3394 2870 3105 
Q 3197 2816 3209 2344 
L 2656 2306 
Q 2644 2606 2444 2781 
Q 2244 2956 1878 2956 
Q 1584 2956 1421 2822 
Q 1259 2688 1259 2531 
Q 1259 2375 1400 2256 
Q 1494 2175 1884 2006 
Q 2534 1725 2703 1563 
Q 2972 1303 2972 931 
Q 2972 684 2820 446 
Q 2669 209 2358 67 
Q 2047 -75 1625 -75 
Q 1050 -75 647 209 
Q 244 494 266 1134 
z
" transform="scale(0.015625)"/>
      <path id="Arial-ItalicMT-6f" d="M 313 1259 
Q 313 2231 884 2869 
Q 1356 3394 2122 3394 
Q 2722 3394 3089 3019 
Q 3456 2644 3456 2006 
Q 3456 1434 3225 942 
Q 2994 450 2567 187 
Q 2141 -75 1669 -75 
Q 1281 -75 964 90 
Q 647 256 480 559 
Q 313 863 313 1259 
z
M 878 1316 
Q 878 847 1103 605 
Q 1328 363 1675 363 
Q 1856 363 2034 436 
Q 2213 509 2366 659 
Q 2519 809 2626 1001 
Q 2734 1194 2800 1416 
Q 2897 1725 2897 2009 
Q 2897 2459 2670 2707 
Q 2444 2956 2100 2956 
Q 1834 2956 1615 2829 
Q 1397 2703 1220 2459 
Q 1044 2216 961 1892 
Q 878 1569 878 1316 
z
" transform="scale(0.015625)"/>
      <path id="Arial-ItalicMT-6e" d="M 213 0 
L 906 3319 
L 1419 3319 
L 1297 2741 
Q 1631 3081 1922 3237 
Q 2213 3394 2516 3394 
Q 2919 3394 3148 3175 
Q 3378 2956 3378 2591 
Q 3378 2406 3297 2009 
L 2875 0 
L 2309 0 
L 2750 2103 
Q 2816 2409 2816 2556 
Q 2816 2722 2702 2825 
Q 2588 2928 2372 2928 
Q 1938 2928 1598 2615 
Q 1259 2303 1100 1544 
L 778 0 
L 213 0 
z
" transform="scale(0.015625)"/>
      <path id="Arial-ItalicMT-6d" d="M 209 0 
L 903 3319 
L 1469 3319 
L 1353 2772 
Q 1669 3125 1917 3259 
Q 2166 3394 2456 3394 
Q 2766 3394 2973 3230 
Q 3181 3066 3247 2772 
Q 3500 3084 3779 3239 
Q 4059 3394 4369 3394 
Q 4784 3394 4992 3197 
Q 5200 3000 5200 2644 
Q 5200 2491 5128 2138 
L 4681 0 
L 4116 0 
L 4572 2194 
Q 4631 2463 4631 2578 
Q 4631 2741 4528 2834 
Q 4425 2928 4238 2928 
Q 3984 2928 3721 2775 
Q 3459 2622 3314 2373 
Q 3169 2125 3059 1609 
L 2722 0 
L 2156 0 
L 2625 2241 
Q 2675 2469 2675 2566 
Q 2675 2728 2573 2828 
Q 2472 2928 2309 2928 
Q 2069 2928 1805 2775 
Q 1541 2622 1375 2348 
Q 1209 2075 1103 1569 
L 775 0 
L 209 0 
z
" transform="scale(0.015625)"/>
      <path id="Arial-ItalicMT-74" d="M 1534 459 
L 1441 -3 
Q 1238 -56 1047 -56 
Q 709 -56 509 109 
Q 359 234 359 450 
Q 359 559 441 953 
L 844 2881 
L 397 2881 
L 488 3319 
L 934 3319 
L 1106 4134 
L 1753 4525 
L 1500 3319 
L 2056 3319 
L 1963 2881 
L 1409 2881 
L 1025 1047 
Q 953 697 953 628 
Q 953 528 1011 475 
Q 1069 422 1200 422 
Q 1388 422 1534 459 
z
" transform="scale(0.015625)"/>
      <path id="Arial-ItalicMT-71" d="M 2356 375 
Q 1872 -75 1428 -75 
Q 966 -75 647 276 
Q 328 628 328 1275 
Q 328 1894 570 2394 
Q 813 2894 1189 3144 
Q 1566 3394 1966 3394 
Q 2269 3394 2517 3223 
Q 2766 3053 2919 2709 
L 3047 3319 
L 3534 3319 
L 2578 -1272 
L 2013 -1272 
L 2356 375 
z
M 888 1350 
Q 888 859 1091 623 
Q 1294 388 1597 388 
Q 1853 388 2114 600 
Q 2375 813 2542 1238 
Q 2709 1663 2709 2059 
Q 2709 2466 2500 2697 
Q 2291 2928 1988 2928 
Q 1691 2928 1469 2734 
Q 1178 2484 1013 2013 
Q 888 1650 888 1350 
z
" transform="scale(0.015625)"/>
      <path id="Arial-ItalicMT-75" d="M 2478 600 
Q 1881 -75 1256 -75 
Q 872 -75 636 145 
Q 400 366 400 684 
Q 400 894 506 1403 
L 906 3319 
L 1472 3319 
L 1028 1197 
Q 972 931 972 784 
Q 972 597 1086 492 
Q 1200 388 1422 388 
Q 1659 388 1886 503 
Q 2113 619 2277 816 
Q 2441 1013 2544 1281 
Q 2613 1453 2703 1884 
L 3003 3319 
L 3569 3319 
L 2875 0 
L 2353 0 
L 2478 600 
z
" transform="scale(0.015625)"/>
      <path id="Arial-ItalicMT-65" d="M 2650 1128 
L 3200 1072 
Q 3081 663 2654 294 
Q 2228 -75 1638 -75 
Q 1269 -75 961 95 
Q 653 266 492 591 
Q 331 916 331 1331 
Q 331 1875 582 2386 
Q 834 2897 1234 3145 
Q 1634 3394 2100 3394 
Q 2694 3394 3048 3025 
Q 3403 2656 3403 2019 
Q 3403 1775 3359 1519 
L 916 1519 
Q 903 1422 903 1344 
Q 903 878 1117 633 
Q 1331 388 1641 388 
Q 1931 388 2212 578 
Q 2494 769 2650 1128 
z
M 1006 1950 
L 2869 1950 
Q 2872 2038 2872 2075 
Q 2872 2500 2659 2726 
Q 2447 2953 2113 2953 
Q 1750 2953 1451 2703 
Q 1153 2453 1006 1950 
z
" transform="scale(0.015625)"/>
     </defs>
     <use xlink:href="#Arial-ItalicMT-34"/>
     <use xlink:href="#Arial-ItalicMT-20" transform="translate(55.615234 0)"/>
     <use xlink:href="#Arial-ItalicMT-64" transform="translate(83.398438 0)"/>
     <use xlink:href="#Arial-ItalicMT-69" transform="translate(139.013672 0)"/>
     <use xlink:href="#Arial-ItalicMT-76" transform="translate(161.230469 0)"/>
     <use xlink:href="#Arial-ItalicMT-69" transform="translate(211.230469 0)"/>
     <use xlink:href="#Arial-ItalicMT-73" transform="translate(233.447266 0)"/>
     <use xlink:href="#Arial-ItalicMT-69" transform="translate(283.447266 0)"/>
     <use xlink:href="#Arial-ItalicMT-6f" transform="translate(305.664062 0)"/>
     <use xlink:href="#Arial-ItalicMT-6e" transform="translate(361.279297 0)"/>
     <use xlink:href="#Arial-ItalicMT-73" transform="translate(416.894531 0)"/>
     <use xlink:href="#Arial-ItalicMT-20" transform="translate(466.894531 0)"/>
     <use xlink:href="#Arial-ItalicMT-6d" transform="translate(494.677734 0)"/>
     <use xlink:href="#Arial-ItalicMT-69" transform="translate(577.978516 0)"/>
     <use xlink:href="#Arial-ItalicMT-74" transform="translate(600.195312 0)"/>
     <use xlink:href="#Arial-ItalicMT-6f" transform="translate(627.978516 0)"/>
     <use xlink:href="#Arial-ItalicMT-74" transform="translate(683.59375 0)"/>
     <use xlink:href="#Arial-ItalicMT-69" transform="translate(711.376953 0)"/>
     <use xlink:href="#Arial-ItalicMT-71" transform="translate(733.59375 0)"/>
     <use xlink:href="#Arial-ItalicMT-75" transform="translate(789.208984 0)"/>
     <use xlink:href="#Arial-ItalicMT-65" transform="translate(844.824219 0)"/>
     <use xlink:href="#Arial-ItalicMT-73" transform="translate(900.439453 0)"/>
    </g>
    <!-- incomplètes -->
    <g style="fill: #262626" transform="translate(725.689687 90.978) scale(0.09 -0.09)">
     <defs>
      <path id="Arial-ItalicMT-63" d="M 2503 1209 
L 3069 1150 
Q 2856 528 2464 226 
Q 2072 -75 1572 -75 
Q 1031 -75 695 275 
Q 359 625 359 1253 
Q 359 1797 575 2322 
Q 791 2847 1192 3120 
Q 1594 3394 2109 3394 
Q 2644 3394 2956 3092 
Q 3269 2791 3269 2294 
L 2713 2256 
Q 2709 2572 2529 2750 
Q 2350 2928 2056 2928 
Q 1716 2928 1466 2712 
Q 1216 2497 1073 2058 
Q 931 1619 931 1213 
Q 931 788 1118 575 
Q 1306 363 1581 363 
Q 1856 363 2107 572 
Q 2359 781 2503 1209 
z
" transform="scale(0.015625)"/>
      <path id="Arial-ItalicMT-70" d="M -66 -1272 
L 894 3319 
L 1416 3319 
L 1319 2856 
Q 1609 3159 1839 3276 
Q 2069 3394 2325 3394 
Q 2800 3394 3112 3048 
Q 3425 2703 3425 2059 
Q 3425 1541 3253 1114 
Q 3081 688 2831 428 
Q 2581 169 2325 47 
Q 2069 -75 1800 -75 
Q 1203 -75 875 531 
L 500 -1272 
L -66 -1272 
z
M 1053 1356 
Q 1053 984 1106 841 
Q 1184 638 1362 513 
Q 1541 388 1775 388 
Q 2263 388 2563 936 
Q 2863 1484 2863 2056 
Q 2863 2478 2661 2708 
Q 2459 2938 2159 2938 
Q 1944 2938 1759 2823 
Q 1575 2709 1417 2482 
Q 1259 2256 1156 1928 
Q 1053 1600 1053 1356 
z
" transform="scale(0.015625)"/>
      <path id="Arial-ItalicMT-6c" d="M 169 0 
L 1125 4581 
L 1691 4581 
L 734 0 
L 169 0 
z
" transform="scale(0.015625)"/>
      <path id="Arial-ItalicMT-e8" d="M 2650 1128 
L 3200 1072 
Q 3081 663 2654 294 
Q 2228 -75 1638 -75 
Q 1269 -75 961 95 
Q 653 266 492 591 
Q 331 916 331 1331 
Q 331 1875 582 2386 
Q 834 2897 1234 3145 
Q 1634 3394 2100 3394 
Q 2694 3394 3048 3025 
Q 3403 2656 3403 2019 
Q 3403 1775 3359 1519 
L 916 1519 
Q 903 1422 903 1344 
Q 903 878 1117 633 
Q 1331 388 1641 388 
Q 1931 388 2212 578 
Q 2494 769 2650 1128 
z
M 1006 1950 
L 2869 1950 
Q 2872 2038 2872 2075 
Q 2872 2500 2659 2726 
Q 2447 2953 2113 2953 
Q 1750 2953 1451 2703 
Q 1153 2453 1006 1950 
z
M 2397 3722 
L 1787 4581 
L 2475 4581 
L 2837 3722 
L 2397 3722 
z
" transform="scale(0.015625)"/>
     </defs>
     <use xlink:href="#Arial-ItalicMT-69"/>
     <use xlink:href="#Arial-ItalicMT-6e" transform="translate(22.216797 0)"/>
     <use xlink:href="#Arial-ItalicMT-63" transform="translate(77.832031 0)"/>
     <use xlink:href="#Arial-ItalicMT-6f" transform="translate(127.832031 0)"/>
     <use xlink:href="#Arial-ItalicMT-6d" transform="translate(183.447266 0)"/>
     <use xlink:href="#Arial-ItalicMT-70" transform="translate(266.748047 0)"/>
     <use xlink:href="#Arial-ItalicMT-6c" transform="translate(322.363281 0)"/>
     <use xlink:href="#Arial-ItalicMT-e8" transform="translate(344.580078 0)"/>
     <use xlink:href="#Arial-ItalicMT-74" transform="translate(400.195312 0)"/>
     <use xlink:href="#Arial-ItalicMT-65" transform="translate(427.978516 0)"/>
     <use xlink:href="#Arial-ItalicMT-73" transform="translate(483.59375 0)"/>
    </g>
   </g>
   <g id="text_7">
    <!-- 2. Cyste de 16 Cellules -->
    <g style="fill: #262626" transform="translate(690.397109 37.44) scale(0.11 -0.11)">
     <defs>
      <path id="Arial-BoldMT-32" d="M 3238 816 
L 3238 0 
L 159 0 
Q 209 463 459 877 
Q 709 1291 1447 1975 
Q 2041 2528 2175 2725 
Q 2356 2997 2356 3263 
Q 2356 3556 2198 3714 
Q 2041 3872 1763 3872 
Q 1488 3872 1325 3706 
Q 1163 3541 1138 3156 
L 263 3244 
Q 341 3969 753 4284 
Q 1166 4600 1784 4600 
Q 2463 4600 2850 4234 
Q 3238 3869 3238 3325 
Q 3238 3016 3127 2736 
Q 3016 2456 2775 2150 
Q 2616 1947 2200 1565 
Q 1784 1184 1673 1059 
Q 1563 934 1494 816 
L 3238 816 
z
" transform="scale(0.015625)"/>
      <path id="Arial-BoldMT-79" d="M 44 3319 
L 978 3319 
L 1772 963 
L 2547 3319 
L 3456 3319 
L 2284 125 
L 2075 -453 
Q 1959 -744 1854 -897 
Q 1750 -1050 1614 -1145 
Q 1478 -1241 1279 -1294 
Q 1081 -1347 831 -1347 
Q 578 -1347 334 -1294 
L 256 -606 
Q 463 -647 628 -647 
Q 934 -647 1081 -467 
Q 1228 -288 1306 -9 
L 44 3319 
z
" transform="scale(0.015625)"/>
      <path id="Arial-BoldMT-74" d="M 1981 3319 
L 1981 2619 
L 1381 2619 
L 1381 1281 
Q 1381 875 1398 808 
Q 1416 741 1477 697 
Q 1538 653 1625 653 
Q 1747 653 1978 738 
L 2053 56 
Q 1747 -75 1359 -75 
Q 1122 -75 931 4 
Q 741 84 652 211 
Q 563 338 528 553 
Q 500 706 500 1172 
L 500 2619 
L 97 2619 
L 97 3319 
L 500 3319 
L 500 3978 
L 1381 4491 
L 1381 3319 
L 1981 3319 
z
" transform="scale(0.015625)"/>
      <path id="Arial-BoldMT-65" d="M 2381 1056 
L 3256 909 
Q 3088 428 2723 176 
Q 2359 -75 1813 -75 
Q 947 -75 531 491 
Q 203 944 203 1634 
Q 203 2459 634 2926 
Q 1066 3394 1725 3394 
Q 2466 3394 2894 2905 
Q 3322 2416 3303 1406 
L 1103 1406 
Q 1113 1016 1316 798 
Q 1519 581 1822 581 
Q 2028 581 2168 693 
Q 2309 806 2381 1056 
z
M 2431 1944 
Q 2422 2325 2234 2523 
Q 2047 2722 1778 2722 
Q 1491 2722 1303 2513 
Q 1116 2303 1119 1944 
L 2431 1944 
z
" transform="scale(0.015625)"/>
      <path id="Arial-BoldMT-64" d="M 3503 0 
L 2688 0 
L 2688 488 
Q 2484 203 2207 64 
Q 1931 -75 1650 -75 
Q 1078 -75 670 386 
Q 263 847 263 1672 
Q 263 2516 659 2955 
Q 1056 3394 1663 3394 
Q 2219 3394 2625 2931 
L 2625 4581 
L 3503 4581 
L 3503 0 
z
M 1159 1731 
Q 1159 1200 1306 963 
Q 1519 619 1900 619 
Q 2203 619 2415 876 
Q 2628 1134 2628 1647 
Q 2628 2219 2422 2470 
Q 2216 2722 1894 2722 
Q 1581 2722 1370 2473 
Q 1159 2225 1159 1731 
z
" transform="scale(0.015625)"/>
      <path id="Arial-BoldMT-36" d="M 3247 3459 
L 2397 3366 
Q 2366 3628 2234 3753 
Q 2103 3878 1894 3878 
Q 1616 3878 1423 3628 
Q 1231 3378 1181 2588 
Q 1509 2975 1997 2975 
Q 2547 2975 2939 2556 
Q 3331 2138 3331 1475 
Q 3331 772 2918 347 
Q 2506 -78 1859 -78 
Q 1166 -78 719 461 
Q 272 1000 272 2228 
Q 272 3488 737 4044 
Q 1203 4600 1947 4600 
Q 2469 4600 2811 4308 
Q 3153 4016 3247 3459 
z
M 1256 1544 
Q 1256 1116 1453 883 
Q 1650 650 1903 650 
Q 2147 650 2309 840 
Q 2472 1031 2472 1466 
Q 2472 1913 2297 2120 
Q 2122 2328 1859 2328 
Q 1606 2328 1431 2129 
Q 1256 1931 1256 1544 
z
" transform="scale(0.015625)"/>
      <path id="Arial-BoldMT-6c" d="M 459 0 
L 459 4581 
L 1338 4581 
L 1338 0 
L 459 0 
z
" transform="scale(0.015625)"/>
      <path id="Arial-BoldMT-75" d="M 2644 0 
L 2644 497 
Q 2463 231 2167 78 
Q 1872 -75 1544 -75 
Q 1209 -75 943 72 
Q 678 219 559 484 
Q 441 750 441 1219 
L 441 3319 
L 1319 3319 
L 1319 1794 
Q 1319 1094 1367 936 
Q 1416 778 1544 686 
Q 1672 594 1869 594 
Q 2094 594 2272 717 
Q 2450 841 2515 1023 
Q 2581 1206 2581 1919 
L 2581 3319 
L 3459 3319 
L 3459 0 
L 2644 0 
z
" transform="scale(0.015625)"/>
     </defs>
     <use xlink:href="#Arial-BoldMT-32"/>
     <use xlink:href="#Arial-BoldMT-2e" transform="translate(55.615234 0)"/>
     <use xlink:href="#Arial-BoldMT-20" transform="translate(83.398438 0)"/>
     <use xlink:href="#Arial-BoldMT-43" transform="translate(111.181641 0)"/>
     <use xlink:href="#Arial-BoldMT-79" transform="translate(183.398438 0)"/>
     <use xlink:href="#Arial-BoldMT-73" transform="translate(239.013672 0)"/>
     <use xlink:href="#Arial-BoldMT-74" transform="translate(294.628906 0)"/>
     <use xlink:href="#Arial-BoldMT-65" transform="translate(327.929688 0)"/>
     <use xlink:href="#Arial-BoldMT-20" transform="translate(383.544922 0)"/>
     <use xlink:href="#Arial-BoldMT-64" transform="translate(411.328125 0)"/>
     <use xlink:href="#Arial-BoldMT-65" transform="translate(472.412109 0)"/>
     <use xlink:href="#Arial-BoldMT-20" transform="translate(528.027344 0)"/>
     <use xlink:href="#Arial-BoldMT-31" transform="translate(555.810547 0)"/>
     <use xlink:href="#Arial-BoldMT-36" transform="translate(611.425781 0)"/>
     <use xlink:href="#Arial-BoldMT-20" transform="translate(667.041016 0)"/>
     <use xlink:href="#Arial-BoldMT-43" transform="translate(694.824219 0)"/>
     <use xlink:href="#Arial-BoldMT-65" transform="translate(767.041016 0)"/>
     <use xlink:href="#Arial-BoldMT-6c" transform="translate(822.65625 0)"/>
     <use xlink:href="#Arial-BoldMT-6c" transform="translate(850.439453 0)"/>
     <use xlink:href="#Arial-BoldMT-75" transform="translate(878.222656 0)"/>
     <use xlink:href="#Arial-BoldMT-6c" transform="translate(939.306641 0)"/>
     <use xlink:href="#Arial-BoldMT-65" transform="translate(967.089844 0)"/>
     <use xlink:href="#Arial-BoldMT-73" transform="translate(1022.705078 0)"/>
    </g>
   </g>
  </g>
  <g id="axes_3">
   <g id="patch_8">
    <path d="M 251.1 606.924 
C 289.909822 606.924 327.135318 600.245462 354.578006 588.359256 
C 382.020694 576.473051 397.44 560.349633 397.44 543.54 
C 397.44 526.730367 382.020694 510.606949 354.578006 498.720744 
C 327.135318 486.834538 289.909822 480.156 251.1 480.156 
C 212.290178 480.156 175.064682 486.834538 147.621994 498.720744 
C 120.179306 510.606949 104.76 526.730367 104.76 543.54 
C 104.76 560.349633 120.179306 576.473051 147.621994 588.359256 
C 175.064682 600.245462 212.290178 606.924 251.1 606.924 
z
" clip-path="url(#pd5c80d7df8)" style="fill: #e6e6fa; stroke: #000000; stroke-width: 2; stroke-linejoin: miter"/>
   </g>
   <g id="patch_9">
    <path d="M 104.76 562.5552 
C 112.521964 562.5552 119.967064 560.551639 125.455601 556.985777 
C 130.944139 553.419915 134.028 548.58289 134.028 543.54 
C 134.028 538.49711 130.944139 533.660085 125.455601 530.094223 
C 119.967064 526.528361 112.521964 524.5248 104.76 524.5248 
C 96.998036 524.5248 89.552936 526.528361 84.064399 530.094223 
C 78.575861 533.660085 75.492 538.49711 75.492 543.54 
C 75.492 548.58289 78.575861 553.419915 84.064399 556.985777 
C 89.552936 560.551639 96.998036 562.5552 104.76 562.5552 
z
" clip-path="url(#pd5c80d7df8)" style="fill: #ff4500; stroke: #ff4500; stroke-linejoin: miter"/>
   </g>
   <g id="patch_10">
    <path d="M 397.44 562.5552 
C 405.201964 562.5552 412.647064 560.551639 418.135601 556.985777 
C 423.624139 553.419915 426.708 548.58289 426.708 543.54 
C 426.708 538.49711 423.624139 533.660085 418.135601 530.094223 
C 412.647064 526.528361 405.201964 524.5248 397.44 524.5248 
C 389.678036 524.5248 382.232936 526.528361 376.744399 530.094223 
C 371.255861 533.660085 368.172 538.49711 368.172 543.54 
C 368.172 548.58289 371.255861 553.419915 376.744399 556.985777 
C 382.232936 560.551639 389.678036 562.5552 397.44 562.5552 
z
" clip-path="url(#pd5c80d7df8)" style="fill: #32cd32; stroke: #32cd32; stroke-linejoin: miter"/>
   </g>
   <g id="patch_11">
    <path d="M 251.1 480.156 
C 257.568304 480.156 263.772553 478.486365 268.346334 475.514814 
C 272.920116 472.543263 275.49 468.512408 275.49 464.31 
C 275.49 460.107592 272.920116 456.076737 268.346334 453.105186 
C 263.772553 450.133635 257.568304 448.464 251.1 448.464 
C 244.631696 448.464 238.427447 450.133635 233.853666 453.105186 
C 229.279884 456.076737 226.71 460.107592 226.71 464.31 
C 226.71 468.512408 229.279884 472.543263 233.853666 475.514814 
C 238.427447 478.486365 244.631696 480.156 251.1 480.156 
z
" clip-path="url(#pd5c80d7df8)" style="fill: #9370db; stroke: #9370db; stroke-linejoin: miter"/>
   </g>
   <g id="text_8">
    <!-- bcd -->
    <g style="fill: #ffffff" transform="translate(96.760547 545.872969) scale(0.09 -0.09)">
     <defs>
      <path id="Arial-BoldMT-62" d="M 422 0 
L 422 4581 
L 1300 4581 
L 1300 2931 
Q 1706 3394 2263 3394 
Q 2869 3394 3266 2955 
Q 3663 2516 3663 1694 
Q 3663 844 3258 384 
Q 2853 -75 2275 -75 
Q 1991 -75 1714 67 
Q 1438 209 1238 488 
L 1238 0 
L 422 0 
z
M 1294 1731 
Q 1294 1216 1456 969 
Q 1684 619 2063 619 
Q 2353 619 2558 867 
Q 2763 1116 2763 1650 
Q 2763 2219 2556 2470 
Q 2350 2722 2028 2722 
Q 1713 2722 1503 2476 
Q 1294 2231 1294 1731 
z
" transform="scale(0.015625)"/>
      <path id="Arial-BoldMT-63" d="M 3353 2338 
L 2488 2181 
Q 2444 2441 2289 2572 
Q 2134 2703 1888 2703 
Q 1559 2703 1364 2476 
Q 1169 2250 1169 1719 
Q 1169 1128 1367 884 
Q 1566 641 1900 641 
Q 2150 641 2309 783 
Q 2469 925 2534 1272 
L 3397 1125 
Q 3263 531 2881 228 
Q 2500 -75 1859 -75 
Q 1131 -75 698 384 
Q 266 844 266 1656 
Q 266 2478 700 2936 
Q 1134 3394 1875 3394 
Q 2481 3394 2839 3133 
Q 3197 2872 3353 2338 
z
" transform="scale(0.015625)"/>
     </defs>
     <use xlink:href="#Arial-BoldMT-62"/>
     <use xlink:href="#Arial-BoldMT-63" transform="translate(61.083984 0)"/>
     <use xlink:href="#Arial-BoldMT-64" transform="translate(116.699219 0)"/>
    </g>
   </g>
   <g id="text_9">
    <!-- nos/osk -->
    <g style="fill: #ffffff" transform="translate(382.32625 545.61375) scale(0.08 -0.08)">
     <defs>
      <path id="Arial-BoldMT-2f" d="M -9 -78 
L 1125 4659 
L 1784 4659 
L 638 -78 
L -9 -78 
z
" transform="scale(0.015625)"/>
      <path id="Arial-BoldMT-6b" d="M 428 0 
L 428 4581 
L 1306 4581 
L 1306 2150 
L 2334 3319 
L 3416 3319 
L 2281 2106 
L 3497 0 
L 2550 0 
L 1716 1491 
L 1306 1063 
L 1306 0 
L 428 0 
z
" transform="scale(0.015625)"/>
     </defs>
     <use xlink:href="#Arial-BoldMT-6e"/>
     <use xlink:href="#Arial-BoldMT-6f" transform="translate(61.083984 0)"/>
     <use xlink:href="#Arial-BoldMT-73" transform="translate(122.167969 0)"/>
     <use xlink:href="#Arial-BoldMT-2f" transform="translate(177.783203 0)"/>
     <use xlink:href="#Arial-BoldMT-6f" transform="translate(205.566406 0)"/>
     <use xlink:href="#Arial-BoldMT-73" transform="translate(266.650391 0)"/>
     <use xlink:href="#Arial-BoldMT-6b" transform="translate(322.265625 0)"/>
    </g>
   </g>
   <g id="text_10">
    <!-- grk -->
    <g style="fill: #ffffff" transform="translate(244.097578 466.583906) scale(0.09 -0.09)">
     <defs>
      <path id="Arial-BoldMT-67" d="M 378 -219 
L 1381 -341 
Q 1406 -516 1497 -581 
Q 1622 -675 1891 -675 
Q 2234 -675 2406 -572 
Q 2522 -503 2581 -350 
Q 2622 -241 2622 53 
L 2622 538 
Q 2228 0 1628 0 
Q 959 0 569 566 
Q 263 1013 263 1678 
Q 263 2513 664 2953 
Q 1066 3394 1663 3394 
Q 2278 3394 2678 2853 
L 2678 3319 
L 3500 3319 
L 3500 341 
Q 3500 -247 3403 -537 
Q 3306 -828 3131 -993 
Q 2956 -1159 2664 -1253 
Q 2372 -1347 1925 -1347 
Q 1081 -1347 728 -1058 
Q 375 -769 375 -325 
Q 375 -281 378 -219 
z
M 1163 1728 
Q 1163 1200 1367 954 
Q 1572 709 1872 709 
Q 2194 709 2416 961 
Q 2638 1213 2638 1706 
Q 2638 2222 2425 2472 
Q 2213 2722 1888 2722 
Q 1572 2722 1367 2476 
Q 1163 2231 1163 1728 
z
" transform="scale(0.015625)"/>
      <path id="Arial-BoldMT-72" d="M 1300 0 
L 422 0 
L 422 3319 
L 1238 3319 
L 1238 2847 
Q 1447 3181 1614 3287 
Q 1781 3394 1994 3394 
Q 2294 3394 2572 3228 
L 2300 2463 
Q 2078 2606 1888 2606 
Q 1703 2606 1575 2504 
Q 1447 2403 1373 2137 
Q 1300 1872 1300 1025 
L 1300 0 
z
" transform="scale(0.015625)"/>
     </defs>
     <use xlink:href="#Arial-BoldMT-67"/>
     <use xlink:href="#Arial-BoldMT-72" transform="translate(61.083984 0)"/>
     <use xlink:href="#Arial-BoldMT-6b" transform="translate(100 0)"/>
    </g>
   </g>
   <g id="patch_12">
    <path d="M 108.992344 543.54 
Q 251.097937 543.54 393.20353 543.54 
" style="fill: none; stroke: #ff0000; stroke-width: 2; stroke-linecap: round"/>
    <path d="M 112.992344 545.54 
L 108.992344 543.54 
L 112.992344 541.54 
" style="fill: none; stroke: #ff0000; stroke-width: 2; stroke-linecap: round"/>
    <path d="M 389.20353 541.54 
L 393.20353 543.54 
L 389.20353 545.54 
" style="fill: none; stroke: #ff0000; stroke-width: 2; stroke-linecap: round"/>
   </g>
   <g id="text_11">
    <!-- Axe A-P -->
    <g style="fill: #ff0000" transform="translate(234.841641 591.078) scale(0.09 -0.09)">
     <defs>
      <path id="ArialMT-41" d="M -9 0 
L 1750 4581 
L 2403 4581 
L 4278 0 
L 3588 0 
L 3053 1388 
L 1138 1388 
L 634 0 
L -9 0 
z
M 1313 1881 
L 2866 1881 
L 2388 3150 
Q 2169 3728 2063 4100 
Q 1975 3659 1816 3225 
L 1313 1881 
z
" transform="scale(0.015625)"/>
      <path id="ArialMT-78" d="M 47 0 
L 1259 1725 
L 138 3319 
L 841 3319 
L 1350 2541 
Q 1494 2319 1581 2169 
Q 1719 2375 1834 2534 
L 2394 3319 
L 3066 3319 
L 1919 1756 
L 3153 0 
L 2463 0 
L 1781 1031 
L 1600 1309 
L 728 0 
L 47 0 
z
" transform="scale(0.015625)"/>
      <path id="ArialMT-2d" d="M 203 1375 
L 203 1941 
L 1931 1941 
L 1931 1375 
L 203 1375 
z
" transform="scale(0.015625)"/>
      <path id="ArialMT-50" d="M 494 0 
L 494 4581 
L 2222 4581 
Q 2678 4581 2919 4538 
Q 3256 4481 3484 4323 
Q 3713 4166 3852 3881 
Q 3991 3597 3991 3256 
Q 3991 2672 3619 2267 
Q 3247 1863 2275 1863 
L 1100 1863 
L 1100 0 
L 494 0 
z
M 1100 2403 
L 2284 2403 
Q 2872 2403 3119 2622 
Q 3366 2841 3366 3238 
Q 3366 3525 3220 3729 
Q 3075 3934 2838 4000 
Q 2684 4041 2272 4041 
L 1100 4041 
L 1100 2403 
z
" transform="scale(0.015625)"/>
     </defs>
     <use xlink:href="#ArialMT-41"/>
     <use xlink:href="#ArialMT-78" transform="translate(66.699219 0)"/>
     <use xlink:href="#ArialMT-65" transform="translate(116.699219 0)"/>
     <use xlink:href="#ArialMT-20" transform="translate(172.314453 0)"/>
     <use xlink:href="#ArialMT-41" transform="translate(194.597656 0)"/>
     <use xlink:href="#ArialMT-2d" transform="translate(261.296875 0)"/>
     <use xlink:href="#ArialMT-50" transform="translate(294.597656 0)"/>
    </g>
   </g>
   <g id="patch_13">
    <path d="M 251.1 618.53674 
Q 251.1 543.541739 251.1 468.546737 
" style="fill: none; stroke: #0000ff; stroke-width: 2; stroke-linecap: round"/>
    <path d="M 253.1 614.53674 
L 251.1 618.53674 
L 249.1 614.53674 
" style="fill: none; stroke: #0000ff; stroke-width: 2; stroke-linecap: round"/>
    <path d="M 249.1 472.546737 
L 251.1 468.546737 
L 253.1 472.546737 
" style="fill: none; stroke: #0000ff; stroke-width: 2; stroke-linecap: round"/>
   </g>
   <g id="text_12">
    <!-- Axe D-V -->
    <g style="fill: #0000ff" transform="translate(307.515938 543.54) scale(0.09 -0.09)">
     <defs>
      <path id="ArialMT-44" d="M 494 0 
L 494 4581 
L 2072 4581 
Q 2606 4581 2888 4516 
Q 3281 4425 3559 4188 
Q 3922 3881 4101 3404 
Q 4281 2928 4281 2316 
Q 4281 1794 4159 1391 
Q 4038 988 3847 723 
Q 3656 459 3429 307 
Q 3203 156 2883 78 
Q 2563 0 2147 0 
L 494 0 
z
M 1100 541 
L 2078 541 
Q 2531 541 2789 625 
Q 3047 709 3200 863 
Q 3416 1078 3536 1442 
Q 3656 1806 3656 2325 
Q 3656 3044 3420 3430 
Q 3184 3816 2847 3947 
Q 2603 4041 2063 4041 
L 1100 4041 
L 1100 541 
z
" transform="scale(0.015625)"/>
      <path id="ArialMT-56" d="M 1803 0 
L 28 4581 
L 684 4581 
L 1875 1253 
Q 2019 853 2116 503 
Q 2222 878 2363 1253 
L 3600 4581 
L 4219 4581 
L 2425 0 
L 1803 0 
z
" transform="scale(0.015625)"/>
     </defs>
     <use xlink:href="#ArialMT-41"/>
     <use xlink:href="#ArialMT-78" transform="translate(66.699219 0)"/>
     <use xlink:href="#ArialMT-65" transform="translate(116.699219 0)"/>
     <use xlink:href="#ArialMT-20" transform="translate(172.314453 0)"/>
     <use xlink:href="#ArialMT-44" transform="translate(200.097656 0)"/>
     <use xlink:href="#ArialMT-2d" transform="translate(272.314453 0)"/>
     <use xlink:href="#ArialMT-56" transform="translate(305.615234 0)"/>
    </g>
   </g>
   <g id="text_13">
    <!-- 3. Polarisation A-P et D-V -->
    <g style="fill: #262626" transform="translate(185.392187 379.08) scale(0.11 -0.11)">
     <defs>
      <path id="Arial-BoldMT-33" d="M 241 1216 
L 1091 1319 
Q 1131 994 1309 822 
Q 1488 650 1741 650 
Q 2013 650 2198 856 
Q 2384 1063 2384 1413 
Q 2384 1744 2206 1937 
Q 2028 2131 1772 2131 
Q 1603 2131 1369 2066 
L 1466 2781 
Q 1822 2772 2009 2936 
Q 2197 3100 2197 3372 
Q 2197 3603 2059 3740 
Q 1922 3878 1694 3878 
Q 1469 3878 1309 3722 
Q 1150 3566 1116 3266 
L 306 3403 
Q 391 3819 561 4067 
Q 731 4316 1036 4458 
Q 1341 4600 1719 4600 
Q 2366 4600 2756 4188 
Q 3078 3850 3078 3425 
Q 3078 2822 2419 2463 
Q 2813 2378 3048 2084 
Q 3284 1791 3284 1375 
Q 3284 772 2843 347 
Q 2403 -78 1747 -78 
Q 1125 -78 715 280 
Q 306 638 241 1216 
z
" transform="scale(0.015625)"/>
      <path id="Arial-BoldMT-50" d="M 466 0 
L 466 4581 
L 1950 4581 
Q 2794 4581 3050 4513 
Q 3444 4409 3709 4064 
Q 3975 3719 3975 3172 
Q 3975 2750 3822 2462 
Q 3669 2175 3433 2011 
Q 3197 1847 2953 1794 
Q 2622 1728 1994 1728 
L 1391 1728 
L 1391 0 
L 466 0 
z
M 1391 3806 
L 1391 2506 
L 1897 2506 
Q 2444 2506 2628 2578 
Q 2813 2650 2917 2803 
Q 3022 2956 3022 3159 
Q 3022 3409 2875 3571 
Q 2728 3734 2503 3775 
Q 2338 3806 1838 3806 
L 1391 3806 
z
" transform="scale(0.015625)"/>
      <path id="Arial-BoldMT-61" d="M 1116 2306 
L 319 2450 
Q 453 2931 781 3162 
Q 1109 3394 1756 3394 
Q 2344 3394 2631 3255 
Q 2919 3116 3036 2902 
Q 3153 2688 3153 2116 
L 3144 1091 
Q 3144 653 3186 445 
Q 3228 238 3344 0 
L 2475 0 
Q 2441 88 2391 259 
Q 2369 338 2359 363 
Q 2134 144 1878 34 
Q 1622 -75 1331 -75 
Q 819 -75 523 203 
Q 228 481 228 906 
Q 228 1188 362 1408 
Q 497 1628 739 1745 
Q 981 1863 1438 1950 
Q 2053 2066 2291 2166 
L 2291 2253 
Q 2291 2506 2166 2614 
Q 2041 2722 1694 2722 
Q 1459 2722 1328 2630 
Q 1197 2538 1116 2306 
z
M 2291 1594 
Q 2122 1538 1756 1459 
Q 1391 1381 1278 1306 
Q 1106 1184 1106 997 
Q 1106 813 1243 678 
Q 1381 544 1594 544 
Q 1831 544 2047 700 
Q 2206 819 2256 991 
Q 2291 1103 2291 1419 
L 2291 1594 
z
" transform="scale(0.015625)"/>
      <path id="Arial-BoldMT-41" d="M 4597 0 
L 3591 0 
L 3191 1041 
L 1359 1041 
L 981 0 
L 0 0 
L 1784 4581 
L 2763 4581 
L 4597 0 
z
M 2894 1813 
L 2263 3513 
L 1644 1813 
L 2894 1813 
z
" transform="scale(0.015625)"/>
      <path id="Arial-BoldMT-2d" d="M 359 1222 
L 359 2100 
L 2084 2100 
L 2084 1222 
L 359 1222 
z
" transform="scale(0.015625)"/>
      <path id="Arial-BoldMT-56" d="M 1634 0 
L -3 4581 
L 1000 4581 
L 2159 1191 
L 3281 4581 
L 4263 4581 
L 2622 0 
L 1634 0 
z
" transform="scale(0.015625)"/>
     </defs>
     <use xlink:href="#Arial-BoldMT-33"/>
     <use xlink:href="#Arial-BoldMT-2e" transform="translate(55.615234 0)"/>
     <use xlink:href="#Arial-BoldMT-20" transform="translate(83.398438 0)"/>
     <use xlink:href="#Arial-BoldMT-50" transform="translate(111.181641 0)"/>
     <use xlink:href="#Arial-BoldMT-6f" transform="translate(177.880859 0)"/>
     <use xlink:href="#Arial-BoldMT-6c" transform="translate(238.964844 0)"/>
     <use xlink:href="#Arial-BoldMT-61" transform="translate(266.748047 0)"/>
     <use xlink:href="#Arial-BoldMT-72" transform="translate(322.363281 0)"/>
     <use xlink:href="#Arial-BoldMT-69" transform="translate(361.279297 0)"/>
     <use xlink:href="#Arial-BoldMT-73" transform="translate(389.0625 0)"/>
     <use xlink:href="#Arial-BoldMT-61" transform="translate(444.677734 0)"/>
     <use xlink:href="#Arial-BoldMT-74" transform="translate(500.292969 0)"/>
     <use xlink:href="#Arial-BoldMT-69" transform="translate(533.59375 0)"/>
     <use xlink:href="#Arial-BoldMT-6f" transform="translate(561.376953 0)"/>
     <use xlink:href="#Arial-BoldMT-6e" transform="translate(622.460938 0)"/>
     <use xlink:href="#Arial-BoldMT-20" transform="translate(683.544922 0)"/>
     <use xlink:href="#Arial-BoldMT-41" transform="translate(707.578125 0)"/>
     <use xlink:href="#Arial-BoldMT-2d" transform="translate(779.794922 0)"/>
     <use xlink:href="#Arial-BoldMT-50" transform="translate(813.095703 0)"/>
     <use xlink:href="#Arial-BoldMT-20" transform="translate(878.044922 0)"/>
     <use xlink:href="#Arial-BoldMT-65" transform="translate(905.828125 0)"/>
     <use xlink:href="#Arial-BoldMT-74" transform="translate(961.443359 0)"/>
     <use xlink:href="#Arial-BoldMT-20" transform="translate(994.744141 0)"/>
     <use xlink:href="#Arial-BoldMT-44" transform="translate(1022.527344 0)"/>
     <use xlink:href="#Arial-BoldMT-2d" transform="translate(1094.744141 0)"/>
     <use xlink:href="#Arial-BoldMT-56" transform="translate(1128.044922 0)"/>
    </g>
   </g>
  </g>
  <g id="axes_4">
   <g id="patch_14">
    <path d="M 554.58 638.616 
L 944.82 638.616 
L 944.82 448.464 
L 554.58 448.464 
z
" clip-path="url(#paa7cb3e260)" style="fill: #dda0dd; opacity: 0.6; stroke: #000000; stroke-width: 2; stroke-linejoin: miter"/>
   </g>
   <g id="patch_15">
    <path d="M 749.7 614.847 
C 782.041518 614.847 813.062765 609.003279 835.931672 598.602849 
C 858.800579 588.202419 871.65 574.094429 871.65 559.386 
C 871.65 544.677571 858.800579 530.569581 835.931672 520.169151 
C 813.062765 509.768721 782.041518 503.925 749.7 503.925 
C 717.358482 503.925 686.337235 509.768721 663.468328 520.169151 
C 640.599421 530.569581 627.75 544.677571 627.75 559.386 
C 627.75 574.094429 640.599421 588.202419 663.468328 598.602849 
C 686.337235 609.003279 717.358482 614.847 749.7 614.847 
z
" clip-path="url(#paa7cb3e260)" style="fill: #87ceeb; stroke: #000000; stroke-width: 2; stroke-linejoin: miter"/>
   </g>
   <g id="patch_16">
    <path d="M 554.58 622.77 
L 676.53 622.77 
L 676.53 464.31 
L 554.58 464.31 
z
" clip-path="url(#paa7cb3e260)" style="fill: #ffd700; stroke: #000000; stroke-width: 1.5; stroke-linejoin: miter"/>
   </g>
   <g id="patch_17">
    <path d="M 666.774 594.2472 
L 686.286 594.2472 
L 686.286 587.9088 
L 666.774 587.9088 
z
" clip-path="url(#paa7cb3e260)"/>
   </g>
   <g id="patch_18">
    <path d="M 666.774 570.4782 
L 686.286 570.4782 
L 686.286 564.1398 
L 666.774 564.1398 
z
" clip-path="url(#paa7cb3e260)"/>
   </g>
   <g id="patch_19">
    <path d="M 666.774 546.7092 
L 686.286 546.7092 
L 686.286 540.3708 
L 666.774 540.3708 
z
" clip-path="url(#paa7cb3e260)"/>
   </g>
   <g id="patch_20">
    <path d="M 666.774 522.9402 
L 686.286 522.9402 
L 686.286 516.6018 
L 666.774 516.6018 
z
" clip-path="url(#paa7cb3e260)"/>
   </g>
   <g id="patch_21">
    <path d="M 666.774 499.1712 
L 686.286 499.1712 
L 686.286 492.8328 
L 666.774 492.8328 
z
" clip-path="url(#paa7cb3e260)"/>
   </g>
   <g id="line2d_17">
    <path d="M 676.53 606.924 
L 676.53 480.156 
" clip-path="url(#paa7cb3e260)" style="fill: none; stroke: #000000; stroke-width: 3; stroke-linecap: round"/>
   </g>
   <g id="text_14">
    <!-- Cellules folliculaires -->
    <g style="fill: #262626" transform="translate(706.186406 464.31) scale(0.09 -0.09)">
     <defs>
      <path id="Arial-BoldMT-66" d="M 75 3319 
L 563 3319 
L 563 3569 
Q 563 3988 652 4194 
Q 741 4400 980 4529 
Q 1219 4659 1584 4659 
Q 1959 4659 2319 4547 
L 2200 3934 
Q 1991 3984 1797 3984 
Q 1606 3984 1523 3895 
Q 1441 3806 1441 3553 
L 1441 3319 
L 2097 3319 
L 2097 2628 
L 1441 2628 
L 1441 0 
L 563 0 
L 563 2628 
L 75 2628 
L 75 3319 
z
" transform="scale(0.015625)"/>
     </defs>
     <use xlink:href="#Arial-BoldMT-43"/>
     <use xlink:href="#Arial-BoldMT-65" transform="translate(72.216797 0)"/>
     <use xlink:href="#Arial-BoldMT-6c" transform="translate(127.832031 0)"/>
     <use xlink:href="#Arial-BoldMT-6c" transform="translate(155.615234 0)"/>
     <use xlink:href="#Arial-BoldMT-75" transform="translate(183.398438 0)"/>
     <use xlink:href="#Arial-BoldMT-6c" transform="translate(244.482422 0)"/>
     <use xlink:href="#Arial-BoldMT-65" transform="translate(272.265625 0)"/>
     <use xlink:href="#Arial-BoldMT-73" transform="translate(327.880859 0)"/>
     <use xlink:href="#Arial-BoldMT-20" transform="translate(383.496094 0)"/>
     <use xlink:href="#Arial-BoldMT-66" transform="translate(411.279297 0)"/>
     <use xlink:href="#Arial-BoldMT-6f" transform="translate(444.580078 0)"/>
     <use xlink:href="#Arial-BoldMT-6c" transform="translate(505.664062 0)"/>
     <use xlink:href="#Arial-BoldMT-6c" transform="translate(533.447266 0)"/>
     <use xlink:href="#Arial-BoldMT-69" transform="translate(561.230469 0)"/>
     <use xlink:href="#Arial-BoldMT-63" transform="translate(589.013672 0)"/>
     <use xlink:href="#Arial-BoldMT-75" transform="translate(644.628906 0)"/>
     <use xlink:href="#Arial-BoldMT-6c" transform="translate(705.712891 0)"/>
     <use xlink:href="#Arial-BoldMT-61" transform="translate(733.496094 0)"/>
     <use xlink:href="#Arial-BoldMT-69" transform="translate(789.111328 0)"/>
     <use xlink:href="#Arial-BoldMT-72" transform="translate(816.894531 0)"/>
     <use xlink:href="#Arial-BoldMT-65" transform="translate(855.810547 0)"/>
     <use xlink:href="#Arial-BoldMT-73" transform="translate(911.425781 0)"/>
    </g>
   </g>
   <g id="text_15">
    <!-- Ovocyte -->
    <g style="fill: #ffffff" transform="translate(727.997344 562.23225) scale(0.11 -0.11)">
     <defs>
      <path id="Arial-BoldMT-4f" d="M 278 2263 
Q 278 2963 488 3438 
Q 644 3788 914 4066 
Q 1184 4344 1506 4478 
Q 1934 4659 2494 4659 
Q 3506 4659 4114 4031 
Q 4722 3403 4722 2284 
Q 4722 1175 4119 548 
Q 3516 -78 2506 -78 
Q 1484 -78 881 545 
Q 278 1169 278 2263 
z
M 1231 2294 
Q 1231 1516 1590 1114 
Q 1950 713 2503 713 
Q 3056 713 3411 1111 
Q 3766 1509 3766 2306 
Q 3766 3094 3420 3481 
Q 3075 3869 2503 3869 
Q 1931 3869 1581 3476 
Q 1231 3084 1231 2294 
z
" transform="scale(0.015625)"/>
     </defs>
     <use xlink:href="#Arial-BoldMT-4f"/>
     <use xlink:href="#Arial-BoldMT-76" transform="translate(77.783203 0)"/>
     <use xlink:href="#Arial-BoldMT-6f" transform="translate(133.398438 0)"/>
     <use xlink:href="#Arial-BoldMT-63" transform="translate(194.482422 0)"/>
     <use xlink:href="#Arial-BoldMT-79" transform="translate(250.097656 0)"/>
     <use xlink:href="#Arial-BoldMT-74" transform="translate(305.712891 0)"/>
     <use xlink:href="#Arial-BoldMT-65" transform="translate(339.013672 0)"/>
    </g>
   </g>
   <g id="text_16">
    <!-- Nurse -->
    <g style="fill: #262626" transform="translate(602.800312 541.119703) scale(0.09 -0.09)">
     <defs>
      <path id="Arial-BoldMT-4e" d="M 475 0 
L 475 4581 
L 1375 4581 
L 3250 1522 
L 3250 4581 
L 4109 4581 
L 4109 0 
L 3181 0 
L 1334 2988 
L 1334 0 
L 475 0 
z
" transform="scale(0.015625)"/>
     </defs>
     <use xlink:href="#Arial-BoldMT-4e"/>
     <use xlink:href="#Arial-BoldMT-75" transform="translate(72.216797 0)"/>
     <use xlink:href="#Arial-BoldMT-72" transform="translate(133.300781 0)"/>
     <use xlink:href="#Arial-BoldMT-73" transform="translate(172.216797 0)"/>
     <use xlink:href="#Arial-BoldMT-65" transform="translate(227.832031 0)"/>
    </g>
    <!-- Cells -->
    <g style="fill: #262626" transform="translate(604.8 550.626234) scale(0.09 -0.09)">
     <use xlink:href="#Arial-BoldMT-43"/>
     <use xlink:href="#Arial-BoldMT-65" transform="translate(72.216797 0)"/>
     <use xlink:href="#Arial-BoldMT-6c" transform="translate(127.832031 0)"/>
     <use xlink:href="#Arial-BoldMT-6c" transform="translate(155.615234 0)"/>
     <use xlink:href="#Arial-BoldMT-73" transform="translate(183.398438 0)"/>
    </g>
   </g>
   <g id="text_17">
    <!-- 4. Chambre Ovarienne Mature -->
    <g style="fill: #262626" transform="translate(671.761563 379.08) scale(0.11 -0.11)">
     <defs>
      <path id="Arial-BoldMT-34" d="M 1994 0 
L 1994 922 
L 119 922 
L 119 1691 
L 2106 4600 
L 2844 4600 
L 2844 1694 
L 3413 1694 
L 3413 922 
L 2844 922 
L 2844 0 
L 1994 0 
z
M 1994 1694 
L 1994 3259 
L 941 1694 
L 1994 1694 
z
" transform="scale(0.015625)"/>
      <path id="Arial-BoldMT-68" d="M 1334 4581 
L 1334 2897 
Q 1759 3394 2350 3394 
Q 2653 3394 2897 3281 
Q 3141 3169 3264 2994 
Q 3388 2819 3433 2606 
Q 3478 2394 3478 1947 
L 3478 0 
L 2600 0 
L 2600 1753 
Q 2600 2275 2550 2415 
Q 2500 2556 2373 2639 
Q 2247 2722 2056 2722 
Q 1838 2722 1666 2615 
Q 1494 2509 1414 2295 
Q 1334 2081 1334 1663 
L 1334 0 
L 456 0 
L 456 4581 
L 1334 4581 
z
" transform="scale(0.015625)"/>
      <path id="Arial-BoldMT-6d" d="M 394 3319 
L 1203 3319 
L 1203 2866 
Q 1638 3394 2238 3394 
Q 2556 3394 2790 3262 
Q 3025 3131 3175 2866 
Q 3394 3131 3647 3262 
Q 3900 3394 4188 3394 
Q 4553 3394 4806 3245 
Q 5059 3097 5184 2809 
Q 5275 2597 5275 2122 
L 5275 0 
L 4397 0 
L 4397 1897 
Q 4397 2391 4306 2534 
Q 4184 2722 3931 2722 
Q 3747 2722 3584 2609 
Q 3422 2497 3350 2280 
Q 3278 2063 3278 1594 
L 3278 0 
L 2400 0 
L 2400 1819 
Q 2400 2303 2353 2443 
Q 2306 2584 2207 2653 
Q 2109 2722 1941 2722 
Q 1738 2722 1575 2612 
Q 1413 2503 1342 2297 
Q 1272 2091 1272 1613 
L 1272 0 
L 394 0 
L 394 3319 
z
" transform="scale(0.015625)"/>
      <path id="Arial-BoldMT-4d" d="M 453 0 
L 453 4581 
L 1838 4581 
L 2669 1456 
L 3491 4581 
L 4878 4581 
L 4878 0 
L 4019 0 
L 4019 3606 
L 3109 0 
L 2219 0 
L 1313 3606 
L 1313 0 
L 453 0 
z
" transform="scale(0.015625)"/>
     </defs>
     <use xlink:href="#Arial-BoldMT-34"/>
     <use xlink:href="#Arial-BoldMT-2e" transform="translate(55.615234 0)"/>
     <use xlink:href="#Arial-BoldMT-20" transform="translate(83.398438 0)"/>
     <use xlink:href="#Arial-BoldMT-43" transform="translate(111.181641 0)"/>
     <use xlink:href="#Arial-BoldMT-68" transform="translate(183.398438 0)"/>
     <use xlink:href="#Arial-BoldMT-61" transform="translate(244.482422 0)"/>
     <use xlink:href="#Arial-BoldMT-6d" transform="translate(300.097656 0)"/>
     <use xlink:href="#Arial-BoldMT-62" transform="translate(389.013672 0)"/>
     <use xlink:href="#Arial-BoldMT-72" transform="translate(450.097656 0)"/>
     <use xlink:href="#Arial-BoldMT-65" transform="translate(489.013672 0)"/>
     <use xlink:href="#Arial-BoldMT-20" transform="translate(544.628906 0)"/>
     <use xlink:href="#Arial-BoldMT-4f" transform="translate(572.412109 0)"/>
     <use xlink:href="#Arial-BoldMT-76" transform="translate(650.195312 0)"/>
     <use xlink:href="#Arial-BoldMT-61" transform="translate(705.810547 0)"/>
     <use xlink:href="#Arial-BoldMT-72" transform="translate(761.425781 0)"/>
     <use xlink:href="#Arial-BoldMT-69" transform="translate(800.341797 0)"/>
     <use xlink:href="#Arial-BoldMT-65" transform="translate(828.125 0)"/>
     <use xlink:href="#Arial-BoldMT-6e" transform="translate(883.740234 0)"/>
     <use xlink:href="#Arial-BoldMT-6e" transform="translate(944.824219 0)"/>
     <use xlink:href="#Arial-BoldMT-65" transform="translate(1005.908203 0)"/>
     <use xlink:href="#Arial-BoldMT-20" transform="translate(1061.523438 0)"/>
     <use xlink:href="#Arial-BoldMT-4d" transform="translate(1089.306641 0)"/>
     <use xlink:href="#Arial-BoldMT-61" transform="translate(1172.607422 0)"/>
     <use xlink:href="#Arial-BoldMT-74" transform="translate(1228.222656 0)"/>
     <use xlink:href="#Arial-BoldMT-75" transform="translate(1261.523438 0)"/>
     <use xlink:href="#Arial-BoldMT-72" transform="translate(1322.607422 0)"/>
     <use xlink:href="#Arial-BoldMT-65" transform="translate(1361.523438 0)"/>
    </g>
   </g>
  </g>
  <g id="text_18">
   <!-- Processus d'Ovogenèse - Étapes Clés -->
   <g style="fill: #262626" transform="translate(373.469219 19.771562) scale(0.14 -0.14)">
    <defs>
     <path id="Arial-BoldMT-27" d="M 453 2953 
L 288 3806 
L 288 4581 
L 1244 4581 
L 1244 3806 
L 1100 2953 
L 453 2953 
z
" transform="scale(0.015625)"/>
     <path id="Arial-BoldMT-e8" d="M 2381 1056 
L 3256 909 
Q 3088 428 2723 176 
Q 2359 -75 1813 -75 
Q 947 -75 531 491 
Q 203 944 203 1634 
Q 203 2459 634 2926 
Q 1066 3394 1725 3394 
Q 2466 3394 2894 2905 
Q 3322 2416 3303 1406 
L 1103 1406 
Q 1113 1016 1316 798 
Q 1519 581 1822 581 
Q 2028 581 2168 693 
Q 2309 806 2381 1056 
z
M 2431 1944 
Q 2422 2325 2234 2523 
Q 2047 2722 1778 2722 
Q 1491 2722 1303 2513 
Q 1116 2303 1119 1944 
L 2431 1944 
z
M 2195 3725 
L 1642 3725 
L 779 4659 
L 1764 4659 
L 2195 3725 
z
" transform="scale(0.015625)"/>
     <path id="Arial-BoldMT-c9" d="M 466 0 
L 466 4581 
L 3863 4581 
L 3863 3806 
L 1391 3806 
L 1391 2791 
L 3691 2791 
L 3691 2019 
L 1391 2019 
L 1391 772 
L 3950 772 
L 3950 0 
L 466 0 
z
M 1640 4813 
L 2072 5747 
L 3056 5747 
L 2197 4813 
L 1640 4813 
z
" transform="scale(0.015625)"/>
     <path id="Arial-BoldMT-70" d="M 434 3319 
L 1253 3319 
L 1253 2831 
Q 1413 3081 1684 3237 
Q 1956 3394 2288 3394 
Q 2866 3394 3269 2941 
Q 3672 2488 3672 1678 
Q 3672 847 3265 386 
Q 2859 -75 2281 -75 
Q 2006 -75 1782 34 
Q 1559 144 1313 409 
L 1313 -1263 
L 434 -1263 
L 434 3319 
z
M 1303 1716 
Q 1303 1156 1525 889 
Q 1747 622 2066 622 
Q 2372 622 2575 867 
Q 2778 1113 2778 1672 
Q 2778 2194 2568 2447 
Q 2359 2700 2050 2700 
Q 1728 2700 1515 2451 
Q 1303 2203 1303 1716 
z
" transform="scale(0.015625)"/>
     <path id="Arial-BoldMT-e9" d="M 2381 1056 
L 3256 909 
Q 3088 428 2723 176 
Q 2359 -75 1813 -75 
Q 947 -75 531 491 
Q 203 944 203 1634 
Q 203 2459 634 2926 
Q 1066 3394 1725 3394 
Q 2466 3394 2894 2905 
Q 3322 2416 3303 1406 
L 1103 1406 
Q 1113 1016 1316 798 
Q 1519 581 1822 581 
Q 2028 581 2168 693 
Q 2309 806 2381 1056 
z
M 2431 1944 
Q 2422 2325 2234 2523 
Q 2047 2722 1778 2722 
Q 1491 2722 1303 2513 
Q 1116 2303 1119 1944 
L 2431 1944 
z
M 1312 3725 
L 1744 4659 
L 2728 4659 
L 1869 3725 
L 1312 3725 
z
" transform="scale(0.015625)"/>
    </defs>
    <use xlink:href="#Arial-BoldMT-50"/>
    <use xlink:href="#Arial-BoldMT-72" transform="translate(66.699219 0)"/>
    <use xlink:href="#Arial-BoldMT-6f" transform="translate(105.615234 0)"/>
    <use xlink:href="#Arial-BoldMT-63" transform="translate(166.699219 0)"/>
    <use xlink:href="#Arial-BoldMT-65" transform="translate(222.314453 0)"/>
    <use xlink:href="#Arial-BoldMT-73" transform="translate(277.929688 0)"/>
    <use xlink:href="#Arial-BoldMT-73" transform="translate(333.544922 0)"/>
    <use xlink:href="#Arial-BoldMT-75" transform="translate(389.160156 0)"/>
    <use xlink:href="#Arial-BoldMT-73" transform="translate(450.244141 0)"/>
    <use xlink:href="#Arial-BoldMT-20" transform="translate(505.859375 0)"/>
    <use xlink:href="#Arial-BoldMT-64" transform="translate(533.642578 0)"/>
    <use xlink:href="#Arial-BoldMT-27" transform="translate(594.726562 0)"/>
    <use xlink:href="#Arial-BoldMT-4f" transform="translate(618.505859 0)"/>
    <use xlink:href="#Arial-BoldMT-76" transform="translate(696.289062 0)"/>
    <use xlink:href="#Arial-BoldMT-6f" transform="translate(751.904297 0)"/>
    <use xlink:href="#Arial-BoldMT-67" transform="translate(812.988281 0)"/>
    <use xlink:href="#Arial-BoldMT-65" transform="translate(874.072266 0)"/>
    <use xlink:href="#Arial-BoldMT-6e" transform="translate(929.6875 0)"/>
    <use xlink:href="#Arial-BoldMT-e8" transform="translate(990.771484 0)"/>
    <use xlink:href="#Arial-BoldMT-73" transform="translate(1046.386719 0)"/>
    <use xlink:href="#Arial-BoldMT-65" transform="translate(1102.001953 0)"/>
    <use xlink:href="#Arial-BoldMT-20" transform="translate(1157.617188 0)"/>
    <use xlink:href="#Arial-BoldMT-2d" transform="translate(1185.400391 0)"/>
    <use xlink:href="#Arial-BoldMT-20" transform="translate(1218.701172 0)"/>
    <use xlink:href="#Arial-BoldMT-c9" transform="translate(1246.484375 0)"/>
    <use xlink:href="#Arial-BoldMT-74" transform="translate(1313.183594 0)"/>
    <use xlink:href="#Arial-BoldMT-61" transform="translate(1346.484375 0)"/>
    <use xlink:href="#Arial-BoldMT-70" transform="translate(1402.099609 0)"/>
    <use xlink:href="#Arial-BoldMT-65" transform="translate(1463.183594 0)"/>
    <use xlink:href="#Arial-BoldMT-73" transform="translate(1518.798828 0)"/>
    <use xlink:href="#Arial-BoldMT-20" transform="translate(1574.414062 0)"/>
    <use xlink:href="#Arial-BoldMT-43" transform="translate(1602.197266 0)"/>
    <use xlink:href="#Arial-BoldMT-6c" transform="translate(1674.414062 0)"/>
    <use xlink:href="#Arial-BoldMT-e9" transform="translate(1702.197266 0)"/>
    <use xlink:href="#Arial-BoldMT-73" transform="translate(1757.8125 0)"/>
   </g>
  </g>
 </g>
 <defs>
  <clipPath id="pd2e4f21bba">
   <rect x="7.2" y="43.44" width="487.8" height="316.92"/>
  </clipPath>
  <clipPath id="p56a66f466c">
   <rect x="505.8" y="43.44" width="487.8" height="316.92"/>
  </clipPath>
  <clipPath id="pd5c80d7df8">
   <rect x="7.2" y="385.08" width="487.8" height="316.92"/>
  </clipPath>
  <clipPath id="paa7cb3e260">
   <rect x="505.8" y="385.08" width="487.8" height="316.92"/>
  </clipPath>
 </defs>
</svg>
