<?xml version="1.0" encoding="utf-8" standalone="no"?>
<!DOCTYPE svg PUBLIC "-//W3C//DTD SVG 1.1//EN"
  "http://www.w3.org/Graphics/SVG/1.1/DTD/svg11.dtd">
<svg xmlns:xlink="http://www.w3.org/1999/xlink" width="795.6pt" height="598.991563pt" viewBox="0 0 795.6 598.991563" xmlns="http://www.w3.org/2000/svg" version="1.1">
 <metadata>
  <rdf:RDF xmlns:dc="http://purl.org/dc/elements/1.1/" xmlns:cc="http://creativecommons.org/ns#" xmlns:rdf="http://www.w3.org/1999/02/22-rdf-syntax-ns#">
   <cc:Work>
    <dc:type rdf:resource="http://purl.org/dc/dcmitype/StillImage"/>
    <dc:date>2026-03-31T10:30:19.448337</dc:date>
    <dc:format>image/svg+xml</dc:format>
    <dc:creator>
     <cc:Agent>
      <dc:title>Matplotlib v3.10.8, https://matplotlib.org/</dc:title>
     </cc:Agent>
    </dc:creator>
   </cc:Work>
  </rdf:RDF>
 </metadata>
 <defs>
  <style type="text/css">*{stroke-linejoin: round; stroke-linecap: butt}</style>
 </defs>
 <g id="figure_1">
  <g id="patch_1">
   <path d="M 0 598.991563 
L 795.6 598.991563 
L 795.6 0 
L 0 0 
z
" style="fill: #ffffff"/>
  </g>
  <g id="axes_1">
   <g id="patch_2">
    <path d="M 118.8 138.191563 
L 676.8 138.191563 
Q 687.96 138.191563 687.96 128.111563 
L 687.96 47.471563 
Q 687.96 37.391563 676.8 37.391563 
L 118.8 37.391563 
Q 107.64 37.391563 107.64 47.471563 
L 107.64 128.111563 
Q 107.64 138.191563 118.8 138.191563 
z
" clip-path="url(#p9bb1860498)" style="fill: #87ceeb; stroke: #000000; stroke-width: 2.5; stroke-linejoin: miter"/>
   </g>
   <g id="patch_3">
    <path d="M 118.8 238.991563 
L 676.8 238.991563 
Q 687.96 238.991563 687.96 228.911563 
L 687.96 148.271563 
Q 687.96 138.191563 676.8 138.191563 
L 118.8 138.191563 
Q 107.64 138.191563 107.64 148.271563 
L 107.64 228.911563 
Q 107.64 238.991563 118.8 238.991563 
z
" clip-path="url(#p9bb1860498)" style="fill: #98fb98; stroke: #000000; stroke-width: 2; stroke-linejoin: miter"/>
   </g>
   <g id="patch_4">
    <path d="M 118.8 339.791563 
L 676.8 339.791563 
Q 687.96 339.791563 687.96 329.711563 
L 687.96 249.071563 
Q 687.96 238.991563 676.8 238.991563 
L 118.8 238.991563 
Q 107.64 238.991563 107.64 249.071563 
L 107.64 329.711563 
Q 107.64 339.791563 118.8 339.791563 
z
" clip-path="url(#p9bb1860498)" style="fill: #ffd700; stroke: #000000; stroke-width: 2; stroke-linejoin: miter"/>
   </g>
   <g id="patch_5">
    <path d="M 118.8 440.591563 
L 676.8 440.591563 
Q 687.96 440.591563 687.96 430.511563 
L 687.96 349.871563 
Q 687.96 339.791563 676.8 339.791563 
L 118.8 339.791563 
Q 107.64 339.791563 107.64 349.871563 
L 107.64 430.511563 
Q 107.64 440.591563 118.8 440.591563 
z
" clip-path="url(#p9bb1860498)" style="fill: #ffa07a; stroke: #000000; stroke-width: 2; stroke-linejoin: miter"/>
   </g>
   <g id="patch_6">
    <path d="M 118.8 541.391563 
L 676.8 541.391563 
Q 687.96 541.391563 687.96 531.311563 
L 687.96 450.671563 
Q 687.96 440.591563 676.8 440.591563 
L 118.8 440.591563 
Q 107.64 440.591563 107.64 450.671563 
L 107.64 531.311563 
Q 107.64 541.391563 118.8 541.391563 
z
" clip-path="url(#p9bb1860498)" style="fill: #dda0dd; stroke: #000000; stroke-width: 2; stroke-linejoin: miter"/>
   </g>
   <g id="patch_7">
    <path d="M 23.94 584.231563 
L 302.94 584.231563 
Q 311.31 584.231563 311.31 576.671563 
L 311.31 506.111563 
Q 311.31 498.551563 302.94 498.551563 
L 23.94 498.551563 
Q 15.57 498.551563 15.57 506.111563 
L 15.57 576.671563 
Q 15.57 584.231563 23.94 584.231563 
z
" clip-path="url(#p9bb1860498)" style="fill: #f5f5dc; stroke: #8b4513; stroke-width: 2; stroke-linejoin: miter"/>
   </g>
   <g id="text_1">
    <!-- Gènes Maternels -->
    <g transform="translate(349.783125 75.782188) scale(0.12 -0.12)">
     <defs>
      <path id="Arial-BoldMT-47" d="M 2597 1684 
L 2597 2456 
L 4591 2456 
L 4591 631 
Q 4300 350 3748 136 
Q 3197 -78 2631 -78 
Q 1913 -78 1378 223 
Q 844 525 575 1086 
Q 306 1647 306 2306 
Q 306 3022 606 3578 
Q 906 4134 1484 4431 
Q 1925 4659 2581 4659 
Q 3434 4659 3914 4301 
Q 4394 3944 4531 3313 
L 3613 3141 
Q 3516 3478 3248 3673 
Q 2981 3869 2581 3869 
Q 1975 3869 1617 3484 
Q 1259 3100 1259 2344 
Q 1259 1528 1621 1120 
Q 1984 713 2572 713 
Q 2863 713 3155 827 
Q 3447 941 3656 1103 
L 3656 1684 
L 2597 1684 
z
" transform="scale(0.015625)"/>
      <path id="Arial-BoldMT-e8" d="M 2381 1056 
L 3256 909 
Q 3088 428 2723 176 
Q 2359 -75 1813 -75 
Q 947 -75 531 491 
Q 203 944 203 1634 
Q 203 2459 634 2926 
Q 1066 3394 1725 3394 
Q 2466 3394 2894 2905 
Q 3322 2416 3303 1406 
L 1103 1406 
Q 1113 1016 1316 798 
Q 1519 581 1822 581 
Q 2028 581 2168 693 
Q 2309 806 2381 1056 
z
M 2431 1944 
Q 2422 2325 2234 2523 
Q 2047 2722 1778 2722 
Q 1491 2722 1303 2513 
Q 1116 2303 1119 1944 
L 2431 1944 
z
M 2195 3725 
L 1642 3725 
L 779 4659 
L 1764 4659 
L 2195 3725 
z
" transform="scale(0.015625)"/>
      <path id="Arial-BoldMT-6e" d="M 3478 0 
L 2600 0 
L 2600 1694 
Q 2600 2231 2544 2389 
Q 2488 2547 2361 2634 
Q 2234 2722 2056 2722 
Q 1828 2722 1647 2597 
Q 1466 2472 1398 2265 
Q 1331 2059 1331 1503 
L 1331 0 
L 453 0 
L 453 3319 
L 1269 3319 
L 1269 2831 
Q 1703 3394 2363 3394 
Q 2653 3394 2893 3289 
Q 3134 3184 3257 3021 
Q 3381 2859 3429 2653 
Q 3478 2447 3478 2063 
L 3478 0 
z
" transform="scale(0.015625)"/>
      <path id="Arial-BoldMT-65" d="M 2381 1056 
L 3256 909 
Q 3088 428 2723 176 
Q 2359 -75 1813 -75 
Q 947 -75 531 491 
Q 203 944 203 1634 
Q 203 2459 634 2926 
Q 1066 3394 1725 3394 
Q 2466 3394 2894 2905 
Q 3322 2416 3303 1406 
L 1103 1406 
Q 1113 1016 1316 798 
Q 1519 581 1822 581 
Q 2028 581 2168 693 
Q 2309 806 2381 1056 
z
M 2431 1944 
Q 2422 2325 2234 2523 
Q 2047 2722 1778 2722 
Q 1491 2722 1303 2513 
Q 1116 2303 1119 1944 
L 2431 1944 
z
" transform="scale(0.015625)"/>
      <path id="Arial-BoldMT-73" d="M 150 947 
L 1031 1081 
Q 1088 825 1259 692 
Q 1431 559 1741 559 
Q 2081 559 2253 684 
Q 2369 772 2369 919 
Q 2369 1019 2306 1084 
Q 2241 1147 2013 1200 
Q 950 1434 666 1628 
Q 272 1897 272 2375 
Q 272 2806 612 3100 
Q 953 3394 1669 3394 
Q 2350 3394 2681 3172 
Q 3013 2950 3138 2516 
L 2309 2363 
Q 2256 2556 2107 2659 
Q 1959 2763 1684 2763 
Q 1338 2763 1188 2666 
Q 1088 2597 1088 2488 
Q 1088 2394 1175 2328 
Q 1294 2241 1995 2081 
Q 2697 1922 2975 1691 
Q 3250 1456 3250 1038 
Q 3250 581 2869 253 
Q 2488 -75 1741 -75 
Q 1063 -75 667 200 
Q 272 475 150 947 
z
" transform="scale(0.015625)"/>
      <path id="Arial-BoldMT-20" transform="scale(0.015625)"/>
      <path id="Arial-BoldMT-4d" d="M 453 0 
L 453 4581 
L 1838 4581 
L 2669 1456 
L 3491 4581 
L 4878 4581 
L 4878 0 
L 4019 0 
L 4019 3606 
L 3109 0 
L 2219 0 
L 1313 3606 
L 1313 0 
L 453 0 
z
" transform="scale(0.015625)"/>
      <path id="Arial-BoldMT-61" d="M 1116 2306 
L 319 2450 
Q 453 2931 781 3162 
Q 1109 3394 1756 3394 
Q 2344 3394 2631 3255 
Q 2919 3116 3036 2902 
Q 3153 2688 3153 2116 
L 3144 1091 
Q 3144 653 3186 445 
Q 3228 238 3344 0 
L 2475 0 
Q 2441 88 2391 259 
Q 2369 338 2359 363 
Q 2134 144 1878 34 
Q 1622 -75 1331 -75 
Q 819 -75 523 203 
Q 228 481 228 906 
Q 228 1188 362 1408 
Q 497 1628 739 1745 
Q 981 1863 1438 1950 
Q 2053 2066 2291 2166 
L 2291 2253 
Q 2291 2506 2166 2614 
Q 2041 2722 1694 2722 
Q 1459 2722 1328 2630 
Q 1197 2538 1116 2306 
z
M 2291 1594 
Q 2122 1538 1756 1459 
Q 1391 1381 1278 1306 
Q 1106 1184 1106 997 
Q 1106 813 1243 678 
Q 1381 544 1594 544 
Q 1831 544 2047 700 
Q 2206 819 2256 991 
Q 2291 1103 2291 1419 
L 2291 1594 
z
" transform="scale(0.015625)"/>
      <path id="Arial-BoldMT-74" d="M 1981 3319 
L 1981 2619 
L 1381 2619 
L 1381 1281 
Q 1381 875 1398 808 
Q 1416 741 1477 697 
Q 1538 653 1625 653 
Q 1747 653 1978 738 
L 2053 56 
Q 1747 -75 1359 -75 
Q 1122 -75 931 4 
Q 741 84 652 211 
Q 563 338 528 553 
Q 500 706 500 1172 
L 500 2619 
L 97 2619 
L 97 3319 
L 500 3319 
L 500 3978 
L 1381 4491 
L 1381 3319 
L 1981 3319 
z
" transform="scale(0.015625)"/>
      <path id="Arial-BoldMT-72" d="M 1300 0 
L 422 0 
L 422 3319 
L 1238 3319 
L 1238 2847 
Q 1447 3181 1614 3287 
Q 1781 3394 1994 3394 
Q 2294 3394 2572 3228 
L 2300 2463 
Q 2078 2606 1888 2606 
Q 1703 2606 1575 2504 
Q 1447 2403 1373 2137 
Q 1300 1872 1300 1025 
L 1300 0 
z
" transform="scale(0.015625)"/>
      <path id="Arial-BoldMT-6c" d="M 459 0 
L 459 4581 
L 1338 4581 
L 1338 0 
L 459 0 
z
" transform="scale(0.015625)"/>
     </defs>
     <use xlink:href="#Arial-BoldMT-47"/>
     <use xlink:href="#Arial-BoldMT-e8" transform="translate(77.783203 0)"/>
     <use xlink:href="#Arial-BoldMT-6e" transform="translate(133.398438 0)"/>
     <use xlink:href="#Arial-BoldMT-65" transform="translate(194.482422 0)"/>
     <use xlink:href="#Arial-BoldMT-73" transform="translate(250.097656 0)"/>
     <use xlink:href="#Arial-BoldMT-20" transform="translate(305.712891 0)"/>
     <use xlink:href="#Arial-BoldMT-4d" transform="translate(333.496094 0)"/>
     <use xlink:href="#Arial-BoldMT-61" transform="translate(416.796875 0)"/>
     <use xlink:href="#Arial-BoldMT-74" transform="translate(472.412109 0)"/>
     <use xlink:href="#Arial-BoldMT-65" transform="translate(505.712891 0)"/>
     <use xlink:href="#Arial-BoldMT-72" transform="translate(561.328125 0)"/>
     <use xlink:href="#Arial-BoldMT-6e" transform="translate(600.244141 0)"/>
     <use xlink:href="#Arial-BoldMT-65" transform="translate(661.328125 0)"/>
     <use xlink:href="#Arial-BoldMT-6c" transform="translate(716.943359 0)"/>
     <use xlink:href="#Arial-BoldMT-73" transform="translate(744.726562 0)"/>
    </g>
   </g>
   <g id="text_2">
    <!-- bicoid, nanos, toll, torso -->
    <g style="fill: #262626" transform="translate(350.526797 100.360063) scale(0.09 -0.09)">
     <defs>
      <path id="Arial-ItalicMT-62" d="M 213 0 
L 1169 4581 
L 1734 4581 
L 1394 2944 
Q 1663 3191 1881 3292 
Q 2100 3394 2338 3394 
Q 2803 3394 3114 3047 
Q 3425 2700 3425 2038 
Q 3425 1597 3300 1231 
Q 3175 866 2990 617 
Q 2806 369 2609 220 
Q 2413 72 2206 -1 
Q 2000 -75 1809 -75 
Q 1481 -75 1231 98 
Q 981 272 841 628 
L 709 0 
L 213 0 
z
M 1050 1363 
L 1047 1256 
Q 1047 831 1250 609 
Q 1453 388 1756 388 
Q 2053 388 2301 595 
Q 2550 803 2709 1243 
Q 2869 1684 2869 2056 
Q 2869 2475 2667 2706 
Q 2466 2938 2169 2938 
Q 1863 2938 1606 2702 
Q 1350 2466 1178 1975 
Q 1050 1609 1050 1363 
z
" transform="scale(0.015625)"/>
      <path id="Arial-ItalicMT-69" d="M 1016 3941 
L 1150 4581 
L 1713 4581 
L 1578 3941 
L 1016 3941 
z
M 191 0 
L 884 3319 
L 1450 3319 
L 756 0 
L 191 0 
z
" transform="scale(0.015625)"/>
      <path id="Arial-ItalicMT-63" d="M 2503 1209 
L 3069 1150 
Q 2856 528 2464 226 
Q 2072 -75 1572 -75 
Q 1031 -75 695 275 
Q 359 625 359 1253 
Q 359 1797 575 2322 
Q 791 2847 1192 3120 
Q 1594 3394 2109 3394 
Q 2644 3394 2956 3092 
Q 3269 2791 3269 2294 
L 2713 2256 
Q 2709 2572 2529 2750 
Q 2350 2928 2056 2928 
Q 1716 2928 1466 2712 
Q 1216 2497 1073 2058 
Q 931 1619 931 1213 
Q 931 788 1118 575 
Q 1306 363 1581 363 
Q 1856 363 2107 572 
Q 2359 781 2503 1209 
z
" transform="scale(0.015625)"/>
      <path id="Arial-ItalicMT-6f" d="M 313 1259 
Q 313 2231 884 2869 
Q 1356 3394 2122 3394 
Q 2722 3394 3089 3019 
Q 3456 2644 3456 2006 
Q 3456 1434 3225 942 
Q 2994 450 2567 187 
Q 2141 -75 1669 -75 
Q 1281 -75 964 90 
Q 647 256 480 559 
Q 313 863 313 1259 
z
M 878 1316 
Q 878 847 1103 605 
Q 1328 363 1675 363 
Q 1856 363 2034 436 
Q 2213 509 2366 659 
Q 2519 809 2626 1001 
Q 2734 1194 2800 1416 
Q 2897 1725 2897 2009 
Q 2897 2459 2670 2707 
Q 2444 2956 2100 2956 
Q 1834 2956 1615 2829 
Q 1397 2703 1220 2459 
Q 1044 2216 961 1892 
Q 878 1569 878 1316 
z
" transform="scale(0.015625)"/>
      <path id="Arial-ItalicMT-64" d="M 2450 481 
Q 1966 -75 1438 -75 
Q 966 -75 652 273 
Q 338 622 338 1284 
Q 338 1891 586 2392 
Q 834 2894 1207 3144 
Q 1581 3394 1956 3394 
Q 2575 3394 2891 2797 
L 3266 4581 
L 3828 4581 
L 2872 0 
L 2350 0 
L 2450 481 
z
M 900 1391 
Q 900 1044 969 844 
Q 1038 644 1203 511 
Q 1369 378 1600 378 
Q 1984 378 2297 778 
Q 2716 1309 2716 2091 
Q 2716 2484 2509 2706 
Q 2303 2928 1991 2928 
Q 1788 2928 1620 2837 
Q 1453 2747 1289 2530 
Q 1125 2313 1012 1978 
Q 900 1644 900 1391 
z
" transform="scale(0.015625)"/>
      <path id="Arial-ItalicMT-2c" d="M 347 0 
L 481 641 
L 1125 641 
L 1009 81 
Q 903 -422 679 -656 
Q 456 -891 153 -925 
L 206 -678 
Q 578 -575 697 0 
L 347 0 
z
" transform="scale(0.015625)"/>
      <path id="Arial-ItalicMT-20" transform="scale(0.015625)"/>
      <path id="Arial-ItalicMT-6e" d="M 213 0 
L 906 3319 
L 1419 3319 
L 1297 2741 
Q 1631 3081 1922 3237 
Q 2213 3394 2516 3394 
Q 2919 3394 3148 3175 
Q 3378 2956 3378 2591 
Q 3378 2406 3297 2009 
L 2875 0 
L 2309 0 
L 2750 2103 
Q 2816 2409 2816 2556 
Q 2816 2722 2702 2825 
Q 2588 2928 2372 2928 
Q 1938 2928 1598 2615 
Q 1259 2303 1100 1544 
L 778 0 
L 213 0 
z
" transform="scale(0.015625)"/>
      <path id="Arial-ItalicMT-61" d="M 2450 413 
Q 2156 159 1884 42 
Q 1613 -75 1303 -75 
Q 844 -75 562 195 
Q 281 466 281 888 
Q 281 1166 407 1380 
Q 534 1594 743 1723 
Q 953 1853 1256 1909 
Q 1447 1947 1980 1969 
Q 2513 1991 2744 2081 
Q 2809 2313 2809 2466 
Q 2809 2663 2666 2775 
Q 2469 2931 2091 2931 
Q 1734 2931 1507 2773 
Q 1281 2616 1178 2325 
L 606 2375 
Q 781 2869 1161 3131 
Q 1541 3394 2119 3394 
Q 2734 3394 3094 3100 
Q 3369 2881 3369 2531 
Q 3369 2266 3291 1916 
L 3106 1091 
Q 3019 697 3019 450 
Q 3019 294 3088 0 
L 2516 0 
Q 2469 163 2450 413 
z
M 2659 1681 
Q 2541 1634 2405 1609 
Q 2269 1584 1950 1556 
Q 1456 1513 1253 1445 
Q 1050 1378 947 1231 
Q 844 1084 844 906 
Q 844 669 1008 516 
Q 1172 363 1475 363 
Q 1756 363 2015 511 
Q 2275 659 2425 925 
Q 2575 1191 2659 1681 
z
" transform="scale(0.015625)"/>
      <path id="Arial-ItalicMT-73" d="M 266 1134 
L 831 1169 
Q 831 925 906 753 
Q 981 581 1182 472 
Q 1384 363 1653 363 
Q 2028 363 2215 513 
Q 2403 663 2403 866 
Q 2403 1013 2291 1144 
Q 2175 1275 1726 1467 
Q 1278 1659 1153 1738 
Q 944 1866 837 2039 
Q 731 2213 731 2438 
Q 731 2831 1043 3112 
Q 1356 3394 1919 3394 
Q 2544 3394 2870 3105 
Q 3197 2816 3209 2344 
L 2656 2306 
Q 2644 2606 2444 2781 
Q 2244 2956 1878 2956 
Q 1584 2956 1421 2822 
Q 1259 2688 1259 2531 
Q 1259 2375 1400 2256 
Q 1494 2175 1884 2006 
Q 2534 1725 2703 1563 
Q 2972 1303 2972 931 
Q 2972 684 2820 446 
Q 2669 209 2358 67 
Q 2047 -75 1625 -75 
Q 1050 -75 647 209 
Q 244 494 266 1134 
z
" transform="scale(0.015625)"/>
      <path id="Arial-ItalicMT-74" d="M 1534 459 
L 1441 -3 
Q 1238 -56 1047 -56 
Q 709 -56 509 109 
Q 359 234 359 450 
Q 359 559 441 953 
L 844 2881 
L 397 2881 
L 488 3319 
L 934 3319 
L 1106 4134 
L 1753 4525 
L 1500 3319 
L 2056 3319 
L 1963 2881 
L 1409 2881 
L 1025 1047 
Q 953 697 953 628 
Q 953 528 1011 475 
Q 1069 422 1200 422 
Q 1388 422 1534 459 
z
" transform="scale(0.015625)"/>
      <path id="Arial-ItalicMT-6c" d="M 169 0 
L 1125 4581 
L 1691 4581 
L 734 0 
L 169 0 
z
" transform="scale(0.015625)"/>
      <path id="Arial-ItalicMT-72" d="M 213 0 
L 906 3319 
L 1406 3319 
L 1266 2641 
Q 1522 3025 1767 3209 
Q 2013 3394 2269 3394 
Q 2438 3394 2684 3272 
L 2453 2747 
Q 2306 2853 2131 2853 
Q 1834 2853 1521 2522 
Q 1209 2191 1031 1331 
L 750 0 
L 213 0 
z
" transform="scale(0.015625)"/>
     </defs>
     <use xlink:href="#Arial-ItalicMT-62"/>
     <use xlink:href="#Arial-ItalicMT-69" transform="translate(55.615234 0)"/>
     <use xlink:href="#Arial-ItalicMT-63" transform="translate(77.832031 0)"/>
     <use xlink:href="#Arial-ItalicMT-6f" transform="translate(127.832031 0)"/>
     <use xlink:href="#Arial-ItalicMT-69" transform="translate(183.447266 0)"/>
     <use xlink:href="#Arial-ItalicMT-64" transform="translate(205.664062 0)"/>
     <use xlink:href="#Arial-ItalicMT-2c" transform="translate(261.279297 0)"/>
     <use xlink:href="#Arial-ItalicMT-20" transform="translate(289.0625 0)"/>
     <use xlink:href="#Arial-ItalicMT-6e" transform="translate(316.845703 0)"/>
     <use xlink:href="#Arial-ItalicMT-61" transform="translate(372.460938 0)"/>
     <use xlink:href="#Arial-ItalicMT-6e" transform="translate(428.076172 0)"/>
     <use xlink:href="#Arial-ItalicMT-6f" transform="translate(483.691406 0)"/>
     <use xlink:href="#Arial-ItalicMT-73" transform="translate(539.306641 0)"/>
     <use xlink:href="#Arial-ItalicMT-2c" transform="translate(589.306641 0)"/>
     <use xlink:href="#Arial-ItalicMT-20" transform="translate(617.089844 0)"/>
     <use xlink:href="#Arial-ItalicMT-74" transform="translate(644.873047 0)"/>
     <use xlink:href="#Arial-ItalicMT-6f" transform="translate(672.65625 0)"/>
     <use xlink:href="#Arial-ItalicMT-6c" transform="translate(728.271484 0)"/>
     <use xlink:href="#Arial-ItalicMT-6c" transform="translate(750.488281 0)"/>
     <use xlink:href="#Arial-ItalicMT-2c" transform="translate(772.705078 0)"/>
     <use xlink:href="#Arial-ItalicMT-20" transform="translate(800.488281 0)"/>
     <use xlink:href="#Arial-ItalicMT-74" transform="translate(828.271484 0)"/>
     <use xlink:href="#Arial-ItalicMT-6f" transform="translate(856.054688 0)"/>
     <use xlink:href="#Arial-ItalicMT-72" transform="translate(911.669922 0)"/>
     <use xlink:href="#Arial-ItalicMT-73" transform="translate(944.970703 0)"/>
     <use xlink:href="#Arial-ItalicMT-6f" transform="translate(994.970703 0)"/>
    </g>
    <!-- (Gradients de morphogènes) -->
    <g style="fill: #262626" transform="translate(340.273828 110.010875) scale(0.09 -0.09)">
     <defs>
      <path id="Arial-ItalicMT-28" d="M 1031 -1347 
Q 541 -272 541 863 
Q 541 1619 739 2270 
Q 938 2922 1344 3559 
Q 1613 3984 2203 4659 
L 2644 4659 
Q 2278 4269 1870 3559 
Q 1463 2850 1278 2165 
Q 1094 1481 1094 791 
Q 1094 -241 1453 -1347 
L 1031 -1347 
z
" transform="scale(0.015625)"/>
      <path id="Arial-ItalicMT-47" d="M 2622 1806 
L 2731 2325 
L 4738 2325 
L 4347 459 
Q 3969 222 3484 72 
Q 3000 -78 2531 -78 
Q 1531 -78 1038 525 
Q 622 1034 622 1834 
Q 622 2659 986 3336 
Q 1350 4013 1904 4336 
Q 2459 4659 3138 4659 
Q 3625 4659 4012 4482 
Q 4400 4306 4606 4011 
Q 4813 3716 4903 3241 
L 4303 3175 
Q 4206 3647 3901 3898 
Q 3597 4150 3119 4150 
Q 2622 4150 2190 3879 
Q 1759 3609 1501 3064 
Q 1244 2519 1244 1825 
Q 1244 1134 1584 781 
Q 1925 428 2525 428 
Q 3122 428 3809 822 
L 4016 1806 
L 2622 1806 
z
" transform="scale(0.015625)"/>
      <path id="Arial-ItalicMT-65" d="M 2650 1128 
L 3200 1072 
Q 3081 663 2654 294 
Q 2228 -75 1638 -75 
Q 1269 -75 961 95 
Q 653 266 492 591 
Q 331 916 331 1331 
Q 331 1875 582 2386 
Q 834 2897 1234 3145 
Q 1634 3394 2100 3394 
Q 2694 3394 3048 3025 
Q 3403 2656 3403 2019 
Q 3403 1775 3359 1519 
L 916 1519 
Q 903 1422 903 1344 
Q 903 878 1117 633 
Q 1331 388 1641 388 
Q 1931 388 2212 578 
Q 2494 769 2650 1128 
z
M 1006 1950 
L 2869 1950 
Q 2872 2038 2872 2075 
Q 2872 2500 2659 2726 
Q 2447 2953 2113 2953 
Q 1750 2953 1451 2703 
Q 1153 2453 1006 1950 
z
" transform="scale(0.015625)"/>
      <path id="Arial-ItalicMT-6d" d="M 209 0 
L 903 3319 
L 1469 3319 
L 1353 2772 
Q 1669 3125 1917 3259 
Q 2166 3394 2456 3394 
Q 2766 3394 2973 3230 
Q 3181 3066 3247 2772 
Q 3500 3084 3779 3239 
Q 4059 3394 4369 3394 
Q 4784 3394 4992 3197 
Q 5200 3000 5200 2644 
Q 5200 2491 5128 2138 
L 4681 0 
L 4116 0 
L 4572 2194 
Q 4631 2463 4631 2578 
Q 4631 2741 4528 2834 
Q 4425 2928 4238 2928 
Q 3984 2928 3721 2775 
Q 3459 2622 3314 2373 
Q 3169 2125 3059 1609 
L 2722 0 
L 2156 0 
L 2625 2241 
Q 2675 2469 2675 2566 
Q 2675 2728 2573 2828 
Q 2472 2928 2309 2928 
Q 2069 2928 1805 2775 
Q 1541 2622 1375 2348 
Q 1209 2075 1103 1569 
L 775 0 
L 209 0 
z
" transform="scale(0.015625)"/>
      <path id="Arial-ItalicMT-70" d="M -66 -1272 
L 894 3319 
L 1416 3319 
L 1319 2856 
Q 1609 3159 1839 3276 
Q 2069 3394 2325 3394 
Q 2800 3394 3112 3048 
Q 3425 2703 3425 2059 
Q 3425 1541 3253 1114 
Q 3081 688 2831 428 
Q 2581 169 2325 47 
Q 2069 -75 1800 -75 
Q 1203 -75 875 531 
L 500 -1272 
L -66 -1272 
z
M 1053 1356 
Q 1053 984 1106 841 
Q 1184 638 1362 513 
Q 1541 388 1775 388 
Q 2263 388 2563 936 
Q 2863 1484 2863 2056 
Q 2863 2478 2661 2708 
Q 2459 2938 2159 2938 
Q 1944 2938 1759 2823 
Q 1575 2709 1417 2482 
Q 1259 2256 1156 1928 
Q 1053 1600 1053 1356 
z
" transform="scale(0.015625)"/>
      <path id="Arial-ItalicMT-68" d="M 213 0 
L 1169 4581 
L 1734 4581 
L 1369 2822 
Q 1684 3128 1956 3261 
Q 2228 3394 2516 3394 
Q 2928 3394 3156 3176 
Q 3384 2959 3384 2603 
Q 3384 2428 3284 1959 
L 2875 0 
L 2309 0 
L 2731 2009 
Q 2822 2447 2822 2559 
Q 2822 2722 2709 2825 
Q 2597 2928 2384 2928 
Q 2078 2928 1800 2767 
Q 1522 2606 1364 2326 
Q 1206 2047 1075 1425 
L 778 0 
L 213 0 
z
" transform="scale(0.015625)"/>
      <path id="Arial-ItalicMT-67" d="M 181 -300 
L 753 -353 
Q 747 -547 800 -644 
Q 853 -741 969 -794 
Q 1122 -863 1366 -863 
Q 1878 -863 2103 -597 
Q 2250 -419 2375 178 
L 2431 447 
Q 1991 0 1494 0 
Q 991 0 652 370 
Q 313 741 313 1419 
Q 313 1978 580 2447 
Q 847 2916 1215 3155 
Q 1584 3394 1975 3394 
Q 2628 3394 2981 2775 
L 3094 3319 
L 3613 3319 
L 2944 116 
Q 2834 -413 2656 -708 
Q 2478 -1003 2161 -1165 
Q 1844 -1328 1428 -1328 
Q 1028 -1328 739 -1225 
Q 450 -1122 308 -923 
Q 166 -725 166 -469 
Q 166 -391 181 -300 
z
M 888 1469 
Q 888 1128 953 956 
Q 1047 716 1220 589 
Q 1394 463 1606 463 
Q 1884 463 2159 658 
Q 2434 853 2604 1262 
Q 2775 1672 2775 2044 
Q 2775 2453 2548 2695 
Q 2322 2938 1988 2938 
Q 1781 2938 1587 2827 
Q 1394 2716 1226 2489 
Q 1059 2263 973 1947 
Q 888 1631 888 1469 
z
" transform="scale(0.015625)"/>
      <path id="Arial-ItalicMT-e8" d="M 2650 1128 
L 3200 1072 
Q 3081 663 2654 294 
Q 2228 -75 1638 -75 
Q 1269 -75 961 95 
Q 653 266 492 591 
Q 331 916 331 1331 
Q 331 1875 582 2386 
Q 834 2897 1234 3145 
Q 1634 3394 2100 3394 
Q 2694 3394 3048 3025 
Q 3403 2656 3403 2019 
Q 3403 1775 3359 1519 
L 916 1519 
Q 903 1422 903 1344 
Q 903 878 1117 633 
Q 1331 388 1641 388 
Q 1931 388 2212 578 
Q 2494 769 2650 1128 
z
M 1006 1950 
L 2869 1950 
Q 2872 2038 2872 2075 
Q 2872 2500 2659 2726 
Q 2447 2953 2113 2953 
Q 1750 2953 1451 2703 
Q 1153 2453 1006 1950 
z
M 2397 3722 
L 1787 4581 
L 2475 4581 
L 2837 3722 
L 2397 3722 
z
" transform="scale(0.015625)"/>
      <path id="Arial-ItalicMT-29" d="M 1269 4659 
Q 1763 3584 1763 2453 
Q 1763 1694 1564 1044 
Q 1366 394 959 -247 
Q 688 -672 100 -1347 
L -341 -1347 
Q 22 -953 431 -243 
Q 841 466 1023 1148 
Q 1206 1831 1206 2525 
Q 1206 3556 847 4659 
L 1269 4659 
z
" transform="scale(0.015625)"/>
     </defs>
     <use xlink:href="#Arial-ItalicMT-28"/>
     <use xlink:href="#Arial-ItalicMT-47" transform="translate(33.300781 0)"/>
     <use xlink:href="#Arial-ItalicMT-72" transform="translate(111.083984 0)"/>
     <use xlink:href="#Arial-ItalicMT-61" transform="translate(144.384766 0)"/>
     <use xlink:href="#Arial-ItalicMT-64" transform="translate(200 0)"/>
     <use xlink:href="#Arial-ItalicMT-69" transform="translate(255.615234 0)"/>
     <use xlink:href="#Arial-ItalicMT-65" transform="translate(277.832031 0)"/>
     <use xlink:href="#Arial-ItalicMT-6e" transform="translate(333.447266 0)"/>
     <use xlink:href="#Arial-ItalicMT-74" transform="translate(389.0625 0)"/>
     <use xlink:href="#Arial-ItalicMT-73" transform="translate(416.845703 0)"/>
     <use xlink:href="#Arial-ItalicMT-20" transform="translate(466.845703 0)"/>
     <use xlink:href="#Arial-ItalicMT-64" transform="translate(494.628906 0)"/>
     <use xlink:href="#Arial-ItalicMT-65" transform="translate(550.244141 0)"/>
     <use xlink:href="#Arial-ItalicMT-20" transform="translate(605.859375 0)"/>
     <use xlink:href="#Arial-ItalicMT-6d" transform="translate(633.642578 0)"/>
     <use xlink:href="#Arial-ItalicMT-6f" transform="translate(716.943359 0)"/>
     <use xlink:href="#Arial-ItalicMT-72" transform="translate(772.558594 0)"/>
     <use xlink:href="#Arial-ItalicMT-70" transform="translate(805.859375 0)"/>
     <use xlink:href="#Arial-ItalicMT-68" transform="translate(861.474609 0)"/>
     <use xlink:href="#Arial-ItalicMT-6f" transform="translate(917.089844 0)"/>
     <use xlink:href="#Arial-ItalicMT-67" transform="translate(972.705078 0)"/>
     <use xlink:href="#Arial-ItalicMT-e8" transform="translate(1028.320312 0)"/>
     <use xlink:href="#Arial-ItalicMT-6e" transform="translate(1083.935547 0)"/>
     <use xlink:href="#Arial-ItalicMT-65" transform="translate(1139.550781 0)"/>
     <use xlink:href="#Arial-ItalicMT-73" transform="translate(1195.166016 0)"/>
     <use xlink:href="#Arial-ItalicMT-29" transform="translate(1245.166016 0)"/>
    </g>
   </g>
   <g id="patch_8">
    <path d="M 397.8 135.154766 
Q 397.8 135.672267 397.8 132.835666 
" style="fill: none; stroke: #ff0000; stroke-width: 3; stroke-linecap: round"/>
    <path d="M 401.8 124.835666 
L 397.8 132.835666 
L 393.8 124.835666 
" style="fill: none; stroke: #ff0000; stroke-width: 3; stroke-linecap: round"/>
   </g>
   <g id="text_3">
    <!-- Gènes Gap -->
    <g transform="translate(366.12375 176.655313) scale(0.12 -0.12)">
     <defs>
      <path id="Arial-BoldMT-70" d="M 434 3319 
L 1253 3319 
L 1253 2831 
Q 1413 3081 1684 3237 
Q 1956 3394 2288 3394 
Q 2866 3394 3269 2941 
Q 3672 2488 3672 1678 
Q 3672 847 3265 386 
Q 2859 -75 2281 -75 
Q 2006 -75 1782 34 
Q 1559 144 1313 409 
L 1313 -1263 
L 434 -1263 
L 434 3319 
z
M 1303 1716 
Q 1303 1156 1525 889 
Q 1747 622 2066 622 
Q 2372 622 2575 867 
Q 2778 1113 2778 1672 
Q 2778 2194 2568 2447 
Q 2359 2700 2050 2700 
Q 1728 2700 1515 2451 
Q 1303 2203 1303 1716 
z
" transform="scale(0.015625)"/>
     </defs>
     <use xlink:href="#Arial-BoldMT-47"/>
     <use xlink:href="#Arial-BoldMT-e8" transform="translate(77.783203 0)"/>
     <use xlink:href="#Arial-BoldMT-6e" transform="translate(133.398438 0)"/>
     <use xlink:href="#Arial-BoldMT-65" transform="translate(194.482422 0)"/>
     <use xlink:href="#Arial-BoldMT-73" transform="translate(250.097656 0)"/>
     <use xlink:href="#Arial-BoldMT-20" transform="translate(305.712891 0)"/>
     <use xlink:href="#Arial-BoldMT-47" transform="translate(333.496094 0)"/>
     <use xlink:href="#Arial-BoldMT-61" transform="translate(411.279297 0)"/>
     <use xlink:href="#Arial-BoldMT-70" transform="translate(466.894531 0)"/>
    </g>
   </g>
   <g id="text_4">
    <!-- hunchback, Krüppel, knirps, giant -->
    <g style="fill: #262626" transform="translate(331.264687 201.120688) scale(0.09 -0.09)">
     <defs>
      <path id="Arial-ItalicMT-75" d="M 2478 600 
Q 1881 -75 1256 -75 
Q 872 -75 636 145 
Q 400 366 400 684 
Q 400 894 506 1403 
L 906 3319 
L 1472 3319 
L 1028 1197 
Q 972 931 972 784 
Q 972 597 1086 492 
Q 1200 388 1422 388 
Q 1659 388 1886 503 
Q 2113 619 2277 816 
Q 2441 1013 2544 1281 
Q 2613 1453 2703 1884 
L 3003 3319 
L 3569 3319 
L 2875 0 
L 2353 0 
L 2478 600 
z
" transform="scale(0.015625)"/>
      <path id="Arial-ItalicMT-6b" d="M 219 0 
L 1178 4581 
L 1741 4581 
L 1147 1741 
L 2797 3319 
L 3544 3319 
L 2128 2081 
L 2984 0 
L 2366 0 
L 1703 1703 
L 1016 1109 
L 784 0 
L 219 0 
z
" transform="scale(0.015625)"/>
      <path id="Arial-ItalicMT-4b" d="M 284 0 
L 1241 4581 
L 1853 4581 
L 1394 2375 
L 3881 4581 
L 4744 4581 
L 2616 2716 
L 4175 0 
L 3491 0 
L 2169 2322 
L 1209 1488 
L 897 0 
L 284 0 
z
" transform="scale(0.015625)"/>
      <path id="Arial-ItalicMT-fc" d="M 2478 600 
Q 1881 -75 1256 -75 
Q 872 -75 636 145 
Q 400 366 400 684 
Q 400 894 506 1403 
L 906 3319 
L 1472 3319 
L 1028 1197 
Q 972 931 972 784 
Q 972 597 1086 492 
Q 1200 388 1422 388 
Q 1659 388 1886 503 
Q 2113 619 2277 816 
Q 2441 1013 2544 1281 
Q 2613 1453 2703 1884 
L 3003 3319 
L 3569 3319 
L 2875 0 
L 2353 0 
L 2478 600 
z
M 1413 3834 
L 1547 4475 
L 2138 4475 
L 2003 3834 
L 1413 3834 
z
M 2566 3834 
L 2700 4475 
L 3288 4475 
L 3156 3834 
L 2566 3834 
z
" transform="scale(0.015625)"/>
     </defs>
     <use xlink:href="#Arial-ItalicMT-68"/>
     <use xlink:href="#Arial-ItalicMT-75" transform="translate(55.615234 0)"/>
     <use xlink:href="#Arial-ItalicMT-6e" transform="translate(111.230469 0)"/>
     <use xlink:href="#Arial-ItalicMT-63" transform="translate(166.845703 0)"/>
     <use xlink:href="#Arial-ItalicMT-68" transform="translate(216.845703 0)"/>
     <use xlink:href="#Arial-ItalicMT-62" transform="translate(272.460938 0)"/>
     <use xlink:href="#Arial-ItalicMT-61" transform="translate(328.076172 0)"/>
     <use xlink:href="#Arial-ItalicMT-63" transform="translate(383.691406 0)"/>
     <use xlink:href="#Arial-ItalicMT-6b" transform="translate(433.691406 0)"/>
     <use xlink:href="#Arial-ItalicMT-2c" transform="translate(483.691406 0)"/>
     <use xlink:href="#Arial-ItalicMT-20" transform="translate(511.474609 0)"/>
     <use xlink:href="#Arial-ItalicMT-4b" transform="translate(539.257812 0)"/>
     <use xlink:href="#Arial-ItalicMT-72" transform="translate(605.957031 0)"/>
     <use xlink:href="#Arial-ItalicMT-fc" transform="translate(639.257812 0)"/>
     <use xlink:href="#Arial-ItalicMT-70" transform="translate(694.873047 0)"/>
     <use xlink:href="#Arial-ItalicMT-70" transform="translate(750.488281 0)"/>
     <use xlink:href="#Arial-ItalicMT-65" transform="translate(806.103516 0)"/>
     <use xlink:href="#Arial-ItalicMT-6c" transform="translate(861.71875 0)"/>
     <use xlink:href="#Arial-ItalicMT-2c" transform="translate(883.935547 0)"/>
     <use xlink:href="#Arial-ItalicMT-20" transform="translate(911.71875 0)"/>
     <use xlink:href="#Arial-ItalicMT-6b" transform="translate(939.501953 0)"/>
     <use xlink:href="#Arial-ItalicMT-6e" transform="translate(989.501953 0)"/>
     <use xlink:href="#Arial-ItalicMT-69" transform="translate(1045.117188 0)"/>
     <use xlink:href="#Arial-ItalicMT-72" transform="translate(1067.333984 0)"/>
     <use xlink:href="#Arial-ItalicMT-70" transform="translate(1100.634766 0)"/>
     <use xlink:href="#Arial-ItalicMT-73" transform="translate(1156.25 0)"/>
     <use xlink:href="#Arial-ItalicMT-2c" transform="translate(1206.25 0)"/>
     <use xlink:href="#Arial-ItalicMT-20" transform="translate(1234.033203 0)"/>
     <use xlink:href="#Arial-ItalicMT-67" transform="translate(1261.816406 0)"/>
     <use xlink:href="#Arial-ItalicMT-69" transform="translate(1317.431641 0)"/>
     <use xlink:href="#Arial-ItalicMT-61" transform="translate(1339.648438 0)"/>
     <use xlink:href="#Arial-ItalicMT-6e" transform="translate(1395.263672 0)"/>
     <use xlink:href="#Arial-ItalicMT-74" transform="translate(1450.878906 0)"/>
    </g>
    <!-- (6-7 larges domaines) -->
    <g style="fill: #262626" transform="translate(354.033984 210.85025) scale(0.09 -0.09)">
     <defs>
      <path id="Arial-ItalicMT-36" d="M 1288 2656 
Q 1525 2853 1761 2951 
Q 1997 3050 2228 3050 
Q 2750 3050 3090 2694 
Q 3431 2338 3431 1734 
Q 3431 956 2925 400 
Q 2488 -78 1863 -78 
Q 1294 -78 914 339 
Q 534 756 534 1528 
Q 534 2219 778 2956 
Q 966 3522 1242 3889 
Q 1519 4256 1830 4428 
Q 2141 4600 2531 4600 
Q 3000 4600 3297 4308 
Q 3594 4016 3634 3472 
L 3109 3422 
Q 3066 3794 2898 3959 
Q 2731 4125 2491 4125 
Q 2238 4125 1981 3928 
Q 1725 3731 1540 3345 
Q 1356 2959 1288 2656 
z
M 1091 1288 
Q 1091 900 1331 636 
Q 1572 372 1875 372 
Q 2088 372 2325 533 
Q 2563 694 2728 1022 
Q 2894 1350 2894 1675 
Q 2894 2094 2664 2345 
Q 2434 2597 2109 2597 
Q 1734 2597 1412 2230 
Q 1091 1863 1091 1288 
z
" transform="scale(0.015625)"/>
      <path id="Arial-ItalicMT-2d" d="M 297 1375 
L 416 1941 
L 2141 1941 
L 2025 1375 
L 297 1375 
z
" transform="scale(0.015625)"/>
      <path id="Arial-ItalicMT-37" d="M 928 0 
Q 1003 463 1247 1113 
Q 1538 1897 2009 2670 
Q 2481 3444 3059 4000 
L 775 4000 
L 884 4519 
L 3809 4519 
L 3703 4000 
Q 2959 3347 2403 2316 
Q 1756 1125 1519 0 
L 928 0 
z
" transform="scale(0.015625)"/>
     </defs>
     <use xlink:href="#Arial-ItalicMT-28"/>
     <use xlink:href="#Arial-ItalicMT-36" transform="translate(33.300781 0)"/>
     <use xlink:href="#Arial-ItalicMT-2d" transform="translate(88.916016 0)"/>
     <use xlink:href="#Arial-ItalicMT-37" transform="translate(122.216797 0)"/>
     <use xlink:href="#Arial-ItalicMT-20" transform="translate(177.832031 0)"/>
     <use xlink:href="#Arial-ItalicMT-6c" transform="translate(205.615234 0)"/>
     <use xlink:href="#Arial-ItalicMT-61" transform="translate(227.832031 0)"/>
     <use xlink:href="#Arial-ItalicMT-72" transform="translate(283.447266 0)"/>
     <use xlink:href="#Arial-ItalicMT-67" transform="translate(316.748047 0)"/>
     <use xlink:href="#Arial-ItalicMT-65" transform="translate(372.363281 0)"/>
     <use xlink:href="#Arial-ItalicMT-73" transform="translate(427.978516 0)"/>
     <use xlink:href="#Arial-ItalicMT-20" transform="translate(477.978516 0)"/>
     <use xlink:href="#Arial-ItalicMT-64" transform="translate(505.761719 0)"/>
     <use xlink:href="#Arial-ItalicMT-6f" transform="translate(561.376953 0)"/>
     <use xlink:href="#Arial-ItalicMT-6d" transform="translate(616.992188 0)"/>
     <use xlink:href="#Arial-ItalicMT-61" transform="translate(700.292969 0)"/>
     <use xlink:href="#Arial-ItalicMT-69" transform="translate(755.908203 0)"/>
     <use xlink:href="#Arial-ItalicMT-6e" transform="translate(778.125 0)"/>
     <use xlink:href="#Arial-ItalicMT-65" transform="translate(833.740234 0)"/>
     <use xlink:href="#Arial-ItalicMT-73" transform="translate(889.355469 0)"/>
     <use xlink:href="#Arial-ItalicMT-29" transform="translate(939.355469 0)"/>
    </g>
   </g>
   <g id="patch_9">
    <path d="M 397.8 235.954766 
Q 397.8 236.472267 397.8 233.635666 
" style="fill: none; stroke: #ff0000; stroke-width: 3; stroke-linecap: round"/>
    <path d="M 401.8 225.635666 
L 397.8 233.635666 
L 393.8 225.635666 
" style="fill: none; stroke: #ff0000; stroke-width: 3; stroke-linecap: round"/>
   </g>
   <g id="text_5">
    <!-- Gènes Pair-Rule -->
    <g transform="translate(351.451875 277.382188) scale(0.12 -0.12)">
     <defs>
      <path id="Arial-BoldMT-50" d="M 466 0 
L 466 4581 
L 1950 4581 
Q 2794 4581 3050 4513 
Q 3444 4409 3709 4064 
Q 3975 3719 3975 3172 
Q 3975 2750 3822 2462 
Q 3669 2175 3433 2011 
Q 3197 1847 2953 1794 
Q 2622 1728 1994 1728 
L 1391 1728 
L 1391 0 
L 466 0 
z
M 1391 3806 
L 1391 2506 
L 1897 2506 
Q 2444 2506 2628 2578 
Q 2813 2650 2917 2803 
Q 3022 2956 3022 3159 
Q 3022 3409 2875 3571 
Q 2728 3734 2503 3775 
Q 2338 3806 1838 3806 
L 1391 3806 
z
" transform="scale(0.015625)"/>
      <path id="Arial-BoldMT-69" d="M 459 3769 
L 459 4581 
L 1338 4581 
L 1338 3769 
L 459 3769 
z
M 459 0 
L 459 3319 
L 1338 3319 
L 1338 0 
L 459 0 
z
" transform="scale(0.015625)"/>
      <path id="Arial-BoldMT-2d" d="M 359 1222 
L 359 2100 
L 2084 2100 
L 2084 1222 
L 359 1222 
z
" transform="scale(0.015625)"/>
      <path id="Arial-BoldMT-52" d="M 469 0 
L 469 4581 
L 2416 4581 
Q 3150 4581 3483 4457 
Q 3816 4334 4016 4018 
Q 4216 3703 4216 3297 
Q 4216 2781 3912 2445 
Q 3609 2109 3006 2022 
Q 3306 1847 3501 1637 
Q 3697 1428 4028 894 
L 4588 0 
L 3481 0 
L 2813 997 
Q 2456 1531 2325 1670 
Q 2194 1809 2047 1861 
Q 1900 1913 1581 1913 
L 1394 1913 
L 1394 0 
L 469 0 
z
M 1394 2644 
L 2078 2644 
Q 2744 2644 2909 2700 
Q 3075 2756 3169 2893 
Q 3263 3031 3263 3238 
Q 3263 3469 3139 3611 
Q 3016 3753 2791 3791 
Q 2678 3806 2116 3806 
L 1394 3806 
L 1394 2644 
z
" transform="scale(0.015625)"/>
      <path id="Arial-BoldMT-75" d="M 2644 0 
L 2644 497 
Q 2463 231 2167 78 
Q 1872 -75 1544 -75 
Q 1209 -75 943 72 
Q 678 219 559 484 
Q 441 750 441 1219 
L 441 3319 
L 1319 3319 
L 1319 1794 
Q 1319 1094 1367 936 
Q 1416 778 1544 686 
Q 1672 594 1869 594 
Q 2094 594 2272 717 
Q 2450 841 2515 1023 
Q 2581 1206 2581 1919 
L 2581 3319 
L 3459 3319 
L 3459 0 
L 2644 0 
z
" transform="scale(0.015625)"/>
     </defs>
     <use xlink:href="#Arial-BoldMT-47"/>
     <use xlink:href="#Arial-BoldMT-e8" transform="translate(77.783203 0)"/>
     <use xlink:href="#Arial-BoldMT-6e" transform="translate(133.398438 0)"/>
     <use xlink:href="#Arial-BoldMT-65" transform="translate(194.482422 0)"/>
     <use xlink:href="#Arial-BoldMT-73" transform="translate(250.097656 0)"/>
     <use xlink:href="#Arial-BoldMT-20" transform="translate(305.712891 0)"/>
     <use xlink:href="#Arial-BoldMT-50" transform="translate(333.496094 0)"/>
     <use xlink:href="#Arial-BoldMT-61" transform="translate(400.195312 0)"/>
     <use xlink:href="#Arial-BoldMT-69" transform="translate(455.810547 0)"/>
     <use xlink:href="#Arial-BoldMT-72" transform="translate(483.59375 0)"/>
     <use xlink:href="#Arial-BoldMT-2d" transform="translate(522.509766 0)"/>
     <use xlink:href="#Arial-BoldMT-52" transform="translate(555.810547 0)"/>
     <use xlink:href="#Arial-BoldMT-75" transform="translate(628.027344 0)"/>
     <use xlink:href="#Arial-BoldMT-6c" transform="translate(689.111328 0)"/>
     <use xlink:href="#Arial-BoldMT-65" transform="translate(716.894531 0)"/>
    </g>
   </g>
   <g id="text_6">
    <!-- even-skipped, fushi tarazu, hairy -->
    <g style="fill: #262626" transform="translate(333.020391 301.962172) scale(0.09 -0.09)">
     <defs>
      <path id="Arial-ItalicMT-76" d="M 1050 0 
L 506 3319 
L 1056 3319 
L 1341 1491 
Q 1388 1191 1456 513 
Q 1619 866 1872 1322 
L 2981 3319 
L 3578 3319 
L 1678 0 
L 1050 0 
z
" transform="scale(0.015625)"/>
      <path id="Arial-ItalicMT-66" d="M 291 0 
L 894 2881 
L 388 2881 
L 478 3319 
L 984 3319 
L 1081 3791 
Q 1156 4144 1236 4300 
Q 1316 4456 1495 4557 
Q 1675 4659 1984 4659 
Q 2200 4659 2609 4569 
L 2506 4075 
Q 2219 4150 2025 4150 
Q 1859 4150 1773 4067 
Q 1688 3984 1625 3675 
L 1550 3319 
L 2181 3319 
L 2091 2881 
L 1459 2881 
L 856 0 
L 291 0 
z
" transform="scale(0.015625)"/>
      <path id="Arial-ItalicMT-7a" d="M 125 0 
L 216 438 
L 2000 2447 
Q 2191 2659 2425 2888 
Q 2022 2847 1847 2847 
L 613 2847 
L 713 3319 
L 3278 3319 
L 3203 2963 
L 1403 941 
Q 1250 769 947 469 
Q 1419 497 1594 497 
L 2900 497 
L 2797 0 
L 125 0 
z
" transform="scale(0.015625)"/>
      <path id="Arial-ItalicMT-79" d="M 0 -1281 
L 34 -750 
Q 209 -800 375 -800 
Q 547 -800 653 -722 
Q 791 -619 953 -334 
L 1134 -9 
L 581 3319 
L 1138 3319 
L 1388 1641 
Q 1463 1144 1516 647 
L 3000 3319 
L 3591 3319 
L 1475 -441 
Q 1169 -991 931 -1169 
Q 694 -1347 384 -1347 
Q 188 -1347 0 -1281 
z
" transform="scale(0.015625)"/>
     </defs>
     <use xlink:href="#Arial-ItalicMT-65"/>
     <use xlink:href="#Arial-ItalicMT-76" transform="translate(55.615234 0)"/>
     <use xlink:href="#Arial-ItalicMT-65" transform="translate(105.615234 0)"/>
     <use xlink:href="#Arial-ItalicMT-6e" transform="translate(161.230469 0)"/>
     <use xlink:href="#Arial-ItalicMT-2d" transform="translate(216.845703 0)"/>
     <use xlink:href="#Arial-ItalicMT-73" transform="translate(250.146484 0)"/>
     <use xlink:href="#Arial-ItalicMT-6b" transform="translate(300.146484 0)"/>
     <use xlink:href="#Arial-ItalicMT-69" transform="translate(350.146484 0)"/>
     <use xlink:href="#Arial-ItalicMT-70" transform="translate(372.363281 0)"/>
     <use xlink:href="#Arial-ItalicMT-70" transform="translate(427.978516 0)"/>
     <use xlink:href="#Arial-ItalicMT-65" transform="translate(483.59375 0)"/>
     <use xlink:href="#Arial-ItalicMT-64" transform="translate(539.208984 0)"/>
     <use xlink:href="#Arial-ItalicMT-2c" transform="translate(594.824219 0)"/>
     <use xlink:href="#Arial-ItalicMT-20" transform="translate(622.607422 0)"/>
     <use xlink:href="#Arial-ItalicMT-66" transform="translate(650.390625 0)"/>
     <use xlink:href="#Arial-ItalicMT-75" transform="translate(678.173828 0)"/>
     <use xlink:href="#Arial-ItalicMT-73" transform="translate(733.789062 0)"/>
     <use xlink:href="#Arial-ItalicMT-68" transform="translate(783.789062 0)"/>
     <use xlink:href="#Arial-ItalicMT-69" transform="translate(839.404297 0)"/>
     <use xlink:href="#Arial-ItalicMT-20" transform="translate(861.621094 0)"/>
     <use xlink:href="#Arial-ItalicMT-74" transform="translate(889.404297 0)"/>
     <use xlink:href="#Arial-ItalicMT-61" transform="translate(917.1875 0)"/>
     <use xlink:href="#Arial-ItalicMT-72" transform="translate(972.802734 0)"/>
     <use xlink:href="#Arial-ItalicMT-61" transform="translate(1006.103516 0)"/>
     <use xlink:href="#Arial-ItalicMT-7a" transform="translate(1061.71875 0)"/>
     <use xlink:href="#Arial-ItalicMT-75" transform="translate(1111.71875 0)"/>
     <use xlink:href="#Arial-ItalicMT-2c" transform="translate(1167.333984 0)"/>
     <use xlink:href="#Arial-ItalicMT-20" transform="translate(1195.117188 0)"/>
     <use xlink:href="#Arial-ItalicMT-68" transform="translate(1222.900391 0)"/>
     <use xlink:href="#Arial-ItalicMT-61" transform="translate(1278.515625 0)"/>
     <use xlink:href="#Arial-ItalicMT-69" transform="translate(1334.130859 0)"/>
     <use xlink:href="#Arial-ItalicMT-72" transform="translate(1356.347656 0)"/>
     <use xlink:href="#Arial-ItalicMT-79" transform="translate(1389.648438 0)"/>
    </g>
    <!-- (7 bandes alternées) -->
    <g style="fill: #262626" transform="translate(356.527969 311.718453) scale(0.09 -0.09)">
     <defs>
      <path id="Arial-ItalicMT-e9" d="M 2650 1128 
L 3200 1072 
Q 3081 663 2654 294 
Q 2228 -75 1638 -75 
Q 1269 -75 961 95 
Q 653 266 492 591 
Q 331 916 331 1331 
Q 331 1875 582 2386 
Q 834 2897 1234 3145 
Q 1634 3394 2100 3394 
Q 2694 3394 3048 3025 
Q 3403 2656 3403 2019 
Q 3403 1775 3359 1519 
L 916 1519 
Q 903 1422 903 1344 
Q 903 878 1117 633 
Q 1331 388 1641 388 
Q 1931 388 2212 578 
Q 2494 769 2650 1128 
z
M 1006 1950 
L 2869 1950 
Q 2872 2038 2872 2075 
Q 2872 2500 2659 2726 
Q 2447 2953 2113 2953 
Q 1750 2953 1451 2703 
Q 1153 2453 1006 1950 
z
M 1785 3722 
L 2373 4581 
L 3085 4581 
L 2254 3722 
L 1785 3722 
z
" transform="scale(0.015625)"/>
     </defs>
     <use xlink:href="#Arial-ItalicMT-28"/>
     <use xlink:href="#Arial-ItalicMT-37" transform="translate(33.300781 0)"/>
     <use xlink:href="#Arial-ItalicMT-20" transform="translate(88.916016 0)"/>
     <use xlink:href="#Arial-ItalicMT-62" transform="translate(116.699219 0)"/>
     <use xlink:href="#Arial-ItalicMT-61" transform="translate(172.314453 0)"/>
     <use xlink:href="#Arial-ItalicMT-6e" transform="translate(227.929688 0)"/>
     <use xlink:href="#Arial-ItalicMT-64" transform="translate(283.544922 0)"/>
     <use xlink:href="#Arial-ItalicMT-65" transform="translate(339.160156 0)"/>
     <use xlink:href="#Arial-ItalicMT-73" transform="translate(394.775391 0)"/>
     <use xlink:href="#Arial-ItalicMT-20" transform="translate(444.775391 0)"/>
     <use xlink:href="#Arial-ItalicMT-61" transform="translate(472.558594 0)"/>
     <use xlink:href="#Arial-ItalicMT-6c" transform="translate(528.173828 0)"/>
     <use xlink:href="#Arial-ItalicMT-74" transform="translate(550.390625 0)"/>
     <use xlink:href="#Arial-ItalicMT-65" transform="translate(578.173828 0)"/>
     <use xlink:href="#Arial-ItalicMT-72" transform="translate(633.789062 0)"/>
     <use xlink:href="#Arial-ItalicMT-6e" transform="translate(667.089844 0)"/>
     <use xlink:href="#Arial-ItalicMT-e9" transform="translate(722.705078 0)"/>
     <use xlink:href="#Arial-ItalicMT-65" transform="translate(778.320312 0)"/>
     <use xlink:href="#Arial-ItalicMT-73" transform="translate(833.935547 0)"/>
     <use xlink:href="#Arial-ItalicMT-29" transform="translate(883.935547 0)"/>
    </g>
   </g>
   <g id="patch_10">
    <path d="M 397.8 336.754766 
Q 397.8 337.272267 397.8 334.435666 
" style="fill: none; stroke: #ff0000; stroke-width: 3; stroke-linecap: round"/>
    <path d="M 401.8 326.435666 
L 397.8 334.435666 
L 393.8 326.435666 
" style="fill: none; stroke: #ff0000; stroke-width: 3; stroke-linecap: round"/>
   </g>
   <g id="text_7">
    <!-- Gènes de Polarité Segmentaire -->
    <g transform="translate(309.436875 378.176563) scale(0.12 -0.12)">
     <defs>
      <path id="Arial-BoldMT-64" d="M 3503 0 
L 2688 0 
L 2688 488 
Q 2484 203 2207 64 
Q 1931 -75 1650 -75 
Q 1078 -75 670 386 
Q 263 847 263 1672 
Q 263 2516 659 2955 
Q 1056 3394 1663 3394 
Q 2219 3394 2625 2931 
L 2625 4581 
L 3503 4581 
L 3503 0 
z
M 1159 1731 
Q 1159 1200 1306 963 
Q 1519 619 1900 619 
Q 2203 619 2415 876 
Q 2628 1134 2628 1647 
Q 2628 2219 2422 2470 
Q 2216 2722 1894 2722 
Q 1581 2722 1370 2473 
Q 1159 2225 1159 1731 
z
" transform="scale(0.015625)"/>
      <path id="Arial-BoldMT-6f" d="M 256 1706 
Q 256 2144 472 2553 
Q 688 2963 1083 3178 
Q 1478 3394 1966 3394 
Q 2719 3394 3200 2905 
Q 3681 2416 3681 1669 
Q 3681 916 3195 420 
Q 2709 -75 1972 -75 
Q 1516 -75 1102 131 
Q 688 338 472 736 
Q 256 1134 256 1706 
z
M 1156 1659 
Q 1156 1166 1390 903 
Q 1625 641 1969 641 
Q 2313 641 2545 903 
Q 2778 1166 2778 1666 
Q 2778 2153 2545 2415 
Q 2313 2678 1969 2678 
Q 1625 2678 1390 2415 
Q 1156 2153 1156 1659 
z
" transform="scale(0.015625)"/>
      <path id="Arial-BoldMT-e9" d="M 2381 1056 
L 3256 909 
Q 3088 428 2723 176 
Q 2359 -75 1813 -75 
Q 947 -75 531 491 
Q 203 944 203 1634 
Q 203 2459 634 2926 
Q 1066 3394 1725 3394 
Q 2466 3394 2894 2905 
Q 3322 2416 3303 1406 
L 1103 1406 
Q 1113 1016 1316 798 
Q 1519 581 1822 581 
Q 2028 581 2168 693 
Q 2309 806 2381 1056 
z
M 2431 1944 
Q 2422 2325 2234 2523 
Q 2047 2722 1778 2722 
Q 1491 2722 1303 2513 
Q 1116 2303 1119 1944 
L 2431 1944 
z
M 1312 3725 
L 1744 4659 
L 2728 4659 
L 1869 3725 
L 1312 3725 
z
" transform="scale(0.015625)"/>
      <path id="Arial-BoldMT-53" d="M 231 1491 
L 1131 1578 
Q 1213 1125 1461 912 
Q 1709 700 2131 700 
Q 2578 700 2804 889 
Q 3031 1078 3031 1331 
Q 3031 1494 2936 1608 
Q 2841 1722 2603 1806 
Q 2441 1863 1863 2006 
Q 1119 2191 819 2459 
Q 397 2838 397 3381 
Q 397 3731 595 4036 
Q 794 4341 1167 4500 
Q 1541 4659 2069 4659 
Q 2931 4659 3367 4281 
Q 3803 3903 3825 3272 
L 2900 3231 
Q 2841 3584 2645 3739 
Q 2450 3894 2059 3894 
Q 1656 3894 1428 3728 
Q 1281 3622 1281 3444 
Q 1281 3281 1419 3166 
Q 1594 3019 2269 2859 
Q 2944 2700 3267 2529 
Q 3591 2359 3773 2064 
Q 3956 1769 3956 1334 
Q 3956 941 3737 597 
Q 3519 253 3119 86 
Q 2719 -81 2122 -81 
Q 1253 -81 787 320 
Q 322 722 231 1491 
z
" transform="scale(0.015625)"/>
      <path id="Arial-BoldMT-67" d="M 378 -219 
L 1381 -341 
Q 1406 -516 1497 -581 
Q 1622 -675 1891 -675 
Q 2234 -675 2406 -572 
Q 2522 -503 2581 -350 
Q 2622 -241 2622 53 
L 2622 538 
Q 2228 0 1628 0 
Q 959 0 569 566 
Q 263 1013 263 1678 
Q 263 2513 664 2953 
Q 1066 3394 1663 3394 
Q 2278 3394 2678 2853 
L 2678 3319 
L 3500 3319 
L 3500 341 
Q 3500 -247 3403 -537 
Q 3306 -828 3131 -993 
Q 2956 -1159 2664 -1253 
Q 2372 -1347 1925 -1347 
Q 1081 -1347 728 -1058 
Q 375 -769 375 -325 
Q 375 -281 378 -219 
z
M 1163 1728 
Q 1163 1200 1367 954 
Q 1572 709 1872 709 
Q 2194 709 2416 961 
Q 2638 1213 2638 1706 
Q 2638 2222 2425 2472 
Q 2213 2722 1888 2722 
Q 1572 2722 1367 2476 
Q 1163 2231 1163 1728 
z
" transform="scale(0.015625)"/>
      <path id="Arial-BoldMT-6d" d="M 394 3319 
L 1203 3319 
L 1203 2866 
Q 1638 3394 2238 3394 
Q 2556 3394 2790 3262 
Q 3025 3131 3175 2866 
Q 3394 3131 3647 3262 
Q 3900 3394 4188 3394 
Q 4553 3394 4806 3245 
Q 5059 3097 5184 2809 
Q 5275 2597 5275 2122 
L 5275 0 
L 4397 0 
L 4397 1897 
Q 4397 2391 4306 2534 
Q 4184 2722 3931 2722 
Q 3747 2722 3584 2609 
Q 3422 2497 3350 2280 
Q 3278 2063 3278 1594 
L 3278 0 
L 2400 0 
L 2400 1819 
Q 2400 2303 2353 2443 
Q 2306 2584 2207 2653 
Q 2109 2722 1941 2722 
Q 1738 2722 1575 2612 
Q 1413 2503 1342 2297 
Q 1272 2091 1272 1613 
L 1272 0 
L 394 0 
L 394 3319 
z
" transform="scale(0.015625)"/>
     </defs>
     <use xlink:href="#Arial-BoldMT-47"/>
     <use xlink:href="#Arial-BoldMT-e8" transform="translate(77.783203 0)"/>
     <use xlink:href="#Arial-BoldMT-6e" transform="translate(133.398438 0)"/>
     <use xlink:href="#Arial-BoldMT-65" transform="translate(194.482422 0)"/>
     <use xlink:href="#Arial-BoldMT-73" transform="translate(250.097656 0)"/>
     <use xlink:href="#Arial-BoldMT-20" transform="translate(305.712891 0)"/>
     <use xlink:href="#Arial-BoldMT-64" transform="translate(333.496094 0)"/>
     <use xlink:href="#Arial-BoldMT-65" transform="translate(394.580078 0)"/>
     <use xlink:href="#Arial-BoldMT-20" transform="translate(450.195312 0)"/>
     <use xlink:href="#Arial-BoldMT-50" transform="translate(477.978516 0)"/>
     <use xlink:href="#Arial-BoldMT-6f" transform="translate(544.677734 0)"/>
     <use xlink:href="#Arial-BoldMT-6c" transform="translate(605.761719 0)"/>
     <use xlink:href="#Arial-BoldMT-61" transform="translate(633.544922 0)"/>
     <use xlink:href="#Arial-BoldMT-72" transform="translate(689.160156 0)"/>
     <use xlink:href="#Arial-BoldMT-69" transform="translate(728.076172 0)"/>
     <use xlink:href="#Arial-BoldMT-74" transform="translate(755.859375 0)"/>
     <use xlink:href="#Arial-BoldMT-e9" transform="translate(789.160156 0)"/>
     <use xlink:href="#Arial-BoldMT-20" transform="translate(844.775391 0)"/>
     <use xlink:href="#Arial-BoldMT-53" transform="translate(872.558594 0)"/>
     <use xlink:href="#Arial-BoldMT-65" transform="translate(939.257812 0)"/>
     <use xlink:href="#Arial-BoldMT-67" transform="translate(994.873047 0)"/>
     <use xlink:href="#Arial-BoldMT-6d" transform="translate(1055.957031 0)"/>
     <use xlink:href="#Arial-BoldMT-65" transform="translate(1144.873047 0)"/>
     <use xlink:href="#Arial-BoldMT-6e" transform="translate(1200.488281 0)"/>
     <use xlink:href="#Arial-BoldMT-74" transform="translate(1261.572266 0)"/>
     <use xlink:href="#Arial-BoldMT-61" transform="translate(1294.873047 0)"/>
     <use xlink:href="#Arial-BoldMT-69" transform="translate(1350.488281 0)"/>
     <use xlink:href="#Arial-BoldMT-72" transform="translate(1378.271484 0)"/>
     <use xlink:href="#Arial-BoldMT-65" transform="translate(1417.1875 0)"/>
    </g>
   </g>
   <g id="text_8">
    <!-- engrailed, wingless, hedgehog -->
    <g style="fill: #262626" transform="translate(337.010625 402.720688) scale(0.09 -0.09)">
     <defs>
      <path id="Arial-ItalicMT-77" d="M 844 0 
L 497 3319 
L 1041 3319 
L 1191 1828 
L 1250 991 
Q 1256 897 1269 613 
Q 1363 931 1428 1101 
Q 1494 1272 1638 1588 
L 2428 3319 
L 3044 3319 
L 3153 1659 
Q 3178 1281 3184 650 
Q 3341 1069 3694 1813 
L 4406 3319 
L 4972 3319 
L 3350 0 
L 2763 0 
L 2638 1947 
Q 2625 2128 2619 2653 
Q 2491 2319 2316 1931 
L 1438 0 
L 844 0 
z
" transform="scale(0.015625)"/>
     </defs>
     <use xlink:href="#Arial-ItalicMT-65"/>
     <use xlink:href="#Arial-ItalicMT-6e" transform="translate(55.615234 0)"/>
     <use xlink:href="#Arial-ItalicMT-67" transform="translate(111.230469 0)"/>
     <use xlink:href="#Arial-ItalicMT-72" transform="translate(166.845703 0)"/>
     <use xlink:href="#Arial-ItalicMT-61" transform="translate(200.146484 0)"/>
     <use xlink:href="#Arial-ItalicMT-69" transform="translate(255.761719 0)"/>
     <use xlink:href="#Arial-ItalicMT-6c" transform="translate(277.978516 0)"/>
     <use xlink:href="#Arial-ItalicMT-65" transform="translate(300.195312 0)"/>
     <use xlink:href="#Arial-ItalicMT-64" transform="translate(355.810547 0)"/>
     <use xlink:href="#Arial-ItalicMT-2c" transform="translate(411.425781 0)"/>
     <use xlink:href="#Arial-ItalicMT-20" transform="translate(439.208984 0)"/>
     <use xlink:href="#Arial-ItalicMT-77" transform="translate(466.992188 0)"/>
     <use xlink:href="#Arial-ItalicMT-69" transform="translate(539.208984 0)"/>
     <use xlink:href="#Arial-ItalicMT-6e" transform="translate(561.425781 0)"/>
     <use xlink:href="#Arial-ItalicMT-67" transform="translate(617.041016 0)"/>
     <use xlink:href="#Arial-ItalicMT-6c" transform="translate(672.65625 0)"/>
     <use xlink:href="#Arial-ItalicMT-65" transform="translate(694.873047 0)"/>
     <use xlink:href="#Arial-ItalicMT-73" transform="translate(750.488281 0)"/>
     <use xlink:href="#Arial-ItalicMT-73" transform="translate(800.488281 0)"/>
     <use xlink:href="#Arial-ItalicMT-2c" transform="translate(850.488281 0)"/>
     <use xlink:href="#Arial-ItalicMT-20" transform="translate(878.271484 0)"/>
     <use xlink:href="#Arial-ItalicMT-68" transform="translate(906.054688 0)"/>
     <use xlink:href="#Arial-ItalicMT-65" transform="translate(961.669922 0)"/>
     <use xlink:href="#Arial-ItalicMT-64" transform="translate(1017.285156 0)"/>
     <use xlink:href="#Arial-ItalicMT-67" transform="translate(1072.900391 0)"/>
     <use xlink:href="#Arial-ItalicMT-65" transform="translate(1128.515625 0)"/>
     <use xlink:href="#Arial-ItalicMT-68" transform="translate(1184.130859 0)"/>
     <use xlink:href="#Arial-ItalicMT-6f" transform="translate(1239.746094 0)"/>
     <use xlink:href="#Arial-ItalicMT-67" transform="translate(1295.361328 0)"/>
    </g>
    <!-- (14 bandes - 1 par segment) -->
    <g style="fill: #262626" transform="translate(341.023359 412.45025) scale(0.09 -0.09)">
     <defs>
      <path id="Arial-ItalicMT-31" d="M 1541 0 
L 2266 3459 
Q 1797 3091 947 2869 
L 1053 3381 
Q 1475 3550 1886 3822 
Q 2297 4094 2503 4297 
Q 2628 4422 2741 4600 
L 3069 4600 
L 2109 0 
L 1541 0 
z
" transform="scale(0.015625)"/>
      <path id="Arial-ItalicMT-34" d="M 1913 0 
L 2159 1169 
L 291 1169 
L 409 1728 
L 2975 4581 
L 3438 4581 
L 2828 1669 
L 3472 1669 
L 3369 1169 
L 2725 1169 
L 2478 0 
L 1913 0 
z
M 2263 1669 
L 2663 3581 
L 956 1669 
L 2263 1669 
z
" transform="scale(0.015625)"/>
     </defs>
     <use xlink:href="#Arial-ItalicMT-28"/>
     <use xlink:href="#Arial-ItalicMT-31" transform="translate(33.300781 0)"/>
     <use xlink:href="#Arial-ItalicMT-34" transform="translate(88.916016 0)"/>
     <use xlink:href="#Arial-ItalicMT-20" transform="translate(144.53125 0)"/>
     <use xlink:href="#Arial-ItalicMT-62" transform="translate(172.314453 0)"/>
     <use xlink:href="#Arial-ItalicMT-61" transform="translate(227.929688 0)"/>
     <use xlink:href="#Arial-ItalicMT-6e" transform="translate(283.544922 0)"/>
     <use xlink:href="#Arial-ItalicMT-64" transform="translate(339.160156 0)"/>
     <use xlink:href="#Arial-ItalicMT-65" transform="translate(394.775391 0)"/>
     <use xlink:href="#Arial-ItalicMT-73" transform="translate(450.390625 0)"/>
     <use xlink:href="#Arial-ItalicMT-20" transform="translate(500.390625 0)"/>
     <use xlink:href="#Arial-ItalicMT-2d" transform="translate(528.173828 0)"/>
     <use xlink:href="#Arial-ItalicMT-20" transform="translate(561.474609 0)"/>
     <use xlink:href="#Arial-ItalicMT-31" transform="translate(589.257812 0)"/>
     <use xlink:href="#Arial-ItalicMT-20" transform="translate(644.873047 0)"/>
     <use xlink:href="#Arial-ItalicMT-70" transform="translate(672.65625 0)"/>
     <use xlink:href="#Arial-ItalicMT-61" transform="translate(728.271484 0)"/>
     <use xlink:href="#Arial-ItalicMT-72" transform="translate(783.886719 0)"/>
     <use xlink:href="#Arial-ItalicMT-20" transform="translate(817.1875 0)"/>
     <use xlink:href="#Arial-ItalicMT-73" transform="translate(844.970703 0)"/>
     <use xlink:href="#Arial-ItalicMT-65" transform="translate(894.970703 0)"/>
     <use xlink:href="#Arial-ItalicMT-67" transform="translate(950.585938 0)"/>
     <use xlink:href="#Arial-ItalicMT-6d" transform="translate(1006.201172 0)"/>
     <use xlink:href="#Arial-ItalicMT-65" transform="translate(1089.501953 0)"/>
     <use xlink:href="#Arial-ItalicMT-6e" transform="translate(1145.117188 0)"/>
     <use xlink:href="#Arial-ItalicMT-74" transform="translate(1200.732422 0)"/>
     <use xlink:href="#Arial-ItalicMT-29" transform="translate(1228.515625 0)"/>
    </g>
   </g>
   <g id="patch_11">
    <path d="M 397.8 437.554766 
Q 397.8 438.072267 397.8 435.235666 
" style="fill: none; stroke: #ff0000; stroke-width: 3; stroke-linecap: round"/>
    <path d="M 401.8 427.235666 
L 397.8 435.235666 
L 393.8 427.235666 
" style="fill: none; stroke: #ff0000; stroke-width: 3; stroke-linecap: round"/>
   </g>
   <g id="text_9">
    <!-- Gènes Homéotiques (Hox) -->
    <g transform="translate(322.793437 478.976563) scale(0.12 -0.12)">
     <defs>
      <path id="Arial-BoldMT-48" d="M 469 0 
L 469 4581 
L 1394 4581 
L 1394 2778 
L 3206 2778 
L 3206 4581 
L 4131 4581 
L 4131 0 
L 3206 0 
L 3206 2003 
L 1394 2003 
L 1394 0 
L 469 0 
z
" transform="scale(0.015625)"/>
      <path id="Arial-BoldMT-71" d="M 2628 -1263 
L 2628 406 
Q 2456 184 2200 54 
Q 1944 -75 1647 -75 
Q 1081 -75 716 350 
Q 284 847 284 1697 
Q 284 2497 689 2945 
Q 1094 3394 1694 3394 
Q 2025 3394 2267 3253 
Q 2509 3113 2697 2828 
L 2697 3319 
L 3506 3319 
L 3506 -1263 
L 2628 -1263 
z
M 2656 1700 
Q 2656 2209 2448 2457 
Q 2241 2706 1928 2706 
Q 1609 2706 1395 2453 
Q 1181 2200 1181 1650 
Q 1181 1103 1387 861 
Q 1594 619 1897 619 
Q 2200 619 2428 891 
Q 2656 1163 2656 1700 
z
" transform="scale(0.015625)"/>
      <path id="Arial-BoldMT-28" d="M 1916 -1347 
L 1313 -1347 
Q 834 -625 584 153 
Q 334 931 334 1659 
Q 334 2563 644 3369 
Q 913 4069 1325 4659 
L 1925 4659 
Q 1497 3713 1336 3048 
Q 1175 2384 1175 1641 
Q 1175 1128 1270 590 
Q 1366 53 1531 -431 
Q 1641 -750 1916 -1347 
z
" transform="scale(0.015625)"/>
      <path id="Arial-BoldMT-78" d="M 38 0 
L 1234 1709 
L 88 3319 
L 1159 3319 
L 1747 2406 
L 2366 3319 
L 3397 3319 
L 2272 1747 
L 3500 0 
L 2422 0 
L 1747 1028 
L 1066 0 
L 38 0 
z
" transform="scale(0.015625)"/>
      <path id="Arial-BoldMT-29" d="M 216 -1347 
Q 475 -791 581 -494 
Q 688 -197 778 190 
Q 869 578 912 926 
Q 956 1275 956 1641 
Q 956 2384 797 3048 
Q 638 3713 209 4659 
L 806 4659 
Q 1278 3988 1539 3234 
Q 1800 2481 1800 1706 
Q 1800 1053 1594 306 
Q 1359 -531 822 -1347 
L 216 -1347 
z
" transform="scale(0.015625)"/>
     </defs>
     <use xlink:href="#Arial-BoldMT-47"/>
     <use xlink:href="#Arial-BoldMT-e8" transform="translate(77.783203 0)"/>
     <use xlink:href="#Arial-BoldMT-6e" transform="translate(133.398438 0)"/>
     <use xlink:href="#Arial-BoldMT-65" transform="translate(194.482422 0)"/>
     <use xlink:href="#Arial-BoldMT-73" transform="translate(250.097656 0)"/>
     <use xlink:href="#Arial-BoldMT-20" transform="translate(305.712891 0)"/>
     <use xlink:href="#Arial-BoldMT-48" transform="translate(333.496094 0)"/>
     <use xlink:href="#Arial-BoldMT-6f" transform="translate(405.712891 0)"/>
     <use xlink:href="#Arial-BoldMT-6d" transform="translate(466.796875 0)"/>
     <use xlink:href="#Arial-BoldMT-e9" transform="translate(555.712891 0)"/>
     <use xlink:href="#Arial-BoldMT-6f" transform="translate(611.328125 0)"/>
     <use xlink:href="#Arial-BoldMT-74" transform="translate(672.412109 0)"/>
     <use xlink:href="#Arial-BoldMT-69" transform="translate(705.712891 0)"/>
     <use xlink:href="#Arial-BoldMT-71" transform="translate(733.496094 0)"/>
     <use xlink:href="#Arial-BoldMT-75" transform="translate(794.580078 0)"/>
     <use xlink:href="#Arial-BoldMT-65" transform="translate(855.664062 0)"/>
     <use xlink:href="#Arial-BoldMT-73" transform="translate(911.279297 0)"/>
     <use xlink:href="#Arial-BoldMT-20" transform="translate(966.894531 0)"/>
     <use xlink:href="#Arial-BoldMT-28" transform="translate(994.677734 0)"/>
     <use xlink:href="#Arial-BoldMT-48" transform="translate(1027.978516 0)"/>
     <use xlink:href="#Arial-BoldMT-6f" transform="translate(1100.195312 0)"/>
     <use xlink:href="#Arial-BoldMT-78" transform="translate(1161.279297 0)"/>
     <use xlink:href="#Arial-BoldMT-29" transform="translate(1216.894531 0)"/>
    </g>
   </g>
   <g id="text_10">
    <!-- Antennapedia, Bithorax complexes -->
    <g style="fill: #262626" transform="translate(328.260937 503.560063) scale(0.09 -0.09)">
     <defs>
      <path id="Arial-ItalicMT-41" d="M -128 0 
L 2469 4581 
L 3191 4581 
L 3947 0 
L 3353 0 
L 3131 1319 
L 1278 1319 
L 544 0 
L -128 0 
z
M 1541 1791 
L 3056 1791 
L 2878 2941 
Q 2775 3625 2750 4081 
Q 2594 3688 2294 3147 
L 1541 1791 
z
" transform="scale(0.015625)"/>
      <path id="Arial-ItalicMT-42" d="M 278 0 
L 1238 4581 
L 2656 4581 
Q 3044 4581 3231 4550 
Q 3538 4497 3748 4364 
Q 3959 4231 4075 4001 
Q 4191 3772 4191 3494 
Q 4191 3116 3983 2828 
Q 3775 2541 3347 2391 
Q 3719 2269 3903 2023 
Q 4088 1778 4088 1450 
Q 4088 1072 3870 725 
Q 3653 378 3295 189 
Q 2938 0 2497 0 
L 278 0 
z
M 1441 2625 
L 2369 2625 
Q 3034 2625 3326 2837 
Q 3619 3050 3619 3456 
Q 3619 3650 3528 3790 
Q 3438 3931 3286 3995 
Q 3134 4059 2716 4059 
L 1741 4059 
L 1441 2625 
z
M 1000 519 
L 2044 519 
Q 2459 519 2603 547 
Q 2894 597 3075 717 
Q 3256 838 3359 1034 
Q 3463 1231 3463 1447 
Q 3463 1769 3261 1936 
Q 3059 2103 2494 2103 
L 1331 2103 
L 1000 519 
z
" transform="scale(0.015625)"/>
      <path id="Arial-ItalicMT-78" d="M -9 0 
L 1434 1684 
L 606 3319 
L 1231 3319 
L 1513 2728 
Q 1669 2397 1794 2094 
L 2750 3319 
L 3441 3319 
L 2047 1641 
L 2884 0 
L 2259 0 
L 1928 675 
Q 1822 891 1688 1209 
L 700 0 
L -9 0 
z
" transform="scale(0.015625)"/>
     </defs>
     <use xlink:href="#Arial-ItalicMT-41"/>
     <use xlink:href="#Arial-ItalicMT-6e" transform="translate(66.699219 0)"/>
     <use xlink:href="#Arial-ItalicMT-74" transform="translate(122.314453 0)"/>
     <use xlink:href="#Arial-ItalicMT-65" transform="translate(150.097656 0)"/>
     <use xlink:href="#Arial-ItalicMT-6e" transform="translate(205.712891 0)"/>
     <use xlink:href="#Arial-ItalicMT-6e" transform="translate(261.328125 0)"/>
     <use xlink:href="#Arial-ItalicMT-61" transform="translate(316.943359 0)"/>
     <use xlink:href="#Arial-ItalicMT-70" transform="translate(372.558594 0)"/>
     <use xlink:href="#Arial-ItalicMT-65" transform="translate(428.173828 0)"/>
     <use xlink:href="#Arial-ItalicMT-64" transform="translate(483.789062 0)"/>
     <use xlink:href="#Arial-ItalicMT-69" transform="translate(539.404297 0)"/>
     <use xlink:href="#Arial-ItalicMT-61" transform="translate(561.621094 0)"/>
     <use xlink:href="#Arial-ItalicMT-2c" transform="translate(617.236328 0)"/>
     <use xlink:href="#Arial-ItalicMT-20" transform="translate(645.019531 0)"/>
     <use xlink:href="#Arial-ItalicMT-42" transform="translate(672.802734 0)"/>
     <use xlink:href="#Arial-ItalicMT-69" transform="translate(739.501953 0)"/>
     <use xlink:href="#Arial-ItalicMT-74" transform="translate(761.71875 0)"/>
     <use xlink:href="#Arial-ItalicMT-68" transform="translate(789.501953 0)"/>
     <use xlink:href="#Arial-ItalicMT-6f" transform="translate(845.117188 0)"/>
     <use xlink:href="#Arial-ItalicMT-72" transform="translate(900.732422 0)"/>
     <use xlink:href="#Arial-ItalicMT-61" transform="translate(934.033203 0)"/>
     <use xlink:href="#Arial-ItalicMT-78" transform="translate(989.648438 0)"/>
     <use xlink:href="#Arial-ItalicMT-20" transform="translate(1039.648438 0)"/>
     <use xlink:href="#Arial-ItalicMT-63" transform="translate(1067.431641 0)"/>
     <use xlink:href="#Arial-ItalicMT-6f" transform="translate(1117.431641 0)"/>
     <use xlink:href="#Arial-ItalicMT-6d" transform="translate(1173.046875 0)"/>
     <use xlink:href="#Arial-ItalicMT-70" transform="translate(1256.347656 0)"/>
     <use xlink:href="#Arial-ItalicMT-6c" transform="translate(1311.962891 0)"/>
     <use xlink:href="#Arial-ItalicMT-65" transform="translate(1334.179688 0)"/>
     <use xlink:href="#Arial-ItalicMT-78" transform="translate(1389.794922 0)"/>
     <use xlink:href="#Arial-ItalicMT-65" transform="translate(1439.794922 0)"/>
     <use xlink:href="#Arial-ItalicMT-73" transform="translate(1495.410156 0)"/>
    </g>
    <!-- (Identité segmentaire) -->
    <g style="fill: #262626" transform="translate(354.031875 513.210875) scale(0.09 -0.09)">
     <defs>
      <path id="Arial-ItalicMT-49" d="M 366 0 
L 1325 4581 
L 1934 4581 
L 978 0 
L 366 0 
z
" transform="scale(0.015625)"/>
     </defs>
     <use xlink:href="#Arial-ItalicMT-28"/>
     <use xlink:href="#Arial-ItalicMT-49" transform="translate(33.300781 0)"/>
     <use xlink:href="#Arial-ItalicMT-64" transform="translate(61.083984 0)"/>
     <use xlink:href="#Arial-ItalicMT-65" transform="translate(116.699219 0)"/>
     <use xlink:href="#Arial-ItalicMT-6e" transform="translate(172.314453 0)"/>
     <use xlink:href="#Arial-ItalicMT-74" transform="translate(227.929688 0)"/>
     <use xlink:href="#Arial-ItalicMT-69" transform="translate(255.712891 0)"/>
     <use xlink:href="#Arial-ItalicMT-74" transform="translate(277.929688 0)"/>
     <use xlink:href="#Arial-ItalicMT-e9" transform="translate(305.712891 0)"/>
     <use xlink:href="#Arial-ItalicMT-20" transform="translate(361.328125 0)"/>
     <use xlink:href="#Arial-ItalicMT-73" transform="translate(389.111328 0)"/>
     <use xlink:href="#Arial-ItalicMT-65" transform="translate(439.111328 0)"/>
     <use xlink:href="#Arial-ItalicMT-67" transform="translate(494.726562 0)"/>
     <use xlink:href="#Arial-ItalicMT-6d" transform="translate(550.341797 0)"/>
     <use xlink:href="#Arial-ItalicMT-65" transform="translate(633.642578 0)"/>
     <use xlink:href="#Arial-ItalicMT-6e" transform="translate(689.257812 0)"/>
     <use xlink:href="#Arial-ItalicMT-74" transform="translate(744.873047 0)"/>
     <use xlink:href="#Arial-ItalicMT-61" transform="translate(772.65625 0)"/>
     <use xlink:href="#Arial-ItalicMT-69" transform="translate(828.271484 0)"/>
     <use xlink:href="#Arial-ItalicMT-72" transform="translate(850.488281 0)"/>
     <use xlink:href="#Arial-ItalicMT-65" transform="translate(883.789062 0)"/>
     <use xlink:href="#Arial-ItalicMT-29" transform="translate(939.404297 0)"/>
    </g>
   </g>
   <g id="text_11">
    <!-- Principes de Régulation: -->
    <g style="fill: #262626" transform="translate(98.961953 534.157813) scale(0.11 -0.11)">
     <defs>
      <path id="Arial-BoldMT-63" d="M 3353 2338 
L 2488 2181 
Q 2444 2441 2289 2572 
Q 2134 2703 1888 2703 
Q 1559 2703 1364 2476 
Q 1169 2250 1169 1719 
Q 1169 1128 1367 884 
Q 1566 641 1900 641 
Q 2150 641 2309 783 
Q 2469 925 2534 1272 
L 3397 1125 
Q 3263 531 2881 228 
Q 2500 -75 1859 -75 
Q 1131 -75 698 384 
Q 266 844 266 1656 
Q 266 2478 700 2936 
Q 1134 3394 1875 3394 
Q 2481 3394 2839 3133 
Q 3197 2872 3353 2338 
z
" transform="scale(0.015625)"/>
      <path id="Arial-BoldMT-3a" d="M 628 2441 
L 628 3319 
L 1506 3319 
L 1506 2441 
L 628 2441 
z
M 628 0 
L 628 878 
L 1506 878 
L 1506 0 
L 628 0 
z
" transform="scale(0.015625)"/>
     </defs>
     <use xlink:href="#Arial-BoldMT-50"/>
     <use xlink:href="#Arial-BoldMT-72" transform="translate(66.699219 0)"/>
     <use xlink:href="#Arial-BoldMT-69" transform="translate(105.615234 0)"/>
     <use xlink:href="#Arial-BoldMT-6e" transform="translate(133.398438 0)"/>
     <use xlink:href="#Arial-BoldMT-63" transform="translate(194.482422 0)"/>
     <use xlink:href="#Arial-BoldMT-69" transform="translate(250.097656 0)"/>
     <use xlink:href="#Arial-BoldMT-70" transform="translate(277.880859 0)"/>
     <use xlink:href="#Arial-BoldMT-65" transform="translate(338.964844 0)"/>
     <use xlink:href="#Arial-BoldMT-73" transform="translate(394.580078 0)"/>
     <use xlink:href="#Arial-BoldMT-20" transform="translate(450.195312 0)"/>
     <use xlink:href="#Arial-BoldMT-64" transform="translate(477.978516 0)"/>
     <use xlink:href="#Arial-BoldMT-65" transform="translate(539.0625 0)"/>
     <use xlink:href="#Arial-BoldMT-20" transform="translate(594.677734 0)"/>
     <use xlink:href="#Arial-BoldMT-52" transform="translate(622.460938 0)"/>
     <use xlink:href="#Arial-BoldMT-e9" transform="translate(694.677734 0)"/>
     <use xlink:href="#Arial-BoldMT-67" transform="translate(750.292969 0)"/>
     <use xlink:href="#Arial-BoldMT-75" transform="translate(811.376953 0)"/>
     <use xlink:href="#Arial-BoldMT-6c" transform="translate(872.460938 0)"/>
     <use xlink:href="#Arial-BoldMT-61" transform="translate(900.244141 0)"/>
     <use xlink:href="#Arial-BoldMT-74" transform="translate(955.859375 0)"/>
     <use xlink:href="#Arial-BoldMT-69" transform="translate(989.160156 0)"/>
     <use xlink:href="#Arial-BoldMT-6f" transform="translate(1016.943359 0)"/>
     <use xlink:href="#Arial-BoldMT-6e" transform="translate(1078.027344 0)"/>
     <use xlink:href="#Arial-BoldMT-3a" transform="translate(1139.111328 0)"/>
    </g>
   </g>
   <g id="text_12">
    <!-- • Hiérarchie transcriptionnelle -->
    <g style="fill: #262626" transform="translate(104.842266 544.104219) scale(0.09 -0.09)">
     <defs>
      <path id="ArialMT-2022" d="M 341 2244 
Q 341 2572 573 2803 
Q 806 3034 1131 3034 
Q 1459 3034 1692 2803 
Q 1925 2572 1925 2244 
Q 1925 1916 1692 1683 
Q 1459 1450 1131 1450 
Q 806 1450 573 1683 
Q 341 1916 341 2244 
z
" transform="scale(0.015625)"/>
      <path id="ArialMT-20" transform="scale(0.015625)"/>
      <path id="ArialMT-48" d="M 513 0 
L 513 4581 
L 1119 4581 
L 1119 2700 
L 3500 2700 
L 3500 4581 
L 4106 4581 
L 4106 0 
L 3500 0 
L 3500 2159 
L 1119 2159 
L 1119 0 
L 513 0 
z
" transform="scale(0.015625)"/>
      <path id="ArialMT-69" d="M 425 3934 
L 425 4581 
L 988 4581 
L 988 3934 
L 425 3934 
z
M 425 0 
L 425 3319 
L 988 3319 
L 988 0 
L 425 0 
z
" transform="scale(0.015625)"/>
      <path id="ArialMT-e9" d="M 2694 1069 
L 3275 997 
Q 3138 488 2766 206 
Q 2394 -75 1816 -75 
Q 1088 -75 661 373 
Q 234 822 234 1631 
Q 234 2469 665 2931 
Q 1097 3394 1784 3394 
Q 2450 3394 2872 2941 
Q 3294 2488 3294 1666 
Q 3294 1616 3291 1516 
L 816 1516 
Q 847 969 1125 678 
Q 1403 388 1819 388 
Q 2128 388 2347 550 
Q 2566 713 2694 1069 
z
M 847 1978 
L 2700 1978 
Q 2663 2397 2488 2606 
Q 2219 2931 1791 2931 
Q 1403 2931 1139 2672 
Q 875 2413 847 1978 
z
M 1454 3731 
L 1869 4606 
L 2607 4606 
L 1919 3731 
L 1454 3731 
z
" transform="scale(0.015625)"/>
      <path id="ArialMT-72" d="M 416 0 
L 416 3319 
L 922 3319 
L 922 2816 
Q 1116 3169 1280 3281 
Q 1444 3394 1641 3394 
Q 1925 3394 2219 3213 
L 2025 2691 
Q 1819 2813 1613 2813 
Q 1428 2813 1281 2702 
Q 1134 2591 1072 2394 
Q 978 2094 978 1738 
L 978 0 
L 416 0 
z
" transform="scale(0.015625)"/>
      <path id="ArialMT-61" d="M 2588 409 
Q 2275 144 1986 34 
Q 1697 -75 1366 -75 
Q 819 -75 525 192 
Q 231 459 231 875 
Q 231 1119 342 1320 
Q 453 1522 633 1644 
Q 813 1766 1038 1828 
Q 1203 1872 1538 1913 
Q 2219 1994 2541 2106 
Q 2544 2222 2544 2253 
Q 2544 2597 2384 2738 
Q 2169 2928 1744 2928 
Q 1347 2928 1158 2789 
Q 969 2650 878 2297 
L 328 2372 
Q 403 2725 575 2942 
Q 747 3159 1072 3276 
Q 1397 3394 1825 3394 
Q 2250 3394 2515 3294 
Q 2781 3194 2906 3042 
Q 3031 2891 3081 2659 
Q 3109 2516 3109 2141 
L 3109 1391 
Q 3109 606 3145 398 
Q 3181 191 3288 0 
L 2700 0 
Q 2613 175 2588 409 
z
M 2541 1666 
Q 2234 1541 1622 1453 
Q 1275 1403 1131 1340 
Q 988 1278 909 1158 
Q 831 1038 831 891 
Q 831 666 1001 516 
Q 1172 366 1500 366 
Q 1825 366 2078 508 
Q 2331 650 2450 897 
Q 2541 1088 2541 1459 
L 2541 1666 
z
" transform="scale(0.015625)"/>
      <path id="ArialMT-63" d="M 2588 1216 
L 3141 1144 
Q 3050 572 2676 248 
Q 2303 -75 1759 -75 
Q 1078 -75 664 370 
Q 250 816 250 1647 
Q 250 2184 428 2587 
Q 606 2991 970 3192 
Q 1334 3394 1763 3394 
Q 2303 3394 2647 3120 
Q 2991 2847 3088 2344 
L 2541 2259 
Q 2463 2594 2264 2762 
Q 2066 2931 1784 2931 
Q 1359 2931 1093 2626 
Q 828 2322 828 1663 
Q 828 994 1084 691 
Q 1341 388 1753 388 
Q 2084 388 2306 591 
Q 2528 794 2588 1216 
z
" transform="scale(0.015625)"/>
      <path id="ArialMT-68" d="M 422 0 
L 422 4581 
L 984 4581 
L 984 2938 
Q 1378 3394 1978 3394 
Q 2347 3394 2619 3248 
Q 2891 3103 3008 2847 
Q 3125 2591 3125 2103 
L 3125 0 
L 2563 0 
L 2563 2103 
Q 2563 2525 2380 2717 
Q 2197 2909 1863 2909 
Q 1613 2909 1392 2779 
Q 1172 2650 1078 2428 
Q 984 2206 984 1816 
L 984 0 
L 422 0 
z
" transform="scale(0.015625)"/>
      <path id="ArialMT-65" d="M 2694 1069 
L 3275 997 
Q 3138 488 2766 206 
Q 2394 -75 1816 -75 
Q 1088 -75 661 373 
Q 234 822 234 1631 
Q 234 2469 665 2931 
Q 1097 3394 1784 3394 
Q 2450 3394 2872 2941 
Q 3294 2488 3294 1666 
Q 3294 1616 3291 1516 
L 816 1516 
Q 847 969 1125 678 
Q 1403 388 1819 388 
Q 2128 388 2347 550 
Q 2566 713 2694 1069 
z
M 847 1978 
L 2700 1978 
Q 2663 2397 2488 2606 
Q 2219 2931 1791 2931 
Q 1403 2931 1139 2672 
Q 875 2413 847 1978 
z
" transform="scale(0.015625)"/>
      <path id="ArialMT-74" d="M 1650 503 
L 1731 6 
Q 1494 -44 1306 -44 
Q 1000 -44 831 53 
Q 663 150 594 308 
Q 525 466 525 972 
L 525 2881 
L 113 2881 
L 113 3319 
L 525 3319 
L 525 4141 
L 1084 4478 
L 1084 3319 
L 1650 3319 
L 1650 2881 
L 1084 2881 
L 1084 941 
Q 1084 700 1114 631 
Q 1144 563 1211 522 
Q 1278 481 1403 481 
Q 1497 481 1650 503 
z
" transform="scale(0.015625)"/>
      <path id="ArialMT-6e" d="M 422 0 
L 422 3319 
L 928 3319 
L 928 2847 
Q 1294 3394 1984 3394 
Q 2284 3394 2536 3286 
Q 2788 3178 2913 3003 
Q 3038 2828 3088 2588 
Q 3119 2431 3119 2041 
L 3119 0 
L 2556 0 
L 2556 2019 
Q 2556 2363 2490 2533 
Q 2425 2703 2258 2804 
Q 2091 2906 1866 2906 
Q 1506 2906 1245 2678 
Q 984 2450 984 1813 
L 984 0 
L 422 0 
z
" transform="scale(0.015625)"/>
      <path id="ArialMT-73" d="M 197 991 
L 753 1078 
Q 800 744 1014 566 
Q 1228 388 1613 388 
Q 2000 388 2187 545 
Q 2375 703 2375 916 
Q 2375 1106 2209 1216 
Q 2094 1291 1634 1406 
Q 1016 1563 777 1677 
Q 538 1791 414 1992 
Q 291 2194 291 2438 
Q 291 2659 392 2848 
Q 494 3038 669 3163 
Q 800 3259 1026 3326 
Q 1253 3394 1513 3394 
Q 1903 3394 2198 3281 
Q 2494 3169 2634 2976 
Q 2775 2784 2828 2463 
L 2278 2388 
Q 2241 2644 2061 2787 
Q 1881 2931 1553 2931 
Q 1166 2931 1000 2803 
Q 834 2675 834 2503 
Q 834 2394 903 2306 
Q 972 2216 1119 2156 
Q 1203 2125 1616 2013 
Q 2213 1853 2448 1751 
Q 2684 1650 2818 1456 
Q 2953 1263 2953 975 
Q 2953 694 2789 445 
Q 2625 197 2315 61 
Q 2006 -75 1616 -75 
Q 969 -75 630 194 
Q 291 463 197 991 
z
" transform="scale(0.015625)"/>
      <path id="ArialMT-70" d="M 422 -1272 
L 422 3319 
L 934 3319 
L 934 2888 
Q 1116 3141 1344 3267 
Q 1572 3394 1897 3394 
Q 2322 3394 2647 3175 
Q 2972 2956 3137 2557 
Q 3303 2159 3303 1684 
Q 3303 1175 3120 767 
Q 2938 359 2589 142 
Q 2241 -75 1856 -75 
Q 1575 -75 1351 44 
Q 1128 163 984 344 
L 984 -1272 
L 422 -1272 
z
M 931 1641 
Q 931 1000 1190 694 
Q 1450 388 1819 388 
Q 2194 388 2461 705 
Q 2728 1022 2728 1688 
Q 2728 2322 2467 2637 
Q 2206 2953 1844 2953 
Q 1484 2953 1207 2617 
Q 931 2281 931 1641 
z
" transform="scale(0.015625)"/>
      <path id="ArialMT-6f" d="M 213 1659 
Q 213 2581 725 3025 
Q 1153 3394 1769 3394 
Q 2453 3394 2887 2945 
Q 3322 2497 3322 1706 
Q 3322 1066 3130 698 
Q 2938 331 2570 128 
Q 2203 -75 1769 -75 
Q 1072 -75 642 372 
Q 213 819 213 1659 
z
M 791 1659 
Q 791 1022 1069 705 
Q 1347 388 1769 388 
Q 2188 388 2466 706 
Q 2744 1025 2744 1678 
Q 2744 2294 2464 2611 
Q 2184 2928 1769 2928 
Q 1347 2928 1069 2612 
Q 791 2297 791 1659 
z
" transform="scale(0.015625)"/>
      <path id="ArialMT-6c" d="M 409 0 
L 409 4581 
L 972 4581 
L 972 0 
L 409 0 
z
" transform="scale(0.015625)"/>
     </defs>
     <use xlink:href="#ArialMT-2022"/>
     <use xlink:href="#ArialMT-20" transform="translate(35.009766 0)"/>
     <use xlink:href="#ArialMT-48" transform="translate(62.792969 0)"/>
     <use xlink:href="#ArialMT-69" transform="translate(135.009766 0)"/>
     <use xlink:href="#ArialMT-e9" transform="translate(157.226562 0)"/>
     <use xlink:href="#ArialMT-72" transform="translate(212.841797 0)"/>
     <use xlink:href="#ArialMT-61" transform="translate(246.142578 0)"/>
     <use xlink:href="#ArialMT-72" transform="translate(301.757812 0)"/>
     <use xlink:href="#ArialMT-63" transform="translate(335.058594 0)"/>
     <use xlink:href="#ArialMT-68" transform="translate(385.058594 0)"/>
     <use xlink:href="#ArialMT-69" transform="translate(440.673828 0)"/>
     <use xlink:href="#ArialMT-65" transform="translate(462.890625 0)"/>
     <use xlink:href="#ArialMT-20" transform="translate(518.505859 0)"/>
     <use xlink:href="#ArialMT-74" transform="translate(546.289062 0)"/>
     <use xlink:href="#ArialMT-72" transform="translate(574.072266 0)"/>
     <use xlink:href="#ArialMT-61" transform="translate(607.373047 0)"/>
     <use xlink:href="#ArialMT-6e" transform="translate(662.988281 0)"/>
     <use xlink:href="#ArialMT-73" transform="translate(718.603516 0)"/>
     <use xlink:href="#ArialMT-63" transform="translate(768.603516 0)"/>
     <use xlink:href="#ArialMT-72" transform="translate(818.603516 0)"/>
     <use xlink:href="#ArialMT-69" transform="translate(851.904297 0)"/>
     <use xlink:href="#ArialMT-70" transform="translate(874.121094 0)"/>
     <use xlink:href="#ArialMT-74" transform="translate(929.736328 0)"/>
     <use xlink:href="#ArialMT-69" transform="translate(957.519531 0)"/>
     <use xlink:href="#ArialMT-6f" transform="translate(979.736328 0)"/>
     <use xlink:href="#ArialMT-6e" transform="translate(1035.351562 0)"/>
     <use xlink:href="#ArialMT-6e" transform="translate(1090.966797 0)"/>
     <use xlink:href="#ArialMT-65" transform="translate(1146.582031 0)"/>
     <use xlink:href="#ArialMT-6c" transform="translate(1202.197266 0)"/>
     <use xlink:href="#ArialMT-6c" transform="translate(1224.414062 0)"/>
     <use xlink:href="#ArialMT-65" transform="translate(1246.630859 0)"/>
    </g>
    <!-- • Régulation combinatoire -->
    <g style="fill: #262626" transform="translate(112.088672 553.665594) scale(0.09 -0.09)">
     <defs>
      <path id="ArialMT-52" d="M 503 0 
L 503 4581 
L 2534 4581 
Q 3147 4581 3465 4457 
Q 3784 4334 3975 4021 
Q 4166 3709 4166 3331 
Q 4166 2844 3850 2509 
Q 3534 2175 2875 2084 
Q 3116 1969 3241 1856 
Q 3506 1613 3744 1247 
L 4541 0 
L 3778 0 
L 3172 953 
Q 2906 1366 2734 1584 
Q 2563 1803 2427 1890 
Q 2291 1978 2150 2013 
Q 2047 2034 1813 2034 
L 1109 2034 
L 1109 0 
L 503 0 
z
M 1109 2559 
L 2413 2559 
Q 2828 2559 3062 2645 
Q 3297 2731 3419 2920 
Q 3541 3109 3541 3331 
Q 3541 3656 3305 3865 
Q 3069 4075 2559 4075 
L 1109 4075 
L 1109 2559 
z
" transform="scale(0.015625)"/>
      <path id="ArialMT-67" d="M 319 -275 
L 866 -356 
Q 900 -609 1056 -725 
Q 1266 -881 1628 -881 
Q 2019 -881 2231 -725 
Q 2444 -569 2519 -288 
Q 2563 -116 2559 434 
Q 2191 0 1641 0 
Q 956 0 581 494 
Q 206 988 206 1678 
Q 206 2153 378 2554 
Q 550 2956 876 3175 
Q 1203 3394 1644 3394 
Q 2231 3394 2613 2919 
L 2613 3319 
L 3131 3319 
L 3131 450 
Q 3131 -325 2973 -648 
Q 2816 -972 2473 -1159 
Q 2131 -1347 1631 -1347 
Q 1038 -1347 672 -1080 
Q 306 -813 319 -275 
z
M 784 1719 
Q 784 1066 1043 766 
Q 1303 466 1694 466 
Q 2081 466 2343 764 
Q 2606 1063 2606 1700 
Q 2606 2309 2336 2618 
Q 2066 2928 1684 2928 
Q 1309 2928 1046 2623 
Q 784 2319 784 1719 
z
" transform="scale(0.015625)"/>
      <path id="ArialMT-75" d="M 2597 0 
L 2597 488 
Q 2209 -75 1544 -75 
Q 1250 -75 995 37 
Q 741 150 617 320 
Q 494 491 444 738 
Q 409 903 409 1263 
L 409 3319 
L 972 3319 
L 972 1478 
Q 972 1038 1006 884 
Q 1059 663 1231 536 
Q 1403 409 1656 409 
Q 1909 409 2131 539 
Q 2353 669 2445 892 
Q 2538 1116 2538 1541 
L 2538 3319 
L 3100 3319 
L 3100 0 
L 2597 0 
z
" transform="scale(0.015625)"/>
      <path id="ArialMT-6d" d="M 422 0 
L 422 3319 
L 925 3319 
L 925 2853 
Q 1081 3097 1340 3245 
Q 1600 3394 1931 3394 
Q 2300 3394 2536 3241 
Q 2772 3088 2869 2813 
Q 3263 3394 3894 3394 
Q 4388 3394 4653 3120 
Q 4919 2847 4919 2278 
L 4919 0 
L 4359 0 
L 4359 2091 
Q 4359 2428 4304 2576 
Q 4250 2725 4106 2815 
Q 3963 2906 3769 2906 
Q 3419 2906 3187 2673 
Q 2956 2441 2956 1928 
L 2956 0 
L 2394 0 
L 2394 2156 
Q 2394 2531 2256 2718 
Q 2119 2906 1806 2906 
Q 1569 2906 1367 2781 
Q 1166 2656 1075 2415 
Q 984 2175 984 1722 
L 984 0 
L 422 0 
z
" transform="scale(0.015625)"/>
      <path id="ArialMT-62" d="M 941 0 
L 419 0 
L 419 4581 
L 981 4581 
L 981 2947 
Q 1338 3394 1891 3394 
Q 2197 3394 2470 3270 
Q 2744 3147 2920 2923 
Q 3097 2700 3197 2384 
Q 3297 2069 3297 1709 
Q 3297 856 2875 390 
Q 2453 -75 1863 -75 
Q 1275 -75 941 416 
L 941 0 
z
M 934 1684 
Q 934 1088 1097 822 
Q 1363 388 1816 388 
Q 2184 388 2453 708 
Q 2722 1028 2722 1663 
Q 2722 2313 2464 2622 
Q 2206 2931 1841 2931 
Q 1472 2931 1203 2611 
Q 934 2291 934 1684 
z
" transform="scale(0.015625)"/>
     </defs>
     <use xlink:href="#ArialMT-2022"/>
     <use xlink:href="#ArialMT-20" transform="translate(35.009766 0)"/>
     <use xlink:href="#ArialMT-52" transform="translate(62.792969 0)"/>
     <use xlink:href="#ArialMT-e9" transform="translate(135.009766 0)"/>
     <use xlink:href="#ArialMT-67" transform="translate(190.625 0)"/>
     <use xlink:href="#ArialMT-75" transform="translate(246.240234 0)"/>
     <use xlink:href="#ArialMT-6c" transform="translate(301.855469 0)"/>
     <use xlink:href="#ArialMT-61" transform="translate(324.072266 0)"/>
     <use xlink:href="#ArialMT-74" transform="translate(379.6875 0)"/>
     <use xlink:href="#ArialMT-69" transform="translate(407.470703 0)"/>
     <use xlink:href="#ArialMT-6f" transform="translate(429.6875 0)"/>
     <use xlink:href="#ArialMT-6e" transform="translate(485.302734 0)"/>
     <use xlink:href="#ArialMT-20" transform="translate(540.917969 0)"/>
     <use xlink:href="#ArialMT-63" transform="translate(568.701172 0)"/>
     <use xlink:href="#ArialMT-6f" transform="translate(618.701172 0)"/>
     <use xlink:href="#ArialMT-6d" transform="translate(674.316406 0)"/>
     <use xlink:href="#ArialMT-62" transform="translate(757.617188 0)"/>
     <use xlink:href="#ArialMT-69" transform="translate(813.232422 0)"/>
     <use xlink:href="#ArialMT-6e" transform="translate(835.449219 0)"/>
     <use xlink:href="#ArialMT-61" transform="translate(891.064453 0)"/>
     <use xlink:href="#ArialMT-74" transform="translate(946.679688 0)"/>
     <use xlink:href="#ArialMT-6f" transform="translate(974.462891 0)"/>
     <use xlink:href="#ArialMT-69" transform="translate(1030.078125 0)"/>
     <use xlink:href="#ArialMT-72" transform="translate(1052.294922 0)"/>
     <use xlink:href="#ArialMT-65" transform="translate(1085.595703 0)"/>
    </g>
    <!-- • Rétroactions positives/négatives -->
    <g style="fill: #262626" transform="translate(96.084141 563.421875) scale(0.09 -0.09)">
     <defs>
      <path id="ArialMT-76" d="M 1344 0 
L 81 3319 
L 675 3319 
L 1388 1331 
Q 1503 1009 1600 663 
Q 1675 925 1809 1294 
L 2547 3319 
L 3125 3319 
L 1869 0 
L 1344 0 
z
" transform="scale(0.015625)"/>
      <path id="ArialMT-2f" d="M 0 -78 
L 1328 4659 
L 1778 4659 
L 453 -78 
L 0 -78 
z
" transform="scale(0.015625)"/>
     </defs>
     <use xlink:href="#ArialMT-2022"/>
     <use xlink:href="#ArialMT-20" transform="translate(35.009766 0)"/>
     <use xlink:href="#ArialMT-52" transform="translate(62.792969 0)"/>
     <use xlink:href="#ArialMT-e9" transform="translate(135.009766 0)"/>
     <use xlink:href="#ArialMT-74" transform="translate(190.625 0)"/>
     <use xlink:href="#ArialMT-72" transform="translate(218.408203 0)"/>
     <use xlink:href="#ArialMT-6f" transform="translate(251.708984 0)"/>
     <use xlink:href="#ArialMT-61" transform="translate(307.324219 0)"/>
     <use xlink:href="#ArialMT-63" transform="translate(362.939453 0)"/>
     <use xlink:href="#ArialMT-74" transform="translate(412.939453 0)"/>
     <use xlink:href="#ArialMT-69" transform="translate(440.722656 0)"/>
     <use xlink:href="#ArialMT-6f" transform="translate(462.939453 0)"/>
     <use xlink:href="#ArialMT-6e" transform="translate(518.554688 0)"/>
     <use xlink:href="#ArialMT-73" transform="translate(574.169922 0)"/>
     <use xlink:href="#ArialMT-20" transform="translate(624.169922 0)"/>
     <use xlink:href="#ArialMT-70" transform="translate(651.953125 0)"/>
     <use xlink:href="#ArialMT-6f" transform="translate(707.568359 0)"/>
     <use xlink:href="#ArialMT-73" transform="translate(763.183594 0)"/>
     <use xlink:href="#ArialMT-69" transform="translate(813.183594 0)"/>
     <use xlink:href="#ArialMT-74" transform="translate(835.400391 0)"/>
     <use xlink:href="#ArialMT-69" transform="translate(863.183594 0)"/>
     <use xlink:href="#ArialMT-76" transform="translate(885.400391 0)"/>
     <use xlink:href="#ArialMT-65" transform="translate(935.400391 0)"/>
     <use xlink:href="#ArialMT-73" transform="translate(991.015625 0)"/>
     <use xlink:href="#ArialMT-2f" transform="translate(1041.015625 0)"/>
     <use xlink:href="#ArialMT-6e" transform="translate(1068.798828 0)"/>
     <use xlink:href="#ArialMT-e9" transform="translate(1124.414062 0)"/>
     <use xlink:href="#ArialMT-67" transform="translate(1180.029297 0)"/>
     <use xlink:href="#ArialMT-61" transform="translate(1235.644531 0)"/>
     <use xlink:href="#ArialMT-74" transform="translate(1291.259766 0)"/>
     <use xlink:href="#ArialMT-69" transform="translate(1319.042969 0)"/>
     <use xlink:href="#ArialMT-76" transform="translate(1341.259766 0)"/>
     <use xlink:href="#ArialMT-65" transform="translate(1391.259766 0)"/>
     <use xlink:href="#ArialMT-73" transform="translate(1446.875 0)"/>
    </g>
   </g>
   <g id="text_13">
    <g id="patch_12">
     <path d="M 482.827344 554.384375 
L 591.772656 554.384375 
Q 594.772656 554.384375 594.772656 551.384375 
L 594.772656 531.515938 
Q 594.772656 528.515938 591.772656 528.515938 
L 482.827344 528.515938 
Q 479.827344 528.515938 479.827344 531.515938 
L 479.827344 551.384375 
Q 479.827344 554.384375 482.827344 554.384375 
z
" style="fill: #fff8dc; opacity: 0.8; stroke: #000000; stroke-linejoin: miter"/>
    </g>
    <!-- Durée: ~5 heures -->
    <g style="fill: #262626" transform="translate(498.528125 538.556563) scale(0.1 -0.1)">
     <defs>
      <path id="Arial-ItalicMT-44" d="M 284 0 
L 1241 4581 
L 2622 4581 
Q 3119 4581 3381 4509 
Q 3756 4413 4022 4164 
Q 4288 3916 4422 3544 
Q 4556 3172 4556 2709 
Q 4556 2156 4389 1701 
Q 4222 1247 3951 901 
Q 3681 556 3386 361 
Q 3091 166 2688 72 
Q 2381 0 1934 0 
L 284 0 
z
M 1006 519 
L 1731 519 
Q 2222 519 2603 609 
Q 2841 666 3009 775 
Q 3231 916 3413 1147 
Q 3650 1453 3792 1845 
Q 3934 2238 3934 2738 
Q 3934 3294 3740 3592 
Q 3547 3891 3247 3988 
Q 3025 4059 2556 4059 
L 1747 4059 
L 1006 519 
z
" transform="scale(0.015625)"/>
      <path id="Arial-ItalicMT-3a" d="M 925 2678 
L 1059 3319 
L 1697 3319 
L 1566 2678 
L 925 2678 
z
M 366 0 
L 500 641 
L 1141 641 
L 1003 0 
L 366 0 
z
" transform="scale(0.015625)"/>
      <path id="Arial-ItalicMT-7e" d="M 513 1741 
L 513 2381 
Q 844 2756 1381 2756 
Q 1569 2756 1775 2701 
Q 1981 2647 2363 2484 
Q 2578 2394 2686 2366 
Q 2794 2338 2903 2338 
Q 3106 2338 3323 2459 
Q 3541 2581 3709 2766 
L 3709 2103 
Q 3509 1916 3304 1831 
Q 3100 1747 2844 1747 
Q 2656 1747 2486 1790 
Q 2316 1834 1945 2000 
Q 1575 2166 1328 2166 
Q 1128 2166 951 2080 
Q 775 1994 513 1741 
z
" transform="scale(0.015625)"/>
      <path id="Arial-ItalicMT-35" d="M 447 1309 
L 1022 1366 
Q 1016 1244 1016 1219 
Q 1016 1013 1120 803 
Q 1225 594 1404 483 
Q 1584 372 1784 372 
Q 2047 372 2319 553 
Q 2591 734 2759 1081 
Q 2928 1428 2928 1769 
Q 2928 2153 2701 2384 
Q 2475 2616 2106 2616 
Q 1859 2616 1639 2497 
Q 1419 2378 1228 2141 
L 734 2175 
L 1425 4519 
L 3663 4519 
L 3553 4000 
L 1813 4000 
L 1469 2834 
Q 1663 2975 1867 3045 
Q 2072 3116 2288 3116 
Q 2813 3116 3150 2769 
Q 3488 2422 3488 1819 
Q 3488 1291 3256 845 
Q 3025 400 2620 161 
Q 2216 -78 1747 -78 
Q 1353 -78 1050 100 
Q 747 278 595 590 
Q 444 903 444 1216 
Q 444 1247 447 1309 
z
" transform="scale(0.015625)"/>
     </defs>
     <use xlink:href="#Arial-ItalicMT-44"/>
     <use xlink:href="#Arial-ItalicMT-75" transform="translate(72.216797 0)"/>
     <use xlink:href="#Arial-ItalicMT-72" transform="translate(127.832031 0)"/>
     <use xlink:href="#Arial-ItalicMT-e9" transform="translate(161.132812 0)"/>
     <use xlink:href="#Arial-ItalicMT-65" transform="translate(216.748047 0)"/>
     <use xlink:href="#Arial-ItalicMT-3a" transform="translate(272.363281 0)"/>
     <use xlink:href="#Arial-ItalicMT-20" transform="translate(300.146484 0)"/>
     <use xlink:href="#Arial-ItalicMT-7e" transform="translate(327.929688 0)"/>
     <use xlink:href="#Arial-ItalicMT-35" transform="translate(386.328125 0)"/>
     <use xlink:href="#Arial-ItalicMT-20" transform="translate(441.943359 0)"/>
     <use xlink:href="#Arial-ItalicMT-68" transform="translate(469.726562 0)"/>
     <use xlink:href="#Arial-ItalicMT-65" transform="translate(525.341797 0)"/>
     <use xlink:href="#Arial-ItalicMT-75" transform="translate(580.957031 0)"/>
     <use xlink:href="#Arial-ItalicMT-72" transform="translate(636.572266 0)"/>
     <use xlink:href="#Arial-ItalicMT-65" transform="translate(669.873047 0)"/>
     <use xlink:href="#Arial-ItalicMT-73" transform="translate(725.488281 0)"/>
    </g>
    <!-- (0-5h après fécondation) -->
    <g style="fill: #262626" transform="translate(482.827344 549.279688) scale(0.1 -0.1)">
     <defs>
      <path id="Arial-ItalicMT-30" d="M 453 1503 
Q 453 2084 626 2684 
Q 800 3284 1012 3643 
Q 1225 4003 1453 4206 
Q 1681 4409 1901 4504 
Q 2122 4600 2391 4600 
Q 2916 4600 3267 4209 
Q 3619 3819 3619 3081 
Q 3619 2322 3375 1578 
Q 3088 697 2575 256 
Q 2181 -78 1678 -78 
Q 1163 -78 808 326 
Q 453 731 453 1503 
z
M 1000 1359 
Q 1000 938 1141 700 
Q 1331 372 1706 372 
Q 2034 372 2303 669 
Q 2691 1088 2886 1895 
Q 3081 2703 3081 3216 
Q 3081 3709 2892 3928 
Q 2703 4147 2394 4147 
Q 2169 4147 1973 4031 
Q 1778 3916 1600 3634 
Q 1347 3238 1159 2447 
Q 1000 1772 1000 1359 
z
" transform="scale(0.015625)"/>
     </defs>
     <use xlink:href="#Arial-ItalicMT-28"/>
     <use xlink:href="#Arial-ItalicMT-30" transform="translate(33.300781 0)"/>
     <use xlink:href="#Arial-ItalicMT-2d" transform="translate(88.916016 0)"/>
     <use xlink:href="#Arial-ItalicMT-35" transform="translate(122.216797 0)"/>
     <use xlink:href="#Arial-ItalicMT-68" transform="translate(177.832031 0)"/>
     <use xlink:href="#Arial-ItalicMT-20" transform="translate(233.447266 0)"/>
     <use xlink:href="#Arial-ItalicMT-61" transform="translate(261.230469 0)"/>
     <use xlink:href="#Arial-ItalicMT-70" transform="translate(316.845703 0)"/>
     <use xlink:href="#Arial-ItalicMT-72" transform="translate(372.460938 0)"/>
     <use xlink:href="#Arial-ItalicMT-e8" transform="translate(405.761719 0)"/>
     <use xlink:href="#Arial-ItalicMT-73" transform="translate(461.376953 0)"/>
     <use xlink:href="#Arial-ItalicMT-20" transform="translate(511.376953 0)"/>
     <use xlink:href="#Arial-ItalicMT-66" transform="translate(539.160156 0)"/>
     <use xlink:href="#Arial-ItalicMT-e9" transform="translate(566.943359 0)"/>
     <use xlink:href="#Arial-ItalicMT-63" transform="translate(622.558594 0)"/>
     <use xlink:href="#Arial-ItalicMT-6f" transform="translate(672.558594 0)"/>
     <use xlink:href="#Arial-ItalicMT-6e" transform="translate(728.173828 0)"/>
     <use xlink:href="#Arial-ItalicMT-64" transform="translate(783.789062 0)"/>
     <use xlink:href="#Arial-ItalicMT-61" transform="translate(839.404297 0)"/>
     <use xlink:href="#Arial-ItalicMT-74" transform="translate(895.019531 0)"/>
     <use xlink:href="#Arial-ItalicMT-69" transform="translate(922.802734 0)"/>
     <use xlink:href="#Arial-ItalicMT-6f" transform="translate(945.019531 0)"/>
     <use xlink:href="#Arial-ItalicMT-6e" transform="translate(1000.634766 0)"/>
     <use xlink:href="#Arial-ItalicMT-29" transform="translate(1056.25 0)"/>
    </g>
   </g>
   <g id="text_14">
    <!-- Cascade Hiérarchique de la Segmentation -->
    <g style="fill: #262626" transform="translate(258.151094 17.391563) scale(0.14 -0.14)">
     <defs>
      <path id="Arial-BoldMT-43" d="M 3397 1684 
L 4294 1400 
Q 4088 650 3608 286 
Q 3128 -78 2391 -78 
Q 1478 -78 890 545 
Q 303 1169 303 2250 
Q 303 3394 893 4026 
Q 1484 4659 2447 4659 
Q 3288 4659 3813 4163 
Q 4125 3869 4281 3319 
L 3366 3100 
Q 3284 3456 3026 3662 
Q 2769 3869 2400 3869 
Q 1891 3869 1573 3503 
Q 1256 3138 1256 2319 
Q 1256 1450 1568 1081 
Q 1881 713 2381 713 
Q 2750 713 3015 947 
Q 3281 1181 3397 1684 
z
" transform="scale(0.015625)"/>
      <path id="Arial-BoldMT-68" d="M 1334 4581 
L 1334 2897 
Q 1759 3394 2350 3394 
Q 2653 3394 2897 3281 
Q 3141 3169 3264 2994 
Q 3388 2819 3433 2606 
Q 3478 2394 3478 1947 
L 3478 0 
L 2600 0 
L 2600 1753 
Q 2600 2275 2550 2415 
Q 2500 2556 2373 2639 
Q 2247 2722 2056 2722 
Q 1838 2722 1666 2615 
Q 1494 2509 1414 2295 
Q 1334 2081 1334 1663 
L 1334 0 
L 456 0 
L 456 4581 
L 1334 4581 
z
" transform="scale(0.015625)"/>
     </defs>
     <use xlink:href="#Arial-BoldMT-43"/>
     <use xlink:href="#Arial-BoldMT-61" transform="translate(72.216797 0)"/>
     <use xlink:href="#Arial-BoldMT-73" transform="translate(127.832031 0)"/>
     <use xlink:href="#Arial-BoldMT-63" transform="translate(183.447266 0)"/>
     <use xlink:href="#Arial-BoldMT-61" transform="translate(239.0625 0)"/>
     <use xlink:href="#Arial-BoldMT-64" transform="translate(294.677734 0)"/>
     <use xlink:href="#Arial-BoldMT-65" transform="translate(355.761719 0)"/>
     <use xlink:href="#Arial-BoldMT-20" transform="translate(411.376953 0)"/>
     <use xlink:href="#Arial-BoldMT-48" transform="translate(439.160156 0)"/>
     <use xlink:href="#Arial-BoldMT-69" transform="translate(511.376953 0)"/>
     <use xlink:href="#Arial-BoldMT-e9" transform="translate(539.160156 0)"/>
     <use xlink:href="#Arial-BoldMT-72" transform="translate(594.775391 0)"/>
     <use xlink:href="#Arial-BoldMT-61" transform="translate(633.691406 0)"/>
     <use xlink:href="#Arial-BoldMT-72" transform="translate(689.306641 0)"/>
     <use xlink:href="#Arial-BoldMT-63" transform="translate(728.222656 0)"/>
     <use xlink:href="#Arial-BoldMT-68" transform="translate(783.837891 0)"/>
     <use xlink:href="#Arial-BoldMT-69" transform="translate(844.921875 0)"/>
     <use xlink:href="#Arial-BoldMT-71" transform="translate(872.705078 0)"/>
     <use xlink:href="#Arial-BoldMT-75" transform="translate(933.789062 0)"/>
     <use xlink:href="#Arial-BoldMT-65" transform="translate(994.873047 0)"/>
     <use xlink:href="#Arial-BoldMT-20" transform="translate(1050.488281 0)"/>
     <use xlink:href="#Arial-BoldMT-64" transform="translate(1078.271484 0)"/>
     <use xlink:href="#Arial-BoldMT-65" transform="translate(1139.355469 0)"/>
     <use xlink:href="#Arial-BoldMT-20" transform="translate(1194.970703 0)"/>
     <use xlink:href="#Arial-BoldMT-6c" transform="translate(1222.753906 0)"/>
     <use xlink:href="#Arial-BoldMT-61" transform="translate(1250.537109 0)"/>
     <use xlink:href="#Arial-BoldMT-20" transform="translate(1306.152344 0)"/>
     <use xlink:href="#Arial-BoldMT-53" transform="translate(1333.935547 0)"/>
     <use xlink:href="#Arial-BoldMT-65" transform="translate(1400.634766 0)"/>
     <use xlink:href="#Arial-BoldMT-67" transform="translate(1456.25 0)"/>
     <use xlink:href="#Arial-BoldMT-6d" transform="translate(1517.333984 0)"/>
     <use xlink:href="#Arial-BoldMT-65" transform="translate(1606.25 0)"/>
     <use xlink:href="#Arial-BoldMT-6e" transform="translate(1661.865234 0)"/>
     <use xlink:href="#Arial-BoldMT-74" transform="translate(1722.949219 0)"/>
     <use xlink:href="#Arial-BoldMT-61" transform="translate(1756.25 0)"/>
     <use xlink:href="#Arial-BoldMT-74" transform="translate(1811.865234 0)"/>
     <use xlink:href="#Arial-BoldMT-69" transform="translate(1845.166016 0)"/>
     <use xlink:href="#Arial-BoldMT-6f" transform="translate(1872.949219 0)"/>
     <use xlink:href="#Arial-BoldMT-6e" transform="translate(1934.033203 0)"/>
    </g>
   </g>
  </g>
 </g>
 <defs>
  <clipPath id="p9bb1860498">
   <rect x="7.2" y="37.391563" width="781.2" height="554.4"/>
  </clipPath>
 </defs>
</svg>
