<?xml version="1.0" encoding="utf-8" standalone="no"?>
<!DOCTYPE svg PUBLIC "-//W3C//DTD SVG 1.1//EN"
  "http://www.w3.org/Graphics/SVG/1.1/DTD/svg11.dtd">
<svg xmlns:xlink="http://www.w3.org/1999/xlink" width="579.382556pt" height="500.576125pt" viewBox="0 0 579.382556 500.576125" xmlns="http://www.w3.org/2000/svg" version="1.1">
 <metadata>
  <rdf:RDF xmlns:dc="http://purl.org/dc/elements/1.1/" xmlns:cc="http://creativecommons.org/ns#" xmlns:rdf="http://www.w3.org/1999/02/22-rdf-syntax-ns#">
   <cc:Work>
    <dc:type rdf:resource="http://purl.org/dc/dcmitype/StillImage"/>
    <dc:date>2026-03-31T11:28:43.882037</dc:date>
    <dc:format>image/svg+xml</dc:format>
    <dc:creator>
     <cc:Agent>
      <dc:title>Matplotlib v3.10.8, https://matplotlib.org/</dc:title>
     </cc:Agent>
    </dc:creator>
   </cc:Work>
  </rdf:RDF>
 </metadata>
 <defs>
  <style type="text/css">*{stroke-linejoin: round; stroke-linecap: butt}</style>
 </defs>
 <g id="figure_1">
  <g id="patch_1">
   <path d="M 0 500.576125 
L 579.382556 500.576125 
L 579.382556 0 
L 0 0 
z
" style="fill: #ffffff"/>
  </g>
  <g id="axes_1">
   <g id="patch_2">
    <path d="M 273.312 426.848125 
C 332.123439 426.848125 388.534032 410.491902 430.12 381.381725 
C 471.705967 352.271548 495.072 312.784133 495.072 271.616125 
C 495.072 230.448117 471.705967 190.960702 430.12 161.850525 
C 388.534032 132.740348 332.123439 116.384125 273.312 116.384125 
C 214.500561 116.384125 158.089968 132.740348 116.504 161.850525 
C 74.918033 190.960702 51.552 230.448117 51.552 271.616125 
C 51.552 312.784133 74.918033 352.271548 116.504 381.381725 
C 158.089968 410.491902 214.500561 426.848125 273.312 426.848125 
L 273.312 426.848125 
z
" clip-path="url(#p1edc696a54)" style="fill: none; stroke-dasharray: 18.5,8; stroke-dashoffset: 0; stroke: #a1887f; stroke-width: 5; stroke-linejoin: miter"/>
   </g>
   <g id="FillBetweenPolyCollection_1">
    <defs>
     <path id="m27145e4ff8" d="M 95.904 -113.6448 
L 95.904 -60.4224 
L 99.488 -60.4224 
L 103.072 -60.4224 
L 106.656 -60.4224 
L 110.24 -60.4224 
L 113.824 -60.4224 
L 117.408 -60.4224 
L 120.992 -60.4224 
L 124.576 -60.4224 
L 128.16 -60.4224 
L 131.744 -60.4224 
L 135.328 -60.4224 
L 138.912 -60.4224 
L 142.496 -60.4224 
L 146.08 -60.4224 
L 149.664 -60.4224 
L 153.248 -60.4224 
L 156.832 -60.4224 
L 160.416 -60.4224 
L 164 -60.4224 
L 167.584 -60.4224 
L 171.168 -60.4224 
L 174.752 -60.4224 
L 178.336 -60.4224 
L 181.92 -60.4224 
L 185.504 -60.4224 
L 189.088 -60.4224 
L 192.672 -60.4224 
L 196.256 -60.4224 
L 199.84 -60.4224 
L 203.424 -60.4224 
L 207.008 -60.4224 
L 210.592 -60.4224 
L 214.176 -60.4224 
L 217.76 -60.4224 
L 221.344 -60.4224 
L 224.928 -60.4224 
L 228.512 -60.4224 
L 232.096 -60.4224 
L 235.68 -60.4224 
L 239.264 -60.4224 
L 242.848 -60.4224 
L 246.432 -60.4224 
L 250.016 -60.4224 
L 253.6 -60.4224 
L 257.184 -60.4224 
L 260.768 -60.4224 
L 264.352 -60.4224 
L 267.936 -60.4224 
L 271.52 -60.4224 
L 275.104 -60.4224 
L 278.688 -60.4224 
L 282.272 -60.4224 
L 285.856 -60.4224 
L 289.44 -60.4224 
L 293.024 -60.4224 
L 296.608 -60.4224 
L 300.192 -60.4224 
L 303.776 -60.4224 
L 307.36 -60.4224 
L 310.944 -60.4224 
L 314.528 -60.4224 
L 318.112 -60.4224 
L 321.696 -60.4224 
L 325.28 -60.4224 
L 328.864 -60.4224 
L 332.448 -60.4224 
L 336.032 -60.4224 
L 339.616 -60.4224 
L 343.2 -60.4224 
L 346.784 -60.4224 
L 350.368 -60.4224 
L 353.952 -60.4224 
L 357.536 -60.4224 
L 361.12 -60.4224 
L 364.704 -60.4224 
L 368.288 -60.4224 
L 371.872 -60.4224 
L 375.456 -60.4224 
L 379.04 -60.4224 
L 382.624 -60.4224 
L 386.208 -60.4224 
L 389.792 -60.4224 
L 393.376 -60.4224 
L 396.96 -60.4224 
L 400.544 -60.4224 
L 404.128 -60.4224 
L 407.712 -60.4224 
L 411.296 -60.4224 
L 414.88 -60.4224 
L 418.464 -60.4224 
L 422.048 -60.4224 
L 425.632 -60.4224 
L 429.216 -60.4224 
L 432.8 -60.4224 
L 436.384 -60.4224 
L 439.968 -60.4224 
L 443.552 -60.4224 
L 447.136 -60.4224 
L 450.72 -60.4224 
L 450.72 -61.397202 
L 450.72 -61.397202 
L 447.136 -61.437395 
L 443.552 -61.479244 
L 439.968 -61.52282 
L 436.384 -61.568191 
L 432.8 -61.615434 
L 429.216 -61.664624 
L 425.632 -61.715843 
L 422.048 -61.769173 
L 418.464 -61.824703 
L 414.88 -61.882522 
L 411.296 -61.942725 
L 407.712 -62.00541 
L 404.128 -62.070679 
L 400.544 -62.13864 
L 396.96 -62.209403 
L 393.376 -62.283084 
L 389.792 -62.359802 
L 386.208 -62.439684 
L 382.624 -62.522859 
L 379.04 -62.609464 
L 375.456 -62.69964 
L 371.872 -62.793534 
L 368.288 -62.891299 
L 364.704 -62.993095 
L 361.12 -63.099088 
L 357.536 -63.209452 
L 353.952 -63.324366 
L 350.368 -63.444018 
L 346.784 -63.568604 
L 343.2 -63.698326 
L 339.616 -63.833397 
L 336.032 -63.974037 
L 332.448 -64.120476 
L 328.864 -64.272953 
L 325.28 -64.431716 
L 321.696 -64.597026 
L 318.112 -64.769152 
L 314.528 -64.948374 
L 310.944 -65.134987 
L 307.36 -65.329293 
L 303.776 -65.531611 
L 300.192 -65.742271 
L 296.608 -65.961617 
L 293.024 -66.190006 
L 289.44 -66.427813 
L 285.856 -66.675424 
L 282.272 -66.933245 
L 278.688 -67.201696 
L 275.104 -67.481216 
L 271.52 -67.772261 
L 267.936 -68.075306 
L 264.352 -68.390846 
L 260.768 -68.719396 
L 257.184 -69.061492 
L 253.6 -69.417694 
L 250.016 -69.788583 
L 246.432 -70.174763 
L 242.848 -70.576867 
L 239.264 -70.99555 
L 235.68 -71.431495 
L 232.096 -71.885416 
L 228.512 -72.358052 
L 224.928 -72.850175 
L 221.344 -73.36259 
L 217.76 -73.896132 
L 214.176 -74.451672 
L 210.592 -75.030119 
L 207.008 -75.632415 
L 203.424 -76.259545 
L 199.84 -76.912533 
L 196.256 -77.592444 
L 192.672 -78.300389 
L 189.088 -79.037523 
L 185.504 -79.80505 
L 181.92 -80.604224 
L 178.336 -81.436348 
L 174.752 -82.302783 
L 171.168 -83.204941 
L 167.584 -84.144297 
L 164 -85.122384 
L 160.416 -86.140799 
L 156.832 -87.201204 
L 153.248 -88.305331 
L 149.664 -89.454983 
L 146.08 -90.652037 
L 142.496 -91.898447 
L 138.912 -93.196248 
L 135.328 -94.547559 
L 131.744 -95.954587 
L 128.16 -97.419628 
L 124.576 -98.945075 
L 120.992 -100.533419 
L 117.408 -102.187252 
L 113.824 -103.909275 
L 110.24 -105.702299 
L 106.656 -107.569252 
L 103.072 -109.513182 
L 99.488 -111.537263 
L 95.904 -113.6448 
z
" style="stroke: #e53935; stroke-opacity: 0.3"/>
    </defs>
    <g clip-path="url(#p1edc696a54)">
     <use xlink:href="#m27145e4ff8" x="0" y="500.576125" style="fill: #e53935; fill-opacity: 0.3; stroke: #e53935; stroke-opacity: 0.3"/>
    </g>
   </g>
   <g id="line2d_1">
    <path d="M 95.904 386.931325 
L 99.488 389.038862 
L 103.072 391.062943 
L 106.656 393.006873 
L 110.24 394.873826 
L 113.824 396.66685 
L 117.408 398.388873 
L 120.992 400.042706 
L 124.576 401.63105 
L 128.16 403.156497 
L 131.744 404.621538 
L 135.328 406.028566 
L 138.912 407.379877 
L 142.496 408.677678 
L 146.08 409.924088 
L 149.664 411.121142 
L 153.248 412.270794 
L 156.832 413.374921 
L 160.416 414.435326 
L 164 415.453741 
L 167.584 416.431828 
L 171.168 417.371184 
L 174.752 418.273342 
L 178.336 419.139777 
L 181.92 419.971901 
L 185.504 420.771075 
L 189.088 421.538602 
L 192.672 422.275736 
L 196.256 422.983681 
L 199.84 423.663592 
L 203.424 424.31658 
L 207.008 424.94371 
L 210.592 425.546006 
L 214.176 426.124453 
L 217.76 426.679993 
L 221.344 427.213535 
L 224.928 427.72595 
L 228.512 428.218073 
L 232.096 428.690709 
L 235.68 429.14463 
L 239.264 429.580575 
L 242.848 429.999258 
L 246.432 430.401362 
L 250.016 430.787542 
L 253.6 431.158431 
L 257.184 431.514633 
L 260.768 431.856729 
L 264.352 432.185279 
L 267.936 432.500819 
L 271.52 432.803864 
L 275.104 433.094909 
L 278.688 433.374429 
L 282.272 433.64288 
L 285.856 433.900701 
L 289.44 434.148312 
L 293.024 434.386119 
L 296.608 434.614508 
L 300.192 434.833854 
L 303.776 435.044514 
L 307.36 435.246832 
L 310.944 435.441138 
L 314.528 435.627751 
L 318.112 435.806973 
L 321.696 435.979099 
L 325.28 436.144409 
L 328.864 436.303172 
L 332.448 436.455649 
L 336.032 436.602088 
L 339.616 436.742728 
L 343.2 436.877799 
L 346.784 437.007521 
L 350.368 437.132107 
L 353.952 437.251759 
L 357.536 437.366673 
L 361.12 437.477037 
L 364.704 437.58303 
L 368.288 437.684826 
L 371.872 437.782591 
L 375.456 437.876485 
L 379.04 437.966661 
L 382.624 438.053266 
L 386.208 438.136441 
L 389.792 438.216323 
L 393.376 438.293041 
L 396.96 438.366722 
L 400.544 438.437485 
L 404.128 438.505446 
L 407.712 438.570715 
L 411.296 438.6334 
L 414.88 438.693603 
L 418.464 438.751422 
L 422.048 438.806952 
L 425.632 438.860282 
L 429.216 438.911501 
L 432.8 438.960691 
L 436.384 439.007934 
L 439.968 439.053305 
L 443.552 439.096881 
L 447.136 439.13873 
L 450.72 439.178923 
" clip-path="url(#p1edc696a54)" style="fill: none; stroke: #e53935; stroke-width: 2; stroke-linecap: square"/>
   </g>
   <g id="FillBetweenPolyCollection_2">
    <defs>
     <path id="m9759d06b23" d="M 95.904 -16.882735 
L 95.904 -16.0704 
L 99.488 -16.0704 
L 103.072 -16.0704 
L 106.656 -16.0704 
L 110.24 -16.0704 
L 113.824 -16.0704 
L 117.408 -16.0704 
L 120.992 -16.0704 
L 124.576 -16.0704 
L 128.16 -16.0704 
L 131.744 -16.0704 
L 135.328 -16.0704 
L 138.912 -16.0704 
L 142.496 -16.0704 
L 146.08 -16.0704 
L 149.664 -16.0704 
L 153.248 -16.0704 
L 156.832 -16.0704 
L 160.416 -16.0704 
L 164 -16.0704 
L 167.584 -16.0704 
L 171.168 -16.0704 
L 174.752 -16.0704 
L 178.336 -16.0704 
L 181.92 -16.0704 
L 185.504 -16.0704 
L 189.088 -16.0704 
L 192.672 -16.0704 
L 196.256 -16.0704 
L 199.84 -16.0704 
L 203.424 -16.0704 
L 207.008 -16.0704 
L 210.592 -16.0704 
L 214.176 -16.0704 
L 217.76 -16.0704 
L 221.344 -16.0704 
L 224.928 -16.0704 
L 228.512 -16.0704 
L 232.096 -16.0704 
L 235.68 -16.0704 
L 239.264 -16.0704 
L 242.848 -16.0704 
L 246.432 -16.0704 
L 250.016 -16.0704 
L 253.6 -16.0704 
L 257.184 -16.0704 
L 260.768 -16.0704 
L 264.352 -16.0704 
L 267.936 -16.0704 
L 271.52 -16.0704 
L 275.104 -16.0704 
L 278.688 -16.0704 
L 282.272 -16.0704 
L 285.856 -16.0704 
L 289.44 -16.0704 
L 293.024 -16.0704 
L 296.608 -16.0704 
L 300.192 -16.0704 
L 303.776 -16.0704 
L 307.36 -16.0704 
L 310.944 -16.0704 
L 314.528 -16.0704 
L 318.112 -16.0704 
L 321.696 -16.0704 
L 325.28 -16.0704 
L 328.864 -16.0704 
L 332.448 -16.0704 
L 336.032 -16.0704 
L 339.616 -16.0704 
L 343.2 -16.0704 
L 346.784 -16.0704 
L 350.368 -16.0704 
L 353.952 -16.0704 
L 357.536 -16.0704 
L 361.12 -16.0704 
L 364.704 -16.0704 
L 368.288 -16.0704 
L 371.872 -16.0704 
L 375.456 -16.0704 
L 379.04 -16.0704 
L 382.624 -16.0704 
L 386.208 -16.0704 
L 389.792 -16.0704 
L 393.376 -16.0704 
L 396.96 -16.0704 
L 400.544 -16.0704 
L 404.128 -16.0704 
L 407.712 -16.0704 
L 411.296 -16.0704 
L 414.88 -16.0704 
L 418.464 -16.0704 
L 422.048 -16.0704 
L 425.632 -16.0704 
L 429.216 -16.0704 
L 432.8 -16.0704 
L 436.384 -16.0704 
L 439.968 -16.0704 
L 443.552 -16.0704 
L 447.136 -16.0704 
L 450.72 -16.0704 
L 450.72 -60.4224 
L 450.72 -60.4224 
L 447.136 -58.666119 
L 443.552 -56.979385 
L 439.968 -55.359443 
L 436.384 -53.803649 
L 432.8 -52.309462 
L 429.216 -50.874443 
L 425.632 -49.496249 
L 422.048 -48.172629 
L 418.464 -46.901424 
L 414.88 -45.680556 
L 411.296 -44.508033 
L 407.712 -43.38194 
L 404.128 -42.300439 
L 400.544 -41.261764 
L 396.96 -40.264219 
L 393.376 -39.306176 
L 389.792 -38.38607 
L 386.208 -37.502399 
L 382.624 -36.65372 
L 379.04 -35.838648 
L 375.456 -35.055851 
L 371.872 -34.304052 
L 368.288 -33.582024 
L 364.704 -32.888587 
L 361.12 -32.222609 
L 357.536 -31.583002 
L 353.952 -30.968724 
L 350.368 -30.37877 
L 346.784 -29.812177 
L 343.2 -29.268021 
L 339.616 -28.745413 
L 336.032 -28.243499 
L 332.448 -27.76146 
L 328.864 -27.29851 
L 325.28 -26.853891 
L 321.696 -26.426879 
L 318.112 -26.016776 
L 314.528 -25.622913 
L 310.944 -25.244646 
L 307.36 -24.881358 
L 303.776 -24.532456 
L 300.192 -24.19737 
L 296.608 -23.875552 
L 293.024 -23.566479 
L 289.44 -23.269644 
L 285.856 -22.984563 
L 282.272 -22.710771 
L 278.688 -22.447822 
L 275.104 -22.195284 
L 271.52 -21.952747 
L 267.936 -21.719814 
L 264.352 -21.496104 
L 260.768 -21.281254 
L 257.184 -21.074911 
L 253.6 -20.876739 
L 250.016 -20.686414 
L 246.432 -20.503626 
L 242.848 -20.328076 
L 239.264 -20.159478 
L 235.68 -19.997556 
L 232.096 -19.842045 
L 228.512 -19.692693 
L 224.928 -19.549255 
L 221.344 -19.411497 
L 217.76 -19.279194 
L 214.176 -19.15213 
L 210.592 -19.030098 
L 207.008 -18.912897 
L 203.424 -18.800338 
L 199.84 -18.692236 
L 196.256 -18.588415 
L 192.672 -18.488705 
L 189.088 -18.392943 
L 185.504 -18.300974 
L 181.92 -18.212646 
L 178.336 -18.127816 
L 174.752 -18.046345 
L 171.168 -17.9681 
L 167.584 -17.892954 
L 164 -17.820783 
L 160.416 -17.75147 
L 156.832 -17.684902 
L 153.248 -17.62097 
L 149.664 -17.559569 
L 146.08 -17.5006 
L 142.496 -17.443966 
L 138.912 -17.389575 
L 135.328 -17.337337 
L 131.744 -17.287168 
L 128.16 -17.238986 
L 124.576 -17.192711 
L 120.992 -17.148269 
L 117.408 -17.105587 
L 113.824 -17.064595 
L 110.24 -17.025226 
L 106.656 -16.987416 
L 103.072 -16.951104 
L 99.488 -16.916229 
L 95.904 -16.882735 
z
" style="stroke: #1e88e5; stroke-opacity: 0.25"/>
    </defs>
    <g clip-path="url(#p1edc696a54)">
     <use xlink:href="#m9759d06b23" x="0" y="500.576125" style="fill: #1e88e5; fill-opacity: 0.25; stroke: #1e88e5; stroke-opacity: 0.25"/>
    </g>
   </g>
   <g id="line2d_2">
    <path d="M 95.904 483.69339 
L 99.488 483.659896 
L 103.072 483.625021 
L 106.656 483.588709 
L 110.24 483.550899 
L 113.824 483.51153 
L 117.408 483.470538 
L 120.992 483.427856 
L 124.576 483.383414 
L 128.16 483.337139 
L 131.744 483.288957 
L 135.328 483.238788 
L 138.912 483.18655 
L 142.496 483.132159 
L 146.08 483.075525 
L 149.664 483.016556 
L 153.248 482.955155 
L 156.832 482.891223 
L 160.416 482.824655 
L 164 482.755342 
L 167.584 482.683171 
L 171.168 482.608025 
L 174.752 482.52978 
L 178.336 482.448309 
L 181.92 482.363479 
L 185.504 482.275151 
L 189.088 482.183182 
L 192.672 482.08742 
L 196.256 481.98771 
L 199.84 481.883889 
L 203.424 481.775787 
L 207.008 481.663228 
L 210.592 481.546027 
L 214.176 481.423995 
L 217.76 481.296931 
L 221.344 481.164628 
L 224.928 481.02687 
L 228.512 480.883432 
L 232.096 480.73408 
L 235.68 480.578569 
L 239.264 480.416647 
L 242.848 480.248049 
L 246.432 480.072499 
L 250.016 479.889711 
L 253.6 479.699386 
L 257.184 479.501214 
L 260.768 479.294871 
L 264.352 479.080021 
L 267.936 478.856311 
L 271.52 478.623378 
L 275.104 478.380841 
L 278.688 478.128303 
L 282.272 477.865354 
L 285.856 477.591562 
L 289.44 477.306481 
L 293.024 477.009646 
L 296.608 476.700573 
L 300.192 476.378755 
L 303.776 476.043669 
L 307.36 475.694767 
L 310.944 475.331479 
L 314.528 474.953212 
L 318.112 474.559349 
L 321.696 474.149246 
L 325.28 473.722234 
L 328.864 473.277615 
L 332.448 472.814665 
L 336.032 472.332626 
L 339.616 471.830712 
L 343.2 471.308104 
L 346.784 470.763948 
L 350.368 470.197355 
L 353.952 469.607401 
L 357.536 468.993123 
L 361.12 468.353516 
L 364.704 467.687538 
L 368.288 466.994101 
L 371.872 466.272073 
L 375.456 465.520274 
L 379.04 464.737477 
L 382.624 463.922405 
L 386.208 463.073726 
L 389.792 462.190055 
L 393.376 461.269949 
L 396.96 460.311906 
L 400.544 459.314361 
L 404.128 458.275686 
L 407.712 457.194185 
L 411.296 456.068092 
L 414.88 454.895569 
L 418.464 453.674701 
L 422.048 452.403496 
L 425.632 451.079876 
L 429.216 449.701682 
L 432.8 448.266663 
L 436.384 446.772476 
L 439.968 445.216682 
L 443.552 443.59674 
L 447.136 441.910006 
L 450.72 440.153725 
" clip-path="url(#p1edc696a54)" style="fill: none; stroke: #1e88e5; stroke-width: 2; stroke-linecap: square"/>
   </g>
   <g id="patch_3">
    <path d="M 273.312 404.672125 
C 326.242296 404.672125 377.011829 390.652505 414.4392 365.700925 
C 451.866571 340.749344 472.896 306.902989 472.896 271.616125 
C 472.896 236.329261 451.866571 202.482906 414.4392 177.531325 
C 377.011829 152.579745 326.242296 138.560125 273.312 138.560125 
C 220.381704 138.560125 169.612171 152.579745 132.1848 177.531325 
C 94.757429 202.482906 73.728 236.329261 73.728 271.616125 
C 73.728 306.902989 94.757429 340.749344 132.1848 365.700925 
C 169.612171 390.652505 220.381704 404.672125 273.312 404.672125 
z
" clip-path="url(#p1edc696a54)" style="fill: #ffe0b2; stroke: #5d4037; stroke-width: 3; stroke-linejoin: miter"/>
   </g>
   <g id="text_1">
    <!-- Chorion + -->
    <g style="fill: #a1887f" transform="translate(503.9424 121.851256) scale(0.07 -0.07)">
     <defs>
      <path id="DejaVuSans-Oblique-43" d="M 4447 4306 
L 4319 3641 
Q 4019 3944 3683 4091 
Q 3347 4238 2956 4238 
Q 2422 4238 2017 3981 
Q 1613 3725 1319 3200 
Q 1131 2863 1032 2486 
Q 934 2109 934 1728 
Q 934 1091 1264 756 
Q 1594 422 2222 422 
Q 2656 422 3056 561 
Q 3456 700 3834 978 
L 3688 231 
Q 3316 72 2936 -9 
Q 2556 -91 2175 -91 
Q 1278 -91 773 396 
Q 269 884 269 1753 
Q 269 2309 461 2846 
Q 653 3384 1013 3828 
Q 1394 4300 1883 4525 
Q 2372 4750 3022 4750 
Q 3422 4750 3780 4639 
Q 4138 4528 4447 4306 
z
" transform="scale(0.015625)"/>
      <path id="DejaVuSans-Oblique-68" d="M 3566 2113 
L 3156 0 
L 2578 0 
L 2988 2091 
Q 3016 2238 3031 2350 
Q 3047 2463 3047 2528 
Q 3047 2791 2881 2937 
Q 2716 3084 2419 3084 
Q 1956 3084 1617 2771 
Q 1278 2459 1178 1941 
L 800 0 
L 225 0 
L 1172 4863 
L 1747 4863 
L 1375 2950 
Q 1594 3244 1934 3414 
Q 2275 3584 2650 3584 
Q 3113 3584 3367 3334 
Q 3622 3084 3622 2631 
Q 3622 2519 3608 2391 
Q 3594 2263 3566 2113 
z
" transform="scale(0.015625)"/>
      <path id="DejaVuSans-Oblique-6f" d="M 1625 -91 
Q 1009 -91 651 289 
Q 294 669 294 1325 
Q 294 1706 417 2101 
Q 541 2497 738 2766 
Q 1047 3184 1428 3384 
Q 1809 3584 2291 3584 
Q 2888 3584 3255 3212 
Q 3622 2841 3622 2241 
Q 3622 1825 3500 1412 
Q 3378 1000 3181 728 
Q 2875 309 2494 109 
Q 2113 -91 1625 -91 
z
M 891 1344 
Q 891 869 1089 633 
Q 1288 397 1691 397 
Q 2269 397 2648 901 
Q 3028 1406 3028 2181 
Q 3028 2634 2825 2865 
Q 2622 3097 2228 3097 
Q 1903 3097 1650 2945 
Q 1397 2794 1197 2484 
Q 1050 2253 970 1956 
Q 891 1659 891 1344 
z
" transform="scale(0.015625)"/>
      <path id="DejaVuSans-Oblique-72" d="M 2853 2969 
Q 2766 3016 2653 3041 
Q 2541 3066 2413 3066 
Q 1953 3066 1609 2717 
Q 1266 2369 1153 1784 
L 800 0 
L 225 0 
L 909 3500 
L 1484 3500 
L 1375 2956 
Q 1603 3259 1920 3421 
Q 2238 3584 2597 3584 
Q 2691 3584 2781 3573 
Q 2872 3563 2963 3538 
L 2853 2969 
z
" transform="scale(0.015625)"/>
      <path id="DejaVuSans-Oblique-69" d="M 1172 4863 
L 1747 4863 
L 1606 4134 
L 1031 4134 
L 1172 4863 
z
M 909 3500 
L 1484 3500 
L 800 0 
L 225 0 
L 909 3500 
z
" transform="scale(0.015625)"/>
      <path id="DejaVuSans-Oblique-6e" d="M 3566 2113 
L 3156 0 
L 2578 0 
L 2988 2091 
Q 3016 2238 3031 2350 
Q 3047 2463 3047 2528 
Q 3047 2791 2881 2937 
Q 2716 3084 2419 3084 
Q 1956 3084 1622 2776 
Q 1288 2469 1184 1941 
L 800 0 
L 225 0 
L 903 3500 
L 1478 3500 
L 1363 2950 
Q 1603 3253 1940 3418 
Q 2278 3584 2650 3584 
Q 3113 3584 3367 3334 
Q 3622 3084 3622 2631 
Q 3622 2519 3608 2391 
Q 3594 2263 3566 2113 
z
" transform="scale(0.015625)"/>
      <path id="DejaVuSans-Oblique-20" transform="scale(0.015625)"/>
      <path id="DejaVuSans-Oblique-2b" d="M 2944 4013 
L 2944 2272 
L 4684 2272 
L 4684 1741 
L 2944 1741 
L 2944 0 
L 2419 0 
L 2419 1741 
L 678 1741 
L 678 2272 
L 2419 2272 
L 2419 4013 
L 2944 4013 
z
" transform="scale(0.015625)"/>
     </defs>
     <use xlink:href="#DejaVuSans-Oblique-43"/>
     <use xlink:href="#DejaVuSans-Oblique-68" transform="translate(69.824219 0)"/>
     <use xlink:href="#DejaVuSans-Oblique-6f" transform="translate(133.203125 0)"/>
     <use xlink:href="#DejaVuSans-Oblique-72" transform="translate(194.384766 0)"/>
     <use xlink:href="#DejaVuSans-Oblique-69" transform="translate(235.498047 0)"/>
     <use xlink:href="#DejaVuSans-Oblique-6f" transform="translate(263.28125 0)"/>
     <use xlink:href="#DejaVuSans-Oblique-6e" transform="translate(324.462891 0)"/>
     <use xlink:href="#DejaVuSans-Oblique-20" transform="translate(387.841797 0)"/>
     <use xlink:href="#DejaVuSans-Oblique-2b" transform="translate(419.628906 0)"/>
    </g>
    <!-- membrane vitelline -->
    <g style="fill: #a1887f" transform="translate(503.9424 129.689725) scale(0.07 -0.07)">
     <defs>
      <path id="DejaVuSans-Oblique-6d" d="M 5747 2113 
L 5338 0 
L 4763 0 
L 5166 2094 
Q 5191 2228 5203 2325 
Q 5216 2422 5216 2491 
Q 5216 2772 5059 2928 
Q 4903 3084 4622 3084 
Q 4203 3084 3875 2770 
Q 3547 2456 3450 1953 
L 3066 0 
L 2491 0 
L 2900 2094 
Q 2925 2209 2937 2307 
Q 2950 2406 2950 2484 
Q 2950 2769 2794 2926 
Q 2638 3084 2363 3084 
Q 1938 3084 1609 2770 
Q 1281 2456 1184 1953 
L 800 0 
L 225 0 
L 909 3500 
L 1484 3500 
L 1375 2956 
Q 1609 3263 1923 3423 
Q 2238 3584 2597 3584 
Q 2978 3584 3223 3384 
Q 3469 3184 3519 2828 
Q 3781 3197 4126 3390 
Q 4472 3584 4856 3584 
Q 5306 3584 5551 3325 
Q 5797 3066 5797 2591 
Q 5797 2488 5784 2364 
Q 5772 2241 5747 2113 
z
" transform="scale(0.015625)"/>
      <path id="DejaVuSans-Oblique-65" d="M 3078 2063 
Q 3088 2113 3092 2166 
Q 3097 2219 3097 2272 
Q 3097 2653 2873 2875 
Q 2650 3097 2266 3097 
Q 1838 3097 1509 2826 
Q 1181 2556 1013 2059 
L 3078 2063 
z
M 3578 1613 
L 903 1613 
Q 884 1494 878 1425 
Q 872 1356 872 1306 
Q 872 872 1139 634 
Q 1406 397 1894 397 
Q 2269 397 2603 481 
Q 2938 566 3225 728 
L 3116 159 
Q 2806 34 2476 -28 
Q 2147 -91 1806 -91 
Q 1078 -91 686 257 
Q 294 606 294 1247 
Q 294 1794 489 2264 
Q 684 2734 1063 3103 
Q 1306 3334 1642 3459 
Q 1978 3584 2356 3584 
Q 2950 3584 3301 3228 
Q 3653 2872 3653 2272 
Q 3653 2128 3634 1964 
Q 3616 1800 3578 1613 
z
" transform="scale(0.015625)"/>
      <path id="DejaVuSans-Oblique-62" d="M 3169 2138 
Q 3169 2591 2961 2847 
Q 2753 3103 2388 3103 
Q 2122 3103 1889 2973 
Q 1656 2844 1484 2597 
Q 1303 2338 1198 1995 
Q 1094 1653 1094 1313 
Q 1094 881 1298 636 
Q 1503 391 1863 391 
Q 2134 391 2365 517 
Q 2597 644 2772 891 
Q 2950 1147 3059 1487 
Q 3169 1828 3169 2138 
z
M 1381 2969 
Q 1594 3256 1914 3420 
Q 2234 3584 2584 3584 
Q 3122 3584 3439 3221 
Q 3756 2859 3756 2241 
Q 3756 1734 3570 1259 
Q 3384 784 3041 416 
Q 2816 172 2522 40 
Q 2228 -91 1906 -91 
Q 1566 -91 1316 65 
Q 1066 222 909 531 
L 806 0 
L 231 0 
L 1178 4863 
L 1753 4863 
L 1381 2969 
z
" transform="scale(0.015625)"/>
      <path id="DejaVuSans-Oblique-61" d="M 3438 1997 
L 3047 0 
L 2472 0 
L 2578 531 
Q 2325 219 2001 64 
Q 1678 -91 1281 -91 
Q 834 -91 548 182 
Q 263 456 263 884 
Q 263 1497 752 1853 
Q 1241 2209 2100 2209 
L 2900 2209 
L 2931 2363 
Q 2938 2388 2941 2417 
Q 2944 2447 2944 2509 
Q 2944 2788 2717 2942 
Q 2491 3097 2081 3097 
Q 1800 3097 1504 3025 
Q 1209 2953 897 2809 
L 997 3341 
Q 1322 3463 1633 3523 
Q 1944 3584 2234 3584 
Q 2853 3584 3176 3315 
Q 3500 3047 3500 2534 
Q 3500 2431 3484 2292 
Q 3469 2153 3438 1997 
z
M 2816 1759 
L 2241 1759 
Q 1534 1759 1195 1570 
Q 856 1381 856 984 
Q 856 709 1029 553 
Q 1203 397 1509 397 
Q 1978 397 2328 733 
Q 2678 1069 2791 1631 
L 2816 1759 
z
" transform="scale(0.015625)"/>
      <path id="DejaVuSans-Oblique-76" d="M 459 3500 
L 1069 3500 
L 1581 525 
L 3256 3500 
L 3866 3500 
L 1875 0 
L 1100 0 
L 459 3500 
z
" transform="scale(0.015625)"/>
      <path id="DejaVuSans-Oblique-74" d="M 2706 3500 
L 2619 3053 
L 1472 3053 
L 1100 1153 
Q 1081 1047 1072 975 
Q 1063 903 1063 863 
Q 1063 663 1183 572 
Q 1303 481 1569 481 
L 2150 481 
L 2053 0 
L 1503 0 
Q 991 0 739 200 
Q 488 400 488 806 
Q 488 878 497 964 
Q 506 1050 525 1153 
L 897 3053 
L 409 3053 
L 500 3500 
L 978 3500 
L 1172 4494 
L 1747 4494 
L 1556 3500 
L 2706 3500 
z
" transform="scale(0.015625)"/>
      <path id="DejaVuSans-Oblique-6c" d="M 1172 4863 
L 1747 4863 
L 800 0 
L 225 0 
L 1172 4863 
z
" transform="scale(0.015625)"/>
     </defs>
     <use xlink:href="#DejaVuSans-Oblique-6d"/>
     <use xlink:href="#DejaVuSans-Oblique-65" transform="translate(97.412109 0)"/>
     <use xlink:href="#DejaVuSans-Oblique-6d" transform="translate(158.935547 0)"/>
     <use xlink:href="#DejaVuSans-Oblique-62" transform="translate(256.347656 0)"/>
     <use xlink:href="#DejaVuSans-Oblique-72" transform="translate(319.824219 0)"/>
     <use xlink:href="#DejaVuSans-Oblique-61" transform="translate(360.9375 0)"/>
     <use xlink:href="#DejaVuSans-Oblique-6e" transform="translate(422.216797 0)"/>
     <use xlink:href="#DejaVuSans-Oblique-65" transform="translate(485.595703 0)"/>
     <use xlink:href="#DejaVuSans-Oblique-20" transform="translate(547.119141 0)"/>
     <use xlink:href="#DejaVuSans-Oblique-76" transform="translate(578.90625 0)"/>
     <use xlink:href="#DejaVuSans-Oblique-69" transform="translate(638.085938 0)"/>
     <use xlink:href="#DejaVuSans-Oblique-74" transform="translate(665.869141 0)"/>
     <use xlink:href="#DejaVuSans-Oblique-65" transform="translate(705.078125 0)"/>
     <use xlink:href="#DejaVuSans-Oblique-6c" transform="translate(766.601562 0)"/>
     <use xlink:href="#DejaVuSans-Oblique-6c" transform="translate(794.384766 0)"/>
     <use xlink:href="#DejaVuSans-Oblique-69" transform="translate(822.167969 0)"/>
     <use xlink:href="#DejaVuSans-Oblique-6e" transform="translate(849.951172 0)"/>
     <use xlink:href="#DejaVuSans-Oblique-65" transform="translate(913.330078 0)"/>
    </g>
   </g>
   <g id="patch_4">
    <path d="M 131.778922 121.943039 
Q 146.668602 152.635864 161.070293 182.322773 
" style="fill: none; stroke: #e65100; stroke-linecap: round"/>
    <path d="M 161.113137 178.74532 
L 161.070293 182.322773 
L 158.234037 180.142027 
" style="fill: none; stroke: #e65100; stroke-linecap: round"/>
   </g>
   <g id="text_2">
    <g id="patch_5">
     <path d="M 95.904 119.647875 
L 155.77275 119.647875 
Q 157.37275 119.647875 157.37275 118.047875 
L 157.37275 101.347125 
Q 157.37275 99.747125 155.77275 99.747125 
L 95.904 99.747125 
Q 94.304 99.747125 94.304 101.347125 
L 94.304 118.047875 
Q 94.304 119.647875 95.904 119.647875 
z
" style="fill: #fff8e1; stroke: #e65100; stroke-linejoin: miter"/>
    </g>
    <!-- Noyau -->
    <g style="fill: #e65100" transform="translate(95.904 107.425875) scale(0.08 -0.08)">
     <defs>
      <path id="DejaVuSans-4e" d="M 628 4666 
L 1478 4666 
L 3547 763 
L 3547 4666 
L 4159 4666 
L 4159 0 
L 3309 0 
L 1241 3903 
L 1241 0 
L 628 0 
L 628 4666 
z
" transform="scale(0.015625)"/>
      <path id="DejaVuSans-6f" d="M 1959 3097 
Q 1497 3097 1228 2736 
Q 959 2375 959 1747 
Q 959 1119 1226 758 
Q 1494 397 1959 397 
Q 2419 397 2687 759 
Q 2956 1122 2956 1747 
Q 2956 2369 2687 2733 
Q 2419 3097 1959 3097 
z
M 1959 3584 
Q 2709 3584 3137 3096 
Q 3566 2609 3566 1747 
Q 3566 888 3137 398 
Q 2709 -91 1959 -91 
Q 1206 -91 779 398 
Q 353 888 353 1747 
Q 353 2609 779 3096 
Q 1206 3584 1959 3584 
z
" transform="scale(0.015625)"/>
      <path id="DejaVuSans-79" d="M 2059 -325 
Q 1816 -950 1584 -1140 
Q 1353 -1331 966 -1331 
L 506 -1331 
L 506 -850 
L 844 -850 
Q 1081 -850 1212 -737 
Q 1344 -625 1503 -206 
L 1606 56 
L 191 3500 
L 800 3500 
L 1894 763 
L 2988 3500 
L 3597 3500 
L 2059 -325 
z
" transform="scale(0.015625)"/>
      <path id="DejaVuSans-61" d="M 2194 1759 
Q 1497 1759 1228 1600 
Q 959 1441 959 1056 
Q 959 750 1161 570 
Q 1363 391 1709 391 
Q 2188 391 2477 730 
Q 2766 1069 2766 1631 
L 2766 1759 
L 2194 1759 
z
M 3341 1997 
L 3341 0 
L 2766 0 
L 2766 531 
Q 2569 213 2275 61 
Q 1981 -91 1556 -91 
Q 1019 -91 701 211 
Q 384 513 384 1019 
Q 384 1609 779 1909 
Q 1175 2209 1959 2209 
L 2766 2209 
L 2766 2266 
Q 2766 2663 2505 2880 
Q 2244 3097 1772 3097 
Q 1472 3097 1187 3025 
Q 903 2953 641 2809 
L 641 3341 
Q 956 3463 1253 3523 
Q 1550 3584 1831 3584 
Q 2591 3584 2966 3190 
Q 3341 2797 3341 1997 
z
" transform="scale(0.015625)"/>
      <path id="DejaVuSans-75" d="M 544 1381 
L 544 3500 
L 1119 3500 
L 1119 1403 
Q 1119 906 1312 657 
Q 1506 409 1894 409 
Q 2359 409 2629 706 
Q 2900 1003 2900 1516 
L 2900 3500 
L 3475 3500 
L 3475 0 
L 2900 0 
L 2900 538 
Q 2691 219 2414 64 
Q 2138 -91 1772 -91 
Q 1169 -91 856 284 
Q 544 659 544 1381 
z
M 1991 3584 
L 1991 3584 
z
" transform="scale(0.015625)"/>
     </defs>
     <use xlink:href="#DejaVuSans-4e"/>
     <use xlink:href="#DejaVuSans-6f" transform="translate(74.804688 0)"/>
     <use xlink:href="#DejaVuSans-79" transform="translate(135.986328 0)"/>
     <use xlink:href="#DejaVuSans-61" transform="translate(195.166016 0)"/>
     <use xlink:href="#DejaVuSans-75" transform="translate(256.445312 0)"/>
    </g>
    <!-- (antéro-dorsal) -->
    <g style="fill: #e65100" transform="translate(95.904 116.384125) scale(0.08 -0.08)">
     <defs>
      <path id="DejaVuSans-28" d="M 1984 4856 
Q 1566 4138 1362 3434 
Q 1159 2731 1159 2009 
Q 1159 1288 1364 580 
Q 1569 -128 1984 -844 
L 1484 -844 
Q 1016 -109 783 600 
Q 550 1309 550 2009 
Q 550 2706 781 3412 
Q 1013 4119 1484 4856 
L 1984 4856 
z
" transform="scale(0.015625)"/>
      <path id="DejaVuSans-6e" d="M 3513 2113 
L 3513 0 
L 2938 0 
L 2938 2094 
Q 2938 2591 2744 2837 
Q 2550 3084 2163 3084 
Q 1697 3084 1428 2787 
Q 1159 2491 1159 1978 
L 1159 0 
L 581 0 
L 581 3500 
L 1159 3500 
L 1159 2956 
Q 1366 3272 1645 3428 
Q 1925 3584 2291 3584 
Q 2894 3584 3203 3211 
Q 3513 2838 3513 2113 
z
" transform="scale(0.015625)"/>
      <path id="DejaVuSans-74" d="M 1172 4494 
L 1172 3500 
L 2356 3500 
L 2356 3053 
L 1172 3053 
L 1172 1153 
Q 1172 725 1289 603 
Q 1406 481 1766 481 
L 2356 481 
L 2356 0 
L 1766 0 
Q 1100 0 847 248 
Q 594 497 594 1153 
L 594 3053 
L 172 3053 
L 172 3500 
L 594 3500 
L 594 4494 
L 1172 4494 
z
" transform="scale(0.015625)"/>
      <path id="DejaVuSans-e9" d="M 3597 1894 
L 3597 1613 
L 953 1613 
Q 991 1019 1311 708 
Q 1631 397 2203 397 
Q 2534 397 2845 478 
Q 3156 559 3463 722 
L 3463 178 
Q 3153 47 2828 -22 
Q 2503 -91 2169 -91 
Q 1331 -91 842 396 
Q 353 884 353 1716 
Q 353 2575 817 3079 
Q 1281 3584 2069 3584 
Q 2775 3584 3186 3129 
Q 3597 2675 3597 1894 
z
M 3022 2063 
Q 3016 2534 2758 2815 
Q 2500 3097 2075 3097 
Q 1594 3097 1305 2825 
Q 1016 2553 972 2059 
L 3022 2063 
z
M 2466 5119 
L 3088 5119 
L 2070 3944 
L 1591 3944 
L 2466 5119 
z
" transform="scale(0.015625)"/>
      <path id="DejaVuSans-72" d="M 2631 2963 
Q 2534 3019 2420 3045 
Q 2306 3072 2169 3072 
Q 1681 3072 1420 2755 
Q 1159 2438 1159 1844 
L 1159 0 
L 581 0 
L 581 3500 
L 1159 3500 
L 1159 2956 
Q 1341 3275 1631 3429 
Q 1922 3584 2338 3584 
Q 2397 3584 2469 3576 
Q 2541 3569 2628 3553 
L 2631 2963 
z
" transform="scale(0.015625)"/>
      <path id="DejaVuSans-2d" d="M 313 2009 
L 1997 2009 
L 1997 1497 
L 313 1497 
L 313 2009 
z
" transform="scale(0.015625)"/>
      <path id="DejaVuSans-64" d="M 2906 2969 
L 2906 4863 
L 3481 4863 
L 3481 0 
L 2906 0 
L 2906 525 
Q 2725 213 2448 61 
Q 2172 -91 1784 -91 
Q 1150 -91 751 415 
Q 353 922 353 1747 
Q 353 2572 751 3078 
Q 1150 3584 1784 3584 
Q 2172 3584 2448 3432 
Q 2725 3281 2906 2969 
z
M 947 1747 
Q 947 1113 1208 752 
Q 1469 391 1925 391 
Q 2381 391 2643 752 
Q 2906 1113 2906 1747 
Q 2906 2381 2643 2742 
Q 2381 3103 1925 3103 
Q 1469 3103 1208 2742 
Q 947 2381 947 1747 
z
" transform="scale(0.015625)"/>
      <path id="DejaVuSans-73" d="M 2834 3397 
L 2834 2853 
Q 2591 2978 2328 3040 
Q 2066 3103 1784 3103 
Q 1356 3103 1142 2972 
Q 928 2841 928 2578 
Q 928 2378 1081 2264 
Q 1234 2150 1697 2047 
L 1894 2003 
Q 2506 1872 2764 1633 
Q 3022 1394 3022 966 
Q 3022 478 2636 193 
Q 2250 -91 1575 -91 
Q 1294 -91 989 -36 
Q 684 19 347 128 
L 347 722 
Q 666 556 975 473 
Q 1284 391 1588 391 
Q 1994 391 2212 530 
Q 2431 669 2431 922 
Q 2431 1156 2273 1281 
Q 2116 1406 1581 1522 
L 1381 1569 
Q 847 1681 609 1914 
Q 372 2147 372 2553 
Q 372 3047 722 3315 
Q 1072 3584 1716 3584 
Q 2034 3584 2315 3537 
Q 2597 3491 2834 3397 
z
" transform="scale(0.015625)"/>
      <path id="DejaVuSans-6c" d="M 603 4863 
L 1178 4863 
L 1178 0 
L 603 0 
L 603 4863 
z
" transform="scale(0.015625)"/>
      <path id="DejaVuSans-29" d="M 513 4856 
L 1013 4856 
Q 1481 4119 1714 3412 
Q 1947 2706 1947 2009 
Q 1947 1309 1714 600 
Q 1481 -109 1013 -844 
L 513 -844 
Q 928 -128 1133 580 
Q 1338 1288 1338 2009 
Q 1338 2731 1133 3434 
Q 928 4138 513 4856 
z
" transform="scale(0.015625)"/>
     </defs>
     <use xlink:href="#DejaVuSans-28"/>
     <use xlink:href="#DejaVuSans-61" transform="translate(39.013672 0)"/>
     <use xlink:href="#DejaVuSans-6e" transform="translate(100.292969 0)"/>
     <use xlink:href="#DejaVuSans-74" transform="translate(163.671875 0)"/>
     <use xlink:href="#DejaVuSans-e9" transform="translate(202.880859 0)"/>
     <use xlink:href="#DejaVuSans-72" transform="translate(264.404297 0)"/>
     <use xlink:href="#DejaVuSans-6f" transform="translate(303.267578 0)"/>
     <use xlink:href="#DejaVuSans-2d" transform="translate(366.324219 0)"/>
     <use xlink:href="#DejaVuSans-64" transform="translate(402.408203 0)"/>
     <use xlink:href="#DejaVuSans-6f" transform="translate(465.884766 0)"/>
     <use xlink:href="#DejaVuSans-72" transform="translate(527.066406 0)"/>
     <use xlink:href="#DejaVuSans-73" transform="translate(568.179688 0)"/>
     <use xlink:href="#DejaVuSans-61" transform="translate(620.279297 0)"/>
     <use xlink:href="#DejaVuSans-6c" transform="translate(681.558594 0)"/>
     <use xlink:href="#DejaVuSans-29" transform="translate(709.341797 0)"/>
    </g>
   </g>
   <g id="PathCollection_1">
    <defs>
     <path id="m4a360dc09e" d="M 0 2.12132 
C 0.562581 2.12132 1.102195 1.897805 1.5 1.5 
C 1.897805 1.102195 2.12132 0.562581 2.12132 0 
C 2.12132 -0.562581 1.897805 -1.102195 1.5 -1.5 
C 1.102195 -1.897805 0.562581 -2.12132 0 -2.12132 
C -0.562581 -2.12132 -1.102195 -1.897805 -1.5 -1.5 
C -1.897805 -1.102195 -2.12132 -0.562581 -2.12132 0 
C -2.12132 0.562581 -1.897805 1.102195 -1.5 1.5 
C -1.102195 1.897805 -0.562581 2.12132 0 2.12132 
z
" style="stroke: #e53935; stroke-opacity: 0.7"/>
    </defs>
    <g clip-path="url(#p1edc696a54)">
     <use xlink:href="#m4a360dc09e" x="87.0336" y="252.142978" style="fill: #e53935; fill-opacity: 0.7; stroke: #e53935; stroke-opacity: 0.7"/>
     <use xlink:href="#m4a360dc09e" x="88.398277" y="292.659955" style="fill: #e53935; fill-opacity: 0.7; stroke: #e53935; stroke-opacity: 0.7"/>
     <use xlink:href="#m4a360dc09e" x="89.762954" y="237.06573" style="fill: #e53935; fill-opacity: 0.7; stroke: #e53935; stroke-opacity: 0.7"/>
     <use xlink:href="#m4a360dc09e" x="91.127631" y="254.802278" style="fill: #e53935; fill-opacity: 0.7; stroke: #e53935; stroke-opacity: 0.7"/>
     <use xlink:href="#m4a360dc09e" x="92.492308" y="262.894873" style="fill: #e53935; fill-opacity: 0.7; stroke: #e53935; stroke-opacity: 0.7"/>
     <use xlink:href="#m4a360dc09e" x="93.856985" y="260.383747" style="fill: #e53935; fill-opacity: 0.7; stroke: #e53935; stroke-opacity: 0.7"/>
     <use xlink:href="#m4a360dc09e" x="95.221662" y="300.882235" style="fill: #e53935; fill-opacity: 0.7; stroke: #e53935; stroke-opacity: 0.7"/>
     <use xlink:href="#m4a360dc09e" x="96.586338" y="293.566364" style="fill: #e53935; fill-opacity: 0.7; stroke: #e53935; stroke-opacity: 0.7"/>
     <use xlink:href="#m4a360dc09e" x="97.951015" y="305.102956" style="fill: #e53935; fill-opacity: 0.7; stroke: #e53935; stroke-opacity: 0.7"/>
     <use xlink:href="#m4a360dc09e" x="99.315692" y="248.070035" style="fill: #e53935; fill-opacity: 0.7; stroke: #e53935; stroke-opacity: 0.7"/>
     <use xlink:href="#m4a360dc09e" x="100.680369" y="282.718224" style="fill: #e53935; fill-opacity: 0.7; stroke: #e53935; stroke-opacity: 0.7"/>
     <use xlink:href="#m4a360dc09e" x="102.045046" y="304.643267" style="fill: #e53935; fill-opacity: 0.7; stroke: #e53935; stroke-opacity: 0.7"/>
     <use xlink:href="#m4a360dc09e" x="103.409723" y="236.183496" style="fill: #e53935; fill-opacity: 0.7; stroke: #e53935; stroke-opacity: 0.7"/>
     <use xlink:href="#m4a360dc09e" x="104.7744" y="295.567251" style="fill: #e53935; fill-opacity: 0.7; stroke: #e53935; stroke-opacity: 0.7"/>
     <use xlink:href="#m4a360dc09e" x="106.139077" y="241.785087" style="fill: #e53935; fill-opacity: 0.7; stroke: #e53935; stroke-opacity: 0.7"/>
     <use xlink:href="#m4a360dc09e" x="107.503754" y="251.495503" style="fill: #e53935; fill-opacity: 0.7; stroke: #e53935; stroke-opacity: 0.7"/>
     <use xlink:href="#m4a360dc09e" x="108.868431" y="301.231757" style="fill: #e53935; fill-opacity: 0.7; stroke: #e53935; stroke-opacity: 0.7"/>
     <use xlink:href="#m4a360dc09e" x="110.233108" y="255.002049" style="fill: #e53935; fill-opacity: 0.7; stroke: #e53935; stroke-opacity: 0.7"/>
     <use xlink:href="#m4a360dc09e" x="111.597785" y="306.22794" style="fill: #e53935; fill-opacity: 0.7; stroke: #e53935; stroke-opacity: 0.7"/>
     <use xlink:href="#m4a360dc09e" x="112.962462" y="259.057426" style="fill: #e53935; fill-opacity: 0.7; stroke: #e53935; stroke-opacity: 0.7"/>
     <use xlink:href="#m4a360dc09e" x="114.327138" y="267.744598" style="fill: #e53935; fill-opacity: 0.7; stroke: #e53935; stroke-opacity: 0.7"/>
     <use xlink:href="#m4a360dc09e" x="115.691815" y="270.756777" style="fill: #e53935; fill-opacity: 0.7; stroke: #e53935; stroke-opacity: 0.7"/>
     <use xlink:href="#m4a360dc09e" x="117.056492" y="281.345488" style="fill: #e53935; fill-opacity: 0.7; stroke: #e53935; stroke-opacity: 0.7"/>
     <use xlink:href="#m4a360dc09e" x="118.421169" y="264.904528" style="fill: #e53935; fill-opacity: 0.7; stroke: #e53935; stroke-opacity: 0.7"/>
     <use xlink:href="#m4a360dc09e" x="119.785846" y="240.890661" style="fill: #e53935; fill-opacity: 0.7; stroke: #e53935; stroke-opacity: 0.7"/>
     <use xlink:href="#m4a360dc09e" x="121.150523" y="258.811089" style="fill: #e53935; fill-opacity: 0.7; stroke: #e53935; stroke-opacity: 0.7"/>
     <use xlink:href="#m4a360dc09e" x="122.5152" y="289.200414" style="fill: #e53935; fill-opacity: 0.7; stroke: #e53935; stroke-opacity: 0.7"/>
     <use xlink:href="#m4a360dc09e" x="123.879877" y="304.981592" style="fill: #e53935; fill-opacity: 0.7; stroke: #e53935; stroke-opacity: 0.7"/>
     <use xlink:href="#m4a360dc09e" x="125.244554" y="257.134251" style="fill: #e53935; fill-opacity: 0.7; stroke: #e53935; stroke-opacity: 0.7"/>
     <use xlink:href="#m4a360dc09e" x="126.609231" y="298.833548" style="fill: #e53935; fill-opacity: 0.7; stroke: #e53935; stroke-opacity: 0.7"/>
     <use xlink:href="#m4a360dc09e" x="127.973908" y="241.775408" style="fill: #e53935; fill-opacity: 0.7; stroke: #e53935; stroke-opacity: 0.7"/>
     <use xlink:href="#m4a360dc09e" x="129.338585" y="253.685976" style="fill: #e53935; fill-opacity: 0.7; stroke: #e53935; stroke-opacity: 0.7"/>
     <use xlink:href="#m4a360dc09e" x="130.703262" y="250.616098" style="fill: #e53935; fill-opacity: 0.7; stroke: #e53935; stroke-opacity: 0.7"/>
     <use xlink:href="#m4a360dc09e" x="132.067938" y="281.861487" style="fill: #e53935; fill-opacity: 0.7; stroke: #e53935; stroke-opacity: 0.7"/>
     <use xlink:href="#m4a360dc09e" x="133.432615" y="237.788478" style="fill: #e53935; fill-opacity: 0.7; stroke: #e53935; stroke-opacity: 0.7"/>
     <use xlink:href="#m4a360dc09e" x="134.797292" y="258.675379" style="fill: #e53935; fill-opacity: 0.7; stroke: #e53935; stroke-opacity: 0.7"/>
     <use xlink:href="#m4a360dc09e" x="136.161969" y="284.114578" style="fill: #e53935; fill-opacity: 0.7; stroke: #e53935; stroke-opacity: 0.7"/>
     <use xlink:href="#m4a360dc09e" x="137.526646" y="241.042" style="fill: #e53935; fill-opacity: 0.7; stroke: #e53935; stroke-opacity: 0.7"/>
     <use xlink:href="#m4a360dc09e" x="138.891323" y="250.962872" style="fill: #e53935; fill-opacity: 0.7; stroke: #e53935; stroke-opacity: 0.7"/>
     <use xlink:href="#m4a360dc09e" x="140.256" y="263.521758" style="fill: #e53935; fill-opacity: 0.7; stroke: #e53935; stroke-opacity: 0.7"/>
    </g>
   </g>
   <g id="text_3">
    <!-- Gradient protéine Bicoid → -->
    <g style="fill: #e53935" transform="translate(228.96 417.977725) scale(0.07 -0.07)">
     <defs>
      <path id="DejaVuSans-47" d="M 3809 666 
L 3809 1919 
L 2778 1919 
L 2778 2438 
L 4434 2438 
L 4434 434 
Q 4069 175 3628 42 
Q 3188 -91 2688 -91 
Q 1594 -91 976 548 
Q 359 1188 359 2328 
Q 359 3472 976 4111 
Q 1594 4750 2688 4750 
Q 3144 4750 3555 4637 
Q 3966 4525 4313 4306 
L 4313 3634 
Q 3963 3931 3569 4081 
Q 3175 4231 2741 4231 
Q 1884 4231 1454 3753 
Q 1025 3275 1025 2328 
Q 1025 1384 1454 906 
Q 1884 428 2741 428 
Q 3075 428 3337 486 
Q 3600 544 3809 666 
z
" transform="scale(0.015625)"/>
      <path id="DejaVuSans-69" d="M 603 3500 
L 1178 3500 
L 1178 0 
L 603 0 
L 603 3500 
z
M 603 4863 
L 1178 4863 
L 1178 4134 
L 603 4134 
L 603 4863 
z
" transform="scale(0.015625)"/>
      <path id="DejaVuSans-65" d="M 3597 1894 
L 3597 1613 
L 953 1613 
Q 991 1019 1311 708 
Q 1631 397 2203 397 
Q 2534 397 2845 478 
Q 3156 559 3463 722 
L 3463 178 
Q 3153 47 2828 -22 
Q 2503 -91 2169 -91 
Q 1331 -91 842 396 
Q 353 884 353 1716 
Q 353 2575 817 3079 
Q 1281 3584 2069 3584 
Q 2775 3584 3186 3129 
Q 3597 2675 3597 1894 
z
M 3022 2063 
Q 3016 2534 2758 2815 
Q 2500 3097 2075 3097 
Q 1594 3097 1305 2825 
Q 1016 2553 972 2059 
L 3022 2063 
z
" transform="scale(0.015625)"/>
      <path id="DejaVuSans-20" transform="scale(0.015625)"/>
      <path id="DejaVuSans-70" d="M 1159 525 
L 1159 -1331 
L 581 -1331 
L 581 3500 
L 1159 3500 
L 1159 2969 
Q 1341 3281 1617 3432 
Q 1894 3584 2278 3584 
Q 2916 3584 3314 3078 
Q 3713 2572 3713 1747 
Q 3713 922 3314 415 
Q 2916 -91 2278 -91 
Q 1894 -91 1617 61 
Q 1341 213 1159 525 
z
M 3116 1747 
Q 3116 2381 2855 2742 
Q 2594 3103 2138 3103 
Q 1681 3103 1420 2742 
Q 1159 2381 1159 1747 
Q 1159 1113 1420 752 
Q 1681 391 2138 391 
Q 2594 391 2855 752 
Q 3116 1113 3116 1747 
z
" transform="scale(0.015625)"/>
      <path id="DejaVuSans-42" d="M 1259 2228 
L 1259 519 
L 2272 519 
Q 2781 519 3026 730 
Q 3272 941 3272 1375 
Q 3272 1813 3026 2020 
Q 2781 2228 2272 2228 
L 1259 2228 
z
M 1259 4147 
L 1259 2741 
L 2194 2741 
Q 2656 2741 2882 2914 
Q 3109 3088 3109 3444 
Q 3109 3797 2882 3972 
Q 2656 4147 2194 4147 
L 1259 4147 
z
M 628 4666 
L 2241 4666 
Q 2963 4666 3353 4366 
Q 3744 4066 3744 3513 
Q 3744 3084 3544 2831 
Q 3344 2578 2956 2516 
Q 3422 2416 3680 2098 
Q 3938 1781 3938 1306 
Q 3938 681 3513 340 
Q 3088 0 2303 0 
L 628 0 
L 628 4666 
z
" transform="scale(0.015625)"/>
      <path id="DejaVuSans-63" d="M 3122 3366 
L 3122 2828 
Q 2878 2963 2633 3030 
Q 2388 3097 2138 3097 
Q 1578 3097 1268 2742 
Q 959 2388 959 1747 
Q 959 1106 1268 751 
Q 1578 397 2138 397 
Q 2388 397 2633 464 
Q 2878 531 3122 666 
L 3122 134 
Q 2881 22 2623 -34 
Q 2366 -91 2075 -91 
Q 1284 -91 818 406 
Q 353 903 353 1747 
Q 353 2603 823 3093 
Q 1294 3584 2113 3584 
Q 2378 3584 2631 3529 
Q 2884 3475 3122 3366 
z
" transform="scale(0.015625)"/>
      <path id="DejaVuSans-2192" d="M 5050 2147 
L 5050 1866 
L 3822 638 
L 3447 1013 
L 4175 1741 
L 366 1741 
L 366 2272 
L 4175 2272 
L 3447 3000 
L 3822 3375 
L 5050 2147 
z
" transform="scale(0.015625)"/>
     </defs>
     <use xlink:href="#DejaVuSans-47"/>
     <use xlink:href="#DejaVuSans-72" transform="translate(77.490234 0)"/>
     <use xlink:href="#DejaVuSans-61" transform="translate(118.603516 0)"/>
     <use xlink:href="#DejaVuSans-64" transform="translate(179.882812 0)"/>
     <use xlink:href="#DejaVuSans-69" transform="translate(243.359375 0)"/>
     <use xlink:href="#DejaVuSans-65" transform="translate(271.142578 0)"/>
     <use xlink:href="#DejaVuSans-6e" transform="translate(332.666016 0)"/>
     <use xlink:href="#DejaVuSans-74" transform="translate(396.044922 0)"/>
     <use xlink:href="#DejaVuSans-20" transform="translate(435.253906 0)"/>
     <use xlink:href="#DejaVuSans-70" transform="translate(467.041016 0)"/>
     <use xlink:href="#DejaVuSans-72" transform="translate(530.517578 0)"/>
     <use xlink:href="#DejaVuSans-6f" transform="translate(569.380859 0)"/>
     <use xlink:href="#DejaVuSans-74" transform="translate(630.5625 0)"/>
     <use xlink:href="#DejaVuSans-e9" transform="translate(669.771484 0)"/>
     <use xlink:href="#DejaVuSans-69" transform="translate(731.294922 0)"/>
     <use xlink:href="#DejaVuSans-6e" transform="translate(759.078125 0)"/>
     <use xlink:href="#DejaVuSans-65" transform="translate(822.457031 0)"/>
     <use xlink:href="#DejaVuSans-20" transform="translate(883.980469 0)"/>
     <use xlink:href="#DejaVuSans-42" transform="translate(915.767578 0)"/>
     <use xlink:href="#DejaVuSans-69" transform="translate(984.371094 0)"/>
     <use xlink:href="#DejaVuSans-63" transform="translate(1012.154297 0)"/>
     <use xlink:href="#DejaVuSans-6f" transform="translate(1067.134766 0)"/>
     <use xlink:href="#DejaVuSans-69" transform="translate(1128.316406 0)"/>
     <use xlink:href="#DejaVuSans-64" transform="translate(1156.099609 0)"/>
     <use xlink:href="#DejaVuSans-20" transform="translate(1219.576172 0)"/>
     <use xlink:href="#DejaVuSans-2192" transform="translate(1251.363281 0)"/>
    </g>
   </g>
   <g id="PathCollection_2">
    <defs>
     <path id="m8e260ba955" d="M 0 2.12132 
C 0.562581 2.12132 1.102195 1.897805 1.5 1.5 
C 1.897805 1.102195 2.12132 0.562581 2.12132 0 
C 2.12132 -0.562581 1.897805 -1.102195 1.5 -1.5 
C 1.102195 -1.897805 0.562581 -2.12132 0 -2.12132 
C -0.562581 -2.12132 -1.102195 -1.897805 -1.5 -1.5 
C -1.897805 -1.102195 -2.12132 -0.562581 -2.12132 0 
C -2.12132 0.562581 -1.897805 1.102195 -1.5 1.5 
C -1.102195 1.897805 -0.562581 2.12132 0 2.12132 
z
" style="stroke: #7b1fa2; stroke-opacity: 0.7"/>
    </defs>
    <g clip-path="url(#p1edc696a54)">
     <use xlink:href="#m8e260ba955" x="406.368" y="270.790252" style="fill: #7b1fa2; fill-opacity: 0.7; stroke: #7b1fa2; stroke-opacity: 0.7"/>
     <use xlink:href="#m8e260ba955" x="407.732677" y="304.958059" style="fill: #7b1fa2; fill-opacity: 0.7; stroke: #7b1fa2; stroke-opacity: 0.7"/>
     <use xlink:href="#m8e260ba955" x="409.097354" y="240.789809" style="fill: #7b1fa2; fill-opacity: 0.7; stroke: #7b1fa2; stroke-opacity: 0.7"/>
     <use xlink:href="#m8e260ba955" x="410.462031" y="269.294132" style="fill: #7b1fa2; fill-opacity: 0.7; stroke: #7b1fa2; stroke-opacity: 0.7"/>
     <use xlink:href="#m8e260ba955" x="411.826708" y="274.513231" style="fill: #7b1fa2; fill-opacity: 0.7; stroke: #7b1fa2; stroke-opacity: 0.7"/>
     <use xlink:href="#m8e260ba955" x="413.191385" y="257.483495" style="fill: #7b1fa2; fill-opacity: 0.7; stroke: #7b1fa2; stroke-opacity: 0.7"/>
     <use xlink:href="#m8e260ba955" x="414.556062" y="281.082764" style="fill: #7b1fa2; fill-opacity: 0.7; stroke: #7b1fa2; stroke-opacity: 0.7"/>
     <use xlink:href="#m8e260ba955" x="415.920738" y="242.411644" style="fill: #7b1fa2; fill-opacity: 0.7; stroke: #7b1fa2; stroke-opacity: 0.7"/>
     <use xlink:href="#m8e260ba955" x="417.285415" y="305.932795" style="fill: #7b1fa2; fill-opacity: 0.7; stroke: #7b1fa2; stroke-opacity: 0.7"/>
     <use xlink:href="#m8e260ba955" x="418.650092" y="296.636433" style="fill: #7b1fa2; fill-opacity: 0.7; stroke: #7b1fa2; stroke-opacity: 0.7"/>
     <use xlink:href="#m8e260ba955" x="420.014769" y="294.26581" style="fill: #7b1fa2; fill-opacity: 0.7; stroke: #7b1fa2; stroke-opacity: 0.7"/>
     <use xlink:href="#m8e260ba955" x="421.379446" y="266.177512" style="fill: #7b1fa2; fill-opacity: 0.7; stroke: #7b1fa2; stroke-opacity: 0.7"/>
     <use xlink:href="#m8e260ba955" x="422.744123" y="285.177423" style="fill: #7b1fa2; fill-opacity: 0.7; stroke: #7b1fa2; stroke-opacity: 0.7"/>
     <use xlink:href="#m8e260ba955" x="424.1088" y="260.807615" style="fill: #7b1fa2; fill-opacity: 0.7; stroke: #7b1fa2; stroke-opacity: 0.7"/>
     <use xlink:href="#m8e260ba955" x="425.473477" y="283.986432" style="fill: #7b1fa2; fill-opacity: 0.7; stroke: #7b1fa2; stroke-opacity: 0.7"/>
     <use xlink:href="#m8e260ba955" x="426.838154" y="257.892681" style="fill: #7b1fa2; fill-opacity: 0.7; stroke: #7b1fa2; stroke-opacity: 0.7"/>
     <use xlink:href="#m8e260ba955" x="428.202831" y="283.96211" style="fill: #7b1fa2; fill-opacity: 0.7; stroke: #7b1fa2; stroke-opacity: 0.7"/>
     <use xlink:href="#m8e260ba955" x="429.567508" y="263.208794" style="fill: #7b1fa2; fill-opacity: 0.7; stroke: #7b1fa2; stroke-opacity: 0.7"/>
     <use xlink:href="#m8e260ba955" x="430.932185" y="297.291362" style="fill: #7b1fa2; fill-opacity: 0.7; stroke: #7b1fa2; stroke-opacity: 0.7"/>
     <use xlink:href="#m8e260ba955" x="432.296862" y="280.582685" style="fill: #7b1fa2; fill-opacity: 0.7; stroke: #7b1fa2; stroke-opacity: 0.7"/>
     <use xlink:href="#m8e260ba955" x="433.661538" y="278.894012" style="fill: #7b1fa2; fill-opacity: 0.7; stroke: #7b1fa2; stroke-opacity: 0.7"/>
     <use xlink:href="#m8e260ba955" x="435.026215" y="240.988415" style="fill: #7b1fa2; fill-opacity: 0.7; stroke: #7b1fa2; stroke-opacity: 0.7"/>
     <use xlink:href="#m8e260ba955" x="436.390892" y="281.633772" style="fill: #7b1fa2; fill-opacity: 0.7; stroke: #7b1fa2; stroke-opacity: 0.7"/>
     <use xlink:href="#m8e260ba955" x="437.755569" y="284.167194" style="fill: #7b1fa2; fill-opacity: 0.7; stroke: #7b1fa2; stroke-opacity: 0.7"/>
     <use xlink:href="#m8e260ba955" x="439.120246" y="237.345517" style="fill: #7b1fa2; fill-opacity: 0.7; stroke: #7b1fa2; stroke-opacity: 0.7"/>
     <use xlink:href="#m8e260ba955" x="440.484923" y="270.979505" style="fill: #7b1fa2; fill-opacity: 0.7; stroke: #7b1fa2; stroke-opacity: 0.7"/>
     <use xlink:href="#m8e260ba955" x="441.8496" y="299.088392" style="fill: #7b1fa2; fill-opacity: 0.7; stroke: #7b1fa2; stroke-opacity: 0.7"/>
     <use xlink:href="#m8e260ba955" x="443.214277" y="267.568701" style="fill: #7b1fa2; fill-opacity: 0.7; stroke: #7b1fa2; stroke-opacity: 0.7"/>
     <use xlink:href="#m8e260ba955" x="444.578954" y="255.062898" style="fill: #7b1fa2; fill-opacity: 0.7; stroke: #7b1fa2; stroke-opacity: 0.7"/>
     <use xlink:href="#m8e260ba955" x="445.943631" y="291.600135" style="fill: #7b1fa2; fill-opacity: 0.7; stroke: #7b1fa2; stroke-opacity: 0.7"/>
     <use xlink:href="#m8e260ba955" x="447.308308" y="268.181944" style="fill: #7b1fa2; fill-opacity: 0.7; stroke: #7b1fa2; stroke-opacity: 0.7"/>
     <use xlink:href="#m8e260ba955" x="448.672985" y="265.858353" style="fill: #7b1fa2; fill-opacity: 0.7; stroke: #7b1fa2; stroke-opacity: 0.7"/>
     <use xlink:href="#m8e260ba955" x="450.037662" y="298.326573" style="fill: #7b1fa2; fill-opacity: 0.7; stroke: #7b1fa2; stroke-opacity: 0.7"/>
     <use xlink:href="#m8e260ba955" x="451.402338" y="300.649948" style="fill: #7b1fa2; fill-opacity: 0.7; stroke: #7b1fa2; stroke-opacity: 0.7"/>
     <use xlink:href="#m8e260ba955" x="452.767015" y="304.664033" style="fill: #7b1fa2; fill-opacity: 0.7; stroke: #7b1fa2; stroke-opacity: 0.7"/>
     <use xlink:href="#m8e260ba955" x="454.131692" y="301.266544" style="fill: #7b1fa2; fill-opacity: 0.7; stroke: #7b1fa2; stroke-opacity: 0.7"/>
     <use xlink:href="#m8e260ba955" x="455.496369" y="237.69885" style="fill: #7b1fa2; fill-opacity: 0.7; stroke: #7b1fa2; stroke-opacity: 0.7"/>
     <use xlink:href="#m8e260ba955" x="456.861046" y="284.878035" style="fill: #7b1fa2; fill-opacity: 0.7; stroke: #7b1fa2; stroke-opacity: 0.7"/>
     <use xlink:href="#m8e260ba955" x="458.225723" y="267.18473" style="fill: #7b1fa2; fill-opacity: 0.7; stroke: #7b1fa2; stroke-opacity: 0.7"/>
     <use xlink:href="#m8e260ba955" x="459.5904" y="297.528471" style="fill: #7b1fa2; fill-opacity: 0.7; stroke: #7b1fa2; stroke-opacity: 0.7"/>
    </g>
   </g>
   <g id="PathCollection_3">
    <defs>
     <path id="m1c8c4805ad" d="M -1.870829 1.870829 
L 1.870829 1.870829 
L 1.870829 -1.870829 
L -1.870829 -1.870829 
z
" style="stroke: #1e88e5; stroke-opacity: 0.6"/>
    </defs>
    <g clip-path="url(#p1edc696a54)">
     <use xlink:href="#m1c8c4805ad" x="415.2384" y="337.655652" style="fill: #1e88e5; fill-opacity: 0.6; stroke: #1e88e5; stroke-opacity: 0.6"/>
     <use xlink:href="#m1c8c4805ad" x="416.461903" y="311.915569" style="fill: #1e88e5; fill-opacity: 0.6; stroke: #1e88e5; stroke-opacity: 0.6"/>
     <use xlink:href="#m1c8c4805ad" x="417.685407" y="337.683703" style="fill: #1e88e5; fill-opacity: 0.6; stroke: #1e88e5; stroke-opacity: 0.6"/>
     <use xlink:href="#m1c8c4805ad" x="418.90891" y="289.792903" style="fill: #1e88e5; fill-opacity: 0.6; stroke: #1e88e5; stroke-opacity: 0.6"/>
     <use xlink:href="#m1c8c4805ad" x="420.132414" y="285.092619" style="fill: #1e88e5; fill-opacity: 0.6; stroke: #1e88e5; stroke-opacity: 0.6"/>
     <use xlink:href="#m1c8c4805ad" x="421.355917" y="328.338027" style="fill: #1e88e5; fill-opacity: 0.6; stroke: #1e88e5; stroke-opacity: 0.6"/>
     <use xlink:href="#m1c8c4805ad" x="422.579421" y="306.112141" style="fill: #1e88e5; fill-opacity: 0.6; stroke: #1e88e5; stroke-opacity: 0.6"/>
     <use xlink:href="#m1c8c4805ad" x="423.802924" y="314.841636" style="fill: #1e88e5; fill-opacity: 0.6; stroke: #1e88e5; stroke-opacity: 0.6"/>
     <use xlink:href="#m1c8c4805ad" x="425.026428" y="292.601632" style="fill: #1e88e5; fill-opacity: 0.6; stroke: #1e88e5; stroke-opacity: 0.6"/>
     <use xlink:href="#m1c8c4805ad" x="426.249931" y="319.616616" style="fill: #1e88e5; fill-opacity: 0.6; stroke: #1e88e5; stroke-opacity: 0.6"/>
     <use xlink:href="#m1c8c4805ad" x="427.473434" y="316.199353" style="fill: #1e88e5; fill-opacity: 0.6; stroke: #1e88e5; stroke-opacity: 0.6"/>
     <use xlink:href="#m1c8c4805ad" x="428.696938" y="288.558639" style="fill: #1e88e5; fill-opacity: 0.6; stroke: #1e88e5; stroke-opacity: 0.6"/>
     <use xlink:href="#m1c8c4805ad" x="429.920441" y="287.439443" style="fill: #1e88e5; fill-opacity: 0.6; stroke: #1e88e5; stroke-opacity: 0.6"/>
     <use xlink:href="#m1c8c4805ad" x="431.143945" y="328.036404" style="fill: #1e88e5; fill-opacity: 0.6; stroke: #1e88e5; stroke-opacity: 0.6"/>
     <use xlink:href="#m1c8c4805ad" x="432.367448" y="288.467112" style="fill: #1e88e5; fill-opacity: 0.6; stroke: #1e88e5; stroke-opacity: 0.6"/>
     <use xlink:href="#m1c8c4805ad" x="433.590952" y="312.09945" style="fill: #1e88e5; fill-opacity: 0.6; stroke: #1e88e5; stroke-opacity: 0.6"/>
     <use xlink:href="#m1c8c4805ad" x="434.814455" y="336.7856" style="fill: #1e88e5; fill-opacity: 0.6; stroke: #1e88e5; stroke-opacity: 0.6"/>
     <use xlink:href="#m1c8c4805ad" x="436.037959" y="314.529099" style="fill: #1e88e5; fill-opacity: 0.6; stroke: #1e88e5; stroke-opacity: 0.6"/>
     <use xlink:href="#m1c8c4805ad" x="437.261462" y="332.83162" style="fill: #1e88e5; fill-opacity: 0.6; stroke: #1e88e5; stroke-opacity: 0.6"/>
     <use xlink:href="#m1c8c4805ad" x="438.484966" y="299.361892" style="fill: #1e88e5; fill-opacity: 0.6; stroke: #1e88e5; stroke-opacity: 0.6"/>
     <use xlink:href="#m1c8c4805ad" x="439.708469" y="330.739558" style="fill: #1e88e5; fill-opacity: 0.6; stroke: #1e88e5; stroke-opacity: 0.6"/>
     <use xlink:href="#m1c8c4805ad" x="440.931972" y="313.946644" style="fill: #1e88e5; fill-opacity: 0.6; stroke: #1e88e5; stroke-opacity: 0.6"/>
     <use xlink:href="#m1c8c4805ad" x="442.155476" y="319.681465" style="fill: #1e88e5; fill-opacity: 0.6; stroke: #1e88e5; stroke-opacity: 0.6"/>
     <use xlink:href="#m1c8c4805ad" x="443.378979" y="335.084644" style="fill: #1e88e5; fill-opacity: 0.6; stroke: #1e88e5; stroke-opacity: 0.6"/>
     <use xlink:href="#m1c8c4805ad" x="444.602483" y="292.205964" style="fill: #1e88e5; fill-opacity: 0.6; stroke: #1e88e5; stroke-opacity: 0.6"/>
     <use xlink:href="#m1c8c4805ad" x="445.825986" y="326.192221" style="fill: #1e88e5; fill-opacity: 0.6; stroke: #1e88e5; stroke-opacity: 0.6"/>
     <use xlink:href="#m1c8c4805ad" x="447.04949" y="322.617782" style="fill: #1e88e5; fill-opacity: 0.6; stroke: #1e88e5; stroke-opacity: 0.6"/>
     <use xlink:href="#m1c8c4805ad" x="448.272993" y="315.224264" style="fill: #1e88e5; fill-opacity: 0.6; stroke: #1e88e5; stroke-opacity: 0.6"/>
     <use xlink:href="#m1c8c4805ad" x="449.496497" y="318.516271" style="fill: #1e88e5; fill-opacity: 0.6; stroke: #1e88e5; stroke-opacity: 0.6"/>
     <use xlink:href="#m1c8c4805ad" x="450.72" y="325.319531" style="fill: #1e88e5; fill-opacity: 0.6; stroke: #1e88e5; stroke-opacity: 0.6"/>
    </g>
   </g>
   <g id="text_4">
    <!-- ← Gradient protéine Nanos -->
    <g style="fill: #1e88e5" transform="translate(317.664 462.329725) scale(0.07 -0.07)">
     <defs>
      <path id="DejaVuSans-2190" d="M 313 1866 
L 313 2147 
L 1541 3375 
L 1916 3000 
L 1188 2272 
L 4997 2272 
L 4997 1741 
L 1188 1741 
L 1916 1013 
L 1541 638 
L 313 1866 
z
" transform="scale(0.015625)"/>
     </defs>
     <use xlink:href="#DejaVuSans-2190"/>
     <use xlink:href="#DejaVuSans-20" transform="translate(83.789062 0)"/>
     <use xlink:href="#DejaVuSans-47" transform="translate(115.576172 0)"/>
     <use xlink:href="#DejaVuSans-72" transform="translate(193.066406 0)"/>
     <use xlink:href="#DejaVuSans-61" transform="translate(234.179688 0)"/>
     <use xlink:href="#DejaVuSans-64" transform="translate(295.458984 0)"/>
     <use xlink:href="#DejaVuSans-69" transform="translate(358.935547 0)"/>
     <use xlink:href="#DejaVuSans-65" transform="translate(386.71875 0)"/>
     <use xlink:href="#DejaVuSans-6e" transform="translate(448.242188 0)"/>
     <use xlink:href="#DejaVuSans-74" transform="translate(511.621094 0)"/>
     <use xlink:href="#DejaVuSans-20" transform="translate(550.830078 0)"/>
     <use xlink:href="#DejaVuSans-70" transform="translate(582.617188 0)"/>
     <use xlink:href="#DejaVuSans-72" transform="translate(646.09375 0)"/>
     <use xlink:href="#DejaVuSans-6f" transform="translate(684.957031 0)"/>
     <use xlink:href="#DejaVuSans-74" transform="translate(746.138672 0)"/>
     <use xlink:href="#DejaVuSans-e9" transform="translate(785.347656 0)"/>
     <use xlink:href="#DejaVuSans-69" transform="translate(846.871094 0)"/>
     <use xlink:href="#DejaVuSans-6e" transform="translate(874.654297 0)"/>
     <use xlink:href="#DejaVuSans-65" transform="translate(938.033203 0)"/>
     <use xlink:href="#DejaVuSans-20" transform="translate(999.556641 0)"/>
     <use xlink:href="#DejaVuSans-4e" transform="translate(1031.34375 0)"/>
     <use xlink:href="#DejaVuSans-61" transform="translate(1106.148438 0)"/>
     <use xlink:href="#DejaVuSans-6e" transform="translate(1167.427734 0)"/>
     <use xlink:href="#DejaVuSans-6f" transform="translate(1230.806641 0)"/>
     <use xlink:href="#DejaVuSans-73" transform="translate(1291.988281 0)"/>
    </g>
   </g>
   <g id="PathCollection_4">
    <defs>
     <path id="m6345970048" d="M 0 -2 
L -2 2 
L 2 2 
z
" style="stroke: #2e7d32; stroke-opacity: 0.7"/>
    </defs>
    <g clip-path="url(#p1edc696a54)">
     <use xlink:href="#m6345970048" x="140.256" y="200.591204" style="fill: #2e7d32; fill-opacity: 0.7; stroke: #2e7d32; stroke-opacity: 0.7"/>
     <use xlink:href="#m6345970048" x="142.590316" y="231.000638" style="fill: #2e7d32; fill-opacity: 0.7; stroke: #2e7d32; stroke-opacity: 0.7"/>
     <use xlink:href="#m6345970048" x="144.924632" y="220.064803" style="fill: #2e7d32; fill-opacity: 0.7; stroke: #2e7d32; stroke-opacity: 0.7"/>
     <use xlink:href="#m6345970048" x="147.258947" y="227.059575" style="fill: #2e7d32; fill-opacity: 0.7; stroke: #2e7d32; stroke-opacity: 0.7"/>
     <use xlink:href="#m6345970048" x="149.593263" y="194.865247" style="fill: #2e7d32; fill-opacity: 0.7; stroke: #2e7d32; stroke-opacity: 0.7"/>
     <use xlink:href="#m6345970048" x="151.927579" y="180.497189" style="fill: #2e7d32; fill-opacity: 0.7; stroke: #2e7d32; stroke-opacity: 0.7"/>
     <use xlink:href="#m6345970048" x="154.261895" y="209.359897" style="fill: #2e7d32; fill-opacity: 0.7; stroke: #2e7d32; stroke-opacity: 0.7"/>
     <use xlink:href="#m6345970048" x="156.596211" y="190.243221" style="fill: #2e7d32; fill-opacity: 0.7; stroke: #2e7d32; stroke-opacity: 0.7"/>
     <use xlink:href="#m6345970048" x="158.930526" y="188.530668" style="fill: #2e7d32; fill-opacity: 0.7; stroke: #2e7d32; stroke-opacity: 0.7"/>
     <use xlink:href="#m6345970048" x="161.264842" y="226.016677" style="fill: #2e7d32; fill-opacity: 0.7; stroke: #2e7d32; stroke-opacity: 0.7"/>
     <use xlink:href="#m6345970048" x="163.599158" y="203.871382" style="fill: #2e7d32; fill-opacity: 0.7; stroke: #2e7d32; stroke-opacity: 0.7"/>
     <use xlink:href="#m6345970048" x="165.933474" y="211.67228" style="fill: #2e7d32; fill-opacity: 0.7; stroke: #2e7d32; stroke-opacity: 0.7"/>
     <use xlink:href="#m6345970048" x="168.267789" y="226.471378" style="fill: #2e7d32; fill-opacity: 0.7; stroke: #2e7d32; stroke-opacity: 0.7"/>
     <use xlink:href="#m6345970048" x="170.602105" y="211.700471" style="fill: #2e7d32; fill-opacity: 0.7; stroke: #2e7d32; stroke-opacity: 0.7"/>
     <use xlink:href="#m6345970048" x="172.936421" y="203.103299" style="fill: #2e7d32; fill-opacity: 0.7; stroke: #2e7d32; stroke-opacity: 0.7"/>
     <use xlink:href="#m6345970048" x="175.270737" y="227.053873" style="fill: #2e7d32; fill-opacity: 0.7; stroke: #2e7d32; stroke-opacity: 0.7"/>
     <use xlink:href="#m6345970048" x="177.605053" y="208.032988" style="fill: #2e7d32; fill-opacity: 0.7; stroke: #2e7d32; stroke-opacity: 0.7"/>
     <use xlink:href="#m6345970048" x="179.939368" y="187.649302" style="fill: #2e7d32; fill-opacity: 0.7; stroke: #2e7d32; stroke-opacity: 0.7"/>
     <use xlink:href="#m6345970048" x="182.273684" y="207.448377" style="fill: #2e7d32; fill-opacity: 0.7; stroke: #2e7d32; stroke-opacity: 0.7"/>
     <use xlink:href="#m6345970048" x="184.608" y="204.679168" style="fill: #2e7d32; fill-opacity: 0.7; stroke: #2e7d32; stroke-opacity: 0.7"/>
    </g>
   </g>
   <g id="patch_6">
    <path d="M 513.013128 271.616125 
Q 273.311612 271.616125 33.610097 271.616125 
" style="fill: none; stroke: #333333; stroke-width: 2; stroke-linecap: round"/>
    <path d="M 509.013128 269.616125 
L 513.013128 271.616125 
L 509.013128 273.616125 
" style="fill: none; stroke: #333333; stroke-width: 2; stroke-linecap: round"/>
    <path d="M 37.610097 273.616125 
L 33.610097 271.616125 
L 37.610097 269.616125 
" style="fill: none; stroke: #333333; stroke-width: 2; stroke-linecap: round"/>
   </g>
   <g id="text_5">
    <!-- ANT -->
    <g style="fill: #e53935" transform="translate(16.764672 293.792125) scale(0.11 -0.11)">
     <defs>
      <path id="DejaVuSans-Bold-41" d="M 3419 850 
L 1538 850 
L 1241 0 
L 31 0 
L 1759 4666 
L 3194 4666 
L 4922 0 
L 3713 0 
L 3419 850 
z
M 1838 1716 
L 3116 1716 
L 2478 3572 
L 1838 1716 
z
" transform="scale(0.015625)"/>
      <path id="DejaVuSans-Bold-4e" d="M 588 4666 
L 1931 4666 
L 3628 1466 
L 3628 4666 
L 4769 4666 
L 4769 0 
L 3425 0 
L 1728 3200 
L 1728 0 
L 588 0 
L 588 4666 
z
" transform="scale(0.015625)"/>
      <path id="DejaVuSans-Bold-54" d="M 31 4666 
L 4331 4666 
L 4331 3756 
L 2784 3756 
L 2784 0 
L 1581 0 
L 1581 3756 
L 31 3756 
L 31 4666 
z
" transform="scale(0.015625)"/>
     </defs>
     <use xlink:href="#DejaVuSans-Bold-41"/>
     <use xlink:href="#DejaVuSans-Bold-4e" transform="translate(77.392578 0)"/>
     <use xlink:href="#DejaVuSans-Bold-54" transform="translate(161.083984 0)"/>
    </g>
   </g>
   <g id="text_6">
    <!-- POST -->
    <g style="fill: #1e88e5" transform="translate(500.827922 293.792125) scale(0.11 -0.11)">
     <defs>
      <path id="DejaVuSans-Bold-50" d="M 588 4666 
L 2584 4666 
Q 3475 4666 3951 4270 
Q 4428 3875 4428 3144 
Q 4428 2409 3951 2014 
Q 3475 1619 2584 1619 
L 1791 1619 
L 1791 0 
L 588 0 
L 588 4666 
z
M 1791 3794 
L 1791 2491 
L 2456 2491 
Q 2806 2491 2997 2661 
Q 3188 2831 3188 3144 
Q 3188 3456 2997 3625 
Q 2806 3794 2456 3794 
L 1791 3794 
z
" transform="scale(0.015625)"/>
      <path id="DejaVuSans-Bold-4f" d="M 2719 3878 
Q 2169 3878 1866 3472 
Q 1563 3066 1563 2328 
Q 1563 1594 1866 1187 
Q 2169 781 2719 781 
Q 3272 781 3575 1187 
Q 3878 1594 3878 2328 
Q 3878 3066 3575 3472 
Q 3272 3878 2719 3878 
z
M 2719 4750 
Q 3844 4750 4481 4106 
Q 5119 3463 5119 2328 
Q 5119 1197 4481 553 
Q 3844 -91 2719 -91 
Q 1597 -91 958 553 
Q 319 1197 319 2328 
Q 319 3463 958 4106 
Q 1597 4750 2719 4750 
z
" transform="scale(0.015625)"/>
      <path id="DejaVuSans-Bold-53" d="M 3834 4519 
L 3834 3531 
Q 3450 3703 3084 3790 
Q 2719 3878 2394 3878 
Q 1963 3878 1756 3759 
Q 1550 3641 1550 3391 
Q 1550 3203 1689 3098 
Q 1828 2994 2194 2919 
L 2706 2816 
Q 3484 2659 3812 2340 
Q 4141 2022 4141 1434 
Q 4141 663 3683 286 
Q 3225 -91 2284 -91 
Q 1841 -91 1394 -6 
Q 947 78 500 244 
L 500 1259 
Q 947 1022 1364 901 
Q 1781 781 2169 781 
Q 2563 781 2772 912 
Q 2981 1044 2981 1288 
Q 2981 1506 2839 1625 
Q 2697 1744 2272 1838 
L 1806 1941 
Q 1106 2091 782 2419 
Q 459 2747 459 3303 
Q 459 4000 909 4375 
Q 1359 4750 2203 4750 
Q 2588 4750 2994 4692 
Q 3400 4634 3834 4519 
z
" transform="scale(0.015625)"/>
     </defs>
     <use xlink:href="#DejaVuSans-Bold-50"/>
     <use xlink:href="#DejaVuSans-Bold-4f" transform="translate(73.291016 0)"/>
     <use xlink:href="#DejaVuSans-Bold-53" transform="translate(158.300781 0)"/>
     <use xlink:href="#DejaVuSans-Bold-54" transform="translate(230.322266 0)"/>
    </g>
   </g>
   <g id="patch_7">
    <path d="M 273.312 400.993224 
Q 273.312 253.873253 273.312 106.753281 
" style="fill: none; stroke: #333333; stroke-width: 1.5; stroke-linecap: round"/>
    <path d="M 275.312 396.993224 
L 273.312 400.993224 
L 271.312 396.993224 
" style="fill: none; stroke: #333333; stroke-width: 1.5; stroke-linecap: round"/>
    <path d="M 271.312 110.753281 
L 273.312 106.753281 
L 275.312 110.753281 
" style="fill: none; stroke: #333333; stroke-width: 1.5; stroke-linecap: round"/>
   </g>
   <g id="text_7">
    <!-- DORSAL -->
    <g style="fill: #43a047" transform="translate(286.6176 103.078525) scale(0.09 -0.09)">
     <defs>
      <path id="DejaVuSans-Bold-44" d="M 1791 3756 
L 1791 909 
L 2222 909 
Q 2959 909 3348 1275 
Q 3738 1641 3738 2338 
Q 3738 3031 3350 3393 
Q 2963 3756 2222 3756 
L 1791 3756 
z
M 588 4666 
L 1856 4666 
Q 2919 4666 3439 4514 
Q 3959 4363 4331 4000 
Q 4659 3684 4818 3271 
Q 4978 2859 4978 2338 
Q 4978 1809 4818 1395 
Q 4659 981 4331 666 
Q 3956 303 3431 151 
Q 2906 0 1856 0 
L 588 0 
L 588 4666 
z
" transform="scale(0.015625)"/>
      <path id="DejaVuSans-Bold-52" d="M 2297 2597 
Q 2675 2597 2839 2737 
Q 3003 2878 3003 3200 
Q 3003 3519 2839 3656 
Q 2675 3794 2297 3794 
L 1791 3794 
L 1791 2597 
L 2297 2597 
z
M 1791 1766 
L 1791 0 
L 588 0 
L 588 4666 
L 2425 4666 
Q 3347 4666 3776 4356 
Q 4206 4047 4206 3378 
Q 4206 2916 3982 2619 
Q 3759 2322 3309 2181 
Q 3556 2125 3751 1926 
Q 3947 1728 4147 1325 
L 4800 0 
L 3519 0 
L 2950 1159 
Q 2778 1509 2601 1637 
Q 2425 1766 2131 1766 
L 1791 1766 
z
" transform="scale(0.015625)"/>
      <path id="DejaVuSans-Bold-4c" d="M 588 4666 
L 1791 4666 
L 1791 909 
L 3903 909 
L 3903 0 
L 588 0 
L 588 4666 
z
" transform="scale(0.015625)"/>
     </defs>
     <use xlink:href="#DejaVuSans-Bold-44"/>
     <use xlink:href="#DejaVuSans-Bold-4f" transform="translate(83.007812 0)"/>
     <use xlink:href="#DejaVuSans-Bold-52" transform="translate(168.017578 0)"/>
     <use xlink:href="#DejaVuSans-Bold-53" transform="translate(245.019531 0)"/>
     <use xlink:href="#DejaVuSans-Bold-41" transform="translate(317.041016 0)"/>
     <use xlink:href="#DejaVuSans-Bold-4c" transform="translate(394.433594 0)"/>
    </g>
   </g>
   <g id="text_8">
    <!-- VENTRAL -->
    <g style="fill: #fb8c00" transform="translate(286.6176 404.672125) scale(0.09 -0.09)">
     <defs>
      <path id="DejaVuSans-Bold-56" d="M 31 4666 
L 1241 4666 
L 2478 1222 
L 3713 4666 
L 4922 4666 
L 3194 0 
L 1759 0 
L 31 4666 
z
" transform="scale(0.015625)"/>
      <path id="DejaVuSans-Bold-45" d="M 588 4666 
L 3834 4666 
L 3834 3756 
L 1791 3756 
L 1791 2888 
L 3713 2888 
L 3713 1978 
L 1791 1978 
L 1791 909 
L 3903 909 
L 3903 0 
L 588 0 
L 588 4666 
z
" transform="scale(0.015625)"/>
     </defs>
     <use xlink:href="#DejaVuSans-Bold-56"/>
     <use xlink:href="#DejaVuSans-Bold-45" transform="translate(77.392578 0)"/>
     <use xlink:href="#DejaVuSans-Bold-4e" transform="translate(145.703125 0)"/>
     <use xlink:href="#DejaVuSans-Bold-54" transform="translate(229.394531 0)"/>
     <use xlink:href="#DejaVuSans-Bold-52" transform="translate(297.607422 0)"/>
     <use xlink:href="#DejaVuSans-Bold-41" transform="translate(374.609375 0)"/>
     <use xlink:href="#DejaVuSans-Bold-4c" transform="translate(452.001953 0)"/>
    </g>
   </g>
   <g id="text_9">
    <!-- Axes de polarité de l'ovocyte de Drosophila -->
    <g style="fill: #1a237e" transform="translate(101.585594 18.397812) scale(0.14 -0.14)">
     <defs>
      <path id="DejaVuSans-Bold-78" d="M 1422 1791 
L 159 3500 
L 1344 3500 
L 2059 2463 
L 2784 3500 
L 3969 3500 
L 2706 1797 
L 4031 0 
L 2847 0 
L 2059 1106 
L 1281 0 
L 97 0 
L 1422 1791 
z
" transform="scale(0.015625)"/>
      <path id="DejaVuSans-Bold-65" d="M 4031 1759 
L 4031 1441 
L 1416 1441 
Q 1456 1047 1700 850 
Q 1944 653 2381 653 
Q 2734 653 3104 758 
Q 3475 863 3866 1075 
L 3866 213 
Q 3469 63 3072 -14 
Q 2675 -91 2278 -91 
Q 1328 -91 801 392 
Q 275 875 275 1747 
Q 275 2603 792 3093 
Q 1309 3584 2216 3584 
Q 3041 3584 3536 3087 
Q 4031 2591 4031 1759 
z
M 2881 2131 
Q 2881 2450 2695 2645 
Q 2509 2841 2209 2841 
Q 1884 2841 1681 2658 
Q 1478 2475 1428 2131 
L 2881 2131 
z
" transform="scale(0.015625)"/>
      <path id="DejaVuSans-Bold-73" d="M 3272 3391 
L 3272 2541 
Q 2913 2691 2578 2766 
Q 2244 2841 1947 2841 
Q 1628 2841 1473 2761 
Q 1319 2681 1319 2516 
Q 1319 2381 1436 2309 
Q 1553 2238 1856 2203 
L 2053 2175 
Q 2913 2066 3209 1816 
Q 3506 1566 3506 1031 
Q 3506 472 3093 190 
Q 2681 -91 1863 -91 
Q 1516 -91 1145 -36 
Q 775 19 384 128 
L 384 978 
Q 719 816 1070 734 
Q 1422 653 1784 653 
Q 2113 653 2278 743 
Q 2444 834 2444 1013 
Q 2444 1163 2330 1236 
Q 2216 1309 1875 1350 
L 1678 1375 
Q 931 1469 631 1722 
Q 331 1975 331 2491 
Q 331 3047 712 3315 
Q 1094 3584 1881 3584 
Q 2191 3584 2531 3537 
Q 2872 3491 3272 3391 
z
" transform="scale(0.015625)"/>
      <path id="DejaVuSans-Bold-20" transform="scale(0.015625)"/>
      <path id="DejaVuSans-Bold-64" d="M 2919 2988 
L 2919 4863 
L 4044 4863 
L 4044 0 
L 2919 0 
L 2919 506 
Q 2688 197 2409 53 
Q 2131 -91 1766 -91 
Q 1119 -91 703 423 
Q 288 938 288 1747 
Q 288 2556 703 3070 
Q 1119 3584 1766 3584 
Q 2128 3584 2408 3439 
Q 2688 3294 2919 2988 
z
M 2181 722 
Q 2541 722 2730 984 
Q 2919 1247 2919 1747 
Q 2919 2247 2730 2509 
Q 2541 2772 2181 2772 
Q 1825 2772 1636 2509 
Q 1447 2247 1447 1747 
Q 1447 1247 1636 984 
Q 1825 722 2181 722 
z
" transform="scale(0.015625)"/>
      <path id="DejaVuSans-Bold-70" d="M 1656 506 
L 1656 -1331 
L 538 -1331 
L 538 3500 
L 1656 3500 
L 1656 2988 
Q 1888 3294 2169 3439 
Q 2450 3584 2816 3584 
Q 3463 3584 3878 3070 
Q 4294 2556 4294 1747 
Q 4294 938 3878 423 
Q 3463 -91 2816 -91 
Q 2450 -91 2169 54 
Q 1888 200 1656 506 
z
M 2400 2772 
Q 2041 2772 1848 2508 
Q 1656 2244 1656 1747 
Q 1656 1250 1848 986 
Q 2041 722 2400 722 
Q 2759 722 2948 984 
Q 3138 1247 3138 1747 
Q 3138 2247 2948 2509 
Q 2759 2772 2400 2772 
z
" transform="scale(0.015625)"/>
      <path id="DejaVuSans-Bold-6f" d="M 2203 2784 
Q 1831 2784 1636 2517 
Q 1441 2250 1441 1747 
Q 1441 1244 1636 976 
Q 1831 709 2203 709 
Q 2569 709 2762 976 
Q 2956 1244 2956 1747 
Q 2956 2250 2762 2517 
Q 2569 2784 2203 2784 
z
M 2203 3584 
Q 3106 3584 3614 3096 
Q 4122 2609 4122 1747 
Q 4122 884 3614 396 
Q 3106 -91 2203 -91 
Q 1297 -91 786 396 
Q 275 884 275 1747 
Q 275 2609 786 3096 
Q 1297 3584 2203 3584 
z
" transform="scale(0.015625)"/>
      <path id="DejaVuSans-Bold-6c" d="M 538 4863 
L 1656 4863 
L 1656 0 
L 538 0 
L 538 4863 
z
" transform="scale(0.015625)"/>
      <path id="DejaVuSans-Bold-61" d="M 2106 1575 
Q 1756 1575 1579 1456 
Q 1403 1338 1403 1106 
Q 1403 894 1545 773 
Q 1688 653 1941 653 
Q 2256 653 2472 879 
Q 2688 1106 2688 1447 
L 2688 1575 
L 2106 1575 
z
M 3816 1997 
L 3816 0 
L 2688 0 
L 2688 519 
Q 2463 200 2181 54 
Q 1900 -91 1497 -91 
Q 953 -91 614 226 
Q 275 544 275 1050 
Q 275 1666 698 1953 
Q 1122 2241 2028 2241 
L 2688 2241 
L 2688 2328 
Q 2688 2594 2478 2717 
Q 2269 2841 1825 2841 
Q 1466 2841 1156 2769 
Q 847 2697 581 2553 
L 581 3406 
Q 941 3494 1303 3539 
Q 1666 3584 2028 3584 
Q 2975 3584 3395 3211 
Q 3816 2838 3816 1997 
z
" transform="scale(0.015625)"/>
      <path id="DejaVuSans-Bold-72" d="M 3138 2547 
Q 2991 2616 2845 2648 
Q 2700 2681 2553 2681 
Q 2122 2681 1889 2404 
Q 1656 2128 1656 1613 
L 1656 0 
L 538 0 
L 538 3500 
L 1656 3500 
L 1656 2925 
Q 1872 3269 2151 3426 
Q 2431 3584 2822 3584 
Q 2878 3584 2943 3579 
Q 3009 3575 3134 3559 
L 3138 2547 
z
" transform="scale(0.015625)"/>
      <path id="DejaVuSans-Bold-69" d="M 538 3500 
L 1656 3500 
L 1656 0 
L 538 0 
L 538 3500 
z
M 538 4863 
L 1656 4863 
L 1656 3950 
L 538 3950 
L 538 4863 
z
" transform="scale(0.015625)"/>
      <path id="DejaVuSans-Bold-74" d="M 1759 4494 
L 1759 3500 
L 2913 3500 
L 2913 2700 
L 1759 2700 
L 1759 1216 
Q 1759 972 1856 886 
Q 1953 800 2241 800 
L 2816 800 
L 2816 0 
L 1856 0 
Q 1194 0 917 276 
Q 641 553 641 1216 
L 641 2700 
L 84 2700 
L 84 3500 
L 641 3500 
L 641 4494 
L 1759 4494 
z
" transform="scale(0.015625)"/>
      <path id="DejaVuSans-Bold-e9" d="M 4031 1759 
L 4031 1441 
L 1416 1441 
Q 1456 1047 1700 850 
Q 1944 653 2381 653 
Q 2734 653 3104 758 
Q 3475 863 3866 1075 
L 3866 213 
Q 3469 63 3072 -14 
Q 2675 -91 2278 -91 
Q 1328 -91 801 392 
Q 275 875 275 1747 
Q 275 2603 792 3093 
Q 1309 3584 2216 3584 
Q 3041 3584 3536 3087 
Q 4031 2591 4031 1759 
z
M 2881 2131 
Q 2881 2450 2695 2645 
Q 2509 2841 2209 2841 
Q 1884 2841 1681 2658 
Q 1478 2475 1428 2131 
L 2881 2131 
z
M 2702 5119 
L 3586 5119 
L 2433 3944 
L 1821 3944 
L 2702 5119 
z
" transform="scale(0.015625)"/>
      <path id="DejaVuSans-Bold-27" d="M 1350 4666 
L 1350 2931 
L 609 2931 
L 609 4666 
L 1350 4666 
z
" transform="scale(0.015625)"/>
      <path id="DejaVuSans-Bold-76" d="M 97 3500 
L 1216 3500 
L 2088 1081 
L 2956 3500 
L 4078 3500 
L 2700 0 
L 1472 0 
L 97 3500 
z
" transform="scale(0.015625)"/>
      <path id="DejaVuSans-Bold-63" d="M 3366 3391 
L 3366 2478 
Q 3138 2634 2908 2709 
Q 2678 2784 2431 2784 
Q 1963 2784 1702 2511 
Q 1441 2238 1441 1747 
Q 1441 1256 1702 982 
Q 1963 709 2431 709 
Q 2694 709 2930 787 
Q 3166 866 3366 1019 
L 3366 103 
Q 3103 6 2833 -42 
Q 2563 -91 2291 -91 
Q 1344 -91 809 395 
Q 275 881 275 1747 
Q 275 2613 809 3098 
Q 1344 3584 2291 3584 
Q 2566 3584 2833 3536 
Q 3100 3488 3366 3391 
z
" transform="scale(0.015625)"/>
      <path id="DejaVuSans-Bold-79" d="M 78 3500 
L 1197 3500 
L 2138 1125 
L 2938 3500 
L 4056 3500 
L 2584 -331 
Q 2363 -916 2067 -1148 
Q 1772 -1381 1288 -1381 
L 641 -1381 
L 641 -647 
L 991 -647 
Q 1275 -647 1404 -556 
Q 1534 -466 1606 -231 
L 1638 -134 
L 78 3500 
z
" transform="scale(0.015625)"/>
      <path id="DejaVuSans-Bold-68" d="M 4056 2131 
L 4056 0 
L 2931 0 
L 2931 347 
L 2931 1625 
Q 2931 2084 2911 2256 
Q 2891 2428 2841 2509 
Q 2775 2619 2662 2680 
Q 2550 2741 2406 2741 
Q 2056 2741 1856 2470 
Q 1656 2200 1656 1722 
L 1656 0 
L 538 0 
L 538 4863 
L 1656 4863 
L 1656 2988 
Q 1909 3294 2193 3439 
Q 2478 3584 2822 3584 
Q 3428 3584 3742 3212 
Q 4056 2841 4056 2131 
z
" transform="scale(0.015625)"/>
     </defs>
     <use xlink:href="#DejaVuSans-Bold-41"/>
     <use xlink:href="#DejaVuSans-Bold-78" transform="translate(77.392578 0)"/>
     <use xlink:href="#DejaVuSans-Bold-65" transform="translate(141.894531 0)"/>
     <use xlink:href="#DejaVuSans-Bold-73" transform="translate(209.716797 0)"/>
     <use xlink:href="#DejaVuSans-Bold-20" transform="translate(269.238281 0)"/>
     <use xlink:href="#DejaVuSans-Bold-64" transform="translate(304.052734 0)"/>
     <use xlink:href="#DejaVuSans-Bold-65" transform="translate(375.634766 0)"/>
     <use xlink:href="#DejaVuSans-Bold-20" transform="translate(443.457031 0)"/>
     <use xlink:href="#DejaVuSans-Bold-70" transform="translate(478.271484 0)"/>
     <use xlink:href="#DejaVuSans-Bold-6f" transform="translate(549.853516 0)"/>
     <use xlink:href="#DejaVuSans-Bold-6c" transform="translate(618.554688 0)"/>
     <use xlink:href="#DejaVuSans-Bold-61" transform="translate(652.832031 0)"/>
     <use xlink:href="#DejaVuSans-Bold-72" transform="translate(720.3125 0)"/>
     <use xlink:href="#DejaVuSans-Bold-69" transform="translate(769.628906 0)"/>
     <use xlink:href="#DejaVuSans-Bold-74" transform="translate(803.90625 0)"/>
     <use xlink:href="#DejaVuSans-Bold-e9" transform="translate(851.708984 0)"/>
     <use xlink:href="#DejaVuSans-Bold-20" transform="translate(919.53125 0)"/>
     <use xlink:href="#DejaVuSans-Bold-64" transform="translate(954.345703 0)"/>
     <use xlink:href="#DejaVuSans-Bold-65" transform="translate(1025.927734 0)"/>
     <use xlink:href="#DejaVuSans-Bold-20" transform="translate(1093.75 0)"/>
     <use xlink:href="#DejaVuSans-Bold-6c" transform="translate(1128.564453 0)"/>
     <use xlink:href="#DejaVuSans-Bold-27" transform="translate(1162.841797 0)"/>
     <use xlink:href="#DejaVuSans-Bold-6f" transform="translate(1193.457031 0)"/>
     <use xlink:href="#DejaVuSans-Bold-76" transform="translate(1262.158203 0)"/>
     <use xlink:href="#DejaVuSans-Bold-6f" transform="translate(1327.34375 0)"/>
     <use xlink:href="#DejaVuSans-Bold-63" transform="translate(1396.044922 0)"/>
     <use xlink:href="#DejaVuSans-Bold-79" transform="translate(1455.322266 0)"/>
     <use xlink:href="#DejaVuSans-Bold-74" transform="translate(1520.507812 0)"/>
     <use xlink:href="#DejaVuSans-Bold-65" transform="translate(1568.310547 0)"/>
     <use xlink:href="#DejaVuSans-Bold-20" transform="translate(1636.132812 0)"/>
     <use xlink:href="#DejaVuSans-Bold-64" transform="translate(1670.947266 0)"/>
     <use xlink:href="#DejaVuSans-Bold-65" transform="translate(1742.529297 0)"/>
     <use xlink:href="#DejaVuSans-Bold-20" transform="translate(1810.351562 0)"/>
     <use xlink:href="#DejaVuSans-Bold-44" transform="translate(1845.166016 0)"/>
     <use xlink:href="#DejaVuSans-Bold-72" transform="translate(1928.173828 0)"/>
     <use xlink:href="#DejaVuSans-Bold-6f" transform="translate(1977.490234 0)"/>
     <use xlink:href="#DejaVuSans-Bold-73" transform="translate(2046.191406 0)"/>
     <use xlink:href="#DejaVuSans-Bold-6f" transform="translate(2105.712891 0)"/>
     <use xlink:href="#DejaVuSans-Bold-70" transform="translate(2174.414062 0)"/>
     <use xlink:href="#DejaVuSans-Bold-68" transform="translate(2245.996094 0)"/>
     <use xlink:href="#DejaVuSans-Bold-69" transform="translate(2317.1875 0)"/>
     <use xlink:href="#DejaVuSans-Bold-6c" transform="translate(2351.464844 0)"/>
     <use xlink:href="#DejaVuSans-Bold-61" transform="translate(2385.742188 0)"/>
    </g>
    <!-- Localisation des ARNm maternels et gradients morphogènes -->
    <g style="fill: #1a237e" transform="translate(33.628719 34.856125) scale(0.14 -0.14)">
     <defs>
      <path id="DejaVuSans-Bold-6e" d="M 4056 2131 
L 4056 0 
L 2931 0 
L 2931 347 
L 2931 1631 
Q 2931 2084 2911 2256 
Q 2891 2428 2841 2509 
Q 2775 2619 2662 2680 
Q 2550 2741 2406 2741 
Q 2056 2741 1856 2470 
Q 1656 2200 1656 1722 
L 1656 0 
L 538 0 
L 538 3500 
L 1656 3500 
L 1656 2988 
Q 1909 3294 2193 3439 
Q 2478 3584 2822 3584 
Q 3428 3584 3742 3212 
Q 4056 2841 4056 2131 
z
" transform="scale(0.015625)"/>
      <path id="DejaVuSans-Bold-6d" d="M 3781 2919 
Q 3994 3244 4286 3414 
Q 4578 3584 4928 3584 
Q 5531 3584 5847 3212 
Q 6163 2841 6163 2131 
L 6163 0 
L 5038 0 
L 5038 1825 
Q 5041 1866 5042 1909 
Q 5044 1953 5044 2034 
Q 5044 2406 4934 2573 
Q 4825 2741 4581 2741 
Q 4263 2741 4089 2478 
Q 3916 2216 3909 1719 
L 3909 0 
L 2784 0 
L 2784 1825 
Q 2784 2406 2684 2573 
Q 2584 2741 2328 2741 
Q 2006 2741 1831 2477 
Q 1656 2213 1656 1722 
L 1656 0 
L 531 0 
L 531 3500 
L 1656 3500 
L 1656 2988 
Q 1863 3284 2130 3434 
Q 2397 3584 2719 3584 
Q 3081 3584 3359 3409 
Q 3638 3234 3781 2919 
z
" transform="scale(0.015625)"/>
      <path id="DejaVuSans-Bold-67" d="M 2919 594 
Q 2688 288 2409 144 
Q 2131 0 1766 0 
Q 1125 0 706 504 
Q 288 1009 288 1791 
Q 288 2575 706 3076 
Q 1125 3578 1766 3578 
Q 2131 3578 2409 3434 
Q 2688 3291 2919 2981 
L 2919 3500 
L 4044 3500 
L 4044 353 
Q 4044 -491 3511 -936 
Q 2978 -1381 1966 -1381 
Q 1638 -1381 1331 -1331 
Q 1025 -1281 716 -1178 
L 716 -306 
Q 1009 -475 1290 -558 
Q 1572 -641 1856 -641 
Q 2406 -641 2662 -400 
Q 2919 -159 2919 353 
L 2919 594 
z
M 2181 2772 
Q 1834 2772 1640 2515 
Q 1447 2259 1447 1791 
Q 1447 1309 1634 1061 
Q 1822 813 2181 813 
Q 2531 813 2725 1069 
Q 2919 1325 2919 1791 
Q 2919 2259 2725 2515 
Q 2531 2772 2181 2772 
z
" transform="scale(0.015625)"/>
      <path id="DejaVuSans-Bold-e8" d="M 4031 1759 
L 4031 1441 
L 1416 1441 
Q 1456 1047 1700 850 
Q 1944 653 2381 653 
Q 2734 653 3104 758 
Q 3475 863 3866 1075 
L 3866 213 
Q 3469 63 3072 -14 
Q 2675 -91 2278 -91 
Q 1328 -91 801 392 
Q 275 875 275 1747 
Q 275 2603 792 3093 
Q 1309 3584 2216 3584 
Q 3041 3584 3536 3087 
Q 4031 2591 4031 1759 
z
M 2881 2131 
Q 2881 2450 2695 2645 
Q 2509 2841 2209 2841 
Q 1884 2841 1681 2658 
Q 1478 2475 1428 2131 
L 2881 2131 
z
M 1858 5119 
L 2739 3944 
L 2127 3944 
L 974 5119 
L 1858 5119 
z
" transform="scale(0.015625)"/>
     </defs>
     <use xlink:href="#DejaVuSans-Bold-4c"/>
     <use xlink:href="#DejaVuSans-Bold-6f" transform="translate(63.720703 0)"/>
     <use xlink:href="#DejaVuSans-Bold-63" transform="translate(132.421875 0)"/>
     <use xlink:href="#DejaVuSans-Bold-61" transform="translate(191.699219 0)"/>
     <use xlink:href="#DejaVuSans-Bold-6c" transform="translate(259.179688 0)"/>
     <use xlink:href="#DejaVuSans-Bold-69" transform="translate(293.457031 0)"/>
     <use xlink:href="#DejaVuSans-Bold-73" transform="translate(327.734375 0)"/>
     <use xlink:href="#DejaVuSans-Bold-61" transform="translate(387.255859 0)"/>
     <use xlink:href="#DejaVuSans-Bold-74" transform="translate(454.736328 0)"/>
     <use xlink:href="#DejaVuSans-Bold-69" transform="translate(502.539062 0)"/>
     <use xlink:href="#DejaVuSans-Bold-6f" transform="translate(536.816406 0)"/>
     <use xlink:href="#DejaVuSans-Bold-6e" transform="translate(605.517578 0)"/>
     <use xlink:href="#DejaVuSans-Bold-20" transform="translate(676.708984 0)"/>
     <use xlink:href="#DejaVuSans-Bold-64" transform="translate(711.523438 0)"/>
     <use xlink:href="#DejaVuSans-Bold-65" transform="translate(783.105469 0)"/>
     <use xlink:href="#DejaVuSans-Bold-73" transform="translate(850.927734 0)"/>
     <use xlink:href="#DejaVuSans-Bold-20" transform="translate(910.449219 0)"/>
     <use xlink:href="#DejaVuSans-Bold-41" transform="translate(945.263672 0)"/>
     <use xlink:href="#DejaVuSans-Bold-52" transform="translate(1022.65625 0)"/>
     <use xlink:href="#DejaVuSans-Bold-4e" transform="translate(1099.658203 0)"/>
     <use xlink:href="#DejaVuSans-Bold-6d" transform="translate(1183.349609 0)"/>
     <use xlink:href="#DejaVuSans-Bold-20" transform="translate(1287.548828 0)"/>
     <use xlink:href="#DejaVuSans-Bold-6d" transform="translate(1322.363281 0)"/>
     <use xlink:href="#DejaVuSans-Bold-61" transform="translate(1426.5625 0)"/>
     <use xlink:href="#DejaVuSans-Bold-74" transform="translate(1494.042969 0)"/>
     <use xlink:href="#DejaVuSans-Bold-65" transform="translate(1541.845703 0)"/>
     <use xlink:href="#DejaVuSans-Bold-72" transform="translate(1609.667969 0)"/>
     <use xlink:href="#DejaVuSans-Bold-6e" transform="translate(1658.984375 0)"/>
     <use xlink:href="#DejaVuSans-Bold-65" transform="translate(1730.175781 0)"/>
     <use xlink:href="#DejaVuSans-Bold-6c" transform="translate(1797.998047 0)"/>
     <use xlink:href="#DejaVuSans-Bold-73" transform="translate(1832.275391 0)"/>
     <use xlink:href="#DejaVuSans-Bold-20" transform="translate(1891.796875 0)"/>
     <use xlink:href="#DejaVuSans-Bold-65" transform="translate(1926.611328 0)"/>
     <use xlink:href="#DejaVuSans-Bold-74" transform="translate(1994.433594 0)"/>
     <use xlink:href="#DejaVuSans-Bold-20" transform="translate(2042.236328 0)"/>
     <use xlink:href="#DejaVuSans-Bold-67" transform="translate(2077.050781 0)"/>
     <use xlink:href="#DejaVuSans-Bold-72" transform="translate(2148.632812 0)"/>
     <use xlink:href="#DejaVuSans-Bold-61" transform="translate(2197.949219 0)"/>
     <use xlink:href="#DejaVuSans-Bold-64" transform="translate(2265.429688 0)"/>
     <use xlink:href="#DejaVuSans-Bold-69" transform="translate(2337.011719 0)"/>
     <use xlink:href="#DejaVuSans-Bold-65" transform="translate(2371.289062 0)"/>
     <use xlink:href="#DejaVuSans-Bold-6e" transform="translate(2439.111328 0)"/>
     <use xlink:href="#DejaVuSans-Bold-74" transform="translate(2510.302734 0)"/>
     <use xlink:href="#DejaVuSans-Bold-73" transform="translate(2558.105469 0)"/>
     <use xlink:href="#DejaVuSans-Bold-20" transform="translate(2617.626953 0)"/>
     <use xlink:href="#DejaVuSans-Bold-6d" transform="translate(2652.441406 0)"/>
     <use xlink:href="#DejaVuSans-Bold-6f" transform="translate(2756.640625 0)"/>
     <use xlink:href="#DejaVuSans-Bold-72" transform="translate(2825.341797 0)"/>
     <use xlink:href="#DejaVuSans-Bold-70" transform="translate(2874.658203 0)"/>
     <use xlink:href="#DejaVuSans-Bold-68" transform="translate(2946.240234 0)"/>
     <use xlink:href="#DejaVuSans-Bold-6f" transform="translate(3017.431641 0)"/>
     <use xlink:href="#DejaVuSans-Bold-67" transform="translate(3086.132812 0)"/>
     <use xlink:href="#DejaVuSans-Bold-e8" transform="translate(3157.714844 0)"/>
     <use xlink:href="#DejaVuSans-Bold-6e" transform="translate(3225.537109 0)"/>
     <use xlink:href="#DejaVuSans-Bold-65" transform="translate(3296.728516 0)"/>
     <use xlink:href="#DejaVuSans-Bold-73" transform="translate(3364.550781 0)"/>
    </g>
   </g>
   <g id="patch_8">
    <path d="M 162.432 225.046525 
C 167.72503 225.046525 172.801983 222.943582 176.54472 219.200845 
C 180.287457 215.458108 182.3904 210.381155 182.3904 205.088125 
C 182.3904 199.795095 180.287457 194.718142 176.54472 190.975405 
C 172.801983 187.232668 167.72503 185.129725 162.432 185.129725 
C 157.13897 185.129725 152.062017 187.232668 148.31928 190.975405 
C 144.576543 194.718142 142.4736 199.795095 142.4736 205.088125 
C 142.4736 210.381155 144.576543 215.458108 148.31928 219.200845 
C 152.062017 222.943582 157.13897 225.046525 162.432 225.046525 
z
" clip-path="url(#p1edc696a54)" style="fill: #ffc107; stroke: #5d4037; stroke-width: 1.5; stroke-linejoin: miter"/>
   </g>
   <g id="text_10">
    <!-- N -->
    <g transform="translate(158.247625 207.8475) scale(0.1 -0.1)">
     <use xlink:href="#DejaVuSans-Bold-4e"/>
    </g>
   </g>
   <g id="text_11">
    <!-- ARNm -->
    <g style="fill: #e53935" transform="translate(67.195744 328.066094) scale(0.09 -0.09)">
     <use xlink:href="#DejaVuSans-Bold-41"/>
     <use xlink:href="#DejaVuSans-Bold-52" transform="translate(77.392578 0)"/>
     <use xlink:href="#DejaVuSans-Bold-4e" transform="translate(154.394531 0)"/>
     <use xlink:href="#DejaVuSans-Bold-6d" transform="translate(238.085938 0)"/>
    </g>
    <!-- bicoid -->
    <g style="fill: #e53935" transform="translate(67.311759 338.144125) scale(0.09 -0.09)">
     <defs>
      <path id="DejaVuSans-Bold-62" d="M 2400 722 
Q 2759 722 2948 984 
Q 3138 1247 3138 1747 
Q 3138 2247 2948 2509 
Q 2759 2772 2400 2772 
Q 2041 2772 1848 2508 
Q 1656 2244 1656 1747 
Q 1656 1250 1848 986 
Q 2041 722 2400 722 
z
M 1656 2988 
Q 1888 3294 2169 3439 
Q 2450 3584 2816 3584 
Q 3463 3584 3878 3070 
Q 4294 2556 4294 1747 
Q 4294 938 3878 423 
Q 3463 -91 2816 -91 
Q 2450 -91 2169 54 
Q 1888 200 1656 506 
L 1656 0 
L 538 0 
L 538 4863 
L 1656 4863 
L 1656 2988 
z
" transform="scale(0.015625)"/>
     </defs>
     <use xlink:href="#DejaVuSans-Bold-62"/>
     <use xlink:href="#DejaVuSans-Bold-69" transform="translate(71.582031 0)"/>
     <use xlink:href="#DejaVuSans-Bold-63" transform="translate(105.859375 0)"/>
     <use xlink:href="#DejaVuSans-Bold-6f" transform="translate(165.136719 0)"/>
     <use xlink:href="#DejaVuSans-Bold-69" transform="translate(233.837891 0)"/>
     <use xlink:href="#DejaVuSans-Bold-64" transform="translate(268.115234 0)"/>
    </g>
   </g>
   <g id="text_12">
    <!-- ARNm -->
    <g style="fill: #7b1fa2" transform="translate(448.622944 328.066094) scale(0.09 -0.09)">
     <use xlink:href="#DejaVuSans-Bold-41"/>
     <use xlink:href="#DejaVuSans-Bold-52" transform="translate(77.392578 0)"/>
     <use xlink:href="#DejaVuSans-Bold-4e" transform="translate(154.394531 0)"/>
     <use xlink:href="#DejaVuSans-Bold-6d" transform="translate(238.085938 0)"/>
    </g>
    <!-- oskar -->
    <g style="fill: #7b1fa2" transform="translate(450.007397 338.144125) scale(0.09 -0.09)">
     <defs>
      <path id="DejaVuSans-Bold-6b" d="M 538 4863 
L 1656 4863 
L 1656 2216 
L 2944 3500 
L 4244 3500 
L 2534 1894 
L 4378 0 
L 3022 0 
L 1656 1459 
L 1656 0 
L 538 0 
L 538 4863 
z
" transform="scale(0.015625)"/>
     </defs>
     <use xlink:href="#DejaVuSans-Bold-6f"/>
     <use xlink:href="#DejaVuSans-Bold-73" transform="translate(68.701172 0)"/>
     <use xlink:href="#DejaVuSans-Bold-6b" transform="translate(128.222656 0)"/>
     <use xlink:href="#DejaVuSans-Bold-61" transform="translate(194.726562 0)"/>
     <use xlink:href="#DejaVuSans-Bold-72" transform="translate(262.207031 0)"/>
    </g>
   </g>
   <g id="text_13">
    <!-- ARNm -->
    <g style="fill: #1e88e5" transform="translate(448.622944 372.418094) scale(0.09 -0.09)">
     <use xlink:href="#DejaVuSans-Bold-41"/>
     <use xlink:href="#DejaVuSans-Bold-52" transform="translate(77.392578 0)"/>
     <use xlink:href="#DejaVuSans-Bold-4e" transform="translate(154.394531 0)"/>
     <use xlink:href="#DejaVuSans-Bold-6d" transform="translate(238.085938 0)"/>
    </g>
    <!-- nanos -->
    <g style="fill: #1e88e5" transform="translate(448.812084 382.496125) scale(0.09 -0.09)">
     <use xlink:href="#DejaVuSans-Bold-6e"/>
     <use xlink:href="#DejaVuSans-Bold-61" transform="translate(71.191406 0)"/>
     <use xlink:href="#DejaVuSans-Bold-6e" transform="translate(138.671875 0)"/>
     <use xlink:href="#DejaVuSans-Bold-6f" transform="translate(209.863281 0)"/>
     <use xlink:href="#DejaVuSans-Bold-73" transform="translate(278.564453 0)"/>
    </g>
   </g>
   <g id="text_14">
    <!-- ARNm gurken -->
    <g style="fill: #2e7d32" transform="translate(185.346788 160.736125) scale(0.09 -0.09)">
     <defs>
      <path id="DejaVuSans-Bold-75" d="M 500 1363 
L 500 3500 
L 1625 3500 
L 1625 3150 
Q 1625 2866 1622 2436 
Q 1619 2006 1619 1863 
Q 1619 1441 1641 1255 
Q 1663 1069 1716 984 
Q 1784 875 1895 815 
Q 2006 756 2150 756 
Q 2500 756 2700 1025 
Q 2900 1294 2900 1772 
L 2900 3500 
L 4019 3500 
L 4019 0 
L 2900 0 
L 2900 506 
Q 2647 200 2364 54 
Q 2081 -91 1741 -91 
Q 1134 -91 817 281 
Q 500 653 500 1363 
z
" transform="scale(0.015625)"/>
     </defs>
     <use xlink:href="#DejaVuSans-Bold-41"/>
     <use xlink:href="#DejaVuSans-Bold-52" transform="translate(77.392578 0)"/>
     <use xlink:href="#DejaVuSans-Bold-4e" transform="translate(154.394531 0)"/>
     <use xlink:href="#DejaVuSans-Bold-6d" transform="translate(238.085938 0)"/>
     <use xlink:href="#DejaVuSans-Bold-20" transform="translate(342.285156 0)"/>
     <use xlink:href="#DejaVuSans-Bold-67" transform="translate(377.099609 0)"/>
     <use xlink:href="#DejaVuSans-Bold-75" transform="translate(448.681641 0)"/>
     <use xlink:href="#DejaVuSans-Bold-72" transform="translate(519.873047 0)"/>
     <use xlink:href="#DejaVuSans-Bold-6b" transform="translate(569.189453 0)"/>
     <use xlink:href="#DejaVuSans-Bold-65" transform="translate(633.068359 0)"/>
     <use xlink:href="#DejaVuSans-Bold-6e" transform="translate(700.890625 0)"/>
    </g>
   </g>
   <g id="legend_1">
    <g id="patch_9">
     <path d="M 453.10025 103.226125 
L 533.824 103.226125 
Q 535.424 103.226125 535.424 101.626125 
L 535.424 55.456125 
Q 535.424 53.856125 533.824 53.856125 
L 453.10025 53.856125 
Q 451.50025 53.856125 451.50025 55.456125 
L 451.50025 101.626125 
Q 451.50025 103.226125 453.10025 103.226125 
z
" style="fill: #ffffff; opacity: 0.9; stroke: #cccccc; stroke-linejoin: miter"/>
    </g>
    <g id="PathCollection_5">
     <g>
      <use xlink:href="#m4a360dc09e" x="462.70025" y="61.034875" style="fill: #e53935; fill-opacity: 0.7; stroke: #e53935; stroke-opacity: 0.7"/>
     </g>
    </g>
    <g id="text_15">
     <!-- ARNm bicoid -->
     <g transform="translate(477.10025 63.134875) scale(0.08 -0.08)">
      <defs>
       <path id="DejaVuSans-41" d="M 2188 4044 
L 1331 1722 
L 3047 1722 
L 2188 4044 
z
M 1831 4666 
L 2547 4666 
L 4325 0 
L 3669 0 
L 3244 1197 
L 1141 1197 
L 716 0 
L 50 0 
L 1831 4666 
z
" transform="scale(0.015625)"/>
       <path id="DejaVuSans-52" d="M 2841 2188 
Q 3044 2119 3236 1894 
Q 3428 1669 3622 1275 
L 4263 0 
L 3584 0 
L 2988 1197 
Q 2756 1666 2539 1819 
Q 2322 1972 1947 1972 
L 1259 1972 
L 1259 0 
L 628 0 
L 628 4666 
L 2053 4666 
Q 2853 4666 3247 4331 
Q 3641 3997 3641 3322 
Q 3641 2881 3436 2590 
Q 3231 2300 2841 2188 
z
M 1259 4147 
L 1259 2491 
L 2053 2491 
Q 2509 2491 2742 2702 
Q 2975 2913 2975 3322 
Q 2975 3731 2742 3939 
Q 2509 4147 2053 4147 
L 1259 4147 
z
" transform="scale(0.015625)"/>
       <path id="DejaVuSans-6d" d="M 3328 2828 
Q 3544 3216 3844 3400 
Q 4144 3584 4550 3584 
Q 5097 3584 5394 3201 
Q 5691 2819 5691 2113 
L 5691 0 
L 5113 0 
L 5113 2094 
Q 5113 2597 4934 2840 
Q 4756 3084 4391 3084 
Q 3944 3084 3684 2787 
Q 3425 2491 3425 1978 
L 3425 0 
L 2847 0 
L 2847 2094 
Q 2847 2600 2669 2842 
Q 2491 3084 2119 3084 
Q 1678 3084 1418 2786 
Q 1159 2488 1159 1978 
L 1159 0 
L 581 0 
L 581 3500 
L 1159 3500 
L 1159 2956 
Q 1356 3278 1631 3431 
Q 1906 3584 2284 3584 
Q 2666 3584 2933 3390 
Q 3200 3197 3328 2828 
z
" transform="scale(0.015625)"/>
       <path id="DejaVuSans-62" d="M 3116 1747 
Q 3116 2381 2855 2742 
Q 2594 3103 2138 3103 
Q 1681 3103 1420 2742 
Q 1159 2381 1159 1747 
Q 1159 1113 1420 752 
Q 1681 391 2138 391 
Q 2594 391 2855 752 
Q 3116 1113 3116 1747 
z
M 1159 2969 
Q 1341 3281 1617 3432 
Q 1894 3584 2278 3584 
Q 2916 3584 3314 3078 
Q 3713 2572 3713 1747 
Q 3713 922 3314 415 
Q 2916 -91 2278 -91 
Q 1894 -91 1617 61 
Q 1341 213 1159 525 
L 1159 0 
L 581 0 
L 581 4863 
L 1159 4863 
L 1159 2969 
z
" transform="scale(0.015625)"/>
      </defs>
      <use xlink:href="#DejaVuSans-41"/>
      <use xlink:href="#DejaVuSans-52" transform="translate(68.408203 0)"/>
      <use xlink:href="#DejaVuSans-4e" transform="translate(137.890625 0)"/>
      <use xlink:href="#DejaVuSans-6d" transform="translate(212.695312 0)"/>
      <use xlink:href="#DejaVuSans-20" transform="translate(310.107422 0)"/>
      <use xlink:href="#DejaVuSans-62" transform="translate(341.894531 0)"/>
      <use xlink:href="#DejaVuSans-69" transform="translate(405.371094 0)"/>
      <use xlink:href="#DejaVuSans-63" transform="translate(433.154297 0)"/>
      <use xlink:href="#DejaVuSans-6f" transform="translate(488.134766 0)"/>
      <use xlink:href="#DejaVuSans-69" transform="translate(549.316406 0)"/>
      <use xlink:href="#DejaVuSans-64" transform="translate(577.099609 0)"/>
     </g>
    </g>
    <g id="PathCollection_6">
     <g>
      <use xlink:href="#m8e260ba955" x="462.70025" y="72.777375" style="fill: #7b1fa2; fill-opacity: 0.7; stroke: #7b1fa2; stroke-opacity: 0.7"/>
     </g>
    </g>
    <g id="text_16">
     <!-- ARNm oskar -->
     <g transform="translate(477.10025 74.877375) scale(0.08 -0.08)">
      <defs>
       <path id="DejaVuSans-6b" d="M 581 4863 
L 1159 4863 
L 1159 1991 
L 2875 3500 
L 3609 3500 
L 1753 1863 
L 3688 0 
L 2938 0 
L 1159 1709 
L 1159 0 
L 581 0 
L 581 4863 
z
" transform="scale(0.015625)"/>
      </defs>
      <use xlink:href="#DejaVuSans-41"/>
      <use xlink:href="#DejaVuSans-52" transform="translate(68.408203 0)"/>
      <use xlink:href="#DejaVuSans-4e" transform="translate(137.890625 0)"/>
      <use xlink:href="#DejaVuSans-6d" transform="translate(212.695312 0)"/>
      <use xlink:href="#DejaVuSans-20" transform="translate(310.107422 0)"/>
      <use xlink:href="#DejaVuSans-6f" transform="translate(341.894531 0)"/>
      <use xlink:href="#DejaVuSans-73" transform="translate(403.076172 0)"/>
      <use xlink:href="#DejaVuSans-6b" transform="translate(455.175781 0)"/>
      <use xlink:href="#DejaVuSans-61" transform="translate(511.335938 0)"/>
      <use xlink:href="#DejaVuSans-72" transform="translate(572.615234 0)"/>
     </g>
    </g>
    <g id="PathCollection_7">
     <g>
      <use xlink:href="#m1c8c4805ad" x="462.70025" y="84.519875" style="fill: #1e88e5; fill-opacity: 0.6; stroke: #1e88e5; stroke-opacity: 0.6"/>
     </g>
    </g>
    <g id="text_17">
     <!-- ARNm nanos -->
     <g transform="translate(477.10025 86.619875) scale(0.08 -0.08)">
      <use xlink:href="#DejaVuSans-41"/>
      <use xlink:href="#DejaVuSans-52" transform="translate(68.408203 0)"/>
      <use xlink:href="#DejaVuSans-4e" transform="translate(137.890625 0)"/>
      <use xlink:href="#DejaVuSans-6d" transform="translate(212.695312 0)"/>
      <use xlink:href="#DejaVuSans-20" transform="translate(310.107422 0)"/>
      <use xlink:href="#DejaVuSans-6e" transform="translate(341.894531 0)"/>
      <use xlink:href="#DejaVuSans-61" transform="translate(405.273438 0)"/>
      <use xlink:href="#DejaVuSans-6e" transform="translate(466.552734 0)"/>
      <use xlink:href="#DejaVuSans-6f" transform="translate(529.931641 0)"/>
      <use xlink:href="#DejaVuSans-73" transform="translate(591.113281 0)"/>
     </g>
    </g>
    <g id="PathCollection_8">
     <g>
      <use xlink:href="#m6345970048" x="462.70025" y="96.262375" style="fill: #2e7d32; fill-opacity: 0.7; stroke: #2e7d32; stroke-opacity: 0.7"/>
     </g>
    </g>
    <g id="text_18">
     <!-- ARNm gurken -->
     <g transform="translate(477.10025 98.362375) scale(0.08 -0.08)">
      <defs>
       <path id="DejaVuSans-67" d="M 2906 1791 
Q 2906 2416 2648 2759 
Q 2391 3103 1925 3103 
Q 1463 3103 1205 2759 
Q 947 2416 947 1791 
Q 947 1169 1205 825 
Q 1463 481 1925 481 
Q 2391 481 2648 825 
Q 2906 1169 2906 1791 
z
M 3481 434 
Q 3481 -459 3084 -895 
Q 2688 -1331 1869 -1331 
Q 1566 -1331 1297 -1286 
Q 1028 -1241 775 -1147 
L 775 -588 
Q 1028 -725 1275 -790 
Q 1522 -856 1778 -856 
Q 2344 -856 2625 -561 
Q 2906 -266 2906 331 
L 2906 616 
Q 2728 306 2450 153 
Q 2172 0 1784 0 
Q 1141 0 747 490 
Q 353 981 353 1791 
Q 353 2603 747 3093 
Q 1141 3584 1784 3584 
Q 2172 3584 2450 3431 
Q 2728 3278 2906 2969 
L 2906 3500 
L 3481 3500 
L 3481 434 
z
" transform="scale(0.015625)"/>
      </defs>
      <use xlink:href="#DejaVuSans-41"/>
      <use xlink:href="#DejaVuSans-52" transform="translate(68.408203 0)"/>
      <use xlink:href="#DejaVuSans-4e" transform="translate(137.890625 0)"/>
      <use xlink:href="#DejaVuSans-6d" transform="translate(212.695312 0)"/>
      <use xlink:href="#DejaVuSans-20" transform="translate(310.107422 0)"/>
      <use xlink:href="#DejaVuSans-67" transform="translate(341.894531 0)"/>
      <use xlink:href="#DejaVuSans-75" transform="translate(405.371094 0)"/>
      <use xlink:href="#DejaVuSans-72" transform="translate(468.75 0)"/>
      <use xlink:href="#DejaVuSans-6b" transform="translate(509.863281 0)"/>
      <use xlink:href="#DejaVuSans-65" transform="translate(564.148438 0)"/>
      <use xlink:href="#DejaVuSans-6e" transform="translate(625.671875 0)"/>
     </g>
    </g>
   </g>
  </g>
 </g>
 <defs>
  <clipPath id="p1edc696a54">
   <rect x="7.2" y="49.856125" width="532.224" height="443.52"/>
  </clipPath>
 </defs>
</svg>
