<?xml version="1.0" encoding="utf-8" standalone="no"?>
<!DOCTYPE svg PUBLIC "-//W3C//DTD SVG 1.1//EN"
  "http://www.w3.org/Graphics/SVG/1.1/DTD/svg11.dtd">
<svg xmlns:xlink="http://www.w3.org/1999/xlink" width="739.384615pt" height="308.237813pt" viewBox="0 0 739.384615 308.237813" xmlns="http://www.w3.org/2000/svg" version="1.1">
 <metadata>
  <rdf:RDF xmlns:dc="http://purl.org/dc/elements/1.1/" xmlns:cc="http://creativecommons.org/ns#" xmlns:rdf="http://www.w3.org/1999/02/22-rdf-syntax-ns#">
   <cc:Work>
    <dc:type rdf:resource="http://purl.org/dc/dcmitype/StillImage"/>
    <dc:date>2026-03-31T11:28:38.727336</dc:date>
    <dc:format>image/svg+xml</dc:format>
    <dc:creator>
     <cc:Agent>
      <dc:title>Matplotlib v3.10.8, https://matplotlib.org/</dc:title>
     </cc:Agent>
    </dc:creator>
   </cc:Work>
  </rdf:RDF>
 </metadata>
 <defs>
  <style type="text/css">*{stroke-linejoin: round; stroke-linecap: butt}</style>
 </defs>
 <g id="figure_1">
  <g id="patch_1">
   <path d="M 0 308.237813 
L 739.384615 308.237813 
L 739.384615 0 
L 0 0 
z
" style="fill: #ffffff"/>
  </g>
  <g id="axes_1">
   <g id="patch_2">
    <path d="M 49.846154 215.745505 
L 109.550769 215.745505 
Q 122.344615 215.745505 122.344615 202.951659 
L 122.344615 143.247043 
Q 122.344615 130.453197 109.550769 130.453197 
L 49.846154 130.453197 
Q 37.052308 130.453197 37.052308 143.247043 
L 37.052308 202.951659 
Q 37.052308 215.745505 49.846154 215.745505 
z
" clip-path="url(#p316604c749)" style="fill: #fff9c4; stroke: #333333; stroke-width: 2; stroke-linejoin: miter"/>
   </g>
   <g id="patch_3">
    <path d="M 190.045385 179.922736 
L 200.173846 179.922736 
Q 201.879692 179.922736 201.879692 178.216889 
L 201.879692 167.981812 
Q 201.879692 166.275966 200.173846 166.275966 
L 190.045385 166.275966 
Q 188.339538 166.275966 188.339538 167.981812 
L 188.339538 178.216889 
Q 188.339538 179.922736 190.045385 179.922736 
z
" clip-path="url(#p316604c749)" style="fill: #ce93d8; stroke: #999999; stroke-width: 0.5; stroke-linejoin: miter"/>
   </g>
   <g id="patch_4">
    <path d="M 283.333846 179.922736 
L 293.995385 179.922736 
Q 295.701231 179.922736 295.701231 178.216889 
L 295.701231 167.981812 
Q 295.701231 166.275966 293.995385 166.275966 
L 283.333846 166.275966 
Q 281.628 166.275966 281.628 167.981812 
L 281.628 178.216889 
Q 281.628 179.922736 283.333846 179.922736 
z
" clip-path="url(#p316604c749)" style="fill: #ce93d8; stroke: #999999; stroke-width: 0.5; stroke-linejoin: miter"/>
   </g>
   <g id="patch_5">
    <path d="M 402.743077 179.922736 
L 409.14 179.922736 
Q 410.845846 179.922736 410.845846 178.216889 
L 410.845846 167.981812 
Q 410.845846 166.275966 409.14 166.275966 
L 402.743077 166.275966 
Q 401.037231 166.275966 401.037231 167.981812 
L 401.037231 178.216889 
Q 401.037231 179.922736 402.743077 179.922736 
z
" clip-path="url(#p316604c749)" style="fill: #ce93d8; stroke: #999999; stroke-width: 0.5; stroke-linejoin: miter"/>
   </g>
   <g id="patch_6">
    <path d="M 156.461538 215.745505 
C 165.368079 215.745505 173.911029 211.252037 180.208904 203.254736 
C 186.506779 195.257434 190.045385 184.409243 190.045385 173.099351 
C 190.045385 161.789459 186.506779 150.941268 180.208904 142.943966 
C 173.911029 134.946665 165.368079 130.453197 156.461538 130.453197 
C 147.554998 130.453197 139.012048 134.946665 132.714173 142.943966 
C 126.416298 150.941268 122.877692 161.789459 122.877692 173.099351 
C 122.877692 184.409243 126.416298 195.257434 132.714173 203.254736 
C 139.012048 211.252037 147.554998 215.745505 156.461538 215.745505 
z
" clip-path="url(#p316604c749)" style="fill: #b3e5fc; stroke: #333333; stroke-width: 1.5; stroke-linejoin: miter"/>
   </g>
   <g id="patch_7">
    <path d="M 241.753846 226.407043 
C 252.780991 226.407043 263.357977 220.790209 271.155346 210.793582 
C 278.952715 200.796955 283.333846 187.236716 283.333846 173.099351 
C 283.333846 158.961986 278.952715 145.401747 271.155346 135.40512 
C 263.357977 125.408493 252.780991 119.791659 241.753846 119.791659 
C 230.726701 119.791659 220.149715 125.408493 212.352346 135.40512 
C 204.554977 145.401747 200.173846 158.961986 200.173846 173.099351 
C 200.173846 187.236716 204.554977 200.796955 212.352346 210.793582 
C 220.149715 220.790209 230.726701 226.407043 241.753846 226.407043 
z
" clip-path="url(#p316604c749)" style="fill: #b3e5fc; stroke: #333333; stroke-width: 1.5; stroke-linejoin: miter"/>
   </g>
   <g id="patch_8">
    <path d="M 348.369231 243.465505 
C 362.789343 243.465505 376.620787 236.051283 386.817346 222.855736 
C 397.013905 209.660188 402.743077 191.760673 402.743077 173.099351 
C 402.743077 154.438029 397.013905 136.538514 386.817346 123.342966 
C 376.620787 110.147419 362.789343 102.733197 348.369231 102.733197 
C 333.949118 102.733197 320.117675 110.147419 309.921115 123.342966 
C 299.724556 136.538514 293.995385 154.438029 293.995385 173.099351 
C 293.995385 191.760673 299.724556 209.660188 309.921115 222.855736 
C 320.117675 236.051283 333.949118 243.465505 348.369231 243.465505 
z
" clip-path="url(#p316604c749)" style="fill: #b3e5fc; stroke: #333333; stroke-width: 1.5; stroke-linejoin: miter"/>
   </g>
   <g id="patch_9">
    <path d="M 476.307692 260.523966 
C 494.120773 260.523966 511.206673 251.312357 523.802423 234.917889 
C 536.398173 218.523421 543.475385 196.28463 543.475385 173.099351 
C 543.475385 149.914072 536.398173 127.675281 523.802423 111.280813 
C 511.206673 94.886345 494.120773 85.674736 476.307692 85.674736 
C 458.494612 85.674736 441.408711 94.886345 428.812962 111.280813 
C 416.217212 127.675281 409.14 149.914072 409.14 173.099351 
C 409.14 196.28463 416.217212 218.523421 428.812962 234.917889 
C 441.408711 251.312357 458.494612 260.523966 476.307692 260.523966 
z
" clip-path="url(#p316604c749)" style="fill: #b3e5fc; stroke: #333333; stroke-width: 1.5; stroke-linejoin: miter"/>
   </g>
   <g id="patch_10">
    <path d="M 625.569231 281.847043 
C 647.623521 281.847043 668.777493 270.3887 684.372231 249.995582 
C 699.966969 229.602463 708.729231 201.939576 708.729231 173.099351 
C 708.729231 144.259126 699.966969 116.596239 684.372231 96.20312 
C 668.777493 75.810002 647.623521 64.351659 625.569231 64.351659 
C 603.514941 64.351659 582.360969 75.810002 566.766231 96.20312 
C 551.171493 116.596239 542.409231 144.259126 542.409231 173.099351 
C 542.409231 201.939576 551.171493 229.602463 566.766231 249.995582 
C 582.360969 270.3887 603.514941 281.847043 625.569231 281.847043 
z
" clip-path="url(#p316604c749)" style="fill: #b3e5fc; stroke: #333333; stroke-width: 1.5; stroke-linejoin: miter"/>
   </g>
   <g id="text_1">
    <!-- Germarium -->
    <g transform="translate(54.502837 173.099351) scale(0.08 -0.08)">
     <defs>
      <path id="DejaVuSans-Bold-47" d="M 4781 347 
Q 4331 128 3847 18 
Q 3363 -91 2847 -91 
Q 1681 -91 1000 561 
Q 319 1213 319 2328 
Q 319 3456 1012 4103 
Q 1706 4750 2913 4750 
Q 3378 4750 3804 4662 
Q 4231 4575 4609 4403 
L 4609 3438 
Q 4219 3659 3833 3768 
Q 3447 3878 3059 3878 
Q 2341 3878 1952 3476 
Q 1563 3075 1563 2328 
Q 1563 1588 1938 1184 
Q 2313 781 3003 781 
Q 3191 781 3352 804 
Q 3513 828 3641 878 
L 3641 1784 
L 2906 1784 
L 2906 2591 
L 4781 2591 
L 4781 347 
z
" transform="scale(0.015625)"/>
      <path id="DejaVuSans-Bold-65" d="M 4031 1759 
L 4031 1441 
L 1416 1441 
Q 1456 1047 1700 850 
Q 1944 653 2381 653 
Q 2734 653 3104 758 
Q 3475 863 3866 1075 
L 3866 213 
Q 3469 63 3072 -14 
Q 2675 -91 2278 -91 
Q 1328 -91 801 392 
Q 275 875 275 1747 
Q 275 2603 792 3093 
Q 1309 3584 2216 3584 
Q 3041 3584 3536 3087 
Q 4031 2591 4031 1759 
z
M 2881 2131 
Q 2881 2450 2695 2645 
Q 2509 2841 2209 2841 
Q 1884 2841 1681 2658 
Q 1478 2475 1428 2131 
L 2881 2131 
z
" transform="scale(0.015625)"/>
      <path id="DejaVuSans-Bold-72" d="M 3138 2547 
Q 2991 2616 2845 2648 
Q 2700 2681 2553 2681 
Q 2122 2681 1889 2404 
Q 1656 2128 1656 1613 
L 1656 0 
L 538 0 
L 538 3500 
L 1656 3500 
L 1656 2925 
Q 1872 3269 2151 3426 
Q 2431 3584 2822 3584 
Q 2878 3584 2943 3579 
Q 3009 3575 3134 3559 
L 3138 2547 
z
" transform="scale(0.015625)"/>
      <path id="DejaVuSans-Bold-6d" d="M 3781 2919 
Q 3994 3244 4286 3414 
Q 4578 3584 4928 3584 
Q 5531 3584 5847 3212 
Q 6163 2841 6163 2131 
L 6163 0 
L 5038 0 
L 5038 1825 
Q 5041 1866 5042 1909 
Q 5044 1953 5044 2034 
Q 5044 2406 4934 2573 
Q 4825 2741 4581 2741 
Q 4263 2741 4089 2478 
Q 3916 2216 3909 1719 
L 3909 0 
L 2784 0 
L 2784 1825 
Q 2784 2406 2684 2573 
Q 2584 2741 2328 2741 
Q 2006 2741 1831 2477 
Q 1656 2213 1656 1722 
L 1656 0 
L 531 0 
L 531 3500 
L 1656 3500 
L 1656 2988 
Q 1863 3284 2130 3434 
Q 2397 3584 2719 3584 
Q 3081 3584 3359 3409 
Q 3638 3234 3781 2919 
z
" transform="scale(0.015625)"/>
      <path id="DejaVuSans-Bold-61" d="M 2106 1575 
Q 1756 1575 1579 1456 
Q 1403 1338 1403 1106 
Q 1403 894 1545 773 
Q 1688 653 1941 653 
Q 2256 653 2472 879 
Q 2688 1106 2688 1447 
L 2688 1575 
L 2106 1575 
z
M 3816 1997 
L 3816 0 
L 2688 0 
L 2688 519 
Q 2463 200 2181 54 
Q 1900 -91 1497 -91 
Q 953 -91 614 226 
Q 275 544 275 1050 
Q 275 1666 698 1953 
Q 1122 2241 2028 2241 
L 2688 2241 
L 2688 2328 
Q 2688 2594 2478 2717 
Q 2269 2841 1825 2841 
Q 1466 2841 1156 2769 
Q 847 2697 581 2553 
L 581 3406 
Q 941 3494 1303 3539 
Q 1666 3584 2028 3584 
Q 2975 3584 3395 3211 
Q 3816 2838 3816 1997 
z
" transform="scale(0.015625)"/>
      <path id="DejaVuSans-Bold-69" d="M 538 3500 
L 1656 3500 
L 1656 0 
L 538 0 
L 538 3500 
z
M 538 4863 
L 1656 4863 
L 1656 3950 
L 538 3950 
L 538 4863 
z
" transform="scale(0.015625)"/>
      <path id="DejaVuSans-Bold-75" d="M 500 1363 
L 500 3500 
L 1625 3500 
L 1625 3150 
Q 1625 2866 1622 2436 
Q 1619 2006 1619 1863 
Q 1619 1441 1641 1255 
Q 1663 1069 1716 984 
Q 1784 875 1895 815 
Q 2006 756 2150 756 
Q 2500 756 2700 1025 
Q 2900 1294 2900 1772 
L 2900 3500 
L 4019 3500 
L 4019 0 
L 2900 0 
L 2900 506 
Q 2647 200 2364 54 
Q 2081 -91 1741 -91 
Q 1134 -91 817 281 
Q 500 653 500 1363 
z
" transform="scale(0.015625)"/>
     </defs>
     <use xlink:href="#DejaVuSans-Bold-47"/>
     <use xlink:href="#DejaVuSans-Bold-65" transform="translate(82.080078 0)"/>
     <use xlink:href="#DejaVuSans-Bold-72" transform="translate(149.902344 0)"/>
     <use xlink:href="#DejaVuSans-Bold-6d" transform="translate(199.21875 0)"/>
     <use xlink:href="#DejaVuSans-Bold-61" transform="translate(303.417969 0)"/>
     <use xlink:href="#DejaVuSans-Bold-72" transform="translate(370.898438 0)"/>
     <use xlink:href="#DejaVuSans-Bold-69" transform="translate(420.214844 0)"/>
     <use xlink:href="#DejaVuSans-Bold-75" transform="translate(454.492188 0)"/>
     <use xlink:href="#DejaVuSans-Bold-6d" transform="translate(525.683594 0)"/>
    </g>
   </g>
   <g id="text_2">
    <g id="patch_11">
     <path d="M 50.718462 107.721286 
L 108.678462 107.721286 
Q 110.078462 107.721286 110.078462 106.321286 
L 110.078462 83.869661 
Q 110.078462 82.469661 108.678462 82.469661 
L 50.718462 82.469661 
Q 49.318462 82.469661 49.318462 83.869661 
L 49.318462 106.321286 
Q 49.318462 107.721286 50.718462 107.721286 
z
" style="fill: #fff0f0; stroke: #b71c1c; stroke-linejoin: miter"/>
    </g>
    <!-- Niche (cap cells) -->
    <g style="fill: #b71c1c" transform="translate(50.718462 89.188567) scale(0.07 -0.07)">
     <defs>
      <path id="DejaVuSans-4e" d="M 628 4666 
L 1478 4666 
L 3547 763 
L 3547 4666 
L 4159 4666 
L 4159 0 
L 3309 0 
L 1241 3903 
L 1241 0 
L 628 0 
L 628 4666 
z
" transform="scale(0.015625)"/>
      <path id="DejaVuSans-69" d="M 603 3500 
L 1178 3500 
L 1178 0 
L 603 0 
L 603 3500 
z
M 603 4863 
L 1178 4863 
L 1178 4134 
L 603 4134 
L 603 4863 
z
" transform="scale(0.015625)"/>
      <path id="DejaVuSans-63" d="M 3122 3366 
L 3122 2828 
Q 2878 2963 2633 3030 
Q 2388 3097 2138 3097 
Q 1578 3097 1268 2742 
Q 959 2388 959 1747 
Q 959 1106 1268 751 
Q 1578 397 2138 397 
Q 2388 397 2633 464 
Q 2878 531 3122 666 
L 3122 134 
Q 2881 22 2623 -34 
Q 2366 -91 2075 -91 
Q 1284 -91 818 406 
Q 353 903 353 1747 
Q 353 2603 823 3093 
Q 1294 3584 2113 3584 
Q 2378 3584 2631 3529 
Q 2884 3475 3122 3366 
z
" transform="scale(0.015625)"/>
      <path id="DejaVuSans-68" d="M 3513 2113 
L 3513 0 
L 2938 0 
L 2938 2094 
Q 2938 2591 2744 2837 
Q 2550 3084 2163 3084 
Q 1697 3084 1428 2787 
Q 1159 2491 1159 1978 
L 1159 0 
L 581 0 
L 581 4863 
L 1159 4863 
L 1159 2956 
Q 1366 3272 1645 3428 
Q 1925 3584 2291 3584 
Q 2894 3584 3203 3211 
Q 3513 2838 3513 2113 
z
" transform="scale(0.015625)"/>
      <path id="DejaVuSans-65" d="M 3597 1894 
L 3597 1613 
L 953 1613 
Q 991 1019 1311 708 
Q 1631 397 2203 397 
Q 2534 397 2845 478 
Q 3156 559 3463 722 
L 3463 178 
Q 3153 47 2828 -22 
Q 2503 -91 2169 -91 
Q 1331 -91 842 396 
Q 353 884 353 1716 
Q 353 2575 817 3079 
Q 1281 3584 2069 3584 
Q 2775 3584 3186 3129 
Q 3597 2675 3597 1894 
z
M 3022 2063 
Q 3016 2534 2758 2815 
Q 2500 3097 2075 3097 
Q 1594 3097 1305 2825 
Q 1016 2553 972 2059 
L 3022 2063 
z
" transform="scale(0.015625)"/>
      <path id="DejaVuSans-20" transform="scale(0.015625)"/>
      <path id="DejaVuSans-28" d="M 1984 4856 
Q 1566 4138 1362 3434 
Q 1159 2731 1159 2009 
Q 1159 1288 1364 580 
Q 1569 -128 1984 -844 
L 1484 -844 
Q 1016 -109 783 600 
Q 550 1309 550 2009 
Q 550 2706 781 3412 
Q 1013 4119 1484 4856 
L 1984 4856 
z
" transform="scale(0.015625)"/>
      <path id="DejaVuSans-61" d="M 2194 1759 
Q 1497 1759 1228 1600 
Q 959 1441 959 1056 
Q 959 750 1161 570 
Q 1363 391 1709 391 
Q 2188 391 2477 730 
Q 2766 1069 2766 1631 
L 2766 1759 
L 2194 1759 
z
M 3341 1997 
L 3341 0 
L 2766 0 
L 2766 531 
Q 2569 213 2275 61 
Q 1981 -91 1556 -91 
Q 1019 -91 701 211 
Q 384 513 384 1019 
Q 384 1609 779 1909 
Q 1175 2209 1959 2209 
L 2766 2209 
L 2766 2266 
Q 2766 2663 2505 2880 
Q 2244 3097 1772 3097 
Q 1472 3097 1187 3025 
Q 903 2953 641 2809 
L 641 3341 
Q 956 3463 1253 3523 
Q 1550 3584 1831 3584 
Q 2591 3584 2966 3190 
Q 3341 2797 3341 1997 
z
" transform="scale(0.015625)"/>
      <path id="DejaVuSans-70" d="M 1159 525 
L 1159 -1331 
L 581 -1331 
L 581 3500 
L 1159 3500 
L 1159 2969 
Q 1341 3281 1617 3432 
Q 1894 3584 2278 3584 
Q 2916 3584 3314 3078 
Q 3713 2572 3713 1747 
Q 3713 922 3314 415 
Q 2916 -91 2278 -91 
Q 1894 -91 1617 61 
Q 1341 213 1159 525 
z
M 3116 1747 
Q 3116 2381 2855 2742 
Q 2594 3103 2138 3103 
Q 1681 3103 1420 2742 
Q 1159 2381 1159 1747 
Q 1159 1113 1420 752 
Q 1681 391 2138 391 
Q 2594 391 2855 752 
Q 3116 1113 3116 1747 
z
" transform="scale(0.015625)"/>
      <path id="DejaVuSans-6c" d="M 603 4863 
L 1178 4863 
L 1178 0 
L 603 0 
L 603 4863 
z
" transform="scale(0.015625)"/>
      <path id="DejaVuSans-73" d="M 2834 3397 
L 2834 2853 
Q 2591 2978 2328 3040 
Q 2066 3103 1784 3103 
Q 1356 3103 1142 2972 
Q 928 2841 928 2578 
Q 928 2378 1081 2264 
Q 1234 2150 1697 2047 
L 1894 2003 
Q 2506 1872 2764 1633 
Q 3022 1394 3022 966 
Q 3022 478 2636 193 
Q 2250 -91 1575 -91 
Q 1294 -91 989 -36 
Q 684 19 347 128 
L 347 722 
Q 666 556 975 473 
Q 1284 391 1588 391 
Q 1994 391 2212 530 
Q 2431 669 2431 922 
Q 2431 1156 2273 1281 
Q 2116 1406 1581 1522 
L 1381 1569 
Q 847 1681 609 1914 
Q 372 2147 372 2553 
Q 372 3047 722 3315 
Q 1072 3584 1716 3584 
Q 2034 3584 2315 3537 
Q 2597 3491 2834 3397 
z
" transform="scale(0.015625)"/>
      <path id="DejaVuSans-29" d="M 513 4856 
L 1013 4856 
Q 1481 4119 1714 3412 
Q 1947 2706 1947 2009 
Q 1947 1309 1714 600 
Q 1481 -109 1013 -844 
L 513 -844 
Q 928 -128 1133 580 
Q 1338 1288 1338 2009 
Q 1338 2731 1133 3434 
Q 928 4138 513 4856 
z
" transform="scale(0.015625)"/>
     </defs>
     <use xlink:href="#DejaVuSans-4e"/>
     <use xlink:href="#DejaVuSans-69" transform="translate(74.804688 0)"/>
     <use xlink:href="#DejaVuSans-63" transform="translate(102.587891 0)"/>
     <use xlink:href="#DejaVuSans-68" transform="translate(157.568359 0)"/>
     <use xlink:href="#DejaVuSans-65" transform="translate(220.947266 0)"/>
     <use xlink:href="#DejaVuSans-20" transform="translate(282.470703 0)"/>
     <use xlink:href="#DejaVuSans-28" transform="translate(314.257812 0)"/>
     <use xlink:href="#DejaVuSans-63" transform="translate(353.271484 0)"/>
     <use xlink:href="#DejaVuSans-61" transform="translate(408.251953 0)"/>
     <use xlink:href="#DejaVuSans-70" transform="translate(469.53125 0)"/>
     <use xlink:href="#DejaVuSans-20" transform="translate(533.007812 0)"/>
     <use xlink:href="#DejaVuSans-63" transform="translate(564.794922 0)"/>
     <use xlink:href="#DejaVuSans-65" transform="translate(619.775391 0)"/>
     <use xlink:href="#DejaVuSans-6c" transform="translate(681.298828 0)"/>
     <use xlink:href="#DejaVuSans-6c" transform="translate(709.082031 0)"/>
     <use xlink:href="#DejaVuSans-73" transform="translate(736.865234 0)"/>
     <use xlink:href="#DejaVuSans-29" transform="translate(788.964844 0)"/>
    </g>
    <!-- GSC -->
    <g style="fill: #b71c1c" transform="translate(72.320571 97.027036) scale(0.07 -0.07)">
     <defs>
      <path id="DejaVuSans-47" d="M 3809 666 
L 3809 1919 
L 2778 1919 
L 2778 2438 
L 4434 2438 
L 4434 434 
Q 4069 175 3628 42 
Q 3188 -91 2688 -91 
Q 1594 -91 976 548 
Q 359 1188 359 2328 
Q 359 3472 976 4111 
Q 1594 4750 2688 4750 
Q 3144 4750 3555 4637 
Q 3966 4525 4313 4306 
L 4313 3634 
Q 3963 3931 3569 4081 
Q 3175 4231 2741 4231 
Q 1884 4231 1454 3753 
Q 1025 3275 1025 2328 
Q 1025 1384 1454 906 
Q 1884 428 2741 428 
Q 3075 428 3337 486 
Q 3600 544 3809 666 
z
" transform="scale(0.015625)"/>
      <path id="DejaVuSans-53" d="M 3425 4513 
L 3425 3897 
Q 3066 4069 2747 4153 
Q 2428 4238 2131 4238 
Q 1616 4238 1336 4038 
Q 1056 3838 1056 3469 
Q 1056 3159 1242 3001 
Q 1428 2844 1947 2747 
L 2328 2669 
Q 3034 2534 3370 2195 
Q 3706 1856 3706 1288 
Q 3706 609 3251 259 
Q 2797 -91 1919 -91 
Q 1588 -91 1214 -16 
Q 841 59 441 206 
L 441 856 
Q 825 641 1194 531 
Q 1563 422 1919 422 
Q 2459 422 2753 634 
Q 3047 847 3047 1241 
Q 3047 1584 2836 1778 
Q 2625 1972 2144 2069 
L 1759 2144 
Q 1053 2284 737 2584 
Q 422 2884 422 3419 
Q 422 4038 858 4394 
Q 1294 4750 2059 4750 
Q 2388 4750 2728 4690 
Q 3069 4631 3425 4513 
z
" transform="scale(0.015625)"/>
      <path id="DejaVuSans-43" d="M 4122 4306 
L 4122 3641 
Q 3803 3938 3442 4084 
Q 3081 4231 2675 4231 
Q 1875 4231 1450 3742 
Q 1025 3253 1025 2328 
Q 1025 1406 1450 917 
Q 1875 428 2675 428 
Q 3081 428 3442 575 
Q 3803 722 4122 1019 
L 4122 359 
Q 3791 134 3420 21 
Q 3050 -91 2638 -91 
Q 1578 -91 968 557 
Q 359 1206 359 2328 
Q 359 3453 968 4101 
Q 1578 4750 2638 4750 
Q 3056 4750 3426 4639 
Q 3797 4528 4122 4306 
z
" transform="scale(0.015625)"/>
     </defs>
     <use xlink:href="#DejaVuSans-47"/>
     <use xlink:href="#DejaVuSans-53" transform="translate(77.490234 0)"/>
     <use xlink:href="#DejaVuSans-43" transform="translate(140.966797 0)"/>
    </g>
    <!-- Cystoblaste -->
    <g style="fill: #b71c1c" transform="translate(59.157837 104.865505) scale(0.07 -0.07)">
     <defs>
      <path id="DejaVuSans-79" d="M 2059 -325 
Q 1816 -950 1584 -1140 
Q 1353 -1331 966 -1331 
L 506 -1331 
L 506 -850 
L 844 -850 
Q 1081 -850 1212 -737 
Q 1344 -625 1503 -206 
L 1606 56 
L 191 3500 
L 800 3500 
L 1894 763 
L 2988 3500 
L 3597 3500 
L 2059 -325 
z
" transform="scale(0.015625)"/>
      <path id="DejaVuSans-74" d="M 1172 4494 
L 1172 3500 
L 2356 3500 
L 2356 3053 
L 1172 3053 
L 1172 1153 
Q 1172 725 1289 603 
Q 1406 481 1766 481 
L 2356 481 
L 2356 0 
L 1766 0 
Q 1100 0 847 248 
Q 594 497 594 1153 
L 594 3053 
L 172 3053 
L 172 3500 
L 594 3500 
L 594 4494 
L 1172 4494 
z
" transform="scale(0.015625)"/>
      <path id="DejaVuSans-6f" d="M 1959 3097 
Q 1497 3097 1228 2736 
Q 959 2375 959 1747 
Q 959 1119 1226 758 
Q 1494 397 1959 397 
Q 2419 397 2687 759 
Q 2956 1122 2956 1747 
Q 2956 2369 2687 2733 
Q 2419 3097 1959 3097 
z
M 1959 3584 
Q 2709 3584 3137 3096 
Q 3566 2609 3566 1747 
Q 3566 888 3137 398 
Q 2709 -91 1959 -91 
Q 1206 -91 779 398 
Q 353 888 353 1747 
Q 353 2609 779 3096 
Q 1206 3584 1959 3584 
z
" transform="scale(0.015625)"/>
      <path id="DejaVuSans-62" d="M 3116 1747 
Q 3116 2381 2855 2742 
Q 2594 3103 2138 3103 
Q 1681 3103 1420 2742 
Q 1159 2381 1159 1747 
Q 1159 1113 1420 752 
Q 1681 391 2138 391 
Q 2594 391 2855 752 
Q 3116 1113 3116 1747 
z
M 1159 2969 
Q 1341 3281 1617 3432 
Q 1894 3584 2278 3584 
Q 2916 3584 3314 3078 
Q 3713 2572 3713 1747 
Q 3713 922 3314 415 
Q 2916 -91 2278 -91 
Q 1894 -91 1617 61 
Q 1341 213 1159 525 
L 1159 0 
L 581 0 
L 581 4863 
L 1159 4863 
L 1159 2969 
z
" transform="scale(0.015625)"/>
     </defs>
     <use xlink:href="#DejaVuSans-43"/>
     <use xlink:href="#DejaVuSans-79" transform="translate(69.824219 0)"/>
     <use xlink:href="#DejaVuSans-73" transform="translate(129.003906 0)"/>
     <use xlink:href="#DejaVuSans-74" transform="translate(181.103516 0)"/>
     <use xlink:href="#DejaVuSans-6f" transform="translate(220.3125 0)"/>
     <use xlink:href="#DejaVuSans-62" transform="translate(281.494141 0)"/>
     <use xlink:href="#DejaVuSans-6c" transform="translate(344.970703 0)"/>
     <use xlink:href="#DejaVuSans-61" transform="translate(372.753906 0)"/>
     <use xlink:href="#DejaVuSans-73" transform="translate(434.033203 0)"/>
     <use xlink:href="#DejaVuSans-74" transform="translate(486.132812 0)"/>
     <use xlink:href="#DejaVuSans-65" transform="translate(525.341797 0)"/>
    </g>
   </g>
   <g id="patch_12">
    <path d="M 79.698462 121.7933 
Q 79.698462 130.456341 79.698462 138.001348 
" style="fill: none; stroke: #b71c1c; stroke-linecap: round"/>
    <path d="M 81.698462 134.001348 
L 79.698462 138.001348 
L 77.698462 134.001348 
" style="fill: none; stroke: #b71c1c; stroke-linecap: round"/>
   </g>
   <g id="patch_13">
    <path d="M 156.461538 209.348582 
C 163.671595 209.348582 170.587316 205.529134 175.685596 198.731428 
C 180.783876 191.933722 183.648462 182.712759 183.648462 173.099351 
C 183.648462 163.485943 180.783876 154.26498 175.685596 147.467274 
C 170.587316 140.669568 163.671595 136.85012 156.461538 136.85012 
C 149.251482 136.85012 142.33576 140.669568 137.237481 147.467274 
C 132.139201 154.26498 129.274615 163.485943 129.274615 173.099351 
C 129.274615 182.712759 132.139201 191.933722 137.237481 198.731428 
C 142.33576 205.529134 149.251482 209.348582 156.461538 209.348582 
z
" clip-path="url(#p316604c749)" style="fill: #d1c4e9"/>
   </g>
   <g id="text_3">
    <!-- St.2-4 -->
    <g style="fill: #333333" transform="translate(142.923413 228.539351) scale(0.08 -0.08)">
     <defs>
      <path id="DejaVuSans-Bold-53" d="M 3834 4519 
L 3834 3531 
Q 3450 3703 3084 3790 
Q 2719 3878 2394 3878 
Q 1963 3878 1756 3759 
Q 1550 3641 1550 3391 
Q 1550 3203 1689 3098 
Q 1828 2994 2194 2919 
L 2706 2816 
Q 3484 2659 3812 2340 
Q 4141 2022 4141 1434 
Q 4141 663 3683 286 
Q 3225 -91 2284 -91 
Q 1841 -91 1394 -6 
Q 947 78 500 244 
L 500 1259 
Q 947 1022 1364 901 
Q 1781 781 2169 781 
Q 2563 781 2772 912 
Q 2981 1044 2981 1288 
Q 2981 1506 2839 1625 
Q 2697 1744 2272 1838 
L 1806 1941 
Q 1106 2091 782 2419 
Q 459 2747 459 3303 
Q 459 4000 909 4375 
Q 1359 4750 2203 4750 
Q 2588 4750 2994 4692 
Q 3400 4634 3834 4519 
z
" transform="scale(0.015625)"/>
      <path id="DejaVuSans-Bold-74" d="M 1759 4494 
L 1759 3500 
L 2913 3500 
L 2913 2700 
L 1759 2700 
L 1759 1216 
Q 1759 972 1856 886 
Q 1953 800 2241 800 
L 2816 800 
L 2816 0 
L 1856 0 
Q 1194 0 917 276 
Q 641 553 641 1216 
L 641 2700 
L 84 2700 
L 84 3500 
L 641 3500 
L 641 4494 
L 1759 4494 
z
" transform="scale(0.015625)"/>
      <path id="DejaVuSans-Bold-2e" d="M 653 1209 
L 1778 1209 
L 1778 0 
L 653 0 
L 653 1209 
z
" transform="scale(0.015625)"/>
      <path id="DejaVuSans-Bold-32" d="M 1844 884 
L 3897 884 
L 3897 0 
L 506 0 
L 506 884 
L 2209 2388 
Q 2438 2594 2547 2791 
Q 2656 2988 2656 3200 
Q 2656 3528 2436 3728 
Q 2216 3928 1850 3928 
Q 1569 3928 1234 3808 
Q 900 3688 519 3450 
L 519 4475 
Q 925 4609 1322 4679 
Q 1719 4750 2100 4750 
Q 2938 4750 3402 4381 
Q 3866 4013 3866 3353 
Q 3866 2972 3669 2642 
Q 3472 2313 2841 1759 
L 1844 884 
z
" transform="scale(0.015625)"/>
      <path id="DejaVuSans-Bold-2d" d="M 347 2297 
L 2309 2297 
L 2309 1388 
L 347 1388 
L 347 2297 
z
" transform="scale(0.015625)"/>
      <path id="DejaVuSans-Bold-34" d="M 2356 3675 
L 1038 1722 
L 2356 1722 
L 2356 3675 
z
M 2156 4666 
L 3494 4666 
L 3494 1722 
L 4159 1722 
L 4159 850 
L 3494 850 
L 3494 0 
L 2356 0 
L 2356 850 
L 288 850 
L 288 1881 
L 2156 4666 
z
" transform="scale(0.015625)"/>
     </defs>
     <use xlink:href="#DejaVuSans-Bold-53"/>
     <use xlink:href="#DejaVuSans-Bold-74" transform="translate(72.021484 0)"/>
     <use xlink:href="#DejaVuSans-Bold-2e" transform="translate(119.824219 0)"/>
     <use xlink:href="#DejaVuSans-Bold-32" transform="translate(157.8125 0)"/>
     <use xlink:href="#DejaVuSans-Bold-2d" transform="translate(227.392578 0)"/>
     <use xlink:href="#DejaVuSans-Bold-34" transform="translate(268.896484 0)"/>
    </g>
   </g>
   <g id="patch_14">
    <path d="M 241.753846 220.01012 
C 251.084507 220.01012 260.034265 215.067306 266.632038 206.270274 
C 273.229812 197.473242 276.936923 185.540232 276.936923 173.099351 
C 276.936923 160.65847 273.229812 148.72546 266.632038 139.928428 
C 260.034265 131.131396 251.084507 126.188582 241.753846 126.188582 
C 232.423185 126.188582 223.473428 131.131396 216.875654 139.928428 
C 210.27788 148.72546 206.570769 160.65847 206.570769 173.099351 
C 206.570769 185.540232 210.27788 197.473242 216.875654 206.270274 
C 223.473428 215.067306 232.423185 220.01012 241.753846 220.01012 
z
" clip-path="url(#p316604c749)" style="fill: #d1c4e9"/>
   </g>
   <g id="text_4">
    <!-- St.5-6 -->
    <g style="fill: #333333" transform="translate(228.215721 239.200889) scale(0.08 -0.08)">
     <defs>
      <path id="DejaVuSans-Bold-35" d="M 678 4666 
L 3669 4666 
L 3669 3781 
L 1638 3781 
L 1638 3059 
Q 1775 3097 1914 3117 
Q 2053 3138 2203 3138 
Q 3056 3138 3531 2711 
Q 4006 2284 4006 1522 
Q 4006 766 3489 337 
Q 2972 -91 2053 -91 
Q 1656 -91 1267 -14 
Q 878 63 494 219 
L 494 1166 
Q 875 947 1217 837 
Q 1559 728 1863 728 
Q 2300 728 2551 942 
Q 2803 1156 2803 1522 
Q 2803 1891 2551 2103 
Q 2300 2316 1863 2316 
Q 1603 2316 1309 2248 
Q 1016 2181 678 2041 
L 678 4666 
z
" transform="scale(0.015625)"/>
      <path id="DejaVuSans-Bold-36" d="M 2316 2303 
Q 2000 2303 1842 2098 
Q 1684 1894 1684 1484 
Q 1684 1075 1842 870 
Q 2000 666 2316 666 
Q 2634 666 2792 870 
Q 2950 1075 2950 1484 
Q 2950 1894 2792 2098 
Q 2634 2303 2316 2303 
z
M 3803 4544 
L 3803 3681 
Q 3506 3822 3243 3889 
Q 2981 3956 2731 3956 
Q 2194 3956 1894 3657 
Q 1594 3359 1544 2772 
Q 1750 2925 1990 3001 
Q 2231 3078 2516 3078 
Q 3231 3078 3670 2659 
Q 4109 2241 4109 1563 
Q 4109 813 3618 361 
Q 3128 -91 2303 -91 
Q 1394 -91 895 523 
Q 397 1138 397 2266 
Q 397 3422 980 4083 
Q 1563 4744 2578 4744 
Q 2900 4744 3203 4694 
Q 3506 4644 3803 4544 
z
" transform="scale(0.015625)"/>
     </defs>
     <use xlink:href="#DejaVuSans-Bold-53"/>
     <use xlink:href="#DejaVuSans-Bold-74" transform="translate(72.021484 0)"/>
     <use xlink:href="#DejaVuSans-Bold-2e" transform="translate(119.824219 0)"/>
     <use xlink:href="#DejaVuSans-Bold-35" transform="translate(157.8125 0)"/>
     <use xlink:href="#DejaVuSans-Bold-2d" transform="translate(227.392578 0)"/>
     <use xlink:href="#DejaVuSans-Bold-36" transform="translate(268.896484 0)"/>
    </g>
   </g>
   <g id="patch_15">
    <path d="M 348.369231 237.068582 
C 361.092859 237.068582 373.297074 230.32838 382.294038 218.332428 
C 391.291003 206.336476 396.346154 190.064189 396.346154 173.099351 
C 396.346154 156.134513 391.291003 139.862226 382.294038 127.866274 
C 373.297074 115.870322 361.092859 109.13012 348.369231 109.13012 
C 335.645602 109.13012 323.441387 115.870322 314.444423 127.866274 
C 305.447459 139.862226 300.392308 156.134513 300.392308 173.099351 
C 300.392308 190.064189 305.447459 206.336476 314.444423 218.332428 
C 323.441387 230.32838 335.645602 237.068582 348.369231 237.068582 
z
" clip-path="url(#p316604c749)" style="fill: #d1c4e9"/>
   </g>
   <g id="text_5">
    <!-- St.7-8 -->
    <g style="fill: #333333" transform="translate(334.831106 256.259351) scale(0.08 -0.08)">
     <defs>
      <path id="DejaVuSans-Bold-37" d="M 428 4666 
L 3944 4666 
L 3944 3988 
L 2125 0 
L 953 0 
L 2675 3781 
L 428 3781 
L 428 4666 
z
" transform="scale(0.015625)"/>
      <path id="DejaVuSans-Bold-38" d="M 2228 2088 
Q 1891 2088 1709 1903 
Q 1528 1719 1528 1375 
Q 1528 1031 1709 848 
Q 1891 666 2228 666 
Q 2563 666 2741 848 
Q 2919 1031 2919 1375 
Q 2919 1722 2741 1905 
Q 2563 2088 2228 2088 
z
M 1350 2484 
Q 925 2613 709 2878 
Q 494 3144 494 3541 
Q 494 4131 934 4440 
Q 1375 4750 2228 4750 
Q 3075 4750 3515 4442 
Q 3956 4134 3956 3541 
Q 3956 3144 3739 2878 
Q 3522 2613 3097 2484 
Q 3572 2353 3814 2058 
Q 4056 1763 4056 1313 
Q 4056 619 3595 264 
Q 3134 -91 2228 -91 
Q 1319 -91 855 264 
Q 391 619 391 1313 
Q 391 1763 633 2058 
Q 875 2353 1350 2484 
z
M 1631 3419 
Q 1631 3141 1786 2991 
Q 1941 2841 2228 2841 
Q 2509 2841 2662 2991 
Q 2816 3141 2816 3419 
Q 2816 3697 2662 3845 
Q 2509 3994 2228 3994 
Q 1941 3994 1786 3844 
Q 1631 3694 1631 3419 
z
" transform="scale(0.015625)"/>
     </defs>
     <use xlink:href="#DejaVuSans-Bold-53"/>
     <use xlink:href="#DejaVuSans-Bold-74" transform="translate(72.021484 0)"/>
     <use xlink:href="#DejaVuSans-Bold-2e" transform="translate(119.824219 0)"/>
     <use xlink:href="#DejaVuSans-Bold-37" transform="translate(157.8125 0)"/>
     <use xlink:href="#DejaVuSans-Bold-2d" transform="translate(227.392578 0)"/>
     <use xlink:href="#DejaVuSans-Bold-38" transform="translate(268.896484 0)"/>
    </g>
   </g>
   <g id="patch_16">
    <path d="M 476.307692 254.127043 
C 492.424289 254.127043 507.882961 245.589454 519.279115 230.394582 
C 530.67527 215.199709 537.078462 194.588146 537.078462 173.099351 
C 537.078462 151.610556 530.67527 130.998993 519.279115 115.80412 
C 507.882961 100.609247 492.424289 92.071659 476.307692 92.071659 
C 460.191096 92.071659 444.732424 100.609247 433.336269 115.80412 
C 421.940115 130.998993 415.536923 151.610556 415.536923 173.099351 
C 415.536923 194.588146 421.940115 215.199709 433.336269 230.394582 
C 444.732424 245.589454 460.191096 254.127043 476.307692 254.127043 
z
" clip-path="url(#p316604c749)" style="fill: #d1c4e9"/>
   </g>
   <g id="text_6">
    <!-- St.9-10 -->
    <g style="fill: #333333" transform="translate(459.986442 273.317813) scale(0.08 -0.08)">
     <defs>
      <path id="DejaVuSans-Bold-39" d="M 641 103 
L 641 966 
Q 928 831 1190 764 
Q 1453 697 1709 697 
Q 2247 697 2547 995 
Q 2847 1294 2900 1881 
Q 2688 1725 2447 1647 
Q 2206 1569 1925 1569 
Q 1209 1569 770 1986 
Q 331 2403 331 3084 
Q 331 3838 820 4291 
Q 1309 4744 2131 4744 
Q 3044 4744 3544 4128 
Q 4044 3513 4044 2388 
Q 4044 1231 3459 570 
Q 2875 -91 1856 -91 
Q 1528 -91 1228 -42 
Q 928 6 641 103 
z
M 2125 2350 
Q 2441 2350 2600 2554 
Q 2759 2759 2759 3169 
Q 2759 3575 2600 3781 
Q 2441 3988 2125 3988 
Q 1809 3988 1650 3781 
Q 1491 3575 1491 3169 
Q 1491 2759 1650 2554 
Q 1809 2350 2125 2350 
z
" transform="scale(0.015625)"/>
      <path id="DejaVuSans-Bold-31" d="M 750 831 
L 1813 831 
L 1813 3847 
L 722 3622 
L 722 4441 
L 1806 4666 
L 2950 4666 
L 2950 831 
L 4013 831 
L 4013 0 
L 750 0 
L 750 831 
z
" transform="scale(0.015625)"/>
      <path id="DejaVuSans-Bold-30" d="M 2944 2338 
Q 2944 3213 2780 3570 
Q 2616 3928 2228 3928 
Q 1841 3928 1675 3570 
Q 1509 3213 1509 2338 
Q 1509 1453 1675 1090 
Q 1841 728 2228 728 
Q 2613 728 2778 1090 
Q 2944 1453 2944 2338 
z
M 4147 2328 
Q 4147 1169 3647 539 
Q 3147 -91 2228 -91 
Q 1306 -91 806 539 
Q 306 1169 306 2328 
Q 306 3491 806 4120 
Q 1306 4750 2228 4750 
Q 3147 4750 3647 4120 
Q 4147 3491 4147 2328 
z
" transform="scale(0.015625)"/>
     </defs>
     <use xlink:href="#DejaVuSans-Bold-53"/>
     <use xlink:href="#DejaVuSans-Bold-74" transform="translate(72.021484 0)"/>
     <use xlink:href="#DejaVuSans-Bold-2e" transform="translate(119.824219 0)"/>
     <use xlink:href="#DejaVuSans-Bold-39" transform="translate(157.8125 0)"/>
     <use xlink:href="#DejaVuSans-Bold-2d" transform="translate(227.392578 0)"/>
     <use xlink:href="#DejaVuSans-Bold-31" transform="translate(268.896484 0)"/>
     <use xlink:href="#DejaVuSans-Bold-30" transform="translate(338.476562 0)"/>
    </g>
   </g>
   <g id="patch_17">
    <path d="M 625.569231 275.45012 
C 645.927037 275.45012 665.45378 264.665797 679.848923 245.472274 
C 694.244066 226.27875 702.332308 200.243092 702.332308 173.099351 
C 702.332308 145.95561 694.244066 119.919952 679.848923 100.726428 
C 665.45378 81.532904 645.927037 70.748582 625.569231 70.748582 
C 605.211425 70.748582 585.684681 81.532904 571.289539 100.726428 
C 556.894396 119.919952 548.806154 145.95561 548.806154 173.099351 
C 548.806154 200.243092 556.894396 226.27875 571.289539 245.472274 
C 585.684681 264.665797 605.211425 275.45012 625.569231 275.45012 
z
" clip-path="url(#p316604c749)" style="fill: #d1c4e9"/>
   </g>
   <g id="text_7">
    <!-- St.14 -->
    <g style="fill: #333333" transform="translate(613.691106 285.682639) scale(0.08 -0.08)">
     <use xlink:href="#DejaVuSans-Bold-53"/>
     <use xlink:href="#DejaVuSans-Bold-74" transform="translate(72.021484 0)"/>
     <use xlink:href="#DejaVuSans-Bold-2e" transform="translate(119.824219 0)"/>
     <use xlink:href="#DejaVuSans-Bold-31" transform="translate(157.8125 0)"/>
     <use xlink:href="#DejaVuSans-Bold-34" transform="translate(227.392578 0)"/>
    </g>
    <!-- (mature) -->
    <g style="fill: #333333" transform="translate(605.600481 294.640889) scale(0.08 -0.08)">
     <defs>
      <path id="DejaVuSans-Bold-28" d="M 2413 -844 
L 1484 -844 
Q 1006 -72 778 623 
Q 550 1319 550 2003 
Q 550 2688 779 3389 
Q 1009 4091 1484 4856 
L 2413 4856 
Q 2013 4116 1813 3408 
Q 1613 2700 1613 2009 
Q 1613 1319 1811 609 
Q 2009 -100 2413 -844 
z
" transform="scale(0.015625)"/>
      <path id="DejaVuSans-Bold-29" d="M 513 -844 
Q 913 -100 1113 609 
Q 1313 1319 1313 2009 
Q 1313 2700 1113 3408 
Q 913 4116 513 4856 
L 1441 4856 
Q 1916 4091 2145 3389 
Q 2375 2688 2375 2003 
Q 2375 1319 2147 623 
Q 1919 -72 1441 -844 
L 513 -844 
z
" transform="scale(0.015625)"/>
     </defs>
     <use xlink:href="#DejaVuSans-Bold-28"/>
     <use xlink:href="#DejaVuSans-Bold-6d" transform="translate(45.703125 0)"/>
     <use xlink:href="#DejaVuSans-Bold-61" transform="translate(149.902344 0)"/>
     <use xlink:href="#DejaVuSans-Bold-74" transform="translate(217.382812 0)"/>
     <use xlink:href="#DejaVuSans-Bold-75" transform="translate(265.185547 0)"/>
     <use xlink:href="#DejaVuSans-Bold-72" transform="translate(336.376953 0)"/>
     <use xlink:href="#DejaVuSans-Bold-65" transform="translate(385.693359 0)"/>
     <use xlink:href="#DejaVuSans-Bold-29" transform="translate(453.515625 0)"/>
    </g>
   </g>
   <g id="patch_18">
    <path d="M 51.842264 279.714736 
Q 369.690557 279.714736 685.302782 279.714736 
" style="fill: none; stroke: #333333; stroke-width: 2; stroke-linecap: round"/>
    <path d="M 681.302782 277.714736 
L 685.302782 279.714736 
L 681.302782 281.714736 
" style="fill: none; stroke: #333333; stroke-width: 2; stroke-linecap: round"/>
   </g>
   <g id="text_8">
    <!-- Direction de maturation -->
    <g style="fill: #333333" transform="translate(315.895511 292.508582) scale(0.09 -0.09)">
     <defs>
      <path id="DejaVuSans-44" d="M 1259 4147 
L 1259 519 
L 2022 519 
Q 2988 519 3436 956 
Q 3884 1394 3884 2338 
Q 3884 3275 3436 3711 
Q 2988 4147 2022 4147 
L 1259 4147 
z
M 628 4666 
L 1925 4666 
Q 3281 4666 3915 4102 
Q 4550 3538 4550 2338 
Q 4550 1131 3912 565 
Q 3275 0 1925 0 
L 628 0 
L 628 4666 
z
" transform="scale(0.015625)"/>
      <path id="DejaVuSans-72" d="M 2631 2963 
Q 2534 3019 2420 3045 
Q 2306 3072 2169 3072 
Q 1681 3072 1420 2755 
Q 1159 2438 1159 1844 
L 1159 0 
L 581 0 
L 581 3500 
L 1159 3500 
L 1159 2956 
Q 1341 3275 1631 3429 
Q 1922 3584 2338 3584 
Q 2397 3584 2469 3576 
Q 2541 3569 2628 3553 
L 2631 2963 
z
" transform="scale(0.015625)"/>
      <path id="DejaVuSans-6e" d="M 3513 2113 
L 3513 0 
L 2938 0 
L 2938 2094 
Q 2938 2591 2744 2837 
Q 2550 3084 2163 3084 
Q 1697 3084 1428 2787 
Q 1159 2491 1159 1978 
L 1159 0 
L 581 0 
L 581 3500 
L 1159 3500 
L 1159 2956 
Q 1366 3272 1645 3428 
Q 1925 3584 2291 3584 
Q 2894 3584 3203 3211 
Q 3513 2838 3513 2113 
z
" transform="scale(0.015625)"/>
      <path id="DejaVuSans-64" d="M 2906 2969 
L 2906 4863 
L 3481 4863 
L 3481 0 
L 2906 0 
L 2906 525 
Q 2725 213 2448 61 
Q 2172 -91 1784 -91 
Q 1150 -91 751 415 
Q 353 922 353 1747 
Q 353 2572 751 3078 
Q 1150 3584 1784 3584 
Q 2172 3584 2448 3432 
Q 2725 3281 2906 2969 
z
M 947 1747 
Q 947 1113 1208 752 
Q 1469 391 1925 391 
Q 2381 391 2643 752 
Q 2906 1113 2906 1747 
Q 2906 2381 2643 2742 
Q 2381 3103 1925 3103 
Q 1469 3103 1208 2742 
Q 947 2381 947 1747 
z
" transform="scale(0.015625)"/>
      <path id="DejaVuSans-6d" d="M 3328 2828 
Q 3544 3216 3844 3400 
Q 4144 3584 4550 3584 
Q 5097 3584 5394 3201 
Q 5691 2819 5691 2113 
L 5691 0 
L 5113 0 
L 5113 2094 
Q 5113 2597 4934 2840 
Q 4756 3084 4391 3084 
Q 3944 3084 3684 2787 
Q 3425 2491 3425 1978 
L 3425 0 
L 2847 0 
L 2847 2094 
Q 2847 2600 2669 2842 
Q 2491 3084 2119 3084 
Q 1678 3084 1418 2786 
Q 1159 2488 1159 1978 
L 1159 0 
L 581 0 
L 581 3500 
L 1159 3500 
L 1159 2956 
Q 1356 3278 1631 3431 
Q 1906 3584 2284 3584 
Q 2666 3584 2933 3390 
Q 3200 3197 3328 2828 
z
" transform="scale(0.015625)"/>
      <path id="DejaVuSans-75" d="M 544 1381 
L 544 3500 
L 1119 3500 
L 1119 1403 
Q 1119 906 1312 657 
Q 1506 409 1894 409 
Q 2359 409 2629 706 
Q 2900 1003 2900 1516 
L 2900 3500 
L 3475 3500 
L 3475 0 
L 2900 0 
L 2900 538 
Q 2691 219 2414 64 
Q 2138 -91 1772 -91 
Q 1169 -91 856 284 
Q 544 659 544 1381 
z
M 1991 3584 
L 1991 3584 
z
" transform="scale(0.015625)"/>
     </defs>
     <use xlink:href="#DejaVuSans-44"/>
     <use xlink:href="#DejaVuSans-69" transform="translate(77.001953 0)"/>
     <use xlink:href="#DejaVuSans-72" transform="translate(104.785156 0)"/>
     <use xlink:href="#DejaVuSans-65" transform="translate(143.648438 0)"/>
     <use xlink:href="#DejaVuSans-63" transform="translate(205.171875 0)"/>
     <use xlink:href="#DejaVuSans-74" transform="translate(260.152344 0)"/>
     <use xlink:href="#DejaVuSans-69" transform="translate(299.361328 0)"/>
     <use xlink:href="#DejaVuSans-6f" transform="translate(327.144531 0)"/>
     <use xlink:href="#DejaVuSans-6e" transform="translate(388.326172 0)"/>
     <use xlink:href="#DejaVuSans-20" transform="translate(451.705078 0)"/>
     <use xlink:href="#DejaVuSans-64" transform="translate(483.492188 0)"/>
     <use xlink:href="#DejaVuSans-65" transform="translate(546.96875 0)"/>
     <use xlink:href="#DejaVuSans-20" transform="translate(608.492188 0)"/>
     <use xlink:href="#DejaVuSans-6d" transform="translate(640.279297 0)"/>
     <use xlink:href="#DejaVuSans-61" transform="translate(737.691406 0)"/>
     <use xlink:href="#DejaVuSans-74" transform="translate(798.970703 0)"/>
     <use xlink:href="#DejaVuSans-75" transform="translate(838.179688 0)"/>
     <use xlink:href="#DejaVuSans-72" transform="translate(901.558594 0)"/>
     <use xlink:href="#DejaVuSans-61" transform="translate(942.671875 0)"/>
     <use xlink:href="#DejaVuSans-74" transform="translate(1003.951172 0)"/>
     <use xlink:href="#DejaVuSans-69" transform="translate(1043.160156 0)"/>
     <use xlink:href="#DejaVuSans-6f" transform="translate(1070.943359 0)"/>
     <use xlink:href="#DejaVuSans-6e" transform="translate(1132.125 0)"/>
    </g>
   </g>
   <g id="text_9">
    <!-- Structure d'un ovariole de Drosophila melanogaster -->
    <g style="fill: #1a237e" transform="translate(164.256526 17.837812) scale(0.14 -0.14)">
     <defs>
      <path id="DejaVuSans-Bold-63" d="M 3366 3391 
L 3366 2478 
Q 3138 2634 2908 2709 
Q 2678 2784 2431 2784 
Q 1963 2784 1702 2511 
Q 1441 2238 1441 1747 
Q 1441 1256 1702 982 
Q 1963 709 2431 709 
Q 2694 709 2930 787 
Q 3166 866 3366 1019 
L 3366 103 
Q 3103 6 2833 -42 
Q 2563 -91 2291 -91 
Q 1344 -91 809 395 
Q 275 881 275 1747 
Q 275 2613 809 3098 
Q 1344 3584 2291 3584 
Q 2566 3584 2833 3536 
Q 3100 3488 3366 3391 
z
" transform="scale(0.015625)"/>
      <path id="DejaVuSans-Bold-20" transform="scale(0.015625)"/>
      <path id="DejaVuSans-Bold-64" d="M 2919 2988 
L 2919 4863 
L 4044 4863 
L 4044 0 
L 2919 0 
L 2919 506 
Q 2688 197 2409 53 
Q 2131 -91 1766 -91 
Q 1119 -91 703 423 
Q 288 938 288 1747 
Q 288 2556 703 3070 
Q 1119 3584 1766 3584 
Q 2128 3584 2408 3439 
Q 2688 3294 2919 2988 
z
M 2181 722 
Q 2541 722 2730 984 
Q 2919 1247 2919 1747 
Q 2919 2247 2730 2509 
Q 2541 2772 2181 2772 
Q 1825 2772 1636 2509 
Q 1447 2247 1447 1747 
Q 1447 1247 1636 984 
Q 1825 722 2181 722 
z
" transform="scale(0.015625)"/>
      <path id="DejaVuSans-Bold-27" d="M 1350 4666 
L 1350 2931 
L 609 2931 
L 609 4666 
L 1350 4666 
z
" transform="scale(0.015625)"/>
      <path id="DejaVuSans-Bold-6e" d="M 4056 2131 
L 4056 0 
L 2931 0 
L 2931 347 
L 2931 1631 
Q 2931 2084 2911 2256 
Q 2891 2428 2841 2509 
Q 2775 2619 2662 2680 
Q 2550 2741 2406 2741 
Q 2056 2741 1856 2470 
Q 1656 2200 1656 1722 
L 1656 0 
L 538 0 
L 538 3500 
L 1656 3500 
L 1656 2988 
Q 1909 3294 2193 3439 
Q 2478 3584 2822 3584 
Q 3428 3584 3742 3212 
Q 4056 2841 4056 2131 
z
" transform="scale(0.015625)"/>
      <path id="DejaVuSans-Bold-6f" d="M 2203 2784 
Q 1831 2784 1636 2517 
Q 1441 2250 1441 1747 
Q 1441 1244 1636 976 
Q 1831 709 2203 709 
Q 2569 709 2762 976 
Q 2956 1244 2956 1747 
Q 2956 2250 2762 2517 
Q 2569 2784 2203 2784 
z
M 2203 3584 
Q 3106 3584 3614 3096 
Q 4122 2609 4122 1747 
Q 4122 884 3614 396 
Q 3106 -91 2203 -91 
Q 1297 -91 786 396 
Q 275 884 275 1747 
Q 275 2609 786 3096 
Q 1297 3584 2203 3584 
z
" transform="scale(0.015625)"/>
      <path id="DejaVuSans-Bold-76" d="M 97 3500 
L 1216 3500 
L 2088 1081 
L 2956 3500 
L 4078 3500 
L 2700 0 
L 1472 0 
L 97 3500 
z
" transform="scale(0.015625)"/>
      <path id="DejaVuSans-Bold-6c" d="M 538 4863 
L 1656 4863 
L 1656 0 
L 538 0 
L 538 4863 
z
" transform="scale(0.015625)"/>
      <path id="DejaVuSans-Bold-44" d="M 1791 3756 
L 1791 909 
L 2222 909 
Q 2959 909 3348 1275 
Q 3738 1641 3738 2338 
Q 3738 3031 3350 3393 
Q 2963 3756 2222 3756 
L 1791 3756 
z
M 588 4666 
L 1856 4666 
Q 2919 4666 3439 4514 
Q 3959 4363 4331 4000 
Q 4659 3684 4818 3271 
Q 4978 2859 4978 2338 
Q 4978 1809 4818 1395 
Q 4659 981 4331 666 
Q 3956 303 3431 151 
Q 2906 0 1856 0 
L 588 0 
L 588 4666 
z
" transform="scale(0.015625)"/>
      <path id="DejaVuSans-Bold-73" d="M 3272 3391 
L 3272 2541 
Q 2913 2691 2578 2766 
Q 2244 2841 1947 2841 
Q 1628 2841 1473 2761 
Q 1319 2681 1319 2516 
Q 1319 2381 1436 2309 
Q 1553 2238 1856 2203 
L 2053 2175 
Q 2913 2066 3209 1816 
Q 3506 1566 3506 1031 
Q 3506 472 3093 190 
Q 2681 -91 1863 -91 
Q 1516 -91 1145 -36 
Q 775 19 384 128 
L 384 978 
Q 719 816 1070 734 
Q 1422 653 1784 653 
Q 2113 653 2278 743 
Q 2444 834 2444 1013 
Q 2444 1163 2330 1236 
Q 2216 1309 1875 1350 
L 1678 1375 
Q 931 1469 631 1722 
Q 331 1975 331 2491 
Q 331 3047 712 3315 
Q 1094 3584 1881 3584 
Q 2191 3584 2531 3537 
Q 2872 3491 3272 3391 
z
" transform="scale(0.015625)"/>
      <path id="DejaVuSans-Bold-70" d="M 1656 506 
L 1656 -1331 
L 538 -1331 
L 538 3500 
L 1656 3500 
L 1656 2988 
Q 1888 3294 2169 3439 
Q 2450 3584 2816 3584 
Q 3463 3584 3878 3070 
Q 4294 2556 4294 1747 
Q 4294 938 3878 423 
Q 3463 -91 2816 -91 
Q 2450 -91 2169 54 
Q 1888 200 1656 506 
z
M 2400 2772 
Q 2041 2772 1848 2508 
Q 1656 2244 1656 1747 
Q 1656 1250 1848 986 
Q 2041 722 2400 722 
Q 2759 722 2948 984 
Q 3138 1247 3138 1747 
Q 3138 2247 2948 2509 
Q 2759 2772 2400 2772 
z
" transform="scale(0.015625)"/>
      <path id="DejaVuSans-Bold-68" d="M 4056 2131 
L 4056 0 
L 2931 0 
L 2931 347 
L 2931 1625 
Q 2931 2084 2911 2256 
Q 2891 2428 2841 2509 
Q 2775 2619 2662 2680 
Q 2550 2741 2406 2741 
Q 2056 2741 1856 2470 
Q 1656 2200 1656 1722 
L 1656 0 
L 538 0 
L 538 4863 
L 1656 4863 
L 1656 2988 
Q 1909 3294 2193 3439 
Q 2478 3584 2822 3584 
Q 3428 3584 3742 3212 
Q 4056 2841 4056 2131 
z
" transform="scale(0.015625)"/>
      <path id="DejaVuSans-Bold-67" d="M 2919 594 
Q 2688 288 2409 144 
Q 2131 0 1766 0 
Q 1125 0 706 504 
Q 288 1009 288 1791 
Q 288 2575 706 3076 
Q 1125 3578 1766 3578 
Q 2131 3578 2409 3434 
Q 2688 3291 2919 2981 
L 2919 3500 
L 4044 3500 
L 4044 353 
Q 4044 -491 3511 -936 
Q 2978 -1381 1966 -1381 
Q 1638 -1381 1331 -1331 
Q 1025 -1281 716 -1178 
L 716 -306 
Q 1009 -475 1290 -558 
Q 1572 -641 1856 -641 
Q 2406 -641 2662 -400 
Q 2919 -159 2919 353 
L 2919 594 
z
M 2181 2772 
Q 1834 2772 1640 2515 
Q 1447 2259 1447 1791 
Q 1447 1309 1634 1061 
Q 1822 813 2181 813 
Q 2531 813 2725 1069 
Q 2919 1325 2919 1791 
Q 2919 2259 2725 2515 
Q 2531 2772 2181 2772 
z
" transform="scale(0.015625)"/>
     </defs>
     <use xlink:href="#DejaVuSans-Bold-53"/>
     <use xlink:href="#DejaVuSans-Bold-74" transform="translate(72.021484 0)"/>
     <use xlink:href="#DejaVuSans-Bold-72" transform="translate(119.824219 0)"/>
     <use xlink:href="#DejaVuSans-Bold-75" transform="translate(169.140625 0)"/>
     <use xlink:href="#DejaVuSans-Bold-63" transform="translate(240.332031 0)"/>
     <use xlink:href="#DejaVuSans-Bold-74" transform="translate(299.609375 0)"/>
     <use xlink:href="#DejaVuSans-Bold-75" transform="translate(347.412109 0)"/>
     <use xlink:href="#DejaVuSans-Bold-72" transform="translate(418.603516 0)"/>
     <use xlink:href="#DejaVuSans-Bold-65" transform="translate(467.919922 0)"/>
     <use xlink:href="#DejaVuSans-Bold-20" transform="translate(535.742188 0)"/>
     <use xlink:href="#DejaVuSans-Bold-64" transform="translate(570.556641 0)"/>
     <use xlink:href="#DejaVuSans-Bold-27" transform="translate(642.138672 0)"/>
     <use xlink:href="#DejaVuSans-Bold-75" transform="translate(672.753906 0)"/>
     <use xlink:href="#DejaVuSans-Bold-6e" transform="translate(743.945312 0)"/>
     <use xlink:href="#DejaVuSans-Bold-20" transform="translate(815.136719 0)"/>
     <use xlink:href="#DejaVuSans-Bold-6f" transform="translate(849.951172 0)"/>
     <use xlink:href="#DejaVuSans-Bold-76" transform="translate(918.652344 0)"/>
     <use xlink:href="#DejaVuSans-Bold-61" transform="translate(983.837891 0)"/>
     <use xlink:href="#DejaVuSans-Bold-72" transform="translate(1051.318359 0)"/>
     <use xlink:href="#DejaVuSans-Bold-69" transform="translate(1100.634766 0)"/>
     <use xlink:href="#DejaVuSans-Bold-6f" transform="translate(1134.912109 0)"/>
     <use xlink:href="#DejaVuSans-Bold-6c" transform="translate(1203.613281 0)"/>
     <use xlink:href="#DejaVuSans-Bold-65" transform="translate(1237.890625 0)"/>
     <use xlink:href="#DejaVuSans-Bold-20" transform="translate(1305.712891 0)"/>
     <use xlink:href="#DejaVuSans-Bold-64" transform="translate(1340.527344 0)"/>
     <use xlink:href="#DejaVuSans-Bold-65" transform="translate(1412.109375 0)"/>
     <use xlink:href="#DejaVuSans-Bold-20" transform="translate(1479.931641 0)"/>
     <use xlink:href="#DejaVuSans-Bold-44" transform="translate(1514.746094 0)"/>
     <use xlink:href="#DejaVuSans-Bold-72" transform="translate(1597.753906 0)"/>
     <use xlink:href="#DejaVuSans-Bold-6f" transform="translate(1647.070312 0)"/>
     <use xlink:href="#DejaVuSans-Bold-73" transform="translate(1715.771484 0)"/>
     <use xlink:href="#DejaVuSans-Bold-6f" transform="translate(1775.292969 0)"/>
     <use xlink:href="#DejaVuSans-Bold-70" transform="translate(1843.994141 0)"/>
     <use xlink:href="#DejaVuSans-Bold-68" transform="translate(1915.576172 0)"/>
     <use xlink:href="#DejaVuSans-Bold-69" transform="translate(1986.767578 0)"/>
     <use xlink:href="#DejaVuSans-Bold-6c" transform="translate(2021.044922 0)"/>
     <use xlink:href="#DejaVuSans-Bold-61" transform="translate(2055.322266 0)"/>
     <use xlink:href="#DejaVuSans-Bold-20" transform="translate(2122.802734 0)"/>
     <use xlink:href="#DejaVuSans-Bold-6d" transform="translate(2157.617188 0)"/>
     <use xlink:href="#DejaVuSans-Bold-65" transform="translate(2261.816406 0)"/>
     <use xlink:href="#DejaVuSans-Bold-6c" transform="translate(2329.638672 0)"/>
     <use xlink:href="#DejaVuSans-Bold-61" transform="translate(2363.916016 0)"/>
     <use xlink:href="#DejaVuSans-Bold-6e" transform="translate(2431.396484 0)"/>
     <use xlink:href="#DejaVuSans-Bold-6f" transform="translate(2502.587891 0)"/>
     <use xlink:href="#DejaVuSans-Bold-67" transform="translate(2571.289062 0)"/>
     <use xlink:href="#DejaVuSans-Bold-61" transform="translate(2642.871094 0)"/>
     <use xlink:href="#DejaVuSans-Bold-73" transform="translate(2710.351562 0)"/>
     <use xlink:href="#DejaVuSans-Bold-74" transform="translate(2769.873047 0)"/>
     <use xlink:href="#DejaVuSans-Bold-65" transform="translate(2817.675781 0)"/>
     <use xlink:href="#DejaVuSans-Bold-72" transform="translate(2885.498047 0)"/>
    </g>
   </g>
   <g id="patch_19">
    <path d="M 165.976962 185.786582 
C 168.500481 185.786582 170.920984 184.449775 172.705382 182.070578 
C 174.48978 179.691381 175.492385 176.464044 175.492385 173.099351 
C 175.492385 169.734658 174.48978 166.507321 172.705382 164.128124 
C 170.920984 161.748927 168.500481 160.41212 165.976962 160.41212 
C 163.453442 160.41212 161.032939 161.748927 159.248541 164.128124 
C 157.464143 166.507321 156.461538 169.734658 156.461538 173.099351 
C 156.461538 176.464044 157.464143 179.691381 159.248541 182.070578 
C 161.032939 184.449775 163.453442 185.786582 165.976962 185.786582 
z
" clip-path="url(#p316604c749)" style="fill: #ffe0b2; stroke: #5d4037; stroke-linejoin: miter"/>
   </g>
   <g id="patch_20">
    <path d="M 254.067923 189.51812 
C 257.333654 189.51812 260.46607 187.788135 262.77529 184.709174 
C 265.084511 181.630213 266.382 177.453659 266.382 173.099351 
C 266.382 168.745042 265.084511 164.568489 262.77529 161.489528 
C 260.46607 158.410567 257.333654 156.680582 254.067923 156.680582 
C 250.802192 156.680582 247.669777 158.410567 245.360556 161.489528 
C 243.051335 164.568489 241.753846 168.745042 241.753846 173.099351 
C 241.753846 177.453659 243.051335 181.630213 245.360556 184.709174 
C 247.669777 187.788135 250.802192 189.51812 254.067923 189.51812 
z
" clip-path="url(#p316604c749)" style="fill: #ffe0b2; stroke: #5d4037; stroke-linejoin: miter"/>
   </g>
   <g id="patch_21">
    <path d="M 365.161154 195.488582 
C 369.614424 195.488582 373.885899 193.129511 377.034837 188.930928 
C 380.183774 184.732345 381.953077 179.037044 381.953077 173.099351 
C 381.953077 167.161658 380.183774 161.466357 377.034837 157.267774 
C 373.885899 153.069191 369.614424 150.71012 365.161154 150.71012 
C 360.707884 150.71012 356.436409 153.069191 353.287471 157.267774 
C 350.138534 161.466357 348.369231 167.161658 348.369231 173.099351 
C 348.369231 179.037044 350.138534 184.732345 353.287471 188.930928 
C 356.436409 193.129511 360.707884 195.488582 365.161154 195.488582 
z
" clip-path="url(#p316604c749)" style="fill: #ffe0b2; stroke: #5d4037; stroke-linejoin: miter"/>
   </g>
   <g id="patch_22">
    <path d="M 497.577462 201.459043 
C 503.21827 201.459043 508.628805 198.470887 512.61746 193.152682 
C 516.606114 187.834476 518.847231 180.620429 518.847231 173.099351 
C 518.847231 165.578273 516.606114 158.364226 512.61746 153.04602 
C 508.628805 147.727815 503.21827 144.739659 497.577462 144.739659 
C 491.936653 144.739659 486.526118 147.727815 482.537463 153.04602 
C 478.548809 158.364226 476.307692 165.578273 476.307692 173.099351 
C 476.307692 180.620429 478.548809 187.834476 482.537463 193.152682 
C 486.526118 198.470887 491.936653 201.459043 497.577462 201.459043 
z
" clip-path="url(#p316604c749)" style="fill: #ffe0b2; stroke: #5d4037; stroke-linejoin: miter"/>
   </g>
   <g id="patch_23">
    <path d="M 652.436308 208.92212 
C 659.56154 208.92212 666.3959 205.147607 671.4342 198.429874 
C 676.4725 191.712141 679.303385 182.59966 679.303385 173.099351 
C 679.303385 163.599042 676.4725 154.486561 671.4342 147.768828 
C 666.3959 141.051095 659.56154 137.276582 652.436308 137.276582 
C 645.311076 137.276582 638.476715 141.051095 633.438415 147.768828 
C 628.400115 154.486561 625.569231 163.599042 625.569231 173.099351 
C 625.569231 182.59966 628.400115 191.712141 633.438415 198.429874 
C 638.476715 205.147607 645.311076 208.92212 652.436308 208.92212 
z
" clip-path="url(#p316604c749)" style="fill: #ffe0b2; stroke: #5d4037; stroke-linejoin: miter"/>
   </g>
   <g id="legend_1">
    <g id="patch_24">
     <path d="M 619.668365 297.037813 
L 726.584615 297.037813 
Q 728.184615 297.037813 728.184615 295.437813 
L 728.184615 237.525313 
Q 728.184615 235.925313 726.584615 235.925313 
L 619.668365 235.925313 
Q 618.068365 235.925313 618.068365 237.525313 
L 618.068365 295.437813 
Q 618.068365 297.037813 619.668365 297.037813 
z
" style="fill: #ffffff; opacity: 0.9; stroke: #cccccc; stroke-linejoin: miter"/>
    </g>
    <g id="patch_25">
     <path d="M 621.268365 245.204063 
L 637.268365 245.204063 
L 637.268365 239.604063 
L 621.268365 239.604063 
z
" style="fill: #fff9c4; stroke: #333333; stroke-linejoin: miter"/>
    </g>
    <g id="text_10">
     <!-- Germarium -->
     <g transform="translate(643.668365 245.204063) scale(0.08 -0.08)">
      <use xlink:href="#DejaVuSans-47"/>
      <use xlink:href="#DejaVuSans-65" transform="translate(77.490234 0)"/>
      <use xlink:href="#DejaVuSans-72" transform="translate(139.013672 0)"/>
      <use xlink:href="#DejaVuSans-6d" transform="translate(178.376953 0)"/>
      <use xlink:href="#DejaVuSans-61" transform="translate(275.789062 0)"/>
      <use xlink:href="#DejaVuSans-72" transform="translate(337.068359 0)"/>
      <use xlink:href="#DejaVuSans-69" transform="translate(378.181641 0)"/>
      <use xlink:href="#DejaVuSans-75" transform="translate(405.964844 0)"/>
      <use xlink:href="#DejaVuSans-6d" transform="translate(469.34375 0)"/>
     </g>
    </g>
    <g id="patch_26">
     <path d="M 621.268365 256.946563 
L 637.268365 256.946563 
L 637.268365 251.346563 
L 621.268365 251.346563 
z
" style="fill: #b3e5fc; stroke: #333333; stroke-linejoin: miter"/>
    </g>
    <g id="text_11">
     <!-- Cellules folliculaires -->
     <g transform="translate(643.668365 256.946563) scale(0.08 -0.08)">
      <defs>
       <path id="DejaVuSans-66" d="M 2375 4863 
L 2375 4384 
L 1825 4384 
Q 1516 4384 1395 4259 
Q 1275 4134 1275 3809 
L 1275 3500 
L 2222 3500 
L 2222 3053 
L 1275 3053 
L 1275 0 
L 697 0 
L 697 3053 
L 147 3053 
L 147 3500 
L 697 3500 
L 697 3744 
Q 697 4328 969 4595 
Q 1241 4863 1831 4863 
L 2375 4863 
z
" transform="scale(0.015625)"/>
      </defs>
      <use xlink:href="#DejaVuSans-43"/>
      <use xlink:href="#DejaVuSans-65" transform="translate(69.824219 0)"/>
      <use xlink:href="#DejaVuSans-6c" transform="translate(131.347656 0)"/>
      <use xlink:href="#DejaVuSans-6c" transform="translate(159.130859 0)"/>
      <use xlink:href="#DejaVuSans-75" transform="translate(186.914062 0)"/>
      <use xlink:href="#DejaVuSans-6c" transform="translate(250.292969 0)"/>
      <use xlink:href="#DejaVuSans-65" transform="translate(278.076172 0)"/>
      <use xlink:href="#DejaVuSans-73" transform="translate(339.599609 0)"/>
      <use xlink:href="#DejaVuSans-20" transform="translate(391.699219 0)"/>
      <use xlink:href="#DejaVuSans-66" transform="translate(423.486328 0)"/>
      <use xlink:href="#DejaVuSans-6f" transform="translate(458.691406 0)"/>
      <use xlink:href="#DejaVuSans-6c" transform="translate(519.873047 0)"/>
      <use xlink:href="#DejaVuSans-6c" transform="translate(547.65625 0)"/>
      <use xlink:href="#DejaVuSans-69" transform="translate(575.439453 0)"/>
      <use xlink:href="#DejaVuSans-63" transform="translate(603.222656 0)"/>
      <use xlink:href="#DejaVuSans-75" transform="translate(658.203125 0)"/>
      <use xlink:href="#DejaVuSans-6c" transform="translate(721.582031 0)"/>
      <use xlink:href="#DejaVuSans-61" transform="translate(749.365234 0)"/>
      <use xlink:href="#DejaVuSans-69" transform="translate(810.644531 0)"/>
      <use xlink:href="#DejaVuSans-72" transform="translate(838.427734 0)"/>
      <use xlink:href="#DejaVuSans-65" transform="translate(877.291016 0)"/>
      <use xlink:href="#DejaVuSans-73" transform="translate(938.814453 0)"/>
     </g>
    </g>
    <g id="patch_27">
     <path d="M 621.268365 268.689063 
L 637.268365 268.689063 
L 637.268365 263.089063 
L 621.268365 263.089063 
z
" style="fill: #d1c4e9"/>
    </g>
    <g id="text_12">
     <!-- Cellules nourricières -->
     <g transform="translate(643.668365 268.689063) scale(0.08 -0.08)">
      <defs>
       <path id="DejaVuSans-e8" d="M 3597 1894 
L 3597 1613 
L 953 1613 
Q 991 1019 1311 708 
Q 1631 397 2203 397 
Q 2534 397 2845 478 
Q 3156 559 3463 722 
L 3463 178 
Q 3153 47 2828 -22 
Q 2503 -91 2169 -91 
Q 1331 -91 842 396 
Q 353 884 353 1716 
Q 353 2575 817 3079 
Q 1281 3584 2069 3584 
Q 2775 3584 3186 3129 
Q 3597 2675 3597 1894 
z
M 3022 2063 
Q 3016 2534 2758 2815 
Q 2500 3097 2075 3097 
Q 1594 3097 1305 2825 
Q 1016 2553 972 2059 
L 3022 2063 
z
M 1579 5119 
L 2460 3950 
L 1982 3950 
L 963 5119 
L 1579 5119 
z
" transform="scale(0.015625)"/>
      </defs>
      <use xlink:href="#DejaVuSans-43"/>
      <use xlink:href="#DejaVuSans-65" transform="translate(69.824219 0)"/>
      <use xlink:href="#DejaVuSans-6c" transform="translate(131.347656 0)"/>
      <use xlink:href="#DejaVuSans-6c" transform="translate(159.130859 0)"/>
      <use xlink:href="#DejaVuSans-75" transform="translate(186.914062 0)"/>
      <use xlink:href="#DejaVuSans-6c" transform="translate(250.292969 0)"/>
      <use xlink:href="#DejaVuSans-65" transform="translate(278.076172 0)"/>
      <use xlink:href="#DejaVuSans-73" transform="translate(339.599609 0)"/>
      <use xlink:href="#DejaVuSans-20" transform="translate(391.699219 0)"/>
      <use xlink:href="#DejaVuSans-6e" transform="translate(423.486328 0)"/>
      <use xlink:href="#DejaVuSans-6f" transform="translate(486.865234 0)"/>
      <use xlink:href="#DejaVuSans-75" transform="translate(548.046875 0)"/>
      <use xlink:href="#DejaVuSans-72" transform="translate(611.425781 0)"/>
      <use xlink:href="#DejaVuSans-72" transform="translate(650.789062 0)"/>
      <use xlink:href="#DejaVuSans-69" transform="translate(691.902344 0)"/>
      <use xlink:href="#DejaVuSans-63" transform="translate(719.685547 0)"/>
      <use xlink:href="#DejaVuSans-69" transform="translate(774.666016 0)"/>
      <use xlink:href="#DejaVuSans-e8" transform="translate(802.449219 0)"/>
      <use xlink:href="#DejaVuSans-72" transform="translate(863.972656 0)"/>
      <use xlink:href="#DejaVuSans-65" transform="translate(902.835938 0)"/>
      <use xlink:href="#DejaVuSans-73" transform="translate(964.359375 0)"/>
     </g>
    </g>
    <g id="patch_28">
     <path d="M 621.268365 280.431563 
L 637.268365 280.431563 
L 637.268365 274.831563 
L 621.268365 274.831563 
z
" style="fill: #ffe0b2; stroke: #5d4037; stroke-linejoin: miter"/>
    </g>
    <g id="text_13">
     <!-- Ovocyte -->
     <g transform="translate(643.668365 280.431563) scale(0.08 -0.08)">
      <defs>
       <path id="DejaVuSans-4f" d="M 2522 4238 
Q 1834 4238 1429 3725 
Q 1025 3213 1025 2328 
Q 1025 1447 1429 934 
Q 1834 422 2522 422 
Q 3209 422 3611 934 
Q 4013 1447 4013 2328 
Q 4013 3213 3611 3725 
Q 3209 4238 2522 4238 
z
M 2522 4750 
Q 3503 4750 4090 4092 
Q 4678 3434 4678 2328 
Q 4678 1225 4090 567 
Q 3503 -91 2522 -91 
Q 1538 -91 948 565 
Q 359 1222 359 2328 
Q 359 3434 948 4092 
Q 1538 4750 2522 4750 
z
" transform="scale(0.015625)"/>
       <path id="DejaVuSans-76" d="M 191 3500 
L 800 3500 
L 1894 563 
L 2988 3500 
L 3597 3500 
L 2284 0 
L 1503 0 
L 191 3500 
z
" transform="scale(0.015625)"/>
      </defs>
      <use xlink:href="#DejaVuSans-4f"/>
      <use xlink:href="#DejaVuSans-76" transform="translate(78.710938 0)"/>
      <use xlink:href="#DejaVuSans-6f" transform="translate(137.890625 0)"/>
      <use xlink:href="#DejaVuSans-63" transform="translate(199.072266 0)"/>
      <use xlink:href="#DejaVuSans-79" transform="translate(254.052734 0)"/>
      <use xlink:href="#DejaVuSans-74" transform="translate(313.232422 0)"/>
      <use xlink:href="#DejaVuSans-65" transform="translate(352.441406 0)"/>
     </g>
    </g>
    <g id="patch_29">
     <path d="M 621.268365 292.174062 
L 637.268365 292.174062 
L 637.268365 286.574062 
L 621.268365 286.574062 
z
" style="fill: #ce93d8; stroke: #999999; stroke-linejoin: miter"/>
    </g>
    <g id="text_14">
     <!-- Cellules stalk -->
     <g transform="translate(643.668365 292.174062) scale(0.08 -0.08)">
      <defs>
       <path id="DejaVuSans-6b" d="M 581 4863 
L 1159 4863 
L 1159 1991 
L 2875 3500 
L 3609 3500 
L 1753 1863 
L 3688 0 
L 2938 0 
L 1159 1709 
L 1159 0 
L 581 0 
L 581 4863 
z
" transform="scale(0.015625)"/>
      </defs>
      <use xlink:href="#DejaVuSans-43"/>
      <use xlink:href="#DejaVuSans-65" transform="translate(69.824219 0)"/>
      <use xlink:href="#DejaVuSans-6c" transform="translate(131.347656 0)"/>
      <use xlink:href="#DejaVuSans-6c" transform="translate(159.130859 0)"/>
      <use xlink:href="#DejaVuSans-75" transform="translate(186.914062 0)"/>
      <use xlink:href="#DejaVuSans-6c" transform="translate(250.292969 0)"/>
      <use xlink:href="#DejaVuSans-65" transform="translate(278.076172 0)"/>
      <use xlink:href="#DejaVuSans-73" transform="translate(339.599609 0)"/>
      <use xlink:href="#DejaVuSans-20" transform="translate(391.699219 0)"/>
      <use xlink:href="#DejaVuSans-73" transform="translate(423.486328 0)"/>
      <use xlink:href="#DejaVuSans-74" transform="translate(475.585938 0)"/>
      <use xlink:href="#DejaVuSans-61" transform="translate(514.794922 0)"/>
      <use xlink:href="#DejaVuSans-6c" transform="translate(576.074219 0)"/>
      <use xlink:href="#DejaVuSans-6b" transform="translate(603.857422 0)"/>
     </g>
    </g>
   </g>
  </g>
 </g>
 <defs>
  <clipPath id="p316604c749">
   <rect x="7.2" y="23.837812" width="724.984615" height="277.2"/>
  </clipPath>
 </defs>
</svg>
