<?xml version="1.0" encoding="utf-8" standalone="no"?>
<!DOCTYPE svg PUBLIC "-//W3C//DTD SVG 1.1//EN"
  "http://www.w3.org/Graphics/SVG/1.1/DTD/svg11.dtd">
<svg xmlns:xlink="http://www.w3.org/1999/xlink" width="568.8pt" height="619.767pt" viewBox="0 0 568.8 619.767" xmlns="http://www.w3.org/2000/svg" version="1.1">
 <metadata>
  <rdf:RDF xmlns:dc="http://purl.org/dc/elements/1.1/" xmlns:cc="http://creativecommons.org/ns#" xmlns:rdf="http://www.w3.org/1999/02/22-rdf-syntax-ns#">
   <cc:Work>
    <dc:type rdf:resource="http://purl.org/dc/dcmitype/StillImage"/>
    <dc:date>2026-03-31T11:28:37.497995</dc:date>
    <dc:format>image/svg+xml</dc:format>
    <dc:creator>
     <cc:Agent>
      <dc:title>Matplotlib v3.10.8, https://matplotlib.org/</dc:title>
     </cc:Agent>
    </dc:creator>
   </cc:Work>
  </rdf:RDF>
 </metadata>
 <defs>
  <style type="text/css">*{stroke-linejoin: round; stroke-linecap: butt}</style>
 </defs>
 <g id="figure_1">
  <g id="patch_1">
   <path d="M 0 619.767 
L 568.8 619.767 
L 568.8 0 
L 0 0 
z
" style="fill: #ffffff"/>
  </g>
  <g id="axes_1">
   <g id="patch_2">
    <path d="M 335.675615 174.205501 
Q 354.895217 213.265588 395.543069 210.565531 
" style="fill: none; stroke: #555555; stroke-width: 2.5; stroke-linecap: round"/>
    <path d="M 391.419305 208.835047 
L 395.543069 210.565531 
L 391.684423 212.826251 
" style="fill: none; stroke: #555555; stroke-width: 2.5; stroke-linecap: round"/>
   </g>
   <g id="patch_3">
    <path d="M 449.60776 299.192236 
Q 425.390533 335.366943 448.052777 369.218987 
" style="fill: none; stroke: #555555; stroke-width: 2.5; stroke-linecap: round"/>
    <path d="M 447.489538 364.782461 
L 448.052777 369.218987 
L 444.165613 367.007662 
" style="fill: none; stroke: #555555; stroke-width: 2.5; stroke-linecap: round"/>
   </g>
   <g id="patch_4">
    <path d="M 398.332145 460.353735 
Q 354.895316 457.468355 336.909708 494.020455 
" style="fill: none; stroke: #555555; stroke-width: 2.5; stroke-linecap: round"/>
    <path d="M 340.470233 491.314414 
L 336.909708 494.020455 
L 336.88119 489.54841 
" style="fill: none; stroke: #555555; stroke-width: 2.5; stroke-linecap: round"/>
   </g>
   <g id="patch_5">
    <path d="M 233.124385 496.528499 
Q 213.904783 457.468412 173.256931 460.168469 
" style="fill: none; stroke: #555555; stroke-width: 2.5; stroke-linecap: round"/>
    <path d="M 177.380695 461.898953 
L 173.256931 460.168469 
L 177.115577 457.907749 
" style="fill: none; stroke: #555555; stroke-width: 2.5; stroke-linecap: round"/>
   </g>
   <g id="patch_6">
    <path d="M 119.19224 371.541764 
Q 143.409467 335.367057 120.747223 301.515013 
" style="fill: none; stroke: #555555; stroke-width: 2.5; stroke-linecap: round"/>
    <path d="M 121.310462 305.951539 
L 120.747223 301.515013 
L 124.634387 303.726338 
" style="fill: none; stroke: #555555; stroke-width: 2.5; stroke-linecap: round"/>
   </g>
   <g id="patch_7">
    <path d="M 170.467855 210.380265 
Q 213.904684 213.265645 231.890292 176.713545 
" style="fill: none; stroke: #555555; stroke-width: 2.5; stroke-linecap: round"/>
    <path d="M 228.329767 179.419586 
L 231.890292 176.713545 
L 231.91881 181.18559 
" style="fill: none; stroke: #555555; stroke-width: 2.5; stroke-linecap: round"/>
   </g>
   <g id="text_1">
    <g id="patch_8">
     <path d="M 256.28625 94.505067 
L 312.51375 94.505067 
Q 314.91375 94.505067 314.91375 92.105067 
L 314.91375 75.404317 
Q 314.91375 73.004317 312.51375 73.004317 
L 256.28625 73.004317 
Q 253.88625 73.004317 253.88625 75.404317 
L 253.88625 92.105067 
Q 253.88625 94.505067 256.28625 94.505067 
z
" style="fill: #f5f5f5; opacity: 0.85; stroke: #cccccc; stroke-linejoin: miter"/>
    </g>
    <!-- Fécondation -->
    <g style="fill: #444444" transform="translate(259.80375 81.483067) scale(0.08 -0.08)">
     <defs>
      <path id="DejaVuSans-Oblique-46" d="M 1081 4666 
L 3756 4666 
L 3653 4134 
L 1606 4134 
L 1338 2759 
L 3188 2759 
L 3084 2228 
L 1234 2228 
L 800 0 
L 172 0 
L 1081 4666 
z
" transform="scale(0.015625)"/>
      <path id="DejaVuSans-Oblique-e9" d="M 3078 2063 
Q 3088 2113 3092 2166 
Q 3097 2219 3097 2272 
Q 3097 2653 2873 2875 
Q 2650 3097 2266 3097 
Q 1838 3097 1509 2826 
Q 1181 2556 1013 2059 
L 3078 2063 
z
M 3578 1613 
L 903 1613 
Q 884 1494 878 1425 
Q 872 1356 872 1306 
Q 872 872 1139 634 
Q 1406 397 1894 397 
Q 2269 397 2603 481 
Q 2938 566 3225 728 
L 3116 159 
Q 2806 34 2476 -28 
Q 2147 -91 1806 -91 
Q 1078 -91 686 257 
Q 294 606 294 1247 
Q 294 1794 489 2264 
Q 684 2734 1063 3103 
Q 1306 3334 1642 3459 
Q 1978 3584 2356 3584 
Q 2950 3584 3301 3228 
Q 3653 2872 3653 2272 
Q 3653 2128 3634 1964 
Q 3616 1800 3578 1613 
z
M 3063 5119 
L 3685 5119 
L 2438 3944 
L 1957 3944 
L 3063 5119 
z
" transform="scale(0.015625)"/>
      <path id="DejaVuSans-Oblique-63" d="M 3431 3366 
L 3316 2797 
Q 3109 2947 2876 3022 
Q 2644 3097 2394 3097 
Q 2119 3097 1870 3000 
Q 1622 2903 1453 2725 
Q 1184 2453 1037 2087 
Q 891 1722 891 1331 
Q 891 859 1127 628 
Q 1363 397 1844 397 
Q 2081 397 2348 469 
Q 2616 541 2906 684 
L 2797 116 
Q 2547 13 2283 -39 
Q 2019 -91 1741 -91 
Q 1044 -91 669 257 
Q 294 606 294 1253 
Q 294 1797 489 2255 
Q 684 2713 1069 3078 
Q 1331 3328 1684 3456 
Q 2038 3584 2456 3584 
Q 2700 3584 2940 3529 
Q 3181 3475 3431 3366 
z
" transform="scale(0.015625)"/>
      <path id="DejaVuSans-Oblique-6f" d="M 1625 -91 
Q 1009 -91 651 289 
Q 294 669 294 1325 
Q 294 1706 417 2101 
Q 541 2497 738 2766 
Q 1047 3184 1428 3384 
Q 1809 3584 2291 3584 
Q 2888 3584 3255 3212 
Q 3622 2841 3622 2241 
Q 3622 1825 3500 1412 
Q 3378 1000 3181 728 
Q 2875 309 2494 109 
Q 2113 -91 1625 -91 
z
M 891 1344 
Q 891 869 1089 633 
Q 1288 397 1691 397 
Q 2269 397 2648 901 
Q 3028 1406 3028 2181 
Q 3028 2634 2825 2865 
Q 2622 3097 2228 3097 
Q 1903 3097 1650 2945 
Q 1397 2794 1197 2484 
Q 1050 2253 970 1956 
Q 891 1659 891 1344 
z
" transform="scale(0.015625)"/>
      <path id="DejaVuSans-Oblique-6e" d="M 3566 2113 
L 3156 0 
L 2578 0 
L 2988 2091 
Q 3016 2238 3031 2350 
Q 3047 2463 3047 2528 
Q 3047 2791 2881 2937 
Q 2716 3084 2419 3084 
Q 1956 3084 1622 2776 
Q 1288 2469 1184 1941 
L 800 0 
L 225 0 
L 903 3500 
L 1478 3500 
L 1363 2950 
Q 1603 3253 1940 3418 
Q 2278 3584 2650 3584 
Q 3113 3584 3367 3334 
Q 3622 3084 3622 2631 
Q 3622 2519 3608 2391 
Q 3594 2263 3566 2113 
z
" transform="scale(0.015625)"/>
      <path id="DejaVuSans-Oblique-64" d="M 2675 525 
Q 2444 222 2128 65 
Q 1813 -91 1428 -91 
Q 903 -91 598 267 
Q 294 625 294 1247 
Q 294 1766 478 2236 
Q 663 2706 1013 3078 
Q 1244 3325 1534 3454 
Q 1825 3584 2144 3584 
Q 2481 3584 2739 3421 
Q 2997 3259 3138 2956 
L 3513 4863 
L 4091 4863 
L 3144 0 
L 2566 0 
L 2675 525 
z
M 891 1350 
Q 891 897 1095 644 
Q 1300 391 1663 391 
Q 1931 391 2161 520 
Q 2391 650 2566 903 
Q 2750 1166 2856 1509 
Q 2963 1853 2963 2188 
Q 2963 2622 2758 2865 
Q 2553 3109 2194 3109 
Q 1922 3109 1687 2981 
Q 1453 2853 1288 2613 
Q 1106 2353 998 2009 
Q 891 1666 891 1350 
z
" transform="scale(0.015625)"/>
      <path id="DejaVuSans-Oblique-61" d="M 3438 1997 
L 3047 0 
L 2472 0 
L 2578 531 
Q 2325 219 2001 64 
Q 1678 -91 1281 -91 
Q 834 -91 548 182 
Q 263 456 263 884 
Q 263 1497 752 1853 
Q 1241 2209 2100 2209 
L 2900 2209 
L 2931 2363 
Q 2938 2388 2941 2417 
Q 2944 2447 2944 2509 
Q 2944 2788 2717 2942 
Q 2491 3097 2081 3097 
Q 1800 3097 1504 3025 
Q 1209 2953 897 2809 
L 997 3341 
Q 1322 3463 1633 3523 
Q 1944 3584 2234 3584 
Q 2853 3584 3176 3315 
Q 3500 3047 3500 2534 
Q 3500 2431 3484 2292 
Q 3469 2153 3438 1997 
z
M 2816 1759 
L 2241 1759 
Q 1534 1759 1195 1570 
Q 856 1381 856 984 
Q 856 709 1029 553 
Q 1203 397 1509 397 
Q 1978 397 2328 733 
Q 2678 1069 2791 1631 
L 2816 1759 
z
" transform="scale(0.015625)"/>
      <path id="DejaVuSans-Oblique-74" d="M 2706 3500 
L 2619 3053 
L 1472 3053 
L 1100 1153 
Q 1081 1047 1072 975 
Q 1063 903 1063 863 
Q 1063 663 1183 572 
Q 1303 481 1569 481 
L 2150 481 
L 2053 0 
L 1503 0 
Q 991 0 739 200 
Q 488 400 488 806 
Q 488 878 497 964 
Q 506 1050 525 1153 
L 897 3053 
L 409 3053 
L 500 3500 
L 978 3500 
L 1172 4494 
L 1747 4494 
L 1556 3500 
L 2706 3500 
z
" transform="scale(0.015625)"/>
      <path id="DejaVuSans-Oblique-69" d="M 1172 4863 
L 1747 4863 
L 1606 4134 
L 1031 4134 
L 1172 4863 
z
M 909 3500 
L 1484 3500 
L 800 0 
L 225 0 
L 909 3500 
z
" transform="scale(0.015625)"/>
     </defs>
     <use xlink:href="#DejaVuSans-Oblique-46"/>
     <use xlink:href="#DejaVuSans-Oblique-e9" transform="translate(57.519531 0)"/>
     <use xlink:href="#DejaVuSans-Oblique-63" transform="translate(119.042969 0)"/>
     <use xlink:href="#DejaVuSans-Oblique-6f" transform="translate(174.023438 0)"/>
     <use xlink:href="#DejaVuSans-Oblique-6e" transform="translate(235.205078 0)"/>
     <use xlink:href="#DejaVuSans-Oblique-64" transform="translate(298.583984 0)"/>
     <use xlink:href="#DejaVuSans-Oblique-61" transform="translate(362.060547 0)"/>
     <use xlink:href="#DejaVuSans-Oblique-74" transform="translate(423.339844 0)"/>
     <use xlink:href="#DejaVuSans-Oblique-69" transform="translate(462.548828 0)"/>
     <use xlink:href="#DejaVuSans-Oblique-6f" transform="translate(490.332031 0)"/>
     <use xlink:href="#DejaVuSans-Oblique-6e" transform="translate(551.513672 0)"/>
    </g>
    <!-- Segmentation -->
    <g style="fill: #444444" transform="translate(256.28625 90.441317) scale(0.08 -0.08)">
     <defs>
      <path id="DejaVuSans-Oblique-53" d="M 3859 4513 
L 3738 3897 
Q 3422 4066 3111 4152 
Q 2800 4238 2509 4238 
Q 1944 4238 1609 3991 
Q 1275 3744 1275 3334 
Q 1275 3109 1398 2989 
Q 1522 2869 2034 2731 
L 2413 2638 
Q 3053 2472 3303 2217 
Q 3553 1963 3553 1503 
Q 3553 797 2998 353 
Q 2444 -91 1538 -91 
Q 1166 -91 791 -17 
Q 416 56 38 206 
L 166 856 
Q 513 641 861 531 
Q 1209 422 1556 422 
Q 2147 422 2503 684 
Q 2859 947 2859 1369 
Q 2859 1650 2717 1795 
Q 2575 1941 2106 2059 
L 1728 2156 
Q 1081 2325 845 2545 
Q 609 2766 609 3163 
Q 609 3859 1145 4304 
Q 1681 4750 2541 4750 
Q 2875 4750 3203 4690 
Q 3531 4631 3859 4513 
z
" transform="scale(0.015625)"/>
      <path id="DejaVuSans-Oblique-65" d="M 3078 2063 
Q 3088 2113 3092 2166 
Q 3097 2219 3097 2272 
Q 3097 2653 2873 2875 
Q 2650 3097 2266 3097 
Q 1838 3097 1509 2826 
Q 1181 2556 1013 2059 
L 3078 2063 
z
M 3578 1613 
L 903 1613 
Q 884 1494 878 1425 
Q 872 1356 872 1306 
Q 872 872 1139 634 
Q 1406 397 1894 397 
Q 2269 397 2603 481 
Q 2938 566 3225 728 
L 3116 159 
Q 2806 34 2476 -28 
Q 2147 -91 1806 -91 
Q 1078 -91 686 257 
Q 294 606 294 1247 
Q 294 1794 489 2264 
Q 684 2734 1063 3103 
Q 1306 3334 1642 3459 
Q 1978 3584 2356 3584 
Q 2950 3584 3301 3228 
Q 3653 2872 3653 2272 
Q 3653 2128 3634 1964 
Q 3616 1800 3578 1613 
z
" transform="scale(0.015625)"/>
      <path id="DejaVuSans-Oblique-67" d="M 3816 3500 
L 3219 434 
Q 3047 -456 2561 -893 
Q 2075 -1331 1253 -1331 
Q 950 -1331 690 -1286 
Q 431 -1241 206 -1147 
L 313 -588 
Q 525 -725 762 -790 
Q 1000 -856 1269 -856 
Q 1816 -856 2167 -557 
Q 2519 -259 2631 300 
L 2681 563 
Q 2441 288 2122 144 
Q 1803 0 1434 0 
Q 903 0 598 351 
Q 294 703 294 1319 
Q 294 1803 478 2267 
Q 663 2731 997 3091 
Q 1219 3328 1514 3456 
Q 1809 3584 2131 3584 
Q 2484 3584 2746 3420 
Q 3009 3256 3138 2956 
L 3238 3500 
L 3816 3500 
z
M 2950 2216 
Q 2950 2641 2750 2872 
Q 2550 3103 2181 3103 
Q 1953 3103 1747 3012 
Q 1541 2922 1394 2759 
Q 1156 2491 1023 2127 
Q 891 1763 891 1375 
Q 891 944 1092 712 
Q 1294 481 1672 481 
Q 2219 481 2584 976 
Q 2950 1472 2950 2216 
z
" transform="scale(0.015625)"/>
      <path id="DejaVuSans-Oblique-6d" d="M 5747 2113 
L 5338 0 
L 4763 0 
L 5166 2094 
Q 5191 2228 5203 2325 
Q 5216 2422 5216 2491 
Q 5216 2772 5059 2928 
Q 4903 3084 4622 3084 
Q 4203 3084 3875 2770 
Q 3547 2456 3450 1953 
L 3066 0 
L 2491 0 
L 2900 2094 
Q 2925 2209 2937 2307 
Q 2950 2406 2950 2484 
Q 2950 2769 2794 2926 
Q 2638 3084 2363 3084 
Q 1938 3084 1609 2770 
Q 1281 2456 1184 1953 
L 800 0 
L 225 0 
L 909 3500 
L 1484 3500 
L 1375 2956 
Q 1609 3263 1923 3423 
Q 2238 3584 2597 3584 
Q 2978 3584 3223 3384 
Q 3469 3184 3519 2828 
Q 3781 3197 4126 3390 
Q 4472 3584 4856 3584 
Q 5306 3584 5551 3325 
Q 5797 3066 5797 2591 
Q 5797 2488 5784 2364 
Q 5772 2241 5747 2113 
z
" transform="scale(0.015625)"/>
     </defs>
     <use xlink:href="#DejaVuSans-Oblique-53"/>
     <use xlink:href="#DejaVuSans-Oblique-65" transform="translate(63.476562 0)"/>
     <use xlink:href="#DejaVuSans-Oblique-67" transform="translate(125 0)"/>
     <use xlink:href="#DejaVuSans-Oblique-6d" transform="translate(188.476562 0)"/>
     <use xlink:href="#DejaVuSans-Oblique-65" transform="translate(285.888672 0)"/>
     <use xlink:href="#DejaVuSans-Oblique-6e" transform="translate(347.412109 0)"/>
     <use xlink:href="#DejaVuSans-Oblique-74" transform="translate(410.791016 0)"/>
     <use xlink:href="#DejaVuSans-Oblique-61" transform="translate(450 0)"/>
     <use xlink:href="#DejaVuSans-Oblique-74" transform="translate(511.279297 0)"/>
     <use xlink:href="#DejaVuSans-Oblique-69" transform="translate(550.488281 0)"/>
     <use xlink:href="#DejaVuSans-Oblique-6f" transform="translate(578.271484 0)"/>
     <use xlink:href="#DejaVuSans-Oblique-6e" transform="translate(639.453125 0)"/>
    </g>
   </g>
   <g id="text_2">
    <g id="patch_9">
     <path d="M 483.277025 220.311221 
L 521.328275 220.311221 
Q 523.728275 220.311221 523.728275 217.911221 
L 523.728275 201.210471 
Q 523.728275 198.810471 521.328275 198.810471 
L 483.277025 198.810471 
Q 480.877025 198.810471 480.877025 201.210471 
L 480.877025 217.911221 
Q 480.877025 220.311221 483.277025 220.311221 
z
" style="fill: #f5f5f5; opacity: 0.85; stroke: #cccccc; stroke-linejoin: miter"/>
    </g>
    <!-- 1er stade -->
    <g style="fill: #444444" transform="translate(483.277025 207.289221) scale(0.08 -0.08)">
     <defs>
      <path id="DejaVuSans-Oblique-31" d="M 416 531 
L 1447 531 
L 2144 4122 
L 978 3897 
L 1088 4441 
L 2247 4666 
L 2881 4666 
L 2075 531 
L 3103 531 
L 3003 0 
L 313 0 
L 416 531 
z
" transform="scale(0.015625)"/>
      <path id="DejaVuSans-Oblique-72" d="M 2853 2969 
Q 2766 3016 2653 3041 
Q 2541 3066 2413 3066 
Q 1953 3066 1609 2717 
Q 1266 2369 1153 1784 
L 800 0 
L 225 0 
L 909 3500 
L 1484 3500 
L 1375 2956 
Q 1603 3259 1920 3421 
Q 2238 3584 2597 3584 
Q 2691 3584 2781 3573 
Q 2872 3563 2963 3538 
L 2853 2969 
z
" transform="scale(0.015625)"/>
      <path id="DejaVuSans-Oblique-20" transform="scale(0.015625)"/>
      <path id="DejaVuSans-Oblique-73" d="M 3200 3397 
L 3091 2853 
Q 2863 2978 2609 3040 
Q 2356 3103 2088 3103 
Q 1634 3103 1373 2948 
Q 1113 2794 1113 2528 
Q 1113 2219 1719 2053 
Q 1766 2041 1788 2034 
L 1972 1978 
Q 2547 1819 2739 1644 
Q 2931 1469 2931 1166 
Q 2931 609 2489 259 
Q 2047 -91 1331 -91 
Q 1053 -91 747 -37 
Q 441 16 72 128 
L 184 722 
Q 500 559 806 475 
Q 1113 391 1394 391 
Q 1816 391 2080 572 
Q 2344 753 2344 1031 
Q 2344 1331 1650 1516 
L 1591 1531 
L 1394 1581 
Q 956 1697 753 1886 
Q 550 2075 550 2369 
Q 550 2928 970 3256 
Q 1391 3584 2113 3584 
Q 2397 3584 2667 3537 
Q 2938 3491 3200 3397 
z
" transform="scale(0.015625)"/>
     </defs>
     <use xlink:href="#DejaVuSans-Oblique-31"/>
     <use xlink:href="#DejaVuSans-Oblique-65" transform="translate(63.623047 0)"/>
     <use xlink:href="#DejaVuSans-Oblique-72" transform="translate(125.146484 0)"/>
     <use xlink:href="#DejaVuSans-Oblique-20" transform="translate(166.259766 0)"/>
     <use xlink:href="#DejaVuSans-Oblique-73" transform="translate(198.046875 0)"/>
     <use xlink:href="#DejaVuSans-Oblique-74" transform="translate(250.146484 0)"/>
     <use xlink:href="#DejaVuSans-Oblique-61" transform="translate(289.355469 0)"/>
     <use xlink:href="#DejaVuSans-Oblique-64" transform="translate(350.634766 0)"/>
     <use xlink:href="#DejaVuSans-Oblique-65" transform="translate(414.111328 0)"/>
    </g>
    <!-- larvaire -->
    <g style="fill: #444444" transform="translate(487.06015 216.247471) scale(0.08 -0.08)">
     <defs>
      <path id="DejaVuSans-Oblique-6c" d="M 1172 4863 
L 1747 4863 
L 800 0 
L 225 0 
L 1172 4863 
z
" transform="scale(0.015625)"/>
      <path id="DejaVuSans-Oblique-76" d="M 459 3500 
L 1069 3500 
L 1581 525 
L 3256 3500 
L 3866 3500 
L 1875 0 
L 1100 0 
L 459 3500 
z
" transform="scale(0.015625)"/>
     </defs>
     <use xlink:href="#DejaVuSans-Oblique-6c"/>
     <use xlink:href="#DejaVuSans-Oblique-61" transform="translate(27.783203 0)"/>
     <use xlink:href="#DejaVuSans-Oblique-72" transform="translate(89.0625 0)"/>
     <use xlink:href="#DejaVuSans-Oblique-76" transform="translate(130.175781 0)"/>
     <use xlink:href="#DejaVuSans-Oblique-61" transform="translate(189.355469 0)"/>
     <use xlink:href="#DejaVuSans-Oblique-69" transform="translate(250.634766 0)"/>
     <use xlink:href="#DejaVuSans-Oblique-72" transform="translate(278.417969 0)"/>
     <use xlink:href="#DejaVuSans-Oblique-65" transform="translate(319.53125 0)"/>
    </g>
   </g>
   <g id="text_3">
    <g id="patch_10">
     <path d="M 469.915775 472.115529 
L 534.689525 472.115529 
Q 537.089525 472.115529 537.089525 469.715529 
L 537.089525 452.630779 
Q 537.089525 450.230779 534.689525 450.230779 
L 469.915775 450.230779 
Q 467.515775 450.230779 467.515775 452.630779 
L 467.515775 469.715529 
Q 467.515775 472.115529 469.915775 472.115529 
z
" style="fill: #f5f5f5; opacity: 0.85; stroke: #cccccc; stroke-linejoin: miter"/>
    </g>
    <!-- 2e stade -->
    <g style="fill: #444444" transform="translate(484.9214 458.709529) scale(0.08 -0.08)">
     <defs>
      <path id="DejaVuSans-Oblique-32" d="M 2950 2253 
L 934 525 
L 3163 525 
L 3053 0 
L 25 0 
L 128 531 
L 2234 2338 
Q 2656 2703 2832 2979 
Q 3009 3256 3009 3547 
Q 3009 3850 2796 4040 
Q 2584 4231 2241 4231 
Q 1944 4231 1581 4125 
Q 1219 4019 806 3816 
L 922 4441 
Q 1309 4594 1662 4672 
Q 2016 4750 2316 4750 
Q 2928 4750 3301 4425 
Q 3675 4100 3675 3572 
Q 3675 3216 3497 2892 
Q 3319 2569 2950 2253 
z
" transform="scale(0.015625)"/>
     </defs>
     <use xlink:href="#DejaVuSans-Oblique-32"/>
     <use xlink:href="#DejaVuSans-Oblique-65" transform="translate(63.623047 0)"/>
     <use xlink:href="#DejaVuSans-Oblique-20" transform="translate(125.146484 0)"/>
     <use xlink:href="#DejaVuSans-Oblique-73" transform="translate(156.933594 0)"/>
     <use xlink:href="#DejaVuSans-Oblique-74" transform="translate(209.033203 0)"/>
     <use xlink:href="#DejaVuSans-Oblique-61" transform="translate(248.242188 0)"/>
     <use xlink:href="#DejaVuSans-Oblique-64" transform="translate(309.521484 0)"/>
     <use xlink:href="#DejaVuSans-Oblique-65" transform="translate(372.998047 0)"/>
    </g>
    <!-- (après 1re mue) -->
    <g style="fill: #444444" transform="translate(469.915775 468.051779) scale(0.08 -0.08)">
     <defs>
      <path id="DejaVuSans-Oblique-28" d="M 2731 4856 
Q 1903 3822 1495 2892 
Q 1088 1963 1088 1100 
Q 1088 606 1206 120 
Q 1325 -366 1563 -844 
L 1063 -844 
Q 775 -306 634 201 
Q 494 709 494 1197 
Q 494 2125 923 3036 
Q 1353 3947 2222 4856 
L 2731 4856 
z
" transform="scale(0.015625)"/>
      <path id="DejaVuSans-Oblique-70" d="M 3175 2156 
Q 3175 2616 2975 2859 
Q 2775 3103 2400 3103 
Q 2144 3103 1911 2972 
Q 1678 2841 1497 2591 
Q 1319 2344 1212 1994 
Q 1106 1644 1106 1300 
Q 1106 863 1306 627 
Q 1506 391 1875 391 
Q 2147 391 2380 519 
Q 2613 647 2778 891 
Q 2956 1147 3065 1494 
Q 3175 1841 3175 2156 
z
M 1394 2969 
Q 1625 3272 1939 3428 
Q 2253 3584 2638 3584 
Q 3175 3584 3472 3232 
Q 3769 2881 3769 2247 
Q 3769 1728 3584 1258 
Q 3400 788 3053 416 
Q 2822 169 2531 39 
Q 2241 -91 1919 -91 
Q 1547 -91 1294 64 
Q 1041 219 916 525 
L 556 -1331 
L -19 -1331 
L 922 3500 
L 1497 3500 
L 1394 2969 
z
" transform="scale(0.015625)"/>
      <path id="DejaVuSans-Oblique-e8" d="M 3078 2063 
Q 3088 2113 3092 2166 
Q 3097 2219 3097 2272 
Q 3097 2653 2873 2875 
Q 2650 3097 2266 3097 
Q 1838 3097 1509 2826 
Q 1181 2556 1013 2059 
L 3078 2063 
z
M 3578 1613 
L 903 1613 
Q 884 1494 878 1425 
Q 872 1356 872 1306 
Q 872 872 1139 634 
Q 1406 397 1894 397 
Q 2269 397 2603 481 
Q 2938 566 3225 728 
L 3116 159 
Q 2806 34 2476 -28 
Q 2147 -91 1806 -91 
Q 1078 -91 686 257 
Q 294 606 294 1247 
Q 294 1794 489 2264 
Q 684 2734 1063 3103 
Q 1306 3334 1642 3459 
Q 1978 3584 2356 3584 
Q 2950 3584 3301 3228 
Q 3653 2872 3653 2272 
Q 3653 2128 3634 1964 
Q 3616 1800 3578 1613 
z
M 2175 5119 
L 2828 3950 
L 2347 3950 
L 1560 5119 
L 2175 5119 
z
" transform="scale(0.015625)"/>
      <path id="DejaVuSans-Oblique-75" d="M 428 1388 
L 838 3500 
L 1416 3500 
L 1006 1409 
Q 975 1256 961 1147 
Q 947 1038 947 966 
Q 947 700 1109 554 
Q 1272 409 1569 409 
Q 2031 409 2368 721 
Q 2706 1034 2809 1563 
L 3194 3500 
L 3769 3500 
L 3091 0 
L 2516 0 
L 2631 550 
Q 2388 244 2052 76 
Q 1716 -91 1338 -91 
Q 878 -91 622 161 
Q 366 413 366 863 
Q 366 956 381 1097 
Q 397 1238 428 1388 
z
" transform="scale(0.015625)"/>
      <path id="DejaVuSans-Oblique-29" d="M -397 -844 
Q 434 191 840 1120 
Q 1247 2050 1247 2913 
Q 1247 3406 1130 3892 
Q 1013 4378 775 4856 
L 1275 4856 
Q 1563 4316 1703 3812 
Q 1844 3309 1844 2822 
Q 1844 1891 1411 973 
Q 978 56 116 -844 
L -397 -844 
z
" transform="scale(0.015625)"/>
     </defs>
     <use xlink:href="#DejaVuSans-Oblique-28"/>
     <use xlink:href="#DejaVuSans-Oblique-61" transform="translate(39.013672 0)"/>
     <use xlink:href="#DejaVuSans-Oblique-70" transform="translate(100.292969 0)"/>
     <use xlink:href="#DejaVuSans-Oblique-72" transform="translate(163.769531 0)"/>
     <use xlink:href="#DejaVuSans-Oblique-e8" transform="translate(204.882812 0)"/>
     <use xlink:href="#DejaVuSans-Oblique-73" transform="translate(266.40625 0)"/>
     <use xlink:href="#DejaVuSans-Oblique-20" transform="translate(318.505859 0)"/>
     <use xlink:href="#DejaVuSans-Oblique-31" transform="translate(350.292969 0)"/>
     <use xlink:href="#DejaVuSans-Oblique-72" transform="translate(413.916016 0)"/>
     <use xlink:href="#DejaVuSans-Oblique-65" transform="translate(455.029297 0)"/>
     <use xlink:href="#DejaVuSans-Oblique-20" transform="translate(516.552734 0)"/>
     <use xlink:href="#DejaVuSans-Oblique-6d" transform="translate(548.339844 0)"/>
     <use xlink:href="#DejaVuSans-Oblique-75" transform="translate(645.751953 0)"/>
     <use xlink:href="#DejaVuSans-Oblique-65" transform="translate(709.130859 0)"/>
     <use xlink:href="#DejaVuSans-Oblique-29" transform="translate(770.654297 0)"/>
    </g>
   </g>
   <g id="text_4">
    <g id="patch_11">
     <path d="M 246.23625 597.729683 
L 322.56375 597.729683 
Q 324.96375 597.729683 324.96375 595.329683 
L 324.96375 578.628933 
Q 324.96375 576.228933 322.56375 576.228933 
L 246.23625 576.228933 
Q 243.83625 576.228933 243.83625 578.628933 
L 243.83625 595.329683 
Q 243.83625 597.729683 246.23625 597.729683 
z
" style="fill: #f5f5f5; opacity: 0.85; stroke: #cccccc; stroke-linejoin: miter"/>
    </g>
    <!-- 3e stade -->
    <g style="fill: #444444" transform="translate(267.01875 584.707683) scale(0.08 -0.08)">
     <defs>
      <path id="DejaVuSans-Oblique-33" d="M 1013 4550 
Q 1356 4650 1679 4700 
Q 2003 4750 2316 4750 
Q 2934 4750 3296 4475 
Q 3659 4200 3659 3738 
Q 3659 3284 3373 2959 
Q 3088 2634 2584 2516 
Q 2978 2403 3162 2165 
Q 3347 1928 3347 1538 
Q 3347 1163 3167 834 
Q 2988 506 2650 269 
Q 2394 88 2037 -1 
Q 1681 -91 1216 -91 
Q 922 -91 622 -33 
Q 322 25 13 141 
L 128 738 
Q 422 575 720 495 
Q 1019 416 1331 416 
Q 1947 416 2330 733 
Q 2713 1050 2713 1556 
Q 2713 1881 2469 2057 
Q 2225 2234 1772 2234 
L 1228 2234 
L 1325 2747 
L 1900 2747 
Q 2419 2747 2717 2984 
Q 3016 3222 3016 3628 
Q 3016 3922 2797 4083 
Q 2578 4244 2181 4244 
Q 1881 4244 1567 4180 
Q 1253 4116 916 3988 
L 1013 4550 
z
" transform="scale(0.015625)"/>
     </defs>
     <use xlink:href="#DejaVuSans-Oblique-33"/>
     <use xlink:href="#DejaVuSans-Oblique-65" transform="translate(63.623047 0)"/>
     <use xlink:href="#DejaVuSans-Oblique-20" transform="translate(125.146484 0)"/>
     <use xlink:href="#DejaVuSans-Oblique-73" transform="translate(156.933594 0)"/>
     <use xlink:href="#DejaVuSans-Oblique-74" transform="translate(209.033203 0)"/>
     <use xlink:href="#DejaVuSans-Oblique-61" transform="translate(248.242188 0)"/>
     <use xlink:href="#DejaVuSans-Oblique-64" transform="translate(309.521484 0)"/>
     <use xlink:href="#DejaVuSans-Oblique-65" transform="translate(372.998047 0)"/>
    </g>
    <!-- Disques imaginaux -->
    <g style="fill: #444444" transform="translate(246.23625 593.665933) scale(0.08 -0.08)">
     <defs>
      <path id="DejaVuSans-Oblique-44" d="M 1081 4666 
L 2438 4666 
Q 3519 4666 4070 4208 
Q 4622 3750 4622 2847 
Q 4622 2250 4412 1698 
Q 4203 1147 3834 769 
Q 3463 381 2891 190 
Q 2319 0 1538 0 
L 172 0 
L 1081 4666 
z
M 1613 4147 
L 909 519 
L 1734 519 
Q 2794 519 3375 1128 
Q 3956 1738 3956 2847 
Q 3956 3519 3581 3833 
Q 3206 4147 2406 4147 
L 1613 4147 
z
" transform="scale(0.015625)"/>
      <path id="DejaVuSans-Oblique-71" d="M 2669 525 
Q 2438 222 2123 65 
Q 1809 -91 1428 -91 
Q 897 -91 595 267 
Q 294 625 294 1253 
Q 294 1759 480 2231 
Q 666 2703 1013 3078 
Q 1238 3322 1530 3453 
Q 1822 3584 2144 3584 
Q 2531 3584 2781 3431 
Q 3031 3278 3144 2969 
L 3244 3494 
L 3822 3494 
L 2888 -1319 
L 2309 -1319 
L 2669 525 
z
M 891 1338 
Q 891 875 1084 633 
Q 1278 391 1644 391 
Q 2188 391 2572 911 
Q 2956 1431 2956 2175 
Q 2956 2625 2757 2864 
Q 2559 3103 2188 3103 
Q 1916 3103 1684 2976 
Q 1453 2850 1281 2606 
Q 1100 2350 995 2006 
Q 891 1663 891 1338 
z
" transform="scale(0.015625)"/>
      <path id="DejaVuSans-Oblique-78" d="M 3841 3500 
L 2234 1784 
L 3219 0 
L 2559 0 
L 1819 1388 
L 531 0 
L -166 0 
L 1556 1844 
L 641 3500 
L 1300 3500 
L 1972 2234 
L 3144 3500 
L 3841 3500 
z
" transform="scale(0.015625)"/>
     </defs>
     <use xlink:href="#DejaVuSans-Oblique-44"/>
     <use xlink:href="#DejaVuSans-Oblique-69" transform="translate(77.001953 0)"/>
     <use xlink:href="#DejaVuSans-Oblique-73" transform="translate(104.785156 0)"/>
     <use xlink:href="#DejaVuSans-Oblique-71" transform="translate(156.884766 0)"/>
     <use xlink:href="#DejaVuSans-Oblique-75" transform="translate(220.361328 0)"/>
     <use xlink:href="#DejaVuSans-Oblique-65" transform="translate(283.740234 0)"/>
     <use xlink:href="#DejaVuSans-Oblique-73" transform="translate(345.263672 0)"/>
     <use xlink:href="#DejaVuSans-Oblique-20" transform="translate(397.363281 0)"/>
     <use xlink:href="#DejaVuSans-Oblique-69" transform="translate(429.150391 0)"/>
     <use xlink:href="#DejaVuSans-Oblique-6d" transform="translate(456.933594 0)"/>
     <use xlink:href="#DejaVuSans-Oblique-61" transform="translate(554.345703 0)"/>
     <use xlink:href="#DejaVuSans-Oblique-67" transform="translate(615.625 0)"/>
     <use xlink:href="#DejaVuSans-Oblique-69" transform="translate(679.101562 0)"/>
     <use xlink:href="#DejaVuSans-Oblique-6e" transform="translate(706.884766 0)"/>
     <use xlink:href="#DejaVuSans-Oblique-61" transform="translate(770.263672 0)"/>
     <use xlink:href="#DejaVuSans-Oblique-75" transform="translate(831.542969 0)"/>
     <use xlink:href="#DejaVuSans-Oblique-78" transform="translate(894.921875 0)"/>
    </g>
   </g>
   <g id="text_5">
    <g id="patch_12">
     <path d="M 36.510475 472.083529 
L 96.484225 472.083529 
Q 98.884225 472.083529 98.884225 469.683529 
L 98.884225 452.662779 
Q 98.884225 450.262779 96.484225 450.262779 
L 36.510475 450.262779 
Q 34.110475 450.262779 34.110475 452.662779 
L 34.110475 469.683529 
Q 34.110475 472.083529 36.510475 472.083529 
z
" style="fill: #f5f5f5; opacity: 0.85; stroke: #cccccc; stroke-linejoin: miter"/>
    </g>
    <!-- Métamorphose -->
    <g style="fill: #444444" transform="translate(36.510475 459.061529) scale(0.08 -0.08)">
     <defs>
      <path id="DejaVuSans-Oblique-4d" d="M 1081 4666 
L 2028 4666 
L 2572 1522 
L 4378 4666 
L 5350 4666 
L 4441 0 
L 3828 0 
L 4622 4091 
L 2791 897 
L 2175 897 
L 1581 4103 
L 788 0 
L 172 0 
L 1081 4666 
z
" transform="scale(0.015625)"/>
      <path id="DejaVuSans-Oblique-68" d="M 3566 2113 
L 3156 0 
L 2578 0 
L 2988 2091 
Q 3016 2238 3031 2350 
Q 3047 2463 3047 2528 
Q 3047 2791 2881 2937 
Q 2716 3084 2419 3084 
Q 1956 3084 1617 2771 
Q 1278 2459 1178 1941 
L 800 0 
L 225 0 
L 1172 4863 
L 1747 4863 
L 1375 2950 
Q 1594 3244 1934 3414 
Q 2275 3584 2650 3584 
Q 3113 3584 3367 3334 
Q 3622 3084 3622 2631 
Q 3622 2519 3608 2391 
Q 3594 2263 3566 2113 
z
" transform="scale(0.015625)"/>
     </defs>
     <use xlink:href="#DejaVuSans-Oblique-4d"/>
     <use xlink:href="#DejaVuSans-Oblique-e9" transform="translate(86.279297 0)"/>
     <use xlink:href="#DejaVuSans-Oblique-74" transform="translate(147.802734 0)"/>
     <use xlink:href="#DejaVuSans-Oblique-61" transform="translate(187.011719 0)"/>
     <use xlink:href="#DejaVuSans-Oblique-6d" transform="translate(248.291016 0)"/>
     <use xlink:href="#DejaVuSans-Oblique-6f" transform="translate(345.703125 0)"/>
     <use xlink:href="#DejaVuSans-Oblique-72" transform="translate(406.884766 0)"/>
     <use xlink:href="#DejaVuSans-Oblique-70" transform="translate(447.998047 0)"/>
     <use xlink:href="#DejaVuSans-Oblique-68" transform="translate(511.474609 0)"/>
     <use xlink:href="#DejaVuSans-Oblique-6f" transform="translate(574.853516 0)"/>
     <use xlink:href="#DejaVuSans-Oblique-73" transform="translate(636.035156 0)"/>
     <use xlink:href="#DejaVuSans-Oblique-65" transform="translate(688.134766 0)"/>
    </g>
    <!-- Histolyse -->
    <g style="fill: #444444" transform="translate(48.25485 468.019779) scale(0.08 -0.08)">
     <defs>
      <path id="DejaVuSans-Oblique-48" d="M 1081 4666 
L 1716 4666 
L 1344 2753 
L 3634 2753 
L 4006 4666 
L 4641 4666 
L 3731 0 
L 3097 0 
L 3531 2222 
L 1241 2222 
L 806 0 
L 172 0 
L 1081 4666 
z
" transform="scale(0.015625)"/>
      <path id="DejaVuSans-Oblique-79" d="M 1588 -325 
Q 1188 -997 936 -1164 
Q 684 -1331 294 -1331 
L -159 -1331 
L -63 -850 
L 269 -850 
Q 509 -850 678 -719 
Q 847 -588 1056 -206 
L 1234 128 
L 459 3500 
L 1069 3500 
L 1650 819 
L 3256 3500 
L 3859 3500 
L 1588 -325 
z
" transform="scale(0.015625)"/>
     </defs>
     <use xlink:href="#DejaVuSans-Oblique-48"/>
     <use xlink:href="#DejaVuSans-Oblique-69" transform="translate(75.195312 0)"/>
     <use xlink:href="#DejaVuSans-Oblique-73" transform="translate(102.978516 0)"/>
     <use xlink:href="#DejaVuSans-Oblique-74" transform="translate(155.078125 0)"/>
     <use xlink:href="#DejaVuSans-Oblique-6f" transform="translate(194.287109 0)"/>
     <use xlink:href="#DejaVuSans-Oblique-6c" transform="translate(255.46875 0)"/>
     <use xlink:href="#DejaVuSans-Oblique-79" transform="translate(283.251953 0)"/>
     <use xlink:href="#DejaVuSans-Oblique-73" transform="translate(342.431641 0)"/>
     <use xlink:href="#DejaVuSans-Oblique-65" transform="translate(394.53125 0)"/>
    </g>
   </g>
   <g id="text_6">
    <g id="patch_13">
     <path d="M 39.68985 220.311221 
L 93.30485 220.311221 
Q 95.70485 220.311221 95.70485 217.911221 
L 95.70485 201.210471 
Q 95.70485 198.810471 93.30485 198.810471 
L 39.68985 198.810471 
Q 37.28985 198.810471 37.28985 201.210471 
L 37.28985 217.911221 
Q 37.28985 220.311221 39.68985 220.311221 
z
" style="fill: #f5f5f5; opacity: 0.85; stroke: #cccccc; stroke-linejoin: miter"/>
    </g>
    <!-- Reproduction -->
    <g style="fill: #444444" transform="translate(39.68985 207.289221) scale(0.08 -0.08)">
     <defs>
      <path id="DejaVuSans-Oblique-52" d="M 1613 4147 
L 1294 2491 
L 2106 2491 
Q 2584 2491 2879 2755 
Q 3175 3019 3175 3444 
Q 3175 3784 2976 3965 
Q 2778 4147 2406 4147 
L 1613 4147 
z
M 2772 2241 
Q 2972 2194 3105 2009 
Q 3238 1825 3413 1275 
L 3809 0 
L 3144 0 
L 2778 1197 
Q 2638 1659 2453 1815 
Q 2269 1972 1888 1972 
L 1191 1972 
L 806 0 
L 172 0 
L 1081 4666 
L 2503 4666 
Q 3150 4666 3495 4373 
Q 3841 4081 3841 3531 
Q 3841 3044 3547 2687 
Q 3253 2331 2772 2241 
z
" transform="scale(0.015625)"/>
     </defs>
     <use xlink:href="#DejaVuSans-Oblique-52"/>
     <use xlink:href="#DejaVuSans-Oblique-65" transform="translate(69.482422 0)"/>
     <use xlink:href="#DejaVuSans-Oblique-70" transform="translate(131.005859 0)"/>
     <use xlink:href="#DejaVuSans-Oblique-72" transform="translate(194.482422 0)"/>
     <use xlink:href="#DejaVuSans-Oblique-6f" transform="translate(235.595703 0)"/>
     <use xlink:href="#DejaVuSans-Oblique-64" transform="translate(296.777344 0)"/>
     <use xlink:href="#DejaVuSans-Oblique-75" transform="translate(360.253906 0)"/>
     <use xlink:href="#DejaVuSans-Oblique-63" transform="translate(423.632812 0)"/>
     <use xlink:href="#DejaVuSans-Oblique-74" transform="translate(478.613281 0)"/>
     <use xlink:href="#DejaVuSans-Oblique-69" transform="translate(517.822266 0)"/>
     <use xlink:href="#DejaVuSans-Oblique-6f" transform="translate(545.605469 0)"/>
     <use xlink:href="#DejaVuSans-Oblique-6e" transform="translate(606.787109 0)"/>
    </g>
    <!-- Ponte -->
    <g style="fill: #444444" transform="translate(55.0736 216.247471) scale(0.08 -0.08)">
     <defs>
      <path id="DejaVuSans-Oblique-50" d="M 1081 4666 
L 2541 4666 
Q 3178 4666 3512 4369 
Q 3847 4072 3847 3500 
Q 3847 2731 3353 2303 
Q 2859 1875 1966 1875 
L 1172 1875 
L 806 0 
L 172 0 
L 1081 4666 
z
M 1613 4147 
L 1275 2394 
L 2069 2394 
Q 2606 2394 2893 2669 
Q 3181 2944 3181 3456 
Q 3181 3784 2986 3965 
Q 2791 4147 2438 4147 
L 1613 4147 
z
" transform="scale(0.015625)"/>
     </defs>
     <use xlink:href="#DejaVuSans-Oblique-50"/>
     <use xlink:href="#DejaVuSans-Oblique-6f" transform="translate(60.302734 0)"/>
     <use xlink:href="#DejaVuSans-Oblique-6e" transform="translate(121.484375 0)"/>
     <use xlink:href="#DejaVuSans-Oblique-74" transform="translate(184.863281 0)"/>
     <use xlink:href="#DejaVuSans-Oblique-65" transform="translate(224.072266 0)"/>
    </g>
   </g>
   <g id="patch_14">
    <path d="M 233.224615 194.634692 
L 335.575385 194.634692 
Q 341.972308 194.634692 341.972308 188.237769 
L 341.972308 141.327 
Q 341.972308 134.930077 335.575385 134.930077 
L 233.224615 134.930077 
Q 226.827692 134.930077 226.827692 141.327 
L 226.827692 188.237769 
Q 226.827692 194.634692 233.224615 194.634692 
z
" clip-path="url(#p06f79b0312)" style="fill: #fffacd; stroke: #333333; stroke-width: 2; stroke-linejoin: miter"/>
   </g>
   <g id="patch_15">
    <path d="M 380.955226 279.927 
L 483.305995 279.927 
Q 489.702918 279.927 489.702918 273.530077 
L 489.702918 226.619308 
Q 489.702918 220.222385 483.305995 220.222385 
L 380.955226 220.222385 
Q 374.558303 220.222385 374.558303 226.619308 
L 374.558303 273.530077 
Q 374.558303 279.927 380.955226 279.927 
z
" clip-path="url(#p06f79b0312)" style="fill: #a5d6a7; stroke: #333333; stroke-width: 2; stroke-linejoin: miter"/>
   </g>
   <g id="patch_16">
    <path d="M 380.955226 450.511615 
L 483.305995 450.511615 
Q 489.702918 450.511615 489.702918 444.114692 
L 489.702918 397.203923 
Q 489.702918 390.807 483.305995 390.807 
L 380.955226 390.807 
Q 374.558303 390.807 374.558303 397.203923 
L 374.558303 444.114692 
Q 374.558303 450.511615 380.955226 450.511615 
z
" clip-path="url(#p06f79b0312)" style="fill: #a5d6a7; stroke: #333333; stroke-width: 2; stroke-linejoin: miter"/>
   </g>
   <g id="patch_17">
    <path d="M 233.224615 535.803923 
L 335.575385 535.803923 
Q 341.972308 535.803923 341.972308 529.407 
L 341.972308 482.496231 
Q 341.972308 476.099308 335.575385 476.099308 
L 233.224615 476.099308 
Q 226.827692 476.099308 226.827692 482.496231 
L 226.827692 529.407 
Q 226.827692 535.803923 233.224615 535.803923 
z
" clip-path="url(#p06f79b0312)" style="fill: #a5d6a7; stroke: #333333; stroke-width: 2; stroke-linejoin: miter"/>
   </g>
   <g id="patch_18">
    <path d="M 85.494005 450.511615 
L 187.844774 450.511615 
Q 194.241697 450.511615 194.241697 444.114692 
L 194.241697 397.203923 
Q 194.241697 390.807 187.844774 390.807 
L 85.494005 390.807 
Q 79.097082 390.807 79.097082 397.203923 
L 79.097082 444.114692 
Q 79.097082 450.511615 85.494005 450.511615 
z
" clip-path="url(#p06f79b0312)" style="fill: #deb887; stroke: #333333; stroke-width: 2; stroke-linejoin: miter"/>
   </g>
   <g id="patch_19">
    <path d="M 85.494005 279.927 
L 187.844774 279.927 
Q 194.241697 279.927 194.241697 273.530077 
L 194.241697 226.619308 
Q 194.241697 220.222385 187.844774 220.222385 
L 85.494005 220.222385 
Q 79.097082 220.222385 79.097082 226.619308 
L 79.097082 273.530077 
Q 79.097082 279.927 85.494005 279.927 
z
" clip-path="url(#p06f79b0312)" style="fill: #f48fb1; stroke: #333333; stroke-width: 2; stroke-linejoin: miter"/>
   </g>
   <g id="text_7">
    <!-- Drosophila -->
    <g style="fill: #1a237e" transform="translate(250.956562 310.25556) scale(0.11 -0.11)">
     <defs>
      <path id="DejaVuSans-Bold-44" d="M 1791 3756 
L 1791 909 
L 2222 909 
Q 2959 909 3348 1275 
Q 3738 1641 3738 2338 
Q 3738 3031 3350 3393 
Q 2963 3756 2222 3756 
L 1791 3756 
z
M 588 4666 
L 1856 4666 
Q 2919 4666 3439 4514 
Q 3959 4363 4331 4000 
Q 4659 3684 4818 3271 
Q 4978 2859 4978 2338 
Q 4978 1809 4818 1395 
Q 4659 981 4331 666 
Q 3956 303 3431 151 
Q 2906 0 1856 0 
L 588 0 
L 588 4666 
z
" transform="scale(0.015625)"/>
      <path id="DejaVuSans-Bold-72" d="M 3138 2547 
Q 2991 2616 2845 2648 
Q 2700 2681 2553 2681 
Q 2122 2681 1889 2404 
Q 1656 2128 1656 1613 
L 1656 0 
L 538 0 
L 538 3500 
L 1656 3500 
L 1656 2925 
Q 1872 3269 2151 3426 
Q 2431 3584 2822 3584 
Q 2878 3584 2943 3579 
Q 3009 3575 3134 3559 
L 3138 2547 
z
" transform="scale(0.015625)"/>
      <path id="DejaVuSans-Bold-6f" d="M 2203 2784 
Q 1831 2784 1636 2517 
Q 1441 2250 1441 1747 
Q 1441 1244 1636 976 
Q 1831 709 2203 709 
Q 2569 709 2762 976 
Q 2956 1244 2956 1747 
Q 2956 2250 2762 2517 
Q 2569 2784 2203 2784 
z
M 2203 3584 
Q 3106 3584 3614 3096 
Q 4122 2609 4122 1747 
Q 4122 884 3614 396 
Q 3106 -91 2203 -91 
Q 1297 -91 786 396 
Q 275 884 275 1747 
Q 275 2609 786 3096 
Q 1297 3584 2203 3584 
z
" transform="scale(0.015625)"/>
      <path id="DejaVuSans-Bold-73" d="M 3272 3391 
L 3272 2541 
Q 2913 2691 2578 2766 
Q 2244 2841 1947 2841 
Q 1628 2841 1473 2761 
Q 1319 2681 1319 2516 
Q 1319 2381 1436 2309 
Q 1553 2238 1856 2203 
L 2053 2175 
Q 2913 2066 3209 1816 
Q 3506 1566 3506 1031 
Q 3506 472 3093 190 
Q 2681 -91 1863 -91 
Q 1516 -91 1145 -36 
Q 775 19 384 128 
L 384 978 
Q 719 816 1070 734 
Q 1422 653 1784 653 
Q 2113 653 2278 743 
Q 2444 834 2444 1013 
Q 2444 1163 2330 1236 
Q 2216 1309 1875 1350 
L 1678 1375 
Q 931 1469 631 1722 
Q 331 1975 331 2491 
Q 331 3047 712 3315 
Q 1094 3584 1881 3584 
Q 2191 3584 2531 3537 
Q 2872 3491 3272 3391 
z
" transform="scale(0.015625)"/>
      <path id="DejaVuSans-Bold-70" d="M 1656 506 
L 1656 -1331 
L 538 -1331 
L 538 3500 
L 1656 3500 
L 1656 2988 
Q 1888 3294 2169 3439 
Q 2450 3584 2816 3584 
Q 3463 3584 3878 3070 
Q 4294 2556 4294 1747 
Q 4294 938 3878 423 
Q 3463 -91 2816 -91 
Q 2450 -91 2169 54 
Q 1888 200 1656 506 
z
M 2400 2772 
Q 2041 2772 1848 2508 
Q 1656 2244 1656 1747 
Q 1656 1250 1848 986 
Q 2041 722 2400 722 
Q 2759 722 2948 984 
Q 3138 1247 3138 1747 
Q 3138 2247 2948 2509 
Q 2759 2772 2400 2772 
z
" transform="scale(0.015625)"/>
      <path id="DejaVuSans-Bold-68" d="M 4056 2131 
L 4056 0 
L 2931 0 
L 2931 347 
L 2931 1625 
Q 2931 2084 2911 2256 
Q 2891 2428 2841 2509 
Q 2775 2619 2662 2680 
Q 2550 2741 2406 2741 
Q 2056 2741 1856 2470 
Q 1656 2200 1656 1722 
L 1656 0 
L 538 0 
L 538 4863 
L 1656 4863 
L 1656 2988 
Q 1909 3294 2193 3439 
Q 2478 3584 2822 3584 
Q 3428 3584 3742 3212 
Q 4056 2841 4056 2131 
z
" transform="scale(0.015625)"/>
      <path id="DejaVuSans-Bold-69" d="M 538 3500 
L 1656 3500 
L 1656 0 
L 538 0 
L 538 3500 
z
M 538 4863 
L 1656 4863 
L 1656 3950 
L 538 3950 
L 538 4863 
z
" transform="scale(0.015625)"/>
      <path id="DejaVuSans-Bold-6c" d="M 538 4863 
L 1656 4863 
L 1656 0 
L 538 0 
L 538 4863 
z
" transform="scale(0.015625)"/>
      <path id="DejaVuSans-Bold-61" d="M 2106 1575 
Q 1756 1575 1579 1456 
Q 1403 1338 1403 1106 
Q 1403 894 1545 773 
Q 1688 653 1941 653 
Q 2256 653 2472 879 
Q 2688 1106 2688 1447 
L 2688 1575 
L 2106 1575 
z
M 3816 1997 
L 3816 0 
L 2688 0 
L 2688 519 
Q 2463 200 2181 54 
Q 1900 -91 1497 -91 
Q 953 -91 614 226 
Q 275 544 275 1050 
Q 275 1666 698 1953 
Q 1122 2241 2028 2241 
L 2688 2241 
L 2688 2328 
Q 2688 2594 2478 2717 
Q 2269 2841 1825 2841 
Q 1466 2841 1156 2769 
Q 847 2697 581 2553 
L 581 3406 
Q 941 3494 1303 3539 
Q 1666 3584 2028 3584 
Q 2975 3584 3395 3211 
Q 3816 2838 3816 1997 
z
" transform="scale(0.015625)"/>
     </defs>
     <use xlink:href="#DejaVuSans-Bold-44"/>
     <use xlink:href="#DejaVuSans-Bold-72" transform="translate(83.007812 0)"/>
     <use xlink:href="#DejaVuSans-Bold-6f" transform="translate(132.324219 0)"/>
     <use xlink:href="#DejaVuSans-Bold-73" transform="translate(201.025391 0)"/>
     <use xlink:href="#DejaVuSans-Bold-6f" transform="translate(260.546875 0)"/>
     <use xlink:href="#DejaVuSans-Bold-70" transform="translate(329.248047 0)"/>
     <use xlink:href="#DejaVuSans-Bold-68" transform="translate(400.830078 0)"/>
     <use xlink:href="#DejaVuSans-Bold-69" transform="translate(472.021484 0)"/>
     <use xlink:href="#DejaVuSans-Bold-6c" transform="translate(506.298828 0)"/>
     <use xlink:href="#DejaVuSans-Bold-61" transform="translate(540.576172 0)"/>
    </g>
    <!-- melanogaster -->
    <g style="fill: #1a237e" transform="translate(241.653828 322.573154) scale(0.11 -0.11)">
     <defs>
      <path id="DejaVuSans-Bold-6d" d="M 3781 2919 
Q 3994 3244 4286 3414 
Q 4578 3584 4928 3584 
Q 5531 3584 5847 3212 
Q 6163 2841 6163 2131 
L 6163 0 
L 5038 0 
L 5038 1825 
Q 5041 1866 5042 1909 
Q 5044 1953 5044 2034 
Q 5044 2406 4934 2573 
Q 4825 2741 4581 2741 
Q 4263 2741 4089 2478 
Q 3916 2216 3909 1719 
L 3909 0 
L 2784 0 
L 2784 1825 
Q 2784 2406 2684 2573 
Q 2584 2741 2328 2741 
Q 2006 2741 1831 2477 
Q 1656 2213 1656 1722 
L 1656 0 
L 531 0 
L 531 3500 
L 1656 3500 
L 1656 2988 
Q 1863 3284 2130 3434 
Q 2397 3584 2719 3584 
Q 3081 3584 3359 3409 
Q 3638 3234 3781 2919 
z
" transform="scale(0.015625)"/>
      <path id="DejaVuSans-Bold-65" d="M 4031 1759 
L 4031 1441 
L 1416 1441 
Q 1456 1047 1700 850 
Q 1944 653 2381 653 
Q 2734 653 3104 758 
Q 3475 863 3866 1075 
L 3866 213 
Q 3469 63 3072 -14 
Q 2675 -91 2278 -91 
Q 1328 -91 801 392 
Q 275 875 275 1747 
Q 275 2603 792 3093 
Q 1309 3584 2216 3584 
Q 3041 3584 3536 3087 
Q 4031 2591 4031 1759 
z
M 2881 2131 
Q 2881 2450 2695 2645 
Q 2509 2841 2209 2841 
Q 1884 2841 1681 2658 
Q 1478 2475 1428 2131 
L 2881 2131 
z
" transform="scale(0.015625)"/>
      <path id="DejaVuSans-Bold-6e" d="M 4056 2131 
L 4056 0 
L 2931 0 
L 2931 347 
L 2931 1631 
Q 2931 2084 2911 2256 
Q 2891 2428 2841 2509 
Q 2775 2619 2662 2680 
Q 2550 2741 2406 2741 
Q 2056 2741 1856 2470 
Q 1656 2200 1656 1722 
L 1656 0 
L 538 0 
L 538 3500 
L 1656 3500 
L 1656 2988 
Q 1909 3294 2193 3439 
Q 2478 3584 2822 3584 
Q 3428 3584 3742 3212 
Q 4056 2841 4056 2131 
z
" transform="scale(0.015625)"/>
      <path id="DejaVuSans-Bold-67" d="M 2919 594 
Q 2688 288 2409 144 
Q 2131 0 1766 0 
Q 1125 0 706 504 
Q 288 1009 288 1791 
Q 288 2575 706 3076 
Q 1125 3578 1766 3578 
Q 2131 3578 2409 3434 
Q 2688 3291 2919 2981 
L 2919 3500 
L 4044 3500 
L 4044 353 
Q 4044 -491 3511 -936 
Q 2978 -1381 1966 -1381 
Q 1638 -1381 1331 -1331 
Q 1025 -1281 716 -1178 
L 716 -306 
Q 1009 -475 1290 -558 
Q 1572 -641 1856 -641 
Q 2406 -641 2662 -400 
Q 2919 -159 2919 353 
L 2919 594 
z
M 2181 2772 
Q 1834 2772 1640 2515 
Q 1447 2259 1447 1791 
Q 1447 1309 1634 1061 
Q 1822 813 2181 813 
Q 2531 813 2725 1069 
Q 2919 1325 2919 1791 
Q 2919 2259 2725 2515 
Q 2531 2772 2181 2772 
z
" transform="scale(0.015625)"/>
      <path id="DejaVuSans-Bold-74" d="M 1759 4494 
L 1759 3500 
L 2913 3500 
L 2913 2700 
L 1759 2700 
L 1759 1216 
Q 1759 972 1856 886 
Q 1953 800 2241 800 
L 2816 800 
L 2816 0 
L 1856 0 
Q 1194 0 917 276 
Q 641 553 641 1216 
L 641 2700 
L 84 2700 
L 84 3500 
L 641 3500 
L 641 4494 
L 1759 4494 
z
" transform="scale(0.015625)"/>
     </defs>
     <use xlink:href="#DejaVuSans-Bold-6d"/>
     <use xlink:href="#DejaVuSans-Bold-65" transform="translate(104.199219 0)"/>
     <use xlink:href="#DejaVuSans-Bold-6c" transform="translate(172.021484 0)"/>
     <use xlink:href="#DejaVuSans-Bold-61" transform="translate(206.298828 0)"/>
     <use xlink:href="#DejaVuSans-Bold-6e" transform="translate(273.779297 0)"/>
     <use xlink:href="#DejaVuSans-Bold-6f" transform="translate(344.970703 0)"/>
     <use xlink:href="#DejaVuSans-Bold-67" transform="translate(413.671875 0)"/>
     <use xlink:href="#DejaVuSans-Bold-61" transform="translate(485.253906 0)"/>
     <use xlink:href="#DejaVuSans-Bold-73" transform="translate(552.734375 0)"/>
     <use xlink:href="#DejaVuSans-Bold-74" transform="translate(612.255859 0)"/>
     <use xlink:href="#DejaVuSans-Bold-65" transform="translate(660.058594 0)"/>
     <use xlink:href="#DejaVuSans-Bold-72" transform="translate(727.880859 0)"/>
    </g>
   </g>
   <g id="text_8">
    <g id="patch_20">
     <path d="M 249.8625 367.326411 
L 318.9375 367.326411 
Q 323.4375 367.326411 323.4375 362.826411 
L 323.4375 333.528036 
Q 323.4375 329.028036 318.9375 329.028036 
L 249.8625 329.028036 
Q 245.3625 329.028036 245.3625 333.528036 
L 245.3625 362.826411 
Q 245.3625 367.326411 249.8625 367.326411 
z
" style="fill: #e8eaf6; stroke: #1a237e; stroke-width: 1.5; stroke-linejoin: miter"/>
    </g>
    <!-- Holométabole -->
    <g style="fill: #555555" transform="translate(252.955547 340.36663) scale(0.09 -0.09)">
     <defs>
      <path id="DejaVuSans-48" d="M 628 4666 
L 1259 4666 
L 1259 2753 
L 3553 2753 
L 3553 4666 
L 4184 4666 
L 4184 0 
L 3553 0 
L 3553 2222 
L 1259 2222 
L 1259 0 
L 628 0 
L 628 4666 
z
" transform="scale(0.015625)"/>
      <path id="DejaVuSans-6f" d="M 1959 3097 
Q 1497 3097 1228 2736 
Q 959 2375 959 1747 
Q 959 1119 1226 758 
Q 1494 397 1959 397 
Q 2419 397 2687 759 
Q 2956 1122 2956 1747 
Q 2956 2369 2687 2733 
Q 2419 3097 1959 3097 
z
M 1959 3584 
Q 2709 3584 3137 3096 
Q 3566 2609 3566 1747 
Q 3566 888 3137 398 
Q 2709 -91 1959 -91 
Q 1206 -91 779 398 
Q 353 888 353 1747 
Q 353 2609 779 3096 
Q 1206 3584 1959 3584 
z
" transform="scale(0.015625)"/>
      <path id="DejaVuSans-6c" d="M 603 4863 
L 1178 4863 
L 1178 0 
L 603 0 
L 603 4863 
z
" transform="scale(0.015625)"/>
      <path id="DejaVuSans-6d" d="M 3328 2828 
Q 3544 3216 3844 3400 
Q 4144 3584 4550 3584 
Q 5097 3584 5394 3201 
Q 5691 2819 5691 2113 
L 5691 0 
L 5113 0 
L 5113 2094 
Q 5113 2597 4934 2840 
Q 4756 3084 4391 3084 
Q 3944 3084 3684 2787 
Q 3425 2491 3425 1978 
L 3425 0 
L 2847 0 
L 2847 2094 
Q 2847 2600 2669 2842 
Q 2491 3084 2119 3084 
Q 1678 3084 1418 2786 
Q 1159 2488 1159 1978 
L 1159 0 
L 581 0 
L 581 3500 
L 1159 3500 
L 1159 2956 
Q 1356 3278 1631 3431 
Q 1906 3584 2284 3584 
Q 2666 3584 2933 3390 
Q 3200 3197 3328 2828 
z
" transform="scale(0.015625)"/>
      <path id="DejaVuSans-e9" d="M 3597 1894 
L 3597 1613 
L 953 1613 
Q 991 1019 1311 708 
Q 1631 397 2203 397 
Q 2534 397 2845 478 
Q 3156 559 3463 722 
L 3463 178 
Q 3153 47 2828 -22 
Q 2503 -91 2169 -91 
Q 1331 -91 842 396 
Q 353 884 353 1716 
Q 353 2575 817 3079 
Q 1281 3584 2069 3584 
Q 2775 3584 3186 3129 
Q 3597 2675 3597 1894 
z
M 3022 2063 
Q 3016 2534 2758 2815 
Q 2500 3097 2075 3097 
Q 1594 3097 1305 2825 
Q 1016 2553 972 2059 
L 3022 2063 
z
M 2466 5119 
L 3088 5119 
L 2070 3944 
L 1591 3944 
L 2466 5119 
z
" transform="scale(0.015625)"/>
      <path id="DejaVuSans-74" d="M 1172 4494 
L 1172 3500 
L 2356 3500 
L 2356 3053 
L 1172 3053 
L 1172 1153 
Q 1172 725 1289 603 
Q 1406 481 1766 481 
L 2356 481 
L 2356 0 
L 1766 0 
Q 1100 0 847 248 
Q 594 497 594 1153 
L 594 3053 
L 172 3053 
L 172 3500 
L 594 3500 
L 594 4494 
L 1172 4494 
z
" transform="scale(0.015625)"/>
      <path id="DejaVuSans-61" d="M 2194 1759 
Q 1497 1759 1228 1600 
Q 959 1441 959 1056 
Q 959 750 1161 570 
Q 1363 391 1709 391 
Q 2188 391 2477 730 
Q 2766 1069 2766 1631 
L 2766 1759 
L 2194 1759 
z
M 3341 1997 
L 3341 0 
L 2766 0 
L 2766 531 
Q 2569 213 2275 61 
Q 1981 -91 1556 -91 
Q 1019 -91 701 211 
Q 384 513 384 1019 
Q 384 1609 779 1909 
Q 1175 2209 1959 2209 
L 2766 2209 
L 2766 2266 
Q 2766 2663 2505 2880 
Q 2244 3097 1772 3097 
Q 1472 3097 1187 3025 
Q 903 2953 641 2809 
L 641 3341 
Q 956 3463 1253 3523 
Q 1550 3584 1831 3584 
Q 2591 3584 2966 3190 
Q 3341 2797 3341 1997 
z
" transform="scale(0.015625)"/>
      <path id="DejaVuSans-62" d="M 3116 1747 
Q 3116 2381 2855 2742 
Q 2594 3103 2138 3103 
Q 1681 3103 1420 2742 
Q 1159 2381 1159 1747 
Q 1159 1113 1420 752 
Q 1681 391 2138 391 
Q 2594 391 2855 752 
Q 3116 1113 3116 1747 
z
M 1159 2969 
Q 1341 3281 1617 3432 
Q 1894 3584 2278 3584 
Q 2916 3584 3314 3078 
Q 3713 2572 3713 1747 
Q 3713 922 3314 415 
Q 2916 -91 2278 -91 
Q 1894 -91 1617 61 
Q 1341 213 1159 525 
L 1159 0 
L 581 0 
L 581 4863 
L 1159 4863 
L 1159 2969 
z
" transform="scale(0.015625)"/>
      <path id="DejaVuSans-65" d="M 3597 1894 
L 3597 1613 
L 953 1613 
Q 991 1019 1311 708 
Q 1631 397 2203 397 
Q 2534 397 2845 478 
Q 3156 559 3463 722 
L 3463 178 
Q 3153 47 2828 -22 
Q 2503 -91 2169 -91 
Q 1331 -91 842 396 
Q 353 884 353 1716 
Q 353 2575 817 3079 
Q 1281 3584 2069 3584 
Q 2775 3584 3186 3129 
Q 3597 2675 3597 1894 
z
M 3022 2063 
Q 3016 2534 2758 2815 
Q 2500 3097 2075 3097 
Q 1594 3097 1305 2825 
Q 1016 2553 972 2059 
L 3022 2063 
z
" transform="scale(0.015625)"/>
     </defs>
     <use xlink:href="#DejaVuSans-48"/>
     <use xlink:href="#DejaVuSans-6f" transform="translate(75.195312 0)"/>
     <use xlink:href="#DejaVuSans-6c" transform="translate(136.376953 0)"/>
     <use xlink:href="#DejaVuSans-6f" transform="translate(164.160156 0)"/>
     <use xlink:href="#DejaVuSans-6d" transform="translate(225.341797 0)"/>
     <use xlink:href="#DejaVuSans-e9" transform="translate(322.753906 0)"/>
     <use xlink:href="#DejaVuSans-74" transform="translate(384.277344 0)"/>
     <use xlink:href="#DejaVuSans-61" transform="translate(423.486328 0)"/>
     <use xlink:href="#DejaVuSans-62" transform="translate(484.765625 0)"/>
     <use xlink:href="#DejaVuSans-6f" transform="translate(548.242188 0)"/>
     <use xlink:href="#DejaVuSans-6c" transform="translate(609.423828 0)"/>
     <use xlink:href="#DejaVuSans-65" transform="translate(637.207031 0)"/>
    </g>
    <!-- 4 chr. (2n = 8) -->
    <g style="fill: #555555" transform="translate(251.760234 350.444661) scale(0.09 -0.09)">
     <defs>
      <path id="DejaVuSans-34" d="M 2419 4116 
L 825 1625 
L 2419 1625 
L 2419 4116 
z
M 2253 4666 
L 3047 4666 
L 3047 1625 
L 3713 1625 
L 3713 1100 
L 3047 1100 
L 3047 0 
L 2419 0 
L 2419 1100 
L 313 1100 
L 313 1709 
L 2253 4666 
z
" transform="scale(0.015625)"/>
      <path id="DejaVuSans-20" transform="scale(0.015625)"/>
      <path id="DejaVuSans-63" d="M 3122 3366 
L 3122 2828 
Q 2878 2963 2633 3030 
Q 2388 3097 2138 3097 
Q 1578 3097 1268 2742 
Q 959 2388 959 1747 
Q 959 1106 1268 751 
Q 1578 397 2138 397 
Q 2388 397 2633 464 
Q 2878 531 3122 666 
L 3122 134 
Q 2881 22 2623 -34 
Q 2366 -91 2075 -91 
Q 1284 -91 818 406 
Q 353 903 353 1747 
Q 353 2603 823 3093 
Q 1294 3584 2113 3584 
Q 2378 3584 2631 3529 
Q 2884 3475 3122 3366 
z
" transform="scale(0.015625)"/>
      <path id="DejaVuSans-68" d="M 3513 2113 
L 3513 0 
L 2938 0 
L 2938 2094 
Q 2938 2591 2744 2837 
Q 2550 3084 2163 3084 
Q 1697 3084 1428 2787 
Q 1159 2491 1159 1978 
L 1159 0 
L 581 0 
L 581 4863 
L 1159 4863 
L 1159 2956 
Q 1366 3272 1645 3428 
Q 1925 3584 2291 3584 
Q 2894 3584 3203 3211 
Q 3513 2838 3513 2113 
z
" transform="scale(0.015625)"/>
      <path id="DejaVuSans-72" d="M 2631 2963 
Q 2534 3019 2420 3045 
Q 2306 3072 2169 3072 
Q 1681 3072 1420 2755 
Q 1159 2438 1159 1844 
L 1159 0 
L 581 0 
L 581 3500 
L 1159 3500 
L 1159 2956 
Q 1341 3275 1631 3429 
Q 1922 3584 2338 3584 
Q 2397 3584 2469 3576 
Q 2541 3569 2628 3553 
L 2631 2963 
z
" transform="scale(0.015625)"/>
      <path id="DejaVuSans-2e" d="M 684 794 
L 1344 794 
L 1344 0 
L 684 0 
L 684 794 
z
" transform="scale(0.015625)"/>
      <path id="DejaVuSans-28" d="M 1984 4856 
Q 1566 4138 1362 3434 
Q 1159 2731 1159 2009 
Q 1159 1288 1364 580 
Q 1569 -128 1984 -844 
L 1484 -844 
Q 1016 -109 783 600 
Q 550 1309 550 2009 
Q 550 2706 781 3412 
Q 1013 4119 1484 4856 
L 1984 4856 
z
" transform="scale(0.015625)"/>
      <path id="DejaVuSans-32" d="M 1228 531 
L 3431 531 
L 3431 0 
L 469 0 
L 469 531 
Q 828 903 1448 1529 
Q 2069 2156 2228 2338 
Q 2531 2678 2651 2914 
Q 2772 3150 2772 3378 
Q 2772 3750 2511 3984 
Q 2250 4219 1831 4219 
Q 1534 4219 1204 4116 
Q 875 4013 500 3803 
L 500 4441 
Q 881 4594 1212 4672 
Q 1544 4750 1819 4750 
Q 2544 4750 2975 4387 
Q 3406 4025 3406 3419 
Q 3406 3131 3298 2873 
Q 3191 2616 2906 2266 
Q 2828 2175 2409 1742 
Q 1991 1309 1228 531 
z
" transform="scale(0.015625)"/>
      <path id="DejaVuSans-6e" d="M 3513 2113 
L 3513 0 
L 2938 0 
L 2938 2094 
Q 2938 2591 2744 2837 
Q 2550 3084 2163 3084 
Q 1697 3084 1428 2787 
Q 1159 2491 1159 1978 
L 1159 0 
L 581 0 
L 581 3500 
L 1159 3500 
L 1159 2956 
Q 1366 3272 1645 3428 
Q 1925 3584 2291 3584 
Q 2894 3584 3203 3211 
Q 3513 2838 3513 2113 
z
" transform="scale(0.015625)"/>
      <path id="DejaVuSans-3d" d="M 678 2906 
L 4684 2906 
L 4684 2381 
L 678 2381 
L 678 2906 
z
M 678 1631 
L 4684 1631 
L 4684 1100 
L 678 1100 
L 678 1631 
z
" transform="scale(0.015625)"/>
      <path id="DejaVuSans-38" d="M 2034 2216 
Q 1584 2216 1326 1975 
Q 1069 1734 1069 1313 
Q 1069 891 1326 650 
Q 1584 409 2034 409 
Q 2484 409 2743 651 
Q 3003 894 3003 1313 
Q 3003 1734 2745 1975 
Q 2488 2216 2034 2216 
z
M 1403 2484 
Q 997 2584 770 2862 
Q 544 3141 544 3541 
Q 544 4100 942 4425 
Q 1341 4750 2034 4750 
Q 2731 4750 3128 4425 
Q 3525 4100 3525 3541 
Q 3525 3141 3298 2862 
Q 3072 2584 2669 2484 
Q 3125 2378 3379 2068 
Q 3634 1759 3634 1313 
Q 3634 634 3220 271 
Q 2806 -91 2034 -91 
Q 1263 -91 848 271 
Q 434 634 434 1313 
Q 434 1759 690 2068 
Q 947 2378 1403 2484 
z
M 1172 3481 
Q 1172 3119 1398 2916 
Q 1625 2713 2034 2713 
Q 2441 2713 2670 2916 
Q 2900 3119 2900 3481 
Q 2900 3844 2670 4047 
Q 2441 4250 2034 4250 
Q 1625 4250 1398 4047 
Q 1172 3844 1172 3481 
z
" transform="scale(0.015625)"/>
      <path id="DejaVuSans-29" d="M 513 4856 
L 1013 4856 
Q 1481 4119 1714 3412 
Q 1947 2706 1947 2009 
Q 1947 1309 1714 600 
Q 1481 -109 1013 -844 
L 513 -844 
Q 928 -128 1133 580 
Q 1338 1288 1338 2009 
Q 1338 2731 1133 3434 
Q 928 4138 513 4856 
z
" transform="scale(0.015625)"/>
     </defs>
     <use xlink:href="#DejaVuSans-34"/>
     <use xlink:href="#DejaVuSans-20" transform="translate(63.623047 0)"/>
     <use xlink:href="#DejaVuSans-63" transform="translate(95.410156 0)"/>
     <use xlink:href="#DejaVuSans-68" transform="translate(150.390625 0)"/>
     <use xlink:href="#DejaVuSans-72" transform="translate(213.769531 0)"/>
     <use xlink:href="#DejaVuSans-2e" transform="translate(245.757812 0)"/>
     <use xlink:href="#DejaVuSans-20" transform="translate(277.544922 0)"/>
     <use xlink:href="#DejaVuSans-28" transform="translate(309.332031 0)"/>
     <use xlink:href="#DejaVuSans-32" transform="translate(348.345703 0)"/>
     <use xlink:href="#DejaVuSans-6e" transform="translate(411.96875 0)"/>
     <use xlink:href="#DejaVuSans-20" transform="translate(475.347656 0)"/>
     <use xlink:href="#DejaVuSans-3d" transform="translate(507.134766 0)"/>
     <use xlink:href="#DejaVuSans-20" transform="translate(590.923828 0)"/>
     <use xlink:href="#DejaVuSans-38" transform="translate(622.710938 0)"/>
     <use xlink:href="#DejaVuSans-29" transform="translate(686.333984 0)"/>
    </g>
    <!-- ~14 000 gènes -->
    <g style="fill: #555555" transform="translate(249.8625 360.954692) scale(0.09 -0.09)">
     <defs>
      <path id="DejaVuSans-7e" d="M 4684 2553 
L 4684 1997 
Q 4356 1750 4076 1644 
Q 3797 1538 3494 1538 
Q 3150 1538 2694 1722 
Q 2659 1734 2644 1741 
Q 2622 1750 2575 1766 
Q 2091 1959 1797 1959 
Q 1522 1959 1253 1839 
Q 984 1719 678 1459 
L 678 2016 
Q 1006 2263 1286 2370 
Q 1566 2478 1869 2478 
Q 2213 2478 2672 2291 
Q 2703 2278 2719 2272 
Q 2744 2263 2788 2247 
Q 3272 2053 3566 2053 
Q 3834 2053 4098 2172 
Q 4363 2291 4684 2553 
z
" transform="scale(0.015625)"/>
      <path id="DejaVuSans-31" d="M 794 531 
L 1825 531 
L 1825 4091 
L 703 3866 
L 703 4441 
L 1819 4666 
L 2450 4666 
L 2450 531 
L 3481 531 
L 3481 0 
L 794 0 
L 794 531 
z
" transform="scale(0.015625)"/>
      <path id="DejaVuSans-30" d="M 2034 4250 
Q 1547 4250 1301 3770 
Q 1056 3291 1056 2328 
Q 1056 1369 1301 889 
Q 1547 409 2034 409 
Q 2525 409 2770 889 
Q 3016 1369 3016 2328 
Q 3016 3291 2770 3770 
Q 2525 4250 2034 4250 
z
M 2034 4750 
Q 2819 4750 3233 4129 
Q 3647 3509 3647 2328 
Q 3647 1150 3233 529 
Q 2819 -91 2034 -91 
Q 1250 -91 836 529 
Q 422 1150 422 2328 
Q 422 3509 836 4129 
Q 1250 4750 2034 4750 
z
" transform="scale(0.015625)"/>
      <path id="DejaVuSans-67" d="M 2906 1791 
Q 2906 2416 2648 2759 
Q 2391 3103 1925 3103 
Q 1463 3103 1205 2759 
Q 947 2416 947 1791 
Q 947 1169 1205 825 
Q 1463 481 1925 481 
Q 2391 481 2648 825 
Q 2906 1169 2906 1791 
z
M 3481 434 
Q 3481 -459 3084 -895 
Q 2688 -1331 1869 -1331 
Q 1566 -1331 1297 -1286 
Q 1028 -1241 775 -1147 
L 775 -588 
Q 1028 -725 1275 -790 
Q 1522 -856 1778 -856 
Q 2344 -856 2625 -561 
Q 2906 -266 2906 331 
L 2906 616 
Q 2728 306 2450 153 
Q 2172 0 1784 0 
Q 1141 0 747 490 
Q 353 981 353 1791 
Q 353 2603 747 3093 
Q 1141 3584 1784 3584 
Q 2172 3584 2450 3431 
Q 2728 3278 2906 2969 
L 2906 3500 
L 3481 3500 
L 3481 434 
z
" transform="scale(0.015625)"/>
      <path id="DejaVuSans-e8" d="M 3597 1894 
L 3597 1613 
L 953 1613 
Q 991 1019 1311 708 
Q 1631 397 2203 397 
Q 2534 397 2845 478 
Q 3156 559 3463 722 
L 3463 178 
Q 3153 47 2828 -22 
Q 2503 -91 2169 -91 
Q 1331 -91 842 396 
Q 353 884 353 1716 
Q 353 2575 817 3079 
Q 1281 3584 2069 3584 
Q 2775 3584 3186 3129 
Q 3597 2675 3597 1894 
z
M 3022 2063 
Q 3016 2534 2758 2815 
Q 2500 3097 2075 3097 
Q 1594 3097 1305 2825 
Q 1016 2553 972 2059 
L 3022 2063 
z
M 1579 5119 
L 2460 3950 
L 1982 3950 
L 963 5119 
L 1579 5119 
z
" transform="scale(0.015625)"/>
      <path id="DejaVuSans-73" d="M 2834 3397 
L 2834 2853 
Q 2591 2978 2328 3040 
Q 2066 3103 1784 3103 
Q 1356 3103 1142 2972 
Q 928 2841 928 2578 
Q 928 2378 1081 2264 
Q 1234 2150 1697 2047 
L 1894 2003 
Q 2506 1872 2764 1633 
Q 3022 1394 3022 966 
Q 3022 478 2636 193 
Q 2250 -91 1575 -91 
Q 1294 -91 989 -36 
Q 684 19 347 128 
L 347 722 
Q 666 556 975 473 
Q 1284 391 1588 391 
Q 1994 391 2212 530 
Q 2431 669 2431 922 
Q 2431 1156 2273 1281 
Q 2116 1406 1581 1522 
L 1381 1569 
Q 847 1681 609 1914 
Q 372 2147 372 2553 
Q 372 3047 722 3315 
Q 1072 3584 1716 3584 
Q 2034 3584 2315 3537 
Q 2597 3491 2834 3397 
z
" transform="scale(0.015625)"/>
     </defs>
     <use xlink:href="#DejaVuSans-7e"/>
     <use xlink:href="#DejaVuSans-31" transform="translate(83.789062 0)"/>
     <use xlink:href="#DejaVuSans-34" transform="translate(147.412109 0)"/>
     <use xlink:href="#DejaVuSans-20" transform="translate(211.035156 0)"/>
     <use xlink:href="#DejaVuSans-30" transform="translate(242.822266 0)"/>
     <use xlink:href="#DejaVuSans-30" transform="translate(306.445312 0)"/>
     <use xlink:href="#DejaVuSans-30" transform="translate(370.068359 0)"/>
     <use xlink:href="#DejaVuSans-20" transform="translate(433.691406 0)"/>
     <use xlink:href="#DejaVuSans-67" transform="translate(465.478516 0)"/>
     <use xlink:href="#DejaVuSans-e8" transform="translate(528.955078 0)"/>
     <use xlink:href="#DejaVuSans-6e" transform="translate(590.478516 0)"/>
     <use xlink:href="#DejaVuSans-65" transform="translate(653.857422 0)"/>
     <use xlink:href="#DejaVuSans-73" transform="translate(715.380859 0)"/>
    </g>
   </g>
   <g id="text_9">
    <!-- Cycle de vie de Drosophila melanogaster -->
    <g style="fill: #1a237e" transform="translate(99.9675 19.3575) scale(0.16 -0.16)">
     <defs>
      <path id="DejaVuSans-Bold-43" d="M 4288 256 
Q 3956 84 3597 -3 
Q 3238 -91 2847 -91 
Q 1681 -91 1000 561 
Q 319 1213 319 2328 
Q 319 3447 1000 4098 
Q 1681 4750 2847 4750 
Q 3238 4750 3597 4662 
Q 3956 4575 4288 4403 
L 4288 3438 
Q 3953 3666 3628 3772 
Q 3303 3878 2944 3878 
Q 2300 3878 1931 3465 
Q 1563 3053 1563 2328 
Q 1563 1606 1931 1193 
Q 2300 781 2944 781 
Q 3303 781 3628 887 
Q 3953 994 4288 1222 
L 4288 256 
z
" transform="scale(0.015625)"/>
      <path id="DejaVuSans-Bold-79" d="M 78 3500 
L 1197 3500 
L 2138 1125 
L 2938 3500 
L 4056 3500 
L 2584 -331 
Q 2363 -916 2067 -1148 
Q 1772 -1381 1288 -1381 
L 641 -1381 
L 641 -647 
L 991 -647 
Q 1275 -647 1404 -556 
Q 1534 -466 1606 -231 
L 1638 -134 
L 78 3500 
z
" transform="scale(0.015625)"/>
      <path id="DejaVuSans-Bold-63" d="M 3366 3391 
L 3366 2478 
Q 3138 2634 2908 2709 
Q 2678 2784 2431 2784 
Q 1963 2784 1702 2511 
Q 1441 2238 1441 1747 
Q 1441 1256 1702 982 
Q 1963 709 2431 709 
Q 2694 709 2930 787 
Q 3166 866 3366 1019 
L 3366 103 
Q 3103 6 2833 -42 
Q 2563 -91 2291 -91 
Q 1344 -91 809 395 
Q 275 881 275 1747 
Q 275 2613 809 3098 
Q 1344 3584 2291 3584 
Q 2566 3584 2833 3536 
Q 3100 3488 3366 3391 
z
" transform="scale(0.015625)"/>
      <path id="DejaVuSans-Bold-20" transform="scale(0.015625)"/>
      <path id="DejaVuSans-Bold-64" d="M 2919 2988 
L 2919 4863 
L 4044 4863 
L 4044 0 
L 2919 0 
L 2919 506 
Q 2688 197 2409 53 
Q 2131 -91 1766 -91 
Q 1119 -91 703 423 
Q 288 938 288 1747 
Q 288 2556 703 3070 
Q 1119 3584 1766 3584 
Q 2128 3584 2408 3439 
Q 2688 3294 2919 2988 
z
M 2181 722 
Q 2541 722 2730 984 
Q 2919 1247 2919 1747 
Q 2919 2247 2730 2509 
Q 2541 2772 2181 2772 
Q 1825 2772 1636 2509 
Q 1447 2247 1447 1747 
Q 1447 1247 1636 984 
Q 1825 722 2181 722 
z
" transform="scale(0.015625)"/>
      <path id="DejaVuSans-Bold-76" d="M 97 3500 
L 1216 3500 
L 2088 1081 
L 2956 3500 
L 4078 3500 
L 2700 0 
L 1472 0 
L 97 3500 
z
" transform="scale(0.015625)"/>
     </defs>
     <use xlink:href="#DejaVuSans-Bold-43"/>
     <use xlink:href="#DejaVuSans-Bold-79" transform="translate(73.388672 0)"/>
     <use xlink:href="#DejaVuSans-Bold-63" transform="translate(138.574219 0)"/>
     <use xlink:href="#DejaVuSans-Bold-6c" transform="translate(197.851562 0)"/>
     <use xlink:href="#DejaVuSans-Bold-65" transform="translate(232.128906 0)"/>
     <use xlink:href="#DejaVuSans-Bold-20" transform="translate(299.951172 0)"/>
     <use xlink:href="#DejaVuSans-Bold-64" transform="translate(334.765625 0)"/>
     <use xlink:href="#DejaVuSans-Bold-65" transform="translate(406.347656 0)"/>
     <use xlink:href="#DejaVuSans-Bold-20" transform="translate(474.169922 0)"/>
     <use xlink:href="#DejaVuSans-Bold-76" transform="translate(508.984375 0)"/>
     <use xlink:href="#DejaVuSans-Bold-69" transform="translate(574.169922 0)"/>
     <use xlink:href="#DejaVuSans-Bold-65" transform="translate(608.447266 0)"/>
     <use xlink:href="#DejaVuSans-Bold-20" transform="translate(676.269531 0)"/>
     <use xlink:href="#DejaVuSans-Bold-64" transform="translate(711.083984 0)"/>
     <use xlink:href="#DejaVuSans-Bold-65" transform="translate(782.666016 0)"/>
     <use xlink:href="#DejaVuSans-Bold-20" transform="translate(850.488281 0)"/>
     <use xlink:href="#DejaVuSans-Bold-44" transform="translate(885.302734 0)"/>
     <use xlink:href="#DejaVuSans-Bold-72" transform="translate(968.310547 0)"/>
     <use xlink:href="#DejaVuSans-Bold-6f" transform="translate(1017.626953 0)"/>
     <use xlink:href="#DejaVuSans-Bold-73" transform="translate(1086.328125 0)"/>
     <use xlink:href="#DejaVuSans-Bold-6f" transform="translate(1145.849609 0)"/>
     <use xlink:href="#DejaVuSans-Bold-70" transform="translate(1214.550781 0)"/>
     <use xlink:href="#DejaVuSans-Bold-68" transform="translate(1286.132812 0)"/>
     <use xlink:href="#DejaVuSans-Bold-69" transform="translate(1357.324219 0)"/>
     <use xlink:href="#DejaVuSans-Bold-6c" transform="translate(1391.601562 0)"/>
     <use xlink:href="#DejaVuSans-Bold-61" transform="translate(1425.878906 0)"/>
     <use xlink:href="#DejaVuSans-Bold-20" transform="translate(1493.359375 0)"/>
     <use xlink:href="#DejaVuSans-Bold-6d" transform="translate(1528.173828 0)"/>
     <use xlink:href="#DejaVuSans-Bold-65" transform="translate(1632.373047 0)"/>
     <use xlink:href="#DejaVuSans-Bold-6c" transform="translate(1700.195312 0)"/>
     <use xlink:href="#DejaVuSans-Bold-61" transform="translate(1734.472656 0)"/>
     <use xlink:href="#DejaVuSans-Bold-6e" transform="translate(1801.953125 0)"/>
     <use xlink:href="#DejaVuSans-Bold-6f" transform="translate(1873.144531 0)"/>
     <use xlink:href="#DejaVuSans-Bold-67" transform="translate(1941.845703 0)"/>
     <use xlink:href="#DejaVuSans-Bold-61" transform="translate(2013.427734 0)"/>
     <use xlink:href="#DejaVuSans-Bold-73" transform="translate(2080.908203 0)"/>
     <use xlink:href="#DejaVuSans-Bold-74" transform="translate(2140.429688 0)"/>
     <use xlink:href="#DejaVuSans-Bold-65" transform="translate(2188.232422 0)"/>
     <use xlink:href="#DejaVuSans-Bold-72" transform="translate(2256.054688 0)"/>
    </g>
    <!-- (~10 jours à 25 °C) -->
    <g style="fill: #1a237e" transform="translate(199.06875 38.167) scale(0.16 -0.16)">
     <defs>
      <path id="DejaVuSans-Bold-28" d="M 2413 -844 
L 1484 -844 
Q 1006 -72 778 623 
Q 550 1319 550 2003 
Q 550 2688 779 3389 
Q 1009 4091 1484 4856 
L 2413 4856 
Q 2013 4116 1813 3408 
Q 1613 2700 1613 2009 
Q 1613 1319 1811 609 
Q 2009 -100 2413 -844 
z
" transform="scale(0.015625)"/>
      <path id="DejaVuSans-Bold-7e" d="M 4684 2656 
L 4684 1894 
Q 4353 1644 4073 1536 
Q 3794 1428 3494 1428 
Q 3159 1428 2713 1609 
Q 2669 1628 2644 1638 
Q 2622 1647 2575 1666 
Q 2091 1856 1797 1856 
Q 1522 1856 1253 1736 
Q 984 1616 678 1356 
L 678 2119 
Q 1013 2369 1291 2476 
Q 1569 2584 1869 2584 
Q 2203 2584 2650 2403 
Q 2697 2384 2719 2375 
Q 2741 2366 2788 2347 
Q 3272 2156 3566 2156 
Q 3834 2156 4098 2273 
Q 4363 2391 4684 2656 
z
" transform="scale(0.015625)"/>
      <path id="DejaVuSans-Bold-31" d="M 750 831 
L 1813 831 
L 1813 3847 
L 722 3622 
L 722 4441 
L 1806 4666 
L 2950 4666 
L 2950 831 
L 4013 831 
L 4013 0 
L 750 0 
L 750 831 
z
" transform="scale(0.015625)"/>
      <path id="DejaVuSans-Bold-30" d="M 2944 2338 
Q 2944 3213 2780 3570 
Q 2616 3928 2228 3928 
Q 1841 3928 1675 3570 
Q 1509 3213 1509 2338 
Q 1509 1453 1675 1090 
Q 1841 728 2228 728 
Q 2613 728 2778 1090 
Q 2944 1453 2944 2338 
z
M 4147 2328 
Q 4147 1169 3647 539 
Q 3147 -91 2228 -91 
Q 1306 -91 806 539 
Q 306 1169 306 2328 
Q 306 3491 806 4120 
Q 1306 4750 2228 4750 
Q 3147 4750 3647 4120 
Q 4147 3491 4147 2328 
z
" transform="scale(0.015625)"/>
      <path id="DejaVuSans-Bold-6a" d="M 538 3500 
L 1656 3500 
L 1656 63 
Q 1656 -641 1318 -1011 
Q 981 -1381 341 -1381 
L -213 -1381 
L -213 -647 
L -19 -647 
Q 300 -647 419 -503 
Q 538 -359 538 63 
L 538 3500 
z
M 538 4863 
L 1656 4863 
L 1656 3950 
L 538 3950 
L 538 4863 
z
" transform="scale(0.015625)"/>
      <path id="DejaVuSans-Bold-75" d="M 500 1363 
L 500 3500 
L 1625 3500 
L 1625 3150 
Q 1625 2866 1622 2436 
Q 1619 2006 1619 1863 
Q 1619 1441 1641 1255 
Q 1663 1069 1716 984 
Q 1784 875 1895 815 
Q 2006 756 2150 756 
Q 2500 756 2700 1025 
Q 2900 1294 2900 1772 
L 2900 3500 
L 4019 3500 
L 4019 0 
L 2900 0 
L 2900 506 
Q 2647 200 2364 54 
Q 2081 -91 1741 -91 
Q 1134 -91 817 281 
Q 500 653 500 1363 
z
" transform="scale(0.015625)"/>
      <path id="DejaVuSans-Bold-e0" d="M 2106 1575 
Q 1756 1575 1579 1456 
Q 1403 1338 1403 1106 
Q 1403 894 1545 773 
Q 1688 653 1941 653 
Q 2256 653 2472 879 
Q 2688 1106 2688 1447 
L 2688 1575 
L 2106 1575 
z
M 3816 1997 
L 3816 0 
L 2688 0 
L 2688 519 
Q 2463 200 2181 54 
Q 1900 -91 1497 -91 
Q 953 -91 614 226 
Q 275 544 275 1050 
Q 275 1666 698 1953 
Q 1122 2241 2028 2241 
L 2688 2241 
L 2688 2328 
Q 2688 2594 2478 2717 
Q 2269 2841 1825 2841 
Q 1466 2841 1156 2769 
Q 847 2697 581 2553 
L 581 3406 
Q 941 3494 1303 3539 
Q 1666 3584 2028 3584 
Q 2975 3584 3395 3211 
Q 3816 2838 3816 1997 
z
M 1762 5119 
L 2643 3944 
L 2031 3944 
L 878 5119 
L 1762 5119 
z
" transform="scale(0.015625)"/>
      <path id="DejaVuSans-Bold-32" d="M 1844 884 
L 3897 884 
L 3897 0 
L 506 0 
L 506 884 
L 2209 2388 
Q 2438 2594 2547 2791 
Q 2656 2988 2656 3200 
Q 2656 3528 2436 3728 
Q 2216 3928 1850 3928 
Q 1569 3928 1234 3808 
Q 900 3688 519 3450 
L 519 4475 
Q 925 4609 1322 4679 
Q 1719 4750 2100 4750 
Q 2938 4750 3402 4381 
Q 3866 4013 3866 3353 
Q 3866 2972 3669 2642 
Q 3472 2313 2841 1759 
L 1844 884 
z
" transform="scale(0.015625)"/>
      <path id="DejaVuSans-Bold-35" d="M 678 4666 
L 3669 4666 
L 3669 3781 
L 1638 3781 
L 1638 3059 
Q 1775 3097 1914 3117 
Q 2053 3138 2203 3138 
Q 3056 3138 3531 2711 
Q 4006 2284 4006 1522 
Q 4006 766 3489 337 
Q 2972 -91 2053 -91 
Q 1656 -91 1267 -14 
Q 878 63 494 219 
L 494 1166 
Q 875 947 1217 837 
Q 1559 728 1863 728 
Q 2300 728 2551 942 
Q 2803 1156 2803 1522 
Q 2803 1891 2551 2103 
Q 2300 2316 1863 2316 
Q 1603 2316 1309 2248 
Q 1016 2181 678 2041 
L 678 4666 
z
" transform="scale(0.015625)"/>
      <path id="DejaVuSans-Bold-b0" d="M 1600 4288 
Q 1375 4288 1219 4131 
Q 1063 3975 1063 3750 
Q 1063 3525 1217 3372 
Q 1372 3219 1600 3219 
Q 1825 3219 1981 3373 
Q 2138 3528 2138 3750 
Q 2138 3975 1980 4131 
Q 1822 4288 1600 4288 
z
M 1600 4794 
Q 1806 4794 1997 4714 
Q 2188 4634 2338 4488 
Q 2484 4338 2561 4150 
Q 2638 3963 2638 3750 
Q 2638 3541 2561 3352 
Q 2484 3163 2344 3022 
Q 2194 2872 2000 2792 
Q 1806 2713 1594 2713 
Q 1153 2713 854 3011 
Q 556 3309 556 3750 
Q 556 4191 857 4492 
Q 1159 4794 1600 4794 
z
" transform="scale(0.015625)"/>
      <path id="DejaVuSans-Bold-29" d="M 513 -844 
Q 913 -100 1113 609 
Q 1313 1319 1313 2009 
Q 1313 2700 1113 3408 
Q 913 4116 513 4856 
L 1441 4856 
Q 1916 4091 2145 3389 
Q 2375 2688 2375 2003 
Q 2375 1319 2147 623 
Q 1919 -72 1441 -844 
L 513 -844 
z
" transform="scale(0.015625)"/>
     </defs>
     <use xlink:href="#DejaVuSans-Bold-28"/>
     <use xlink:href="#DejaVuSans-Bold-7e" transform="translate(45.703125 0)"/>
     <use xlink:href="#DejaVuSans-Bold-31" transform="translate(129.492188 0)"/>
     <use xlink:href="#DejaVuSans-Bold-30" transform="translate(199.072266 0)"/>
     <use xlink:href="#DejaVuSans-Bold-20" transform="translate(268.652344 0)"/>
     <use xlink:href="#DejaVuSans-Bold-6a" transform="translate(303.466797 0)"/>
     <use xlink:href="#DejaVuSans-Bold-6f" transform="translate(337.744141 0)"/>
     <use xlink:href="#DejaVuSans-Bold-75" transform="translate(406.445312 0)"/>
     <use xlink:href="#DejaVuSans-Bold-72" transform="translate(477.636719 0)"/>
     <use xlink:href="#DejaVuSans-Bold-73" transform="translate(526.953125 0)"/>
     <use xlink:href="#DejaVuSans-Bold-20" transform="translate(586.474609 0)"/>
     <use xlink:href="#DejaVuSans-Bold-e0" transform="translate(621.289062 0)"/>
     <use xlink:href="#DejaVuSans-Bold-20" transform="translate(688.769531 0)"/>
     <use xlink:href="#DejaVuSans-Bold-32" transform="translate(723.583984 0)"/>
     <use xlink:href="#DejaVuSans-Bold-35" transform="translate(793.164062 0)"/>
     <use xlink:href="#DejaVuSans-Bold-20" transform="translate(862.744141 0)"/>
     <use xlink:href="#DejaVuSans-Bold-b0" transform="translate(897.558594 0)"/>
     <use xlink:href="#DejaVuSans-Bold-43" transform="translate(947.558594 0)"/>
     <use xlink:href="#DejaVuSans-Bold-29" transform="translate(1020.947266 0)"/>
    </g>
   </g>
   <g id="text_10">
    <!-- OEuf -->
    <g transform="translate(268.319062 162.976096) scale(0.12 -0.12)">
     <defs>
      <path id="DejaVuSans-Bold-4f" d="M 2719 3878 
Q 2169 3878 1866 3472 
Q 1563 3066 1563 2328 
Q 1563 1594 1866 1187 
Q 2169 781 2719 781 
Q 3272 781 3575 1187 
Q 3878 1594 3878 2328 
Q 3878 3066 3575 3472 
Q 3272 3878 2719 3878 
z
M 2719 4750 
Q 3844 4750 4481 4106 
Q 5119 3463 5119 2328 
Q 5119 1197 4481 553 
Q 3844 -91 2719 -91 
Q 1597 -91 958 553 
Q 319 1197 319 2328 
Q 319 3463 958 4106 
Q 1597 4750 2719 4750 
z
" transform="scale(0.015625)"/>
      <path id="DejaVuSans-Bold-45" d="M 588 4666 
L 3834 4666 
L 3834 3756 
L 1791 3756 
L 1791 2888 
L 3713 2888 
L 3713 1978 
L 1791 1978 
L 1791 909 
L 3903 909 
L 3903 0 
L 588 0 
L 588 4666 
z
" transform="scale(0.015625)"/>
      <path id="DejaVuSans-Bold-66" d="M 2841 4863 
L 2841 4128 
L 2222 4128 
Q 1984 4128 1890 4042 
Q 1797 3956 1797 3744 
L 1797 3500 
L 2753 3500 
L 2753 2700 
L 1797 2700 
L 1797 0 
L 678 0 
L 678 2700 
L 122 2700 
L 122 3500 
L 678 3500 
L 678 3744 
Q 678 4316 997 4589 
Q 1316 4863 1984 4863 
L 2841 4863 
z
" transform="scale(0.015625)"/>
     </defs>
     <use xlink:href="#DejaVuSans-Bold-4f"/>
     <use xlink:href="#DejaVuSans-Bold-45" transform="translate(85.009766 0)"/>
     <use xlink:href="#DejaVuSans-Bold-75" transform="translate(153.320312 0)"/>
     <use xlink:href="#DejaVuSans-Bold-66" transform="translate(224.511719 0)"/>
    </g>
   </g>
   <g id="text_11">
    <!-- ~24 h -->
    <g style="fill: #555555" transform="translate(270.620859 179.206745) scale(0.09 -0.09)">
     <use xlink:href="#DejaVuSans-7e"/>
     <use xlink:href="#DejaVuSans-32" transform="translate(83.789062 0)"/>
     <use xlink:href="#DejaVuSans-34" transform="translate(147.412109 0)"/>
     <use xlink:href="#DejaVuSans-20" transform="translate(211.035156 0)"/>
     <use xlink:href="#DejaVuSans-68" transform="translate(242.822266 0)"/>
    </g>
   </g>
   <g id="text_12">
    <!-- Larve L1 -->
    <g transform="translate(403.232173 248.268404) scale(0.12 -0.12)">
     <defs>
      <path id="DejaVuSans-Bold-4c" d="M 588 4666 
L 1791 4666 
L 1791 909 
L 3903 909 
L 3903 0 
L 588 0 
L 588 4666 
z
" transform="scale(0.015625)"/>
     </defs>
     <use xlink:href="#DejaVuSans-Bold-4c"/>
     <use xlink:href="#DejaVuSans-Bold-61" transform="translate(63.720703 0)"/>
     <use xlink:href="#DejaVuSans-Bold-72" transform="translate(131.201172 0)"/>
     <use xlink:href="#DejaVuSans-Bold-76" transform="translate(180.517578 0)"/>
     <use xlink:href="#DejaVuSans-Bold-65" transform="translate(245.703125 0)"/>
     <use xlink:href="#DejaVuSans-Bold-20" transform="translate(313.525391 0)"/>
     <use xlink:href="#DejaVuSans-Bold-4c" transform="translate(348.339844 0)"/>
     <use xlink:href="#DejaVuSans-Bold-31" transform="translate(412.060547 0)"/>
    </g>
   </g>
   <g id="text_13">
    <!-- ~24 h -->
    <g style="fill: #555555" transform="translate(418.35147 264.499053) scale(0.09 -0.09)">
     <use xlink:href="#DejaVuSans-7e"/>
     <use xlink:href="#DejaVuSans-32" transform="translate(83.789062 0)"/>
     <use xlink:href="#DejaVuSans-34" transform="translate(147.412109 0)"/>
     <use xlink:href="#DejaVuSans-20" transform="translate(211.035156 0)"/>
     <use xlink:href="#DejaVuSans-68" transform="translate(242.822266 0)"/>
    </g>
   </g>
   <g id="text_14">
    <!-- Larve L2 -->
    <g transform="translate(403.232173 418.853019) scale(0.12 -0.12)">
     <use xlink:href="#DejaVuSans-Bold-4c"/>
     <use xlink:href="#DejaVuSans-Bold-61" transform="translate(63.720703 0)"/>
     <use xlink:href="#DejaVuSans-Bold-72" transform="translate(131.201172 0)"/>
     <use xlink:href="#DejaVuSans-Bold-76" transform="translate(180.517578 0)"/>
     <use xlink:href="#DejaVuSans-Bold-65" transform="translate(245.703125 0)"/>
     <use xlink:href="#DejaVuSans-Bold-20" transform="translate(313.525391 0)"/>
     <use xlink:href="#DejaVuSans-Bold-4c" transform="translate(348.339844 0)"/>
     <use xlink:href="#DejaVuSans-Bold-32" transform="translate(412.060547 0)"/>
    </g>
   </g>
   <g id="text_15">
    <!-- ~24 h -->
    <g style="fill: #555555" transform="translate(418.35147 435.083668) scale(0.09 -0.09)">
     <use xlink:href="#DejaVuSans-7e"/>
     <use xlink:href="#DejaVuSans-32" transform="translate(83.789062 0)"/>
     <use xlink:href="#DejaVuSans-34" transform="translate(147.412109 0)"/>
     <use xlink:href="#DejaVuSans-20" transform="translate(211.035156 0)"/>
     <use xlink:href="#DejaVuSans-68" transform="translate(242.822266 0)"/>
    </g>
   </g>
   <g id="text_16">
    <!-- Larve L3 -->
    <g transform="translate(255.501562 504.145327) scale(0.12 -0.12)">
     <defs>
      <path id="DejaVuSans-Bold-33" d="M 2981 2516 
Q 3453 2394 3698 2092 
Q 3944 1791 3944 1325 
Q 3944 631 3412 270 
Q 2881 -91 1863 -91 
Q 1503 -91 1142 -33 
Q 781 25 428 141 
L 428 1069 
Q 766 900 1098 814 
Q 1431 728 1753 728 
Q 2231 728 2486 893 
Q 2741 1059 2741 1369 
Q 2741 1688 2480 1852 
Q 2219 2016 1709 2016 
L 1228 2016 
L 1228 2791 
L 1734 2791 
Q 2188 2791 2409 2933 
Q 2631 3075 2631 3366 
Q 2631 3634 2415 3781 
Q 2200 3928 1806 3928 
Q 1516 3928 1219 3862 
Q 922 3797 628 3669 
L 628 4550 
Q 984 4650 1334 4700 
Q 1684 4750 2022 4750 
Q 2931 4750 3382 4451 
Q 3834 4153 3834 3553 
Q 3834 3144 3618 2883 
Q 3403 2622 2981 2516 
z
" transform="scale(0.015625)"/>
     </defs>
     <use xlink:href="#DejaVuSans-Bold-4c"/>
     <use xlink:href="#DejaVuSans-Bold-61" transform="translate(63.720703 0)"/>
     <use xlink:href="#DejaVuSans-Bold-72" transform="translate(131.201172 0)"/>
     <use xlink:href="#DejaVuSans-Bold-76" transform="translate(180.517578 0)"/>
     <use xlink:href="#DejaVuSans-Bold-65" transform="translate(245.703125 0)"/>
     <use xlink:href="#DejaVuSans-Bold-20" transform="translate(313.525391 0)"/>
     <use xlink:href="#DejaVuSans-Bold-4c" transform="translate(348.339844 0)"/>
     <use xlink:href="#DejaVuSans-Bold-33" transform="translate(412.060547 0)"/>
    </g>
   </g>
   <g id="text_17">
    <!-- ~48 h -->
    <g style="fill: #555555" transform="translate(270.620859 520.375976) scale(0.09 -0.09)">
     <use xlink:href="#DejaVuSans-7e"/>
     <use xlink:href="#DejaVuSans-34" transform="translate(83.789062 0)"/>
     <use xlink:href="#DejaVuSans-38" transform="translate(147.412109 0)"/>
     <use xlink:href="#DejaVuSans-20" transform="translate(211.035156 0)"/>
     <use xlink:href="#DejaVuSans-68" transform="translate(242.822266 0)"/>
    </g>
   </g>
   <g id="text_18">
    <!-- Pupe -->
    <g transform="translate(119.635952 418.853019) scale(0.12 -0.12)">
     <defs>
      <path id="DejaVuSans-Bold-50" d="M 588 4666 
L 2584 4666 
Q 3475 4666 3951 4270 
Q 4428 3875 4428 3144 
Q 4428 2409 3951 2014 
Q 3475 1619 2584 1619 
L 1791 1619 
L 1791 0 
L 588 0 
L 588 4666 
z
M 1791 3794 
L 1791 2491 
L 2456 2491 
Q 2806 2491 2997 2661 
Q 3188 2831 3188 3144 
Q 3188 3456 2997 3625 
Q 2806 3794 2456 3794 
L 1791 3794 
z
" transform="scale(0.015625)"/>
     </defs>
     <use xlink:href="#DejaVuSans-Bold-50"/>
     <use xlink:href="#DejaVuSans-Bold-75" transform="translate(73.291016 0)"/>
     <use xlink:href="#DejaVuSans-Bold-70" transform="translate(144.482422 0)"/>
     <use xlink:href="#DejaVuSans-Bold-65" transform="translate(216.064453 0)"/>
    </g>
   </g>
   <g id="text_19">
    <!-- ~4-5 j -->
    <g style="fill: #555555" transform="translate(122.868452 435.083668) scale(0.09 -0.09)">
     <defs>
      <path id="DejaVuSans-2d" d="M 313 2009 
L 1997 2009 
L 1997 1497 
L 313 1497 
L 313 2009 
z
" transform="scale(0.015625)"/>
      <path id="DejaVuSans-35" d="M 691 4666 
L 3169 4666 
L 3169 4134 
L 1269 4134 
L 1269 2991 
Q 1406 3038 1543 3061 
Q 1681 3084 1819 3084 
Q 2600 3084 3056 2656 
Q 3513 2228 3513 1497 
Q 3513 744 3044 326 
Q 2575 -91 1722 -91 
Q 1428 -91 1123 -41 
Q 819 9 494 109 
L 494 744 
Q 775 591 1075 516 
Q 1375 441 1709 441 
Q 2250 441 2565 725 
Q 2881 1009 2881 1497 
Q 2881 1984 2565 2268 
Q 2250 2553 1709 2553 
Q 1456 2553 1204 2497 
Q 953 2441 691 2322 
L 691 4666 
z
" transform="scale(0.015625)"/>
      <path id="DejaVuSans-6a" d="M 603 3500 
L 1178 3500 
L 1178 -63 
Q 1178 -731 923 -1031 
Q 669 -1331 103 -1331 
L -116 -1331 
L -116 -844 
L 38 -844 
Q 366 -844 484 -692 
Q 603 -541 603 -63 
L 603 3500 
z
M 603 4863 
L 1178 4863 
L 1178 4134 
L 603 4134 
L 603 4863 
z
" transform="scale(0.015625)"/>
     </defs>
     <use xlink:href="#DejaVuSans-7e"/>
     <use xlink:href="#DejaVuSans-34" transform="translate(83.789062 0)"/>
     <use xlink:href="#DejaVuSans-2d" transform="translate(147.412109 0)"/>
     <use xlink:href="#DejaVuSans-35" transform="translate(183.496094 0)"/>
     <use xlink:href="#DejaVuSans-20" transform="translate(247.119141 0)"/>
     <use xlink:href="#DejaVuSans-6a" transform="translate(278.90625 0)"/>
    </g>
   </g>
   <g id="text_20">
    <!-- Adulte -->
    <g transform="translate(114.46564 248.268404) scale(0.12 -0.12)">
     <defs>
      <path id="DejaVuSans-Bold-41" d="M 3419 850 
L 1538 850 
L 1241 0 
L 31 0 
L 1759 4666 
L 3194 4666 
L 4922 0 
L 3713 0 
L 3419 850 
z
M 1838 1716 
L 3116 1716 
L 2478 3572 
L 1838 1716 
z
" transform="scale(0.015625)"/>
     </defs>
     <use xlink:href="#DejaVuSans-Bold-41"/>
     <use xlink:href="#DejaVuSans-Bold-64" transform="translate(77.392578 0)"/>
     <use xlink:href="#DejaVuSans-Bold-75" transform="translate(148.974609 0)"/>
     <use xlink:href="#DejaVuSans-Bold-6c" transform="translate(220.166016 0)"/>
     <use xlink:href="#DejaVuSans-Bold-74" transform="translate(254.443359 0)"/>
     <use xlink:href="#DejaVuSans-Bold-65" transform="translate(302.246094 0)"/>
    </g>
   </g>
   <g id="text_21">
    <!-- Imago -->
    <g style="fill: #555555" transform="translate(122.590718 264.499053) scale(0.09 -0.09)">
     <defs>
      <path id="DejaVuSans-49" d="M 628 4666 
L 1259 4666 
L 1259 0 
L 628 0 
L 628 4666 
z
" transform="scale(0.015625)"/>
     </defs>
     <use xlink:href="#DejaVuSans-49"/>
     <use xlink:href="#DejaVuSans-6d" transform="translate(29.492188 0)"/>
     <use xlink:href="#DejaVuSans-61" transform="translate(126.904297 0)"/>
     <use xlink:href="#DejaVuSans-67" transform="translate(188.183594 0)"/>
     <use xlink:href="#DejaVuSans-6f" transform="translate(251.660156 0)"/>
    </g>
   </g>
  </g>
 </g>
 <defs>
  <clipPath id="p06f79b0312">
   <rect x="7.2" y="58.167" width="554.4" height="554.4"/>
  </clipPath>
 </defs>
</svg>
