<?xml version="1.0" encoding="utf-8" standalone="no"?>
<!DOCTYPE svg PUBLIC "-//W3C//DTD SVG 1.1//EN"
  "http://www.w3.org/Graphics/SVG/1.1/DTD/svg11.dtd">
<svg xmlns:xlink="http://www.w3.org/1999/xlink" width="680.669437pt" height="490.90675pt" viewBox="0 0 680.669437 490.90675" xmlns="http://www.w3.org/2000/svg" version="1.1">
 <metadata>
  <rdf:RDF xmlns:dc="http://purl.org/dc/elements/1.1/" xmlns:cc="http://creativecommons.org/ns#" xmlns:rdf="http://www.w3.org/1999/02/22-rdf-syntax-ns#">
   <cc:Work>
    <dc:type rdf:resource="http://purl.org/dc/dcmitype/StillImage"/>
    <dc:date>2026-03-31T11:28:40.377970</dc:date>
    <dc:format>image/svg+xml</dc:format>
    <dc:creator>
     <cc:Agent>
      <dc:title>Matplotlib v3.10.8, https://matplotlib.org/</dc:title>
     </cc:Agent>
    </dc:creator>
   </cc:Work>
  </rdf:RDF>
 </metadata>
 <defs>
  <style type="text/css">*{stroke-linejoin: round; stroke-linecap: butt}</style>
 </defs>
 <g id="figure_1">
  <g id="patch_1">
   <path d="M 0 490.90675 
L 680.669437 490.90675 
L 680.669437 0 
L 0 0 
z
" style="fill: #ffffff"/>
  </g>
  <g id="axes_1">
   <g id="patch_2">
    <path d="M 327.52 446.74675 
C 402.66795 446.74675 474.748152 427.275056 527.885778 392.620083 
C 581.023403 357.96511 610.88 310.956283 610.88 261.94675 
C 610.88 212.937217 581.023403 165.92839 527.885778 131.273417 
C 474.748152 96.618444 402.66795 77.14675 327.52 77.14675 
C 252.37205 77.14675 180.291848 96.618444 127.154222 131.273417 
C 74.016597 165.92839 44.16 212.937217 44.16 261.94675 
C 44.16 310.956283 74.016597 357.96511 127.154222 392.620083 
C 180.291848 427.275056 252.37205 446.74675 327.52 446.74675 
L 327.52 446.74675 
z
" clip-path="url(#p938f641909)" style="fill: none; stroke: #b3e5fc; stroke-width: 7; stroke-linejoin: miter"/>
   </g>
   <g id="patch_3">
    <path d="M 327.52 429.49875 
C 398.093727 429.49875 465.786439 411.844414 515.6896 380.423905 
C 565.592761 349.003397 593.632 306.38206 593.632 261.94675 
C 593.632 217.51144 565.592761 174.890103 515.6896 143.469595 
C 465.786439 112.049086 398.093727 94.39475 327.52 94.39475 
C 256.946273 94.39475 189.253561 112.049086 139.3504 143.469595 
C 89.447239 174.890103 61.408 217.51144 61.408 261.94675 
C 61.408 306.38206 89.447239 349.003397 139.3504 380.423905 
C 189.253561 411.844414 256.946273 429.49875 327.52 429.49875 
z
" clip-path="url(#p938f641909)" style="fill: #fafafa"/>
   </g>
   <g id="line2d_1">
    <path d="M 120.544 163.38675 
L 278.24 158.45875 
" clip-path="url(#p938f641909)" style="fill: none; stroke: #ff5722; stroke-opacity: 0.65; stroke-width: 2.2; stroke-linecap: square"/>
   </g>
   <g id="line2d_2">
    <path d="M 199.392 148.60275 
L 248.672 222.52275 
" clip-path="url(#p938f641909)" style="fill: none; stroke: #ff5722; stroke-opacity: 0.65; stroke-width: 2.2; stroke-linecap: square"/>
   </g>
   <g id="line2d_3">
    <path d="M 278.24 158.45875 
L 297.952 212.66675 
" clip-path="url(#p938f641909)" style="fill: none; stroke: #ff5722; stroke-opacity: 0.65; stroke-width: 2.2; stroke-linecap: square"/>
   </g>
   <g id="line2d_4">
    <path d="M 95.904 237.30675 
L 169.824 227.45075 
" clip-path="url(#p938f641909)" style="fill: none; stroke: #ff5722; stroke-opacity: 0.65; stroke-width: 2.2; stroke-linecap: square"/>
   </g>
   <g id="line2d_5">
    <path d="M 169.824 227.45075 
L 248.672 222.52275 
" clip-path="url(#p938f641909)" style="fill: none; stroke: #ff5722; stroke-opacity: 0.65; stroke-width: 2.2; stroke-linecap: square"/>
   </g>
   <g id="line2d_6">
    <path d="M 199.392 291.51475 
L 278.24 281.65875 
" clip-path="url(#p938f641909)" style="fill: none; stroke: #ff5722; stroke-opacity: 0.65; stroke-width: 2.2; stroke-linecap: square"/>
   </g>
   <g id="line2d_7">
    <path d="M 278.24 281.65875 
L 297.952 212.66675 
" clip-path="url(#p938f641909)" style="fill: none; stroke: #ff5722; stroke-opacity: 0.65; stroke-width: 2.2; stroke-linecap: square"/>
   </g>
   <g id="line2d_8">
    <path d="M 297.952 212.66675 
L 224.032 188.02675 
" clip-path="url(#p938f641909)" style="fill: none; stroke: #ff5722; stroke-opacity: 0.65; stroke-width: 2.2; stroke-linecap: square"/>
   </g>
   <g id="line2d_9">
    <path d="M 105.76 365.43475 
L 174.752 360.50675 
" clip-path="url(#p938f641909)" style="fill: none; stroke: #ff5722; stroke-opacity: 0.65; stroke-width: 2.2; stroke-linecap: square"/>
   </g>
   <g id="line2d_10">
    <path d="M 174.752 360.50675 
L 199.392 291.51475 
" clip-path="url(#p938f641909)" style="fill: none; stroke: #ff5722; stroke-opacity: 0.65; stroke-width: 2.2; stroke-linecap: square"/>
   </g>
   <g id="line2d_11">
    <path d="M 248.672 222.52275 
L 297.952 212.66675 
" clip-path="url(#p938f641909)" style="fill: none; stroke: #ff5722; stroke-opacity: 0.65; stroke-width: 2.2; stroke-linecap: square"/>
   </g>
   <g id="line2d_12">
    <path d="M 145.184 188.02675 
L 224.032 188.02675 
" clip-path="url(#p938f641909)" style="fill: none; stroke: #ff5722; stroke-opacity: 0.65; stroke-width: 2.2; stroke-linecap: square"/>
   </g>
   <g id="line2d_13">
    <path d="M 278.24 281.65875 
L 366.944 261.94675 
" clip-path="url(#p938f641909)" style="fill: none; stroke: #ff5722; stroke-opacity: 0.7; stroke-width: 2.5; stroke-linecap: square"/>
   </g>
   <g id="line2d_14">
    <path d="M 297.952 212.66675 
L 366.944 261.94675 
" clip-path="url(#p938f641909)" style="fill: none; stroke: #ff5722; stroke-opacity: 0.7; stroke-width: 2.5; stroke-linecap: square"/>
   </g>
   <g id="patch_4">
    <path d="M 450.72 404.85875 
C 482.086101 404.85875 512.17175 389.80064 534.350933 363.000794 
C 556.530116 336.200948 568.992 299.847455 568.992 261.94675 
C 568.992 224.046045 556.530116 187.692552 534.350933 160.892706 
C 512.17175 134.09286 482.086101 119.03475 450.72 119.03475 
C 419.353899 119.03475 389.26825 134.09286 367.089067 160.892706 
C 344.909884 187.692552 332.448 224.046045 332.448 261.94675 
C 332.448 299.847455 344.909884 336.200948 367.089067 363.000794 
C 389.26825 389.80064 419.353899 404.85875 450.72 404.85875 
z
" clip-path="url(#p938f641909)" style="fill: #ffe0b2; stroke: #5d4037; stroke-width: 2; stroke-linejoin: miter"/>
   </g>
   <g id="patch_5">
    <path d="M 120.544 189.01235 
C 127.339989 189.01235 133.858546 186.312275 138.664036 181.506786 
C 143.469525 176.701296 146.1696 170.182739 146.1696 163.38675 
C 146.1696 156.590761 143.469525 150.072204 138.664036 145.266714 
C 133.858546 140.461225 127.339989 137.76115 120.544 137.76115 
C 113.748011 137.76115 107.229454 140.461225 102.423964 145.266714 
C 97.618475 150.072204 94.9184 156.590761 94.9184 163.38675 
C 94.9184 170.182739 97.618475 176.701296 102.423964 181.506786 
C 107.229454 186.312275 113.748011 189.01235 120.544 189.01235 
z
" clip-path="url(#p938f641909)" style="fill: #d1c4e9; stroke: #7e57c2; stroke-width: 1.2; stroke-linejoin: miter"/>
   </g>
   <g id="patch_6">
    <path d="M 199.392 174.22835 
C 206.187989 174.22835 212.706546 171.528275 217.512036 166.722786 
C 222.317525 161.917296 225.0176 155.398739 225.0176 148.60275 
C 225.0176 141.806761 222.317525 135.288204 217.512036 130.482714 
C 212.706546 125.677225 206.187989 122.97715 199.392 122.97715 
C 192.596011 122.97715 186.077454 125.677225 181.271964 130.482714 
C 176.466475 135.288204 173.7664 141.806761 173.7664 148.60275 
C 173.7664 155.398739 176.466475 161.917296 181.271964 166.722786 
C 186.077454 171.528275 192.596011 174.22835 199.392 174.22835 
z
" clip-path="url(#p938f641909)" style="fill: #d1c4e9; stroke: #7e57c2; stroke-width: 1.2; stroke-linejoin: miter"/>
   </g>
   <g id="patch_7">
    <path d="M 278.24 184.08435 
C 285.035989 184.08435 291.554546 181.384275 296.360036 176.578786 
C 301.165525 171.773296 303.8656 165.254739 303.8656 158.45875 
C 303.8656 151.662761 301.165525 145.144204 296.360036 140.338714 
C 291.554546 135.533225 285.035989 132.83315 278.24 132.83315 
C 271.444011 132.83315 264.925454 135.533225 260.119964 140.338714 
C 255.314475 145.144204 252.6144 151.662761 252.6144 158.45875 
C 252.6144 165.254739 255.314475 171.773296 260.119964 176.578786 
C 264.925454 181.384275 271.444011 184.08435 278.24 184.08435 
z
" clip-path="url(#p938f641909)" style="fill: #d1c4e9; stroke: #7e57c2; stroke-width: 1.2; stroke-linejoin: miter"/>
   </g>
   <g id="patch_8">
    <path d="M 95.904 262.93235 
C 102.699989 262.93235 109.218546 260.232275 114.024036 255.426786 
C 118.829525 250.621296 121.5296 244.102739 121.5296 237.30675 
C 121.5296 230.510761 118.829525 223.992204 114.024036 219.186714 
C 109.218546 214.381225 102.699989 211.68115 95.904 211.68115 
C 89.108011 211.68115 82.589454 214.381225 77.783964 219.186714 
C 72.978475 223.992204 70.2784 230.510761 70.2784 237.30675 
C 70.2784 244.102739 72.978475 250.621296 77.783964 255.426786 
C 82.589454 260.232275 89.108011 262.93235 95.904 262.93235 
z
" clip-path="url(#p938f641909)" style="fill: #d1c4e9; stroke: #7e57c2; stroke-width: 1.2; stroke-linejoin: miter"/>
   </g>
   <g id="patch_9">
    <path d="M 169.824 253.07635 
C 176.619989 253.07635 183.138546 250.376275 187.944036 245.570786 
C 192.749525 240.765296 195.4496 234.246739 195.4496 227.45075 
C 195.4496 220.654761 192.749525 214.136204 187.944036 209.330714 
C 183.138546 204.525225 176.619989 201.82515 169.824 201.82515 
C 163.028011 201.82515 156.509454 204.525225 151.703964 209.330714 
C 146.898475 214.136204 144.1984 220.654761 144.1984 227.45075 
C 144.1984 234.246739 146.898475 240.765296 151.703964 245.570786 
C 156.509454 250.376275 163.028011 253.07635 169.824 253.07635 
z
" clip-path="url(#p938f641909)" style="fill: #d1c4e9; stroke: #7e57c2; stroke-width: 1.2; stroke-linejoin: miter"/>
   </g>
   <g id="patch_10">
    <path d="M 248.672 248.14835 
C 255.467989 248.14835 261.986546 245.448275 266.792036 240.642786 
C 271.597525 235.837296 274.2976 229.318739 274.2976 222.52275 
C 274.2976 215.726761 271.597525 209.208204 266.792036 204.402714 
C 261.986546 199.597225 255.467989 196.89715 248.672 196.89715 
C 241.876011 196.89715 235.357454 199.597225 230.551964 204.402714 
C 225.746475 209.208204 223.0464 215.726761 223.0464 222.52275 
C 223.0464 229.318739 225.746475 235.837296 230.551964 240.642786 
C 235.357454 245.448275 241.876011 248.14835 248.672 248.14835 
z
" clip-path="url(#p938f641909)" style="fill: #d1c4e9; stroke: #7e57c2; stroke-width: 1.2; stroke-linejoin: miter"/>
   </g>
   <g id="patch_11">
    <path d="M 120.544 331.92435 
C 127.339989 331.92435 133.858546 329.224275 138.664036 324.418786 
C 143.469525 319.613296 146.1696 313.094739 146.1696 306.29875 
C 146.1696 299.502761 143.469525 292.984204 138.664036 288.178714 
C 133.858546 283.373225 127.339989 280.67315 120.544 280.67315 
C 113.748011 280.67315 107.229454 283.373225 102.423964 288.178714 
C 97.618475 292.984204 94.9184 299.502761 94.9184 306.29875 
C 94.9184 313.094739 97.618475 319.613296 102.423964 324.418786 
C 107.229454 329.224275 113.748011 331.92435 120.544 331.92435 
z
" clip-path="url(#p938f641909)" style="fill: #d1c4e9; stroke: #7e57c2; stroke-width: 1.2; stroke-linejoin: miter"/>
   </g>
   <g id="patch_12">
    <path d="M 199.392 317.14035 
C 206.187989 317.14035 212.706546 314.440275 217.512036 309.634786 
C 222.317525 304.829296 225.0176 298.310739 225.0176 291.51475 
C 225.0176 284.718761 222.317525 278.200204 217.512036 273.394714 
C 212.706546 268.589225 206.187989 265.88915 199.392 265.88915 
C 192.596011 265.88915 186.077454 268.589225 181.271964 273.394714 
C 176.466475 278.200204 173.7664 284.718761 173.7664 291.51475 
C 173.7664 298.310739 176.466475 304.829296 181.271964 309.634786 
C 186.077454 314.440275 192.596011 317.14035 199.392 317.14035 
z
" clip-path="url(#p938f641909)" style="fill: #d1c4e9; stroke: #7e57c2; stroke-width: 1.2; stroke-linejoin: miter"/>
   </g>
   <g id="patch_13">
    <path d="M 278.24 307.28435 
C 285.035989 307.28435 291.554546 304.584275 296.360036 299.778786 
C 301.165525 294.973296 303.8656 288.454739 303.8656 281.65875 
C 303.8656 274.862761 301.165525 268.344204 296.360036 263.538714 
C 291.554546 258.733225 285.035989 256.03315 278.24 256.03315 
C 271.444011 256.03315 264.925454 258.733225 260.119964 263.538714 
C 255.314475 268.344204 252.6144 274.862761 252.6144 281.65875 
C 252.6144 288.454739 255.314475 294.973296 260.119964 299.778786 
C 264.925454 304.584275 271.444011 307.28435 278.24 307.28435 
z
" clip-path="url(#p938f641909)" style="fill: #d1c4e9; stroke: #7e57c2; stroke-width: 1.2; stroke-linejoin: miter"/>
   </g>
   <g id="patch_14">
    <path d="M 105.76 391.06035 
C 112.555989 391.06035 119.074546 388.360275 123.880036 383.554786 
C 128.685525 378.749296 131.3856 372.230739 131.3856 365.43475 
C 131.3856 358.638761 128.685525 352.120204 123.880036 347.314714 
C 119.074546 342.509225 112.555989 339.80915 105.76 339.80915 
C 98.964011 339.80915 92.445454 342.509225 87.639964 347.314714 
C 82.834475 352.120204 80.1344 358.638761 80.1344 365.43475 
C 80.1344 372.230739 82.834475 378.749296 87.639964 383.554786 
C 92.445454 388.360275 98.964011 391.06035 105.76 391.06035 
z
" clip-path="url(#p938f641909)" style="fill: #d1c4e9; stroke: #7e57c2; stroke-width: 1.2; stroke-linejoin: miter"/>
   </g>
   <g id="patch_15">
    <path d="M 174.752 386.13235 
C 181.547989 386.13235 188.066546 383.432275 192.872036 378.626786 
C 197.677525 373.821296 200.3776 367.302739 200.3776 360.50675 
C 200.3776 353.710761 197.677525 347.192204 192.872036 342.386714 
C 188.066546 337.581225 181.547989 334.88115 174.752 334.88115 
C 167.956011 334.88115 161.437454 337.581225 156.631964 342.386714 
C 151.826475 347.192204 149.1264 353.710761 149.1264 360.50675 
C 149.1264 367.302739 151.826475 373.821296 156.631964 378.626786 
C 161.437454 383.432275 167.956011 386.13235 174.752 386.13235 
z
" clip-path="url(#p938f641909)" style="fill: #d1c4e9; stroke: #7e57c2; stroke-width: 1.2; stroke-linejoin: miter"/>
   </g>
   <g id="patch_16">
    <path d="M 253.6 381.20435 
C 260.395989 381.20435 266.914546 378.504275 271.720036 373.698786 
C 276.525525 368.893296 279.2256 362.374739 279.2256 355.57875 
C 279.2256 348.782761 276.525525 342.264204 271.720036 337.458714 
C 266.914546 332.653225 260.395989 329.95315 253.6 329.95315 
C 246.804011 329.95315 240.285454 332.653225 235.479964 337.458714 
C 230.674475 342.264204 227.9744 348.782761 227.9744 355.57875 
C 227.9744 362.374739 230.674475 368.893296 235.479964 373.698786 
C 240.285454 378.504275 246.804011 381.20435 253.6 381.20435 
z
" clip-path="url(#p938f641909)" style="fill: #d1c4e9; stroke: #7e57c2; stroke-width: 1.2; stroke-linejoin: miter"/>
   </g>
   <g id="patch_17">
    <path d="M 145.184 213.65235 
C 151.979989 213.65235 158.498546 210.952275 163.304036 206.146786 
C 168.109525 201.341296 170.8096 194.822739 170.8096 188.02675 
C 170.8096 181.230761 168.109525 174.712204 163.304036 169.906714 
C 158.498546 165.101225 151.979989 162.40115 145.184 162.40115 
C 138.388011 162.40115 131.869454 165.101225 127.063964 169.906714 
C 122.258475 174.712204 119.5584 181.230761 119.5584 188.02675 
C 119.5584 194.822739 122.258475 201.341296 127.063964 206.146786 
C 131.869454 210.952275 138.388011 213.65235 145.184 213.65235 
z
" clip-path="url(#p938f641909)" style="fill: #d1c4e9; stroke: #7e57c2; stroke-width: 1.2; stroke-linejoin: miter"/>
   </g>
   <g id="patch_18">
    <path d="M 224.032 213.65235 
C 230.827989 213.65235 237.346546 210.952275 242.152036 206.146786 
C 246.957525 201.341296 249.6576 194.822739 249.6576 188.02675 
C 249.6576 181.230761 246.957525 174.712204 242.152036 169.906714 
C 237.346546 165.101225 230.827989 162.40115 224.032 162.40115 
C 217.236011 162.40115 210.717454 165.101225 205.911964 169.906714 
C 201.106475 174.712204 198.4064 181.230761 198.4064 188.02675 
C 198.4064 194.822739 201.106475 201.341296 205.911964 206.146786 
C 210.717454 210.952275 217.236011 213.65235 224.032 213.65235 
z
" clip-path="url(#p938f641909)" style="fill: #d1c4e9; stroke: #7e57c2; stroke-width: 1.2; stroke-linejoin: miter"/>
   </g>
   <g id="patch_19">
    <path d="M 297.952 238.29235 
C 304.747989 238.29235 311.266546 235.592275 316.072036 230.786786 
C 320.877525 225.981296 323.5776 219.462739 323.5776 212.66675 
C 323.5776 205.870761 320.877525 199.352204 316.072036 194.546714 
C 311.266546 189.741225 304.747989 187.04115 297.952 187.04115 
C 291.156011 187.04115 284.637454 189.741225 279.831964 194.546714 
C 275.026475 199.352204 272.3264 205.870761 272.3264 212.66675 
C 272.3264 219.462739 275.026475 225.981296 279.831964 230.786786 
C 284.637454 235.592275 291.156011 238.29235 297.952 238.29235 
z
" clip-path="url(#p938f641909)" style="fill: #d1c4e9; stroke: #7e57c2; stroke-width: 1.2; stroke-linejoin: miter"/>
   </g>
   <g id="patch_20">
    <path d="M 601.596273 60.933765 
Q 559.084275 82.146106 517.572688 102.85927 
" style="fill: none; stroke: #0277bd; stroke-linecap: round"/>
    <path d="M 521.597609 102.862578 
L 517.572688 102.85927 
L 519.990287 99.641318 
" style="fill: none; stroke: #0277bd; stroke-linecap: round"/>
   </g>
   <g id="text_1">
    <g id="patch_21">
     <path d="M 583.776 59.542469 
L 673.469438 59.542469 
Q 676.169438 59.542469 676.169438 56.842469 
L 676.169438 38.054125 
Q 676.169438 35.354125 673.469438 35.354125 
L 583.776 35.354125 
Q 581.076 35.354125 581.076 38.054125 
L 581.076 56.842469 
Q 581.076 59.542469 583.776 59.542469 
z
" style="fill: #e1f5fe; stroke: #0277bd; stroke-linejoin: miter"/>
    </g>
    <!-- Cellules folliculaires -->
    <g style="fill: #0277bd" transform="translate(583.776 44.892719) scale(0.09 -0.09)">
     <defs>
      <path id="DejaVuSans-43" d="M 4122 4306 
L 4122 3641 
Q 3803 3938 3442 4084 
Q 3081 4231 2675 4231 
Q 1875 4231 1450 3742 
Q 1025 3253 1025 2328 
Q 1025 1406 1450 917 
Q 1875 428 2675 428 
Q 3081 428 3442 575 
Q 3803 722 4122 1019 
L 4122 359 
Q 3791 134 3420 21 
Q 3050 -91 2638 -91 
Q 1578 -91 968 557 
Q 359 1206 359 2328 
Q 359 3453 968 4101 
Q 1578 4750 2638 4750 
Q 3056 4750 3426 4639 
Q 3797 4528 4122 4306 
z
" transform="scale(0.015625)"/>
      <path id="DejaVuSans-65" d="M 3597 1894 
L 3597 1613 
L 953 1613 
Q 991 1019 1311 708 
Q 1631 397 2203 397 
Q 2534 397 2845 478 
Q 3156 559 3463 722 
L 3463 178 
Q 3153 47 2828 -22 
Q 2503 -91 2169 -91 
Q 1331 -91 842 396 
Q 353 884 353 1716 
Q 353 2575 817 3079 
Q 1281 3584 2069 3584 
Q 2775 3584 3186 3129 
Q 3597 2675 3597 1894 
z
M 3022 2063 
Q 3016 2534 2758 2815 
Q 2500 3097 2075 3097 
Q 1594 3097 1305 2825 
Q 1016 2553 972 2059 
L 3022 2063 
z
" transform="scale(0.015625)"/>
      <path id="DejaVuSans-6c" d="M 603 4863 
L 1178 4863 
L 1178 0 
L 603 0 
L 603 4863 
z
" transform="scale(0.015625)"/>
      <path id="DejaVuSans-75" d="M 544 1381 
L 544 3500 
L 1119 3500 
L 1119 1403 
Q 1119 906 1312 657 
Q 1506 409 1894 409 
Q 2359 409 2629 706 
Q 2900 1003 2900 1516 
L 2900 3500 
L 3475 3500 
L 3475 0 
L 2900 0 
L 2900 538 
Q 2691 219 2414 64 
Q 2138 -91 1772 -91 
Q 1169 -91 856 284 
Q 544 659 544 1381 
z
M 1991 3584 
L 1991 3584 
z
" transform="scale(0.015625)"/>
      <path id="DejaVuSans-73" d="M 2834 3397 
L 2834 2853 
Q 2591 2978 2328 3040 
Q 2066 3103 1784 3103 
Q 1356 3103 1142 2972 
Q 928 2841 928 2578 
Q 928 2378 1081 2264 
Q 1234 2150 1697 2047 
L 1894 2003 
Q 2506 1872 2764 1633 
Q 3022 1394 3022 966 
Q 3022 478 2636 193 
Q 2250 -91 1575 -91 
Q 1294 -91 989 -36 
Q 684 19 347 128 
L 347 722 
Q 666 556 975 473 
Q 1284 391 1588 391 
Q 1994 391 2212 530 
Q 2431 669 2431 922 
Q 2431 1156 2273 1281 
Q 2116 1406 1581 1522 
L 1381 1569 
Q 847 1681 609 1914 
Q 372 2147 372 2553 
Q 372 3047 722 3315 
Q 1072 3584 1716 3584 
Q 2034 3584 2315 3537 
Q 2597 3491 2834 3397 
z
" transform="scale(0.015625)"/>
      <path id="DejaVuSans-20" transform="scale(0.015625)"/>
      <path id="DejaVuSans-66" d="M 2375 4863 
L 2375 4384 
L 1825 4384 
Q 1516 4384 1395 4259 
Q 1275 4134 1275 3809 
L 1275 3500 
L 2222 3500 
L 2222 3053 
L 1275 3053 
L 1275 0 
L 697 0 
L 697 3053 
L 147 3053 
L 147 3500 
L 697 3500 
L 697 3744 
Q 697 4328 969 4595 
Q 1241 4863 1831 4863 
L 2375 4863 
z
" transform="scale(0.015625)"/>
      <path id="DejaVuSans-6f" d="M 1959 3097 
Q 1497 3097 1228 2736 
Q 959 2375 959 1747 
Q 959 1119 1226 758 
Q 1494 397 1959 397 
Q 2419 397 2687 759 
Q 2956 1122 2956 1747 
Q 2956 2369 2687 2733 
Q 2419 3097 1959 3097 
z
M 1959 3584 
Q 2709 3584 3137 3096 
Q 3566 2609 3566 1747 
Q 3566 888 3137 398 
Q 2709 -91 1959 -91 
Q 1206 -91 779 398 
Q 353 888 353 1747 
Q 353 2609 779 3096 
Q 1206 3584 1959 3584 
z
" transform="scale(0.015625)"/>
      <path id="DejaVuSans-69" d="M 603 3500 
L 1178 3500 
L 1178 0 
L 603 0 
L 603 3500 
z
M 603 4863 
L 1178 4863 
L 1178 4134 
L 603 4134 
L 603 4863 
z
" transform="scale(0.015625)"/>
      <path id="DejaVuSans-63" d="M 3122 3366 
L 3122 2828 
Q 2878 2963 2633 3030 
Q 2388 3097 2138 3097 
Q 1578 3097 1268 2742 
Q 959 2388 959 1747 
Q 959 1106 1268 751 
Q 1578 397 2138 397 
Q 2388 397 2633 464 
Q 2878 531 3122 666 
L 3122 134 
Q 2881 22 2623 -34 
Q 2366 -91 2075 -91 
Q 1284 -91 818 406 
Q 353 903 353 1747 
Q 353 2603 823 3093 
Q 1294 3584 2113 3584 
Q 2378 3584 2631 3529 
Q 2884 3475 3122 3366 
z
" transform="scale(0.015625)"/>
      <path id="DejaVuSans-61" d="M 2194 1759 
Q 1497 1759 1228 1600 
Q 959 1441 959 1056 
Q 959 750 1161 570 
Q 1363 391 1709 391 
Q 2188 391 2477 730 
Q 2766 1069 2766 1631 
L 2766 1759 
L 2194 1759 
z
M 3341 1997 
L 3341 0 
L 2766 0 
L 2766 531 
Q 2569 213 2275 61 
Q 1981 -91 1556 -91 
Q 1019 -91 701 211 
Q 384 513 384 1019 
Q 384 1609 779 1909 
Q 1175 2209 1959 2209 
L 2766 2209 
L 2766 2266 
Q 2766 2663 2505 2880 
Q 2244 3097 1772 3097 
Q 1472 3097 1187 3025 
Q 903 2953 641 2809 
L 641 3341 
Q 956 3463 1253 3523 
Q 1550 3584 1831 3584 
Q 2591 3584 2966 3190 
Q 3341 2797 3341 1997 
z
" transform="scale(0.015625)"/>
      <path id="DejaVuSans-72" d="M 2631 2963 
Q 2534 3019 2420 3045 
Q 2306 3072 2169 3072 
Q 1681 3072 1420 2755 
Q 1159 2438 1159 1844 
L 1159 0 
L 581 0 
L 581 3500 
L 1159 3500 
L 1159 2956 
Q 1341 3275 1631 3429 
Q 1922 3584 2338 3584 
Q 2397 3584 2469 3576 
Q 2541 3569 2628 3553 
L 2631 2963 
z
" transform="scale(0.015625)"/>
     </defs>
     <use xlink:href="#DejaVuSans-43"/>
     <use xlink:href="#DejaVuSans-65" transform="translate(69.824219 0)"/>
     <use xlink:href="#DejaVuSans-6c" transform="translate(131.347656 0)"/>
     <use xlink:href="#DejaVuSans-6c" transform="translate(159.130859 0)"/>
     <use xlink:href="#DejaVuSans-75" transform="translate(186.914062 0)"/>
     <use xlink:href="#DejaVuSans-6c" transform="translate(250.292969 0)"/>
     <use xlink:href="#DejaVuSans-65" transform="translate(278.076172 0)"/>
     <use xlink:href="#DejaVuSans-73" transform="translate(339.599609 0)"/>
     <use xlink:href="#DejaVuSans-20" transform="translate(391.699219 0)"/>
     <use xlink:href="#DejaVuSans-66" transform="translate(423.486328 0)"/>
     <use xlink:href="#DejaVuSans-6f" transform="translate(458.691406 0)"/>
     <use xlink:href="#DejaVuSans-6c" transform="translate(519.873047 0)"/>
     <use xlink:href="#DejaVuSans-6c" transform="translate(547.65625 0)"/>
     <use xlink:href="#DejaVuSans-69" transform="translate(575.439453 0)"/>
     <use xlink:href="#DejaVuSans-63" transform="translate(603.222656 0)"/>
     <use xlink:href="#DejaVuSans-75" transform="translate(658.203125 0)"/>
     <use xlink:href="#DejaVuSans-6c" transform="translate(721.582031 0)"/>
     <use xlink:href="#DejaVuSans-61" transform="translate(749.365234 0)"/>
     <use xlink:href="#DejaVuSans-69" transform="translate(810.644531 0)"/>
     <use xlink:href="#DejaVuSans-72" transform="translate(838.427734 0)"/>
     <use xlink:href="#DejaVuSans-65" transform="translate(877.291016 0)"/>
     <use xlink:href="#DejaVuSans-73" transform="translate(938.814453 0)"/>
    </g>
    <!-- (couche somatique) -->
    <g style="fill: #0277bd" transform="translate(583.776 54.97075) scale(0.09 -0.09)">
     <defs>
      <path id="DejaVuSans-28" d="M 1984 4856 
Q 1566 4138 1362 3434 
Q 1159 2731 1159 2009 
Q 1159 1288 1364 580 
Q 1569 -128 1984 -844 
L 1484 -844 
Q 1016 -109 783 600 
Q 550 1309 550 2009 
Q 550 2706 781 3412 
Q 1013 4119 1484 4856 
L 1984 4856 
z
" transform="scale(0.015625)"/>
      <path id="DejaVuSans-68" d="M 3513 2113 
L 3513 0 
L 2938 0 
L 2938 2094 
Q 2938 2591 2744 2837 
Q 2550 3084 2163 3084 
Q 1697 3084 1428 2787 
Q 1159 2491 1159 1978 
L 1159 0 
L 581 0 
L 581 4863 
L 1159 4863 
L 1159 2956 
Q 1366 3272 1645 3428 
Q 1925 3584 2291 3584 
Q 2894 3584 3203 3211 
Q 3513 2838 3513 2113 
z
" transform="scale(0.015625)"/>
      <path id="DejaVuSans-6d" d="M 3328 2828 
Q 3544 3216 3844 3400 
Q 4144 3584 4550 3584 
Q 5097 3584 5394 3201 
Q 5691 2819 5691 2113 
L 5691 0 
L 5113 0 
L 5113 2094 
Q 5113 2597 4934 2840 
Q 4756 3084 4391 3084 
Q 3944 3084 3684 2787 
Q 3425 2491 3425 1978 
L 3425 0 
L 2847 0 
L 2847 2094 
Q 2847 2600 2669 2842 
Q 2491 3084 2119 3084 
Q 1678 3084 1418 2786 
Q 1159 2488 1159 1978 
L 1159 0 
L 581 0 
L 581 3500 
L 1159 3500 
L 1159 2956 
Q 1356 3278 1631 3431 
Q 1906 3584 2284 3584 
Q 2666 3584 2933 3390 
Q 3200 3197 3328 2828 
z
" transform="scale(0.015625)"/>
      <path id="DejaVuSans-74" d="M 1172 4494 
L 1172 3500 
L 2356 3500 
L 2356 3053 
L 1172 3053 
L 1172 1153 
Q 1172 725 1289 603 
Q 1406 481 1766 481 
L 2356 481 
L 2356 0 
L 1766 0 
Q 1100 0 847 248 
Q 594 497 594 1153 
L 594 3053 
L 172 3053 
L 172 3500 
L 594 3500 
L 594 4494 
L 1172 4494 
z
" transform="scale(0.015625)"/>
      <path id="DejaVuSans-71" d="M 947 1747 
Q 947 1113 1208 752 
Q 1469 391 1925 391 
Q 2381 391 2643 752 
Q 2906 1113 2906 1747 
Q 2906 2381 2643 2742 
Q 2381 3103 1925 3103 
Q 1469 3103 1208 2742 
Q 947 2381 947 1747 
z
M 2906 525 
Q 2725 213 2448 61 
Q 2172 -91 1784 -91 
Q 1150 -91 751 415 
Q 353 922 353 1747 
Q 353 2572 751 3078 
Q 1150 3584 1784 3584 
Q 2172 3584 2448 3432 
Q 2725 3281 2906 2969 
L 2906 3500 
L 3481 3500 
L 3481 -1331 
L 2906 -1331 
L 2906 525 
z
" transform="scale(0.015625)"/>
      <path id="DejaVuSans-29" d="M 513 4856 
L 1013 4856 
Q 1481 4119 1714 3412 
Q 1947 2706 1947 2009 
Q 1947 1309 1714 600 
Q 1481 -109 1013 -844 
L 513 -844 
Q 928 -128 1133 580 
Q 1338 1288 1338 2009 
Q 1338 2731 1133 3434 
Q 928 4138 513 4856 
z
" transform="scale(0.015625)"/>
     </defs>
     <use xlink:href="#DejaVuSans-28"/>
     <use xlink:href="#DejaVuSans-63" transform="translate(39.013672 0)"/>
     <use xlink:href="#DejaVuSans-6f" transform="translate(93.994141 0)"/>
     <use xlink:href="#DejaVuSans-75" transform="translate(155.175781 0)"/>
     <use xlink:href="#DejaVuSans-63" transform="translate(218.554688 0)"/>
     <use xlink:href="#DejaVuSans-68" transform="translate(273.535156 0)"/>
     <use xlink:href="#DejaVuSans-65" transform="translate(336.914062 0)"/>
     <use xlink:href="#DejaVuSans-20" transform="translate(398.4375 0)"/>
     <use xlink:href="#DejaVuSans-73" transform="translate(430.224609 0)"/>
     <use xlink:href="#DejaVuSans-6f" transform="translate(482.324219 0)"/>
     <use xlink:href="#DejaVuSans-6d" transform="translate(543.505859 0)"/>
     <use xlink:href="#DejaVuSans-61" transform="translate(640.917969 0)"/>
     <use xlink:href="#DejaVuSans-74" transform="translate(702.197266 0)"/>
     <use xlink:href="#DejaVuSans-69" transform="translate(741.40625 0)"/>
     <use xlink:href="#DejaVuSans-71" transform="translate(769.189453 0)"/>
     <use xlink:href="#DejaVuSans-75" transform="translate(832.666016 0)"/>
     <use xlink:href="#DejaVuSans-65" transform="translate(896.044922 0)"/>
     <use xlink:href="#DejaVuSans-29" transform="translate(957.568359 0)"/>
    </g>
   </g>
   <g id="patch_22">
    <path d="M 82.766859 430.772419 
Q 184.671659 343.315635 285.728036 256.586985 
" style="fill: none; stroke: #ff5722; stroke-linecap: round"/>
    <path d="M 282.257688 257.456862 
L 285.728036 256.586985 
L 284.341729 259.885189 
" style="fill: none; stroke: #ff5722; stroke-linecap: round"/>
   </g>
   <g id="text_2">
    <g id="patch_23">
     <path d="M 31.84 452.4745 
L 106.3075 452.4745 
Q 107.9075 452.4745 107.9075 450.8745 
L 107.9075 434.17375 
Q 107.9075 432.57375 106.3075 432.57375 
L 31.84 432.57375 
Q 30.24 432.57375 30.24 434.17375 
L 30.24 450.8745 
Q 30.24 452.4745 31.84 452.4745 
z
" style="fill: #fbe9e7; stroke: #ff5722; stroke-linejoin: miter"/>
    </g>
    <!-- Canaux annulaires -->
    <g style="fill: #ff5722" transform="translate(31.84 440.2525) scale(0.08 -0.08)">
     <defs>
      <path id="DejaVuSans-6e" d="M 3513 2113 
L 3513 0 
L 2938 0 
L 2938 2094 
Q 2938 2591 2744 2837 
Q 2550 3084 2163 3084 
Q 1697 3084 1428 2787 
Q 1159 2491 1159 1978 
L 1159 0 
L 581 0 
L 581 3500 
L 1159 3500 
L 1159 2956 
Q 1366 3272 1645 3428 
Q 1925 3584 2291 3584 
Q 2894 3584 3203 3211 
Q 3513 2838 3513 2113 
z
" transform="scale(0.015625)"/>
      <path id="DejaVuSans-78" d="M 3513 3500 
L 2247 1797 
L 3578 0 
L 2900 0 
L 1881 1375 
L 863 0 
L 184 0 
L 1544 1831 
L 300 3500 
L 978 3500 
L 1906 2253 
L 2834 3500 
L 3513 3500 
z
" transform="scale(0.015625)"/>
     </defs>
     <use xlink:href="#DejaVuSans-43"/>
     <use xlink:href="#DejaVuSans-61" transform="translate(69.824219 0)"/>
     <use xlink:href="#DejaVuSans-6e" transform="translate(131.103516 0)"/>
     <use xlink:href="#DejaVuSans-61" transform="translate(194.482422 0)"/>
     <use xlink:href="#DejaVuSans-75" transform="translate(255.761719 0)"/>
     <use xlink:href="#DejaVuSans-78" transform="translate(319.140625 0)"/>
     <use xlink:href="#DejaVuSans-20" transform="translate(378.320312 0)"/>
     <use xlink:href="#DejaVuSans-61" transform="translate(410.107422 0)"/>
     <use xlink:href="#DejaVuSans-6e" transform="translate(471.386719 0)"/>
     <use xlink:href="#DejaVuSans-6e" transform="translate(534.765625 0)"/>
     <use xlink:href="#DejaVuSans-75" transform="translate(598.144531 0)"/>
     <use xlink:href="#DejaVuSans-6c" transform="translate(661.523438 0)"/>
     <use xlink:href="#DejaVuSans-61" transform="translate(689.306641 0)"/>
     <use xlink:href="#DejaVuSans-69" transform="translate(750.585938 0)"/>
     <use xlink:href="#DejaVuSans-72" transform="translate(778.369141 0)"/>
     <use xlink:href="#DejaVuSans-65" transform="translate(817.232422 0)"/>
     <use xlink:href="#DejaVuSans-73" transform="translate(878.755859 0)"/>
    </g>
    <!-- (ring canals) -->
    <g style="fill: #ff5722" transform="translate(31.84 449.21075) scale(0.08 -0.08)">
     <defs>
      <path id="DejaVuSans-67" d="M 2906 1791 
Q 2906 2416 2648 2759 
Q 2391 3103 1925 3103 
Q 1463 3103 1205 2759 
Q 947 2416 947 1791 
Q 947 1169 1205 825 
Q 1463 481 1925 481 
Q 2391 481 2648 825 
Q 2906 1169 2906 1791 
z
M 3481 434 
Q 3481 -459 3084 -895 
Q 2688 -1331 1869 -1331 
Q 1566 -1331 1297 -1286 
Q 1028 -1241 775 -1147 
L 775 -588 
Q 1028 -725 1275 -790 
Q 1522 -856 1778 -856 
Q 2344 -856 2625 -561 
Q 2906 -266 2906 331 
L 2906 616 
Q 2728 306 2450 153 
Q 2172 0 1784 0 
Q 1141 0 747 490 
Q 353 981 353 1791 
Q 353 2603 747 3093 
Q 1141 3584 1784 3584 
Q 2172 3584 2450 3431 
Q 2728 3278 2906 2969 
L 2906 3500 
L 3481 3500 
L 3481 434 
z
" transform="scale(0.015625)"/>
     </defs>
     <use xlink:href="#DejaVuSans-28"/>
     <use xlink:href="#DejaVuSans-72" transform="translate(39.013672 0)"/>
     <use xlink:href="#DejaVuSans-69" transform="translate(80.126953 0)"/>
     <use xlink:href="#DejaVuSans-6e" transform="translate(107.910156 0)"/>
     <use xlink:href="#DejaVuSans-67" transform="translate(171.289062 0)"/>
     <use xlink:href="#DejaVuSans-20" transform="translate(234.765625 0)"/>
     <use xlink:href="#DejaVuSans-63" transform="translate(266.552734 0)"/>
     <use xlink:href="#DejaVuSans-61" transform="translate(321.533203 0)"/>
     <use xlink:href="#DejaVuSans-6e" transform="translate(382.8125 0)"/>
     <use xlink:href="#DejaVuSans-61" transform="translate(446.191406 0)"/>
     <use xlink:href="#DejaVuSans-6c" transform="translate(507.470703 0)"/>
     <use xlink:href="#DejaVuSans-73" transform="translate(535.253906 0)"/>
     <use xlink:href="#DejaVuSans-29" transform="translate(587.353516 0)"/>
    </g>
   </g>
   <g id="patch_24">
    <path d="M 60.159164 449.21075 
Q 310.272091 449.21075 560.385019 449.21075 
" style="fill: none; stroke: #333333; stroke-width: 1.5; stroke-linecap: round"/>
    <path d="M 64.159164 451.21075 
L 60.159164 449.21075 
L 64.159164 447.21075 
" style="fill: none; stroke: #333333; stroke-width: 1.5; stroke-linecap: round"/>
    <path d="M 556.385019 447.21075 
L 560.385019 449.21075 
L 556.385019 451.21075 
" style="fill: none; stroke: #333333; stroke-width: 1.5; stroke-linecap: round"/>
   </g>
   <g id="text_3">
    <!-- Antérieur -->
    <g style="fill: #e53935" transform="translate(56.48 468.92275) scale(0.09 -0.09)">
     <defs>
      <path id="DejaVuSans-41" d="M 2188 4044 
L 1331 1722 
L 3047 1722 
L 2188 4044 
z
M 1831 4666 
L 2547 4666 
L 4325 0 
L 3669 0 
L 3244 1197 
L 1141 1197 
L 716 0 
L 50 0 
L 1831 4666 
z
" transform="scale(0.015625)"/>
      <path id="DejaVuSans-e9" d="M 3597 1894 
L 3597 1613 
L 953 1613 
Q 991 1019 1311 708 
Q 1631 397 2203 397 
Q 2534 397 2845 478 
Q 3156 559 3463 722 
L 3463 178 
Q 3153 47 2828 -22 
Q 2503 -91 2169 -91 
Q 1331 -91 842 396 
Q 353 884 353 1716 
Q 353 2575 817 3079 
Q 1281 3584 2069 3584 
Q 2775 3584 3186 3129 
Q 3597 2675 3597 1894 
z
M 3022 2063 
Q 3016 2534 2758 2815 
Q 2500 3097 2075 3097 
Q 1594 3097 1305 2825 
Q 1016 2553 972 2059 
L 3022 2063 
z
M 2466 5119 
L 3088 5119 
L 2070 3944 
L 1591 3944 
L 2466 5119 
z
" transform="scale(0.015625)"/>
     </defs>
     <use xlink:href="#DejaVuSans-41"/>
     <use xlink:href="#DejaVuSans-6e" transform="translate(68.408203 0)"/>
     <use xlink:href="#DejaVuSans-74" transform="translate(131.787109 0)"/>
     <use xlink:href="#DejaVuSans-e9" transform="translate(170.996094 0)"/>
     <use xlink:href="#DejaVuSans-72" transform="translate(232.519531 0)"/>
     <use xlink:href="#DejaVuSans-69" transform="translate(273.632812 0)"/>
     <use xlink:href="#DejaVuSans-65" transform="translate(301.416016 0)"/>
     <use xlink:href="#DejaVuSans-75" transform="translate(362.939453 0)"/>
     <use xlink:href="#DejaVuSans-72" transform="translate(426.318359 0)"/>
    </g>
   </g>
   <g id="text_4">
    <!-- Postérieur -->
    <g style="fill: #1e88e5" transform="translate(518.560563 468.92275) scale(0.09 -0.09)">
     <defs>
      <path id="DejaVuSans-50" d="M 1259 4147 
L 1259 2394 
L 2053 2394 
Q 2494 2394 2734 2622 
Q 2975 2850 2975 3272 
Q 2975 3691 2734 3919 
Q 2494 4147 2053 4147 
L 1259 4147 
z
M 628 4666 
L 2053 4666 
Q 2838 4666 3239 4311 
Q 3641 3956 3641 3272 
Q 3641 2581 3239 2228 
Q 2838 1875 2053 1875 
L 1259 1875 
L 1259 0 
L 628 0 
L 628 4666 
z
" transform="scale(0.015625)"/>
     </defs>
     <use xlink:href="#DejaVuSans-50"/>
     <use xlink:href="#DejaVuSans-6f" transform="translate(56.677734 0)"/>
     <use xlink:href="#DejaVuSans-73" transform="translate(117.859375 0)"/>
     <use xlink:href="#DejaVuSans-74" transform="translate(169.958984 0)"/>
     <use xlink:href="#DejaVuSans-e9" transform="translate(209.167969 0)"/>
     <use xlink:href="#DejaVuSans-72" transform="translate(270.691406 0)"/>
     <use xlink:href="#DejaVuSans-69" transform="translate(311.804688 0)"/>
     <use xlink:href="#DejaVuSans-65" transform="translate(339.587891 0)"/>
     <use xlink:href="#DejaVuSans-75" transform="translate(401.111328 0)"/>
     <use xlink:href="#DejaVuSans-72" transform="translate(464.490234 0)"/>
    </g>
   </g>
   <g id="text_5">
    <!-- Chambre ovarienne (stade ~10) -->
    <g style="fill: #1a237e" transform="translate(189.131094 17.837812) scale(0.14 -0.14)">
     <defs>
      <path id="DejaVuSans-Bold-43" d="M 4288 256 
Q 3956 84 3597 -3 
Q 3238 -91 2847 -91 
Q 1681 -91 1000 561 
Q 319 1213 319 2328 
Q 319 3447 1000 4098 
Q 1681 4750 2847 4750 
Q 3238 4750 3597 4662 
Q 3956 4575 4288 4403 
L 4288 3438 
Q 3953 3666 3628 3772 
Q 3303 3878 2944 3878 
Q 2300 3878 1931 3465 
Q 1563 3053 1563 2328 
Q 1563 1606 1931 1193 
Q 2300 781 2944 781 
Q 3303 781 3628 887 
Q 3953 994 4288 1222 
L 4288 256 
z
" transform="scale(0.015625)"/>
      <path id="DejaVuSans-Bold-68" d="M 4056 2131 
L 4056 0 
L 2931 0 
L 2931 347 
L 2931 1625 
Q 2931 2084 2911 2256 
Q 2891 2428 2841 2509 
Q 2775 2619 2662 2680 
Q 2550 2741 2406 2741 
Q 2056 2741 1856 2470 
Q 1656 2200 1656 1722 
L 1656 0 
L 538 0 
L 538 4863 
L 1656 4863 
L 1656 2988 
Q 1909 3294 2193 3439 
Q 2478 3584 2822 3584 
Q 3428 3584 3742 3212 
Q 4056 2841 4056 2131 
z
" transform="scale(0.015625)"/>
      <path id="DejaVuSans-Bold-61" d="M 2106 1575 
Q 1756 1575 1579 1456 
Q 1403 1338 1403 1106 
Q 1403 894 1545 773 
Q 1688 653 1941 653 
Q 2256 653 2472 879 
Q 2688 1106 2688 1447 
L 2688 1575 
L 2106 1575 
z
M 3816 1997 
L 3816 0 
L 2688 0 
L 2688 519 
Q 2463 200 2181 54 
Q 1900 -91 1497 -91 
Q 953 -91 614 226 
Q 275 544 275 1050 
Q 275 1666 698 1953 
Q 1122 2241 2028 2241 
L 2688 2241 
L 2688 2328 
Q 2688 2594 2478 2717 
Q 2269 2841 1825 2841 
Q 1466 2841 1156 2769 
Q 847 2697 581 2553 
L 581 3406 
Q 941 3494 1303 3539 
Q 1666 3584 2028 3584 
Q 2975 3584 3395 3211 
Q 3816 2838 3816 1997 
z
" transform="scale(0.015625)"/>
      <path id="DejaVuSans-Bold-6d" d="M 3781 2919 
Q 3994 3244 4286 3414 
Q 4578 3584 4928 3584 
Q 5531 3584 5847 3212 
Q 6163 2841 6163 2131 
L 6163 0 
L 5038 0 
L 5038 1825 
Q 5041 1866 5042 1909 
Q 5044 1953 5044 2034 
Q 5044 2406 4934 2573 
Q 4825 2741 4581 2741 
Q 4263 2741 4089 2478 
Q 3916 2216 3909 1719 
L 3909 0 
L 2784 0 
L 2784 1825 
Q 2784 2406 2684 2573 
Q 2584 2741 2328 2741 
Q 2006 2741 1831 2477 
Q 1656 2213 1656 1722 
L 1656 0 
L 531 0 
L 531 3500 
L 1656 3500 
L 1656 2988 
Q 1863 3284 2130 3434 
Q 2397 3584 2719 3584 
Q 3081 3584 3359 3409 
Q 3638 3234 3781 2919 
z
" transform="scale(0.015625)"/>
      <path id="DejaVuSans-Bold-62" d="M 2400 722 
Q 2759 722 2948 984 
Q 3138 1247 3138 1747 
Q 3138 2247 2948 2509 
Q 2759 2772 2400 2772 
Q 2041 2772 1848 2508 
Q 1656 2244 1656 1747 
Q 1656 1250 1848 986 
Q 2041 722 2400 722 
z
M 1656 2988 
Q 1888 3294 2169 3439 
Q 2450 3584 2816 3584 
Q 3463 3584 3878 3070 
Q 4294 2556 4294 1747 
Q 4294 938 3878 423 
Q 3463 -91 2816 -91 
Q 2450 -91 2169 54 
Q 1888 200 1656 506 
L 1656 0 
L 538 0 
L 538 4863 
L 1656 4863 
L 1656 2988 
z
" transform="scale(0.015625)"/>
      <path id="DejaVuSans-Bold-72" d="M 3138 2547 
Q 2991 2616 2845 2648 
Q 2700 2681 2553 2681 
Q 2122 2681 1889 2404 
Q 1656 2128 1656 1613 
L 1656 0 
L 538 0 
L 538 3500 
L 1656 3500 
L 1656 2925 
Q 1872 3269 2151 3426 
Q 2431 3584 2822 3584 
Q 2878 3584 2943 3579 
Q 3009 3575 3134 3559 
L 3138 2547 
z
" transform="scale(0.015625)"/>
      <path id="DejaVuSans-Bold-65" d="M 4031 1759 
L 4031 1441 
L 1416 1441 
Q 1456 1047 1700 850 
Q 1944 653 2381 653 
Q 2734 653 3104 758 
Q 3475 863 3866 1075 
L 3866 213 
Q 3469 63 3072 -14 
Q 2675 -91 2278 -91 
Q 1328 -91 801 392 
Q 275 875 275 1747 
Q 275 2603 792 3093 
Q 1309 3584 2216 3584 
Q 3041 3584 3536 3087 
Q 4031 2591 4031 1759 
z
M 2881 2131 
Q 2881 2450 2695 2645 
Q 2509 2841 2209 2841 
Q 1884 2841 1681 2658 
Q 1478 2475 1428 2131 
L 2881 2131 
z
" transform="scale(0.015625)"/>
      <path id="DejaVuSans-Bold-20" transform="scale(0.015625)"/>
      <path id="DejaVuSans-Bold-6f" d="M 2203 2784 
Q 1831 2784 1636 2517 
Q 1441 2250 1441 1747 
Q 1441 1244 1636 976 
Q 1831 709 2203 709 
Q 2569 709 2762 976 
Q 2956 1244 2956 1747 
Q 2956 2250 2762 2517 
Q 2569 2784 2203 2784 
z
M 2203 3584 
Q 3106 3584 3614 3096 
Q 4122 2609 4122 1747 
Q 4122 884 3614 396 
Q 3106 -91 2203 -91 
Q 1297 -91 786 396 
Q 275 884 275 1747 
Q 275 2609 786 3096 
Q 1297 3584 2203 3584 
z
" transform="scale(0.015625)"/>
      <path id="DejaVuSans-Bold-76" d="M 97 3500 
L 1216 3500 
L 2088 1081 
L 2956 3500 
L 4078 3500 
L 2700 0 
L 1472 0 
L 97 3500 
z
" transform="scale(0.015625)"/>
      <path id="DejaVuSans-Bold-69" d="M 538 3500 
L 1656 3500 
L 1656 0 
L 538 0 
L 538 3500 
z
M 538 4863 
L 1656 4863 
L 1656 3950 
L 538 3950 
L 538 4863 
z
" transform="scale(0.015625)"/>
      <path id="DejaVuSans-Bold-6e" d="M 4056 2131 
L 4056 0 
L 2931 0 
L 2931 347 
L 2931 1631 
Q 2931 2084 2911 2256 
Q 2891 2428 2841 2509 
Q 2775 2619 2662 2680 
Q 2550 2741 2406 2741 
Q 2056 2741 1856 2470 
Q 1656 2200 1656 1722 
L 1656 0 
L 538 0 
L 538 3500 
L 1656 3500 
L 1656 2988 
Q 1909 3294 2193 3439 
Q 2478 3584 2822 3584 
Q 3428 3584 3742 3212 
Q 4056 2841 4056 2131 
z
" transform="scale(0.015625)"/>
      <path id="DejaVuSans-Bold-28" d="M 2413 -844 
L 1484 -844 
Q 1006 -72 778 623 
Q 550 1319 550 2003 
Q 550 2688 779 3389 
Q 1009 4091 1484 4856 
L 2413 4856 
Q 2013 4116 1813 3408 
Q 1613 2700 1613 2009 
Q 1613 1319 1811 609 
Q 2009 -100 2413 -844 
z
" transform="scale(0.015625)"/>
      <path id="DejaVuSans-Bold-73" d="M 3272 3391 
L 3272 2541 
Q 2913 2691 2578 2766 
Q 2244 2841 1947 2841 
Q 1628 2841 1473 2761 
Q 1319 2681 1319 2516 
Q 1319 2381 1436 2309 
Q 1553 2238 1856 2203 
L 2053 2175 
Q 2913 2066 3209 1816 
Q 3506 1566 3506 1031 
Q 3506 472 3093 190 
Q 2681 -91 1863 -91 
Q 1516 -91 1145 -36 
Q 775 19 384 128 
L 384 978 
Q 719 816 1070 734 
Q 1422 653 1784 653 
Q 2113 653 2278 743 
Q 2444 834 2444 1013 
Q 2444 1163 2330 1236 
Q 2216 1309 1875 1350 
L 1678 1375 
Q 931 1469 631 1722 
Q 331 1975 331 2491 
Q 331 3047 712 3315 
Q 1094 3584 1881 3584 
Q 2191 3584 2531 3537 
Q 2872 3491 3272 3391 
z
" transform="scale(0.015625)"/>
      <path id="DejaVuSans-Bold-74" d="M 1759 4494 
L 1759 3500 
L 2913 3500 
L 2913 2700 
L 1759 2700 
L 1759 1216 
Q 1759 972 1856 886 
Q 1953 800 2241 800 
L 2816 800 
L 2816 0 
L 1856 0 
Q 1194 0 917 276 
Q 641 553 641 1216 
L 641 2700 
L 84 2700 
L 84 3500 
L 641 3500 
L 641 4494 
L 1759 4494 
z
" transform="scale(0.015625)"/>
      <path id="DejaVuSans-Bold-64" d="M 2919 2988 
L 2919 4863 
L 4044 4863 
L 4044 0 
L 2919 0 
L 2919 506 
Q 2688 197 2409 53 
Q 2131 -91 1766 -91 
Q 1119 -91 703 423 
Q 288 938 288 1747 
Q 288 2556 703 3070 
Q 1119 3584 1766 3584 
Q 2128 3584 2408 3439 
Q 2688 3294 2919 2988 
z
M 2181 722 
Q 2541 722 2730 984 
Q 2919 1247 2919 1747 
Q 2919 2247 2730 2509 
Q 2541 2772 2181 2772 
Q 1825 2772 1636 2509 
Q 1447 2247 1447 1747 
Q 1447 1247 1636 984 
Q 1825 722 2181 722 
z
" transform="scale(0.015625)"/>
      <path id="DejaVuSans-Bold-7e" d="M 4684 2656 
L 4684 1894 
Q 4353 1644 4073 1536 
Q 3794 1428 3494 1428 
Q 3159 1428 2713 1609 
Q 2669 1628 2644 1638 
Q 2622 1647 2575 1666 
Q 2091 1856 1797 1856 
Q 1522 1856 1253 1736 
Q 984 1616 678 1356 
L 678 2119 
Q 1013 2369 1291 2476 
Q 1569 2584 1869 2584 
Q 2203 2584 2650 2403 
Q 2697 2384 2719 2375 
Q 2741 2366 2788 2347 
Q 3272 2156 3566 2156 
Q 3834 2156 4098 2273 
Q 4363 2391 4684 2656 
z
" transform="scale(0.015625)"/>
      <path id="DejaVuSans-Bold-31" d="M 750 831 
L 1813 831 
L 1813 3847 
L 722 3622 
L 722 4441 
L 1806 4666 
L 2950 4666 
L 2950 831 
L 4013 831 
L 4013 0 
L 750 0 
L 750 831 
z
" transform="scale(0.015625)"/>
      <path id="DejaVuSans-Bold-30" d="M 2944 2338 
Q 2944 3213 2780 3570 
Q 2616 3928 2228 3928 
Q 1841 3928 1675 3570 
Q 1509 3213 1509 2338 
Q 1509 1453 1675 1090 
Q 1841 728 2228 728 
Q 2613 728 2778 1090 
Q 2944 1453 2944 2338 
z
M 4147 2328 
Q 4147 1169 3647 539 
Q 3147 -91 2228 -91 
Q 1306 -91 806 539 
Q 306 1169 306 2328 
Q 306 3491 806 4120 
Q 1306 4750 2228 4750 
Q 3147 4750 3647 4120 
Q 4147 3491 4147 2328 
z
" transform="scale(0.015625)"/>
      <path id="DejaVuSans-Bold-29" d="M 513 -844 
Q 913 -100 1113 609 
Q 1313 1319 1313 2009 
Q 1313 2700 1113 3408 
Q 913 4116 513 4856 
L 1441 4856 
Q 1916 4091 2145 3389 
Q 2375 2688 2375 2003 
Q 2375 1319 2147 623 
Q 1919 -72 1441 -844 
L 513 -844 
z
" transform="scale(0.015625)"/>
     </defs>
     <use xlink:href="#DejaVuSans-Bold-43"/>
     <use xlink:href="#DejaVuSans-Bold-68" transform="translate(73.388672 0)"/>
     <use xlink:href="#DejaVuSans-Bold-61" transform="translate(144.580078 0)"/>
     <use xlink:href="#DejaVuSans-Bold-6d" transform="translate(212.060547 0)"/>
     <use xlink:href="#DejaVuSans-Bold-62" transform="translate(316.259766 0)"/>
     <use xlink:href="#DejaVuSans-Bold-72" transform="translate(387.841797 0)"/>
     <use xlink:href="#DejaVuSans-Bold-65" transform="translate(437.158203 0)"/>
     <use xlink:href="#DejaVuSans-Bold-20" transform="translate(504.980469 0)"/>
     <use xlink:href="#DejaVuSans-Bold-6f" transform="translate(539.794922 0)"/>
     <use xlink:href="#DejaVuSans-Bold-76" transform="translate(608.496094 0)"/>
     <use xlink:href="#DejaVuSans-Bold-61" transform="translate(673.681641 0)"/>
     <use xlink:href="#DejaVuSans-Bold-72" transform="translate(741.162109 0)"/>
     <use xlink:href="#DejaVuSans-Bold-69" transform="translate(790.478516 0)"/>
     <use xlink:href="#DejaVuSans-Bold-65" transform="translate(824.755859 0)"/>
     <use xlink:href="#DejaVuSans-Bold-6e" transform="translate(892.578125 0)"/>
     <use xlink:href="#DejaVuSans-Bold-6e" transform="translate(963.769531 0)"/>
     <use xlink:href="#DejaVuSans-Bold-65" transform="translate(1034.960938 0)"/>
     <use xlink:href="#DejaVuSans-Bold-20" transform="translate(1102.783203 0)"/>
     <use xlink:href="#DejaVuSans-Bold-28" transform="translate(1137.597656 0)"/>
     <use xlink:href="#DejaVuSans-Bold-73" transform="translate(1183.300781 0)"/>
     <use xlink:href="#DejaVuSans-Bold-74" transform="translate(1242.822266 0)"/>
     <use xlink:href="#DejaVuSans-Bold-61" transform="translate(1290.625 0)"/>
     <use xlink:href="#DejaVuSans-Bold-64" transform="translate(1358.105469 0)"/>
     <use xlink:href="#DejaVuSans-Bold-65" transform="translate(1429.6875 0)"/>
     <use xlink:href="#DejaVuSans-Bold-20" transform="translate(1497.509766 0)"/>
     <use xlink:href="#DejaVuSans-Bold-7e" transform="translate(1532.324219 0)"/>
     <use xlink:href="#DejaVuSans-Bold-31" transform="translate(1616.113281 0)"/>
     <use xlink:href="#DejaVuSans-Bold-30" transform="translate(1685.693359 0)"/>
     <use xlink:href="#DejaVuSans-Bold-29" transform="translate(1755.273438 0)"/>
    </g>
    <!-- 15 cellules nourricières + 1 ovocyte -->
    <g style="fill: #1a237e" transform="translate(173.814219 34.18675) scale(0.14 -0.14)">
     <defs>
      <path id="DejaVuSans-Bold-35" d="M 678 4666 
L 3669 4666 
L 3669 3781 
L 1638 3781 
L 1638 3059 
Q 1775 3097 1914 3117 
Q 2053 3138 2203 3138 
Q 3056 3138 3531 2711 
Q 4006 2284 4006 1522 
Q 4006 766 3489 337 
Q 2972 -91 2053 -91 
Q 1656 -91 1267 -14 
Q 878 63 494 219 
L 494 1166 
Q 875 947 1217 837 
Q 1559 728 1863 728 
Q 2300 728 2551 942 
Q 2803 1156 2803 1522 
Q 2803 1891 2551 2103 
Q 2300 2316 1863 2316 
Q 1603 2316 1309 2248 
Q 1016 2181 678 2041 
L 678 4666 
z
" transform="scale(0.015625)"/>
      <path id="DejaVuSans-Bold-63" d="M 3366 3391 
L 3366 2478 
Q 3138 2634 2908 2709 
Q 2678 2784 2431 2784 
Q 1963 2784 1702 2511 
Q 1441 2238 1441 1747 
Q 1441 1256 1702 982 
Q 1963 709 2431 709 
Q 2694 709 2930 787 
Q 3166 866 3366 1019 
L 3366 103 
Q 3103 6 2833 -42 
Q 2563 -91 2291 -91 
Q 1344 -91 809 395 
Q 275 881 275 1747 
Q 275 2613 809 3098 
Q 1344 3584 2291 3584 
Q 2566 3584 2833 3536 
Q 3100 3488 3366 3391 
z
" transform="scale(0.015625)"/>
      <path id="DejaVuSans-Bold-6c" d="M 538 4863 
L 1656 4863 
L 1656 0 
L 538 0 
L 538 4863 
z
" transform="scale(0.015625)"/>
      <path id="DejaVuSans-Bold-75" d="M 500 1363 
L 500 3500 
L 1625 3500 
L 1625 3150 
Q 1625 2866 1622 2436 
Q 1619 2006 1619 1863 
Q 1619 1441 1641 1255 
Q 1663 1069 1716 984 
Q 1784 875 1895 815 
Q 2006 756 2150 756 
Q 2500 756 2700 1025 
Q 2900 1294 2900 1772 
L 2900 3500 
L 4019 3500 
L 4019 0 
L 2900 0 
L 2900 506 
Q 2647 200 2364 54 
Q 2081 -91 1741 -91 
Q 1134 -91 817 281 
Q 500 653 500 1363 
z
" transform="scale(0.015625)"/>
      <path id="DejaVuSans-Bold-e8" d="M 4031 1759 
L 4031 1441 
L 1416 1441 
Q 1456 1047 1700 850 
Q 1944 653 2381 653 
Q 2734 653 3104 758 
Q 3475 863 3866 1075 
L 3866 213 
Q 3469 63 3072 -14 
Q 2675 -91 2278 -91 
Q 1328 -91 801 392 
Q 275 875 275 1747 
Q 275 2603 792 3093 
Q 1309 3584 2216 3584 
Q 3041 3584 3536 3087 
Q 4031 2591 4031 1759 
z
M 2881 2131 
Q 2881 2450 2695 2645 
Q 2509 2841 2209 2841 
Q 1884 2841 1681 2658 
Q 1478 2475 1428 2131 
L 2881 2131 
z
M 1858 5119 
L 2739 3944 
L 2127 3944 
L 974 5119 
L 1858 5119 
z
" transform="scale(0.015625)"/>
      <path id="DejaVuSans-Bold-2b" d="M 3053 4013 
L 3053 2375 
L 4684 2375 
L 4684 1638 
L 3053 1638 
L 3053 0 
L 2309 0 
L 2309 1638 
L 678 1638 
L 678 2375 
L 2309 2375 
L 2309 4013 
L 3053 4013 
z
" transform="scale(0.015625)"/>
      <path id="DejaVuSans-Bold-79" d="M 78 3500 
L 1197 3500 
L 2138 1125 
L 2938 3500 
L 4056 3500 
L 2584 -331 
Q 2363 -916 2067 -1148 
Q 1772 -1381 1288 -1381 
L 641 -1381 
L 641 -647 
L 991 -647 
Q 1275 -647 1404 -556 
Q 1534 -466 1606 -231 
L 1638 -134 
L 78 3500 
z
" transform="scale(0.015625)"/>
     </defs>
     <use xlink:href="#DejaVuSans-Bold-31"/>
     <use xlink:href="#DejaVuSans-Bold-35" transform="translate(69.580078 0)"/>
     <use xlink:href="#DejaVuSans-Bold-20" transform="translate(139.160156 0)"/>
     <use xlink:href="#DejaVuSans-Bold-63" transform="translate(173.974609 0)"/>
     <use xlink:href="#DejaVuSans-Bold-65" transform="translate(233.251953 0)"/>
     <use xlink:href="#DejaVuSans-Bold-6c" transform="translate(301.074219 0)"/>
     <use xlink:href="#DejaVuSans-Bold-6c" transform="translate(335.351562 0)"/>
     <use xlink:href="#DejaVuSans-Bold-75" transform="translate(369.628906 0)"/>
     <use xlink:href="#DejaVuSans-Bold-6c" transform="translate(440.820312 0)"/>
     <use xlink:href="#DejaVuSans-Bold-65" transform="translate(475.097656 0)"/>
     <use xlink:href="#DejaVuSans-Bold-73" transform="translate(542.919922 0)"/>
     <use xlink:href="#DejaVuSans-Bold-20" transform="translate(602.441406 0)"/>
     <use xlink:href="#DejaVuSans-Bold-6e" transform="translate(637.255859 0)"/>
     <use xlink:href="#DejaVuSans-Bold-6f" transform="translate(708.447266 0)"/>
     <use xlink:href="#DejaVuSans-Bold-75" transform="translate(777.148438 0)"/>
     <use xlink:href="#DejaVuSans-Bold-72" transform="translate(848.339844 0)"/>
     <use xlink:href="#DejaVuSans-Bold-72" transform="translate(897.65625 0)"/>
     <use xlink:href="#DejaVuSans-Bold-69" transform="translate(946.972656 0)"/>
     <use xlink:href="#DejaVuSans-Bold-63" transform="translate(981.25 0)"/>
     <use xlink:href="#DejaVuSans-Bold-69" transform="translate(1040.527344 0)"/>
     <use xlink:href="#DejaVuSans-Bold-e8" transform="translate(1074.804688 0)"/>
     <use xlink:href="#DejaVuSans-Bold-72" transform="translate(1142.626953 0)"/>
     <use xlink:href="#DejaVuSans-Bold-65" transform="translate(1191.943359 0)"/>
     <use xlink:href="#DejaVuSans-Bold-73" transform="translate(1259.765625 0)"/>
     <use xlink:href="#DejaVuSans-Bold-20" transform="translate(1319.287109 0)"/>
     <use xlink:href="#DejaVuSans-Bold-2b" transform="translate(1354.101562 0)"/>
     <use xlink:href="#DejaVuSans-Bold-20" transform="translate(1437.890625 0)"/>
     <use xlink:href="#DejaVuSans-Bold-31" transform="translate(1472.705078 0)"/>
     <use xlink:href="#DejaVuSans-Bold-20" transform="translate(1542.285156 0)"/>
     <use xlink:href="#DejaVuSans-Bold-6f" transform="translate(1577.099609 0)"/>
     <use xlink:href="#DejaVuSans-Bold-76" transform="translate(1645.800781 0)"/>
     <use xlink:href="#DejaVuSans-Bold-6f" transform="translate(1710.986328 0)"/>
     <use xlink:href="#DejaVuSans-Bold-63" transform="translate(1779.6875 0)"/>
     <use xlink:href="#DejaVuSans-Bold-79" transform="translate(1838.964844 0)"/>
     <use xlink:href="#DejaVuSans-Bold-74" transform="translate(1904.150391 0)"/>
     <use xlink:href="#DejaVuSans-Bold-65" transform="translate(1951.953125 0)"/>
    </g>
   </g>
   <g id="patch_25">
    <path d="M 120.544 172.25715 
C 122.896458 172.25715 125.152881 171.322509 126.81632 169.65907 
C 128.479759 167.995631 129.4144 165.739208 129.4144 163.38675 
C 129.4144 161.034292 128.479759 158.777869 126.81632 157.11443 
C 125.152881 155.450991 122.896458 154.51635 120.544 154.51635 
C 118.191542 154.51635 115.935119 155.450991 114.27168 157.11443 
C 112.608241 158.777869 111.6736 161.034292 111.6736 163.38675 
C 111.6736 165.739208 112.608241 167.995631 114.27168 169.65907 
C 115.935119 171.322509 118.191542 172.25715 120.544 172.25715 
z
" clip-path="url(#p938f641909)" style="fill: #9575cd; stroke: #4527a0; stroke-width: 0.8; stroke-linejoin: miter"/>
   </g>
   <g id="patch_26">
    <path d="M 199.392 157.47315 
C 201.744458 157.47315 204.000881 156.538509 205.66432 154.87507 
C 207.327759 153.211631 208.2624 150.955208 208.2624 148.60275 
C 208.2624 146.250292 207.327759 143.993869 205.66432 142.33043 
C 204.000881 140.666991 201.744458 139.73235 199.392 139.73235 
C 197.039542 139.73235 194.783119 140.666991 193.11968 142.33043 
C 191.456241 143.993869 190.5216 146.250292 190.5216 148.60275 
C 190.5216 150.955208 191.456241 153.211631 193.11968 154.87507 
C 194.783119 156.538509 197.039542 157.47315 199.392 157.47315 
z
" clip-path="url(#p938f641909)" style="fill: #9575cd; stroke: #4527a0; stroke-width: 0.8; stroke-linejoin: miter"/>
   </g>
   <g id="patch_27">
    <path d="M 278.24 167.32915 
C 280.592458 167.32915 282.848881 166.394509 284.51232 164.73107 
C 286.175759 163.067631 287.1104 160.811208 287.1104 158.45875 
C 287.1104 156.106292 286.175759 153.849869 284.51232 152.18643 
C 282.848881 150.522991 280.592458 149.58835 278.24 149.58835 
C 275.887542 149.58835 273.631119 150.522991 271.96768 152.18643 
C 270.304241 153.849869 269.3696 156.106292 269.3696 158.45875 
C 269.3696 160.811208 270.304241 163.067631 271.96768 164.73107 
C 273.631119 166.394509 275.887542 167.32915 278.24 167.32915 
z
" clip-path="url(#p938f641909)" style="fill: #9575cd; stroke: #4527a0; stroke-width: 0.8; stroke-linejoin: miter"/>
   </g>
   <g id="patch_28">
    <path d="M 95.904 246.17715 
C 98.256458 246.17715 100.512881 245.242509 102.17632 243.57907 
C 103.839759 241.915631 104.7744 239.659208 104.7744 237.30675 
C 104.7744 234.954292 103.839759 232.697869 102.17632 231.03443 
C 100.512881 229.370991 98.256458 228.43635 95.904 228.43635 
C 93.551542 228.43635 91.295119 229.370991 89.63168 231.03443 
C 87.968241 232.697869 87.0336 234.954292 87.0336 237.30675 
C 87.0336 239.659208 87.968241 241.915631 89.63168 243.57907 
C 91.295119 245.242509 93.551542 246.17715 95.904 246.17715 
z
" clip-path="url(#p938f641909)" style="fill: #9575cd; stroke: #4527a0; stroke-width: 0.8; stroke-linejoin: miter"/>
   </g>
   <g id="patch_29">
    <path d="M 169.824 236.32115 
C 172.176458 236.32115 174.432881 235.386509 176.09632 233.72307 
C 177.759759 232.059631 178.6944 229.803208 178.6944 227.45075 
C 178.6944 225.098292 177.759759 222.841869 176.09632 221.17843 
C 174.432881 219.514991 172.176458 218.58035 169.824 218.58035 
C 167.471542 218.58035 165.215119 219.514991 163.55168 221.17843 
C 161.888241 222.841869 160.9536 225.098292 160.9536 227.45075 
C 160.9536 229.803208 161.888241 232.059631 163.55168 233.72307 
C 165.215119 235.386509 167.471542 236.32115 169.824 236.32115 
z
" clip-path="url(#p938f641909)" style="fill: #9575cd; stroke: #4527a0; stroke-width: 0.8; stroke-linejoin: miter"/>
   </g>
   <g id="patch_30">
    <path d="M 248.672 231.39315 
C 251.024458 231.39315 253.280881 230.458509 254.94432 228.79507 
C 256.607759 227.131631 257.5424 224.875208 257.5424 222.52275 
C 257.5424 220.170292 256.607759 217.913869 254.94432 216.25043 
C 253.280881 214.586991 251.024458 213.65235 248.672 213.65235 
C 246.319542 213.65235 244.063119 214.586991 242.39968 216.25043 
C 240.736241 217.913869 239.8016 220.170292 239.8016 222.52275 
C 239.8016 224.875208 240.736241 227.131631 242.39968 228.79507 
C 244.063119 230.458509 246.319542 231.39315 248.672 231.39315 
z
" clip-path="url(#p938f641909)" style="fill: #9575cd; stroke: #4527a0; stroke-width: 0.8; stroke-linejoin: miter"/>
   </g>
   <g id="patch_31">
    <path d="M 120.544 315.16915 
C 122.896458 315.16915 125.152881 314.234509 126.81632 312.57107 
C 128.479759 310.907631 129.4144 308.651208 129.4144 306.29875 
C 129.4144 303.946292 128.479759 301.689869 126.81632 300.02643 
C 125.152881 298.362991 122.896458 297.42835 120.544 297.42835 
C 118.191542 297.42835 115.935119 298.362991 114.27168 300.02643 
C 112.608241 301.689869 111.6736 303.946292 111.6736 306.29875 
C 111.6736 308.651208 112.608241 310.907631 114.27168 312.57107 
C 115.935119 314.234509 118.191542 315.16915 120.544 315.16915 
z
" clip-path="url(#p938f641909)" style="fill: #9575cd; stroke: #4527a0; stroke-width: 0.8; stroke-linejoin: miter"/>
   </g>
   <g id="patch_32">
    <path d="M 199.392 300.38515 
C 201.744458 300.38515 204.000881 299.450509 205.66432 297.78707 
C 207.327759 296.123631 208.2624 293.867208 208.2624 291.51475 
C 208.2624 289.162292 207.327759 286.905869 205.66432 285.24243 
C 204.000881 283.578991 201.744458 282.64435 199.392 282.64435 
C 197.039542 282.64435 194.783119 283.578991 193.11968 285.24243 
C 191.456241 286.905869 190.5216 289.162292 190.5216 291.51475 
C 190.5216 293.867208 191.456241 296.123631 193.11968 297.78707 
C 194.783119 299.450509 197.039542 300.38515 199.392 300.38515 
z
" clip-path="url(#p938f641909)" style="fill: #9575cd; stroke: #4527a0; stroke-width: 0.8; stroke-linejoin: miter"/>
   </g>
   <g id="patch_33">
    <path d="M 278.24 290.52915 
C 280.592458 290.52915 282.848881 289.594509 284.51232 287.93107 
C 286.175759 286.267631 287.1104 284.011208 287.1104 281.65875 
C 287.1104 279.306292 286.175759 277.049869 284.51232 275.38643 
C 282.848881 273.722991 280.592458 272.78835 278.24 272.78835 
C 275.887542 272.78835 273.631119 273.722991 271.96768 275.38643 
C 270.304241 277.049869 269.3696 279.306292 269.3696 281.65875 
C 269.3696 284.011208 270.304241 286.267631 271.96768 287.93107 
C 273.631119 289.594509 275.887542 290.52915 278.24 290.52915 
z
" clip-path="url(#p938f641909)" style="fill: #9575cd; stroke: #4527a0; stroke-width: 0.8; stroke-linejoin: miter"/>
   </g>
   <g id="patch_34">
    <path d="M 105.76 374.30515 
C 108.112458 374.30515 110.368881 373.370509 112.03232 371.70707 
C 113.695759 370.043631 114.6304 367.787208 114.6304 365.43475 
C 114.6304 363.082292 113.695759 360.825869 112.03232 359.16243 
C 110.368881 357.498991 108.112458 356.56435 105.76 356.56435 
C 103.407542 356.56435 101.151119 357.498991 99.48768 359.16243 
C 97.824241 360.825869 96.8896 363.082292 96.8896 365.43475 
C 96.8896 367.787208 97.824241 370.043631 99.48768 371.70707 
C 101.151119 373.370509 103.407542 374.30515 105.76 374.30515 
z
" clip-path="url(#p938f641909)" style="fill: #9575cd; stroke: #4527a0; stroke-width: 0.8; stroke-linejoin: miter"/>
   </g>
   <g id="patch_35">
    <path d="M 174.752 369.37715 
C 177.104458 369.37715 179.360881 368.442509 181.02432 366.77907 
C 182.687759 365.115631 183.6224 362.859208 183.6224 360.50675 
C 183.6224 358.154292 182.687759 355.897869 181.02432 354.23443 
C 179.360881 352.570991 177.104458 351.63635 174.752 351.63635 
C 172.399542 351.63635 170.143119 352.570991 168.47968 354.23443 
C 166.816241 355.897869 165.8816 358.154292 165.8816 360.50675 
C 165.8816 362.859208 166.816241 365.115631 168.47968 366.77907 
C 170.143119 368.442509 172.399542 369.37715 174.752 369.37715 
z
" clip-path="url(#p938f641909)" style="fill: #9575cd; stroke: #4527a0; stroke-width: 0.8; stroke-linejoin: miter"/>
   </g>
   <g id="patch_36">
    <path d="M 253.6 364.44915 
C 255.952458 364.44915 258.208881 363.514509 259.87232 361.85107 
C 261.535759 360.187631 262.4704 357.931208 262.4704 355.57875 
C 262.4704 353.226292 261.535759 350.969869 259.87232 349.30643 
C 258.208881 347.642991 255.952458 346.70835 253.6 346.70835 
C 251.247542 346.70835 248.991119 347.642991 247.32768 349.30643 
C 245.664241 350.969869 244.7296 353.226292 244.7296 355.57875 
C 244.7296 357.931208 245.664241 360.187631 247.32768 361.85107 
C 248.991119 363.514509 251.247542 364.44915 253.6 364.44915 
z
" clip-path="url(#p938f641909)" style="fill: #9575cd; stroke: #4527a0; stroke-width: 0.8; stroke-linejoin: miter"/>
   </g>
   <g id="patch_37">
    <path d="M 145.184 196.89715 
C 147.536458 196.89715 149.792881 195.962509 151.45632 194.29907 
C 153.119759 192.635631 154.0544 190.379208 154.0544 188.02675 
C 154.0544 185.674292 153.119759 183.417869 151.45632 181.75443 
C 149.792881 180.090991 147.536458 179.15635 145.184 179.15635 
C 142.831542 179.15635 140.575119 180.090991 138.91168 181.75443 
C 137.248241 183.417869 136.3136 185.674292 136.3136 188.02675 
C 136.3136 190.379208 137.248241 192.635631 138.91168 194.29907 
C 140.575119 195.962509 142.831542 196.89715 145.184 196.89715 
z
" clip-path="url(#p938f641909)" style="fill: #9575cd; stroke: #4527a0; stroke-width: 0.8; stroke-linejoin: miter"/>
   </g>
   <g id="patch_38">
    <path d="M 224.032 196.89715 
C 226.384458 196.89715 228.640881 195.962509 230.30432 194.29907 
C 231.967759 192.635631 232.9024 190.379208 232.9024 188.02675 
C 232.9024 185.674292 231.967759 183.417869 230.30432 181.75443 
C 228.640881 180.090991 226.384458 179.15635 224.032 179.15635 
C 221.679542 179.15635 219.423119 180.090991 217.75968 181.75443 
C 216.096241 183.417869 215.1616 185.674292 215.1616 188.02675 
C 215.1616 190.379208 216.096241 192.635631 217.75968 194.29907 
C 219.423119 195.962509 221.679542 196.89715 224.032 196.89715 
z
" clip-path="url(#p938f641909)" style="fill: #9575cd; stroke: #4527a0; stroke-width: 0.8; stroke-linejoin: miter"/>
   </g>
   <g id="patch_39">
    <path d="M 297.952 221.53715 
C 300.304458 221.53715 302.560881 220.602509 304.22432 218.93907 
C 305.887759 217.275631 306.8224 215.019208 306.8224 212.66675 
C 306.8224 210.314292 305.887759 208.057869 304.22432 206.39443 
C 302.560881 204.730991 300.304458 203.79635 297.952 203.79635 
C 295.599542 203.79635 293.343119 204.730991 291.67968 206.39443 
C 290.016241 208.057869 289.0816 210.314292 289.0816 212.66675 
C 289.0816 215.019208 290.016241 217.275631 291.67968 218.93907 
C 293.343119 220.602509 295.599542 221.53715 297.952 221.53715 
z
" clip-path="url(#p938f641909)" style="fill: #9575cd; stroke: #4527a0; stroke-width: 0.8; stroke-linejoin: miter"/>
   </g>
   <g id="patch_40">
    <path d="M 381.728 211.68115 
C 385.387378 211.68115 388.897371 210.227264 391.484942 207.639692 
C 394.072514 205.052121 395.5264 201.542128 395.5264 197.88275 
C 395.5264 194.223372 394.072514 190.713379 391.484942 188.125808 
C 388.897371 185.538236 385.387378 184.08435 381.728 184.08435 
C 378.068622 184.08435 374.558629 185.538236 371.971058 188.125808 
C 369.383486 190.713379 367.9296 194.223372 367.9296 197.88275 
C 367.9296 201.542128 369.383486 205.052121 371.971058 207.639692 
C 374.558629 210.227264 378.068622 211.68115 381.728 211.68115 
z
" clip-path="url(#p938f641909)" style="fill: #ffc107; stroke: #5d4037; stroke-width: 1.5; stroke-linejoin: miter"/>
   </g>
   <g id="patch_41">
    <path d="M 199.392 164.37235 
C 200.306845 164.37235 201.184343 164.008878 201.831236 163.361986 
C 202.478128 162.715093 202.8416 161.837595 202.8416 160.92275 
C 202.8416 160.007905 202.478128 159.130407 201.831236 158.483514 
C 201.184343 157.836622 200.306845 157.47315 199.392 157.47315 
C 198.477155 157.47315 197.599657 157.836622 196.952764 158.483514 
C 196.305872 159.130407 195.9424 160.007905 195.9424 160.92275 
C 195.9424 161.837595 196.305872 162.715093 196.952764 163.361986 
C 197.599657 164.008878 198.477155 164.37235 199.392 164.37235 
z
" clip-path="url(#p938f641909)" style="fill: #ff5722"/>
   </g>
   <g id="patch_42">
    <path d="M 224.032 189.01235 
C 224.946845 189.01235 225.824343 188.648878 226.471236 188.001986 
C 227.118128 187.355093 227.4816 186.477595 227.4816 185.56275 
C 227.4816 184.647905 227.118128 183.770407 226.471236 183.123514 
C 225.824343 182.476622 224.946845 182.11315 224.032 182.11315 
C 223.117155 182.11315 222.239657 182.476622 221.592764 183.123514 
C 220.945872 183.770407 220.5824 184.647905 220.5824 185.56275 
C 220.5824 186.477595 220.945872 187.355093 221.592764 188.001986 
C 222.239657 188.648878 223.117155 189.01235 224.032 189.01235 
z
" clip-path="url(#p938f641909)" style="fill: #ff5722"/>
   </g>
   <g id="patch_43">
    <path d="M 288.096 189.01235 
C 289.010845 189.01235 289.888343 188.648878 290.535236 188.001986 
C 291.182128 187.355093 291.5456 186.477595 291.5456 185.56275 
C 291.5456 184.647905 291.182128 183.770407 290.535236 183.123514 
C 289.888343 182.476622 289.010845 182.11315 288.096 182.11315 
C 287.181155 182.11315 286.303657 182.476622 285.656764 183.123514 
C 285.009872 183.770407 284.6464 184.647905 284.6464 185.56275 
C 284.6464 186.477595 285.009872 187.355093 285.656764 188.001986 
C 286.303657 188.648878 287.181155 189.01235 288.096 189.01235 
z
" clip-path="url(#p938f641909)" style="fill: #ff5722"/>
   </g>
   <g id="patch_44">
    <path d="M 132.864 235.82835 
C 133.778845 235.82835 134.656343 235.464878 135.303236 234.817986 
C 135.950128 234.171093 136.3136 233.293595 136.3136 232.37875 
C 136.3136 231.463905 135.950128 230.586407 135.303236 229.939514 
C 134.656343 229.292622 133.778845 228.92915 132.864 228.92915 
C 131.949155 228.92915 131.071657 229.292622 130.424764 229.939514 
C 129.777872 230.586407 129.4144 231.463905 129.4144 232.37875 
C 129.4144 233.293595 129.777872 234.171093 130.424764 234.817986 
C 131.071657 235.464878 131.949155 235.82835 132.864 235.82835 
z
" clip-path="url(#p938f641909)" style="fill: #ff5722"/>
   </g>
   <g id="patch_45">
    <path d="M 209.248 228.43635 
C 210.162845 228.43635 211.040343 228.072878 211.687236 227.425986 
C 212.334128 226.779093 212.6976 225.901595 212.6976 224.98675 
C 212.6976 224.071905 212.334128 223.194407 211.687236 222.547514 
C 211.040343 221.900622 210.162845 221.53715 209.248 221.53715 
C 208.333155 221.53715 207.455657 221.900622 206.808764 222.547514 
C 206.161872 223.194407 205.7984 224.071905 205.7984 224.98675 
C 205.7984 225.901595 206.161872 226.779093 206.808764 227.425986 
C 207.455657 228.072878 208.333155 228.43635 209.248 228.43635 
z
" clip-path="url(#p938f641909)" style="fill: #ff5722"/>
   </g>
   <g id="patch_46">
    <path d="M 238.816 290.03635 
C 239.730845 290.03635 240.608343 289.672878 241.255236 289.025986 
C 241.902128 288.379093 242.2656 287.501595 242.2656 286.58675 
C 242.2656 285.671905 241.902128 284.794407 241.255236 284.147514 
C 240.608343 283.500622 239.730845 283.13715 238.816 283.13715 
C 237.901155 283.13715 237.023657 283.500622 236.376764 284.147514 
C 235.729872 284.794407 235.3664 285.671905 235.3664 286.58675 
C 235.3664 287.501595 235.729872 288.379093 236.376764 289.025986 
C 237.023657 289.672878 237.901155 290.03635 238.816 290.03635 
z
" clip-path="url(#p938f641909)" style="fill: #ff5722"/>
   </g>
   <g id="patch_47">
    <path d="M 288.096 250.61235 
C 289.010845 250.61235 289.888343 250.248878 290.535236 249.601986 
C 291.182128 248.955093 291.5456 248.077595 291.5456 247.16275 
C 291.5456 246.247905 291.182128 245.370407 290.535236 244.723514 
C 289.888343 244.076622 289.010845 243.71315 288.096 243.71315 
C 287.181155 243.71315 286.303657 244.076622 285.656764 244.723514 
C 285.009872 245.370407 284.6464 246.247905 284.6464 247.16275 
C 284.6464 248.077595 285.009872 248.955093 285.656764 249.601986 
C 286.303657 250.248878 287.181155 250.61235 288.096 250.61235 
z
" clip-path="url(#p938f641909)" style="fill: #ff5722"/>
   </g>
   <g id="patch_48">
    <path d="M 260.992 203.79635 
C 261.906845 203.79635 262.784343 203.432878 263.431236 202.785986 
C 264.078128 202.139093 264.4416 201.261595 264.4416 200.34675 
C 264.4416 199.431905 264.078128 198.554407 263.431236 197.907514 
C 262.784343 197.260622 261.906845 196.89715 260.992 196.89715 
C 260.077155 196.89715 259.199657 197.260622 258.552764 197.907514 
C 257.905872 198.554407 257.5424 199.431905 257.5424 200.34675 
C 257.5424 201.261595 257.905872 202.139093 258.552764 202.785986 
C 259.199657 203.432878 260.077155 203.79635 260.992 203.79635 
z
" clip-path="url(#p938f641909)" style="fill: #ff5722"/>
   </g>
   <g id="patch_49">
    <path d="M 140.256 366.42035 
C 141.170845 366.42035 142.048343 366.056878 142.695236 365.409986 
C 143.342128 364.763093 143.7056 363.885595 143.7056 362.97075 
C 143.7056 362.055905 143.342128 361.178407 142.695236 360.531514 
C 142.048343 359.884622 141.170845 359.52115 140.256 359.52115 
C 139.341155 359.52115 138.463657 359.884622 137.816764 360.531514 
C 137.169872 361.178407 136.8064 362.055905 136.8064 362.97075 
C 136.8064 363.885595 137.169872 364.763093 137.816764 365.409986 
C 138.463657 366.056878 139.341155 366.42035 140.256 366.42035 
z
" clip-path="url(#p938f641909)" style="fill: #ff5722"/>
   </g>
   <g id="patch_50">
    <path d="M 187.072 329.46035 
C 187.986845 329.46035 188.864343 329.096878 189.511236 328.449986 
C 190.158128 327.803093 190.5216 326.925595 190.5216 326.01075 
C 190.5216 325.095905 190.158128 324.218407 189.511236 323.571514 
C 188.864343 322.924622 187.986845 322.56115 187.072 322.56115 
C 186.157155 322.56115 185.279657 322.924622 184.632764 323.571514 
C 183.985872 324.218407 183.6224 325.095905 183.6224 326.01075 
C 183.6224 326.925595 183.985872 327.803093 184.632764 328.449986 
C 185.279657 329.096878 186.157155 329.46035 187.072 329.46035 
z
" clip-path="url(#p938f641909)" style="fill: #ff5722"/>
   </g>
   <g id="patch_51">
    <path d="M 273.312 221.04435 
C 274.226845 221.04435 275.104343 220.680878 275.751236 220.033986 
C 276.398128 219.387093 276.7616 218.509595 276.7616 217.59475 
C 276.7616 216.679905 276.398128 215.802407 275.751236 215.155514 
C 275.104343 214.508622 274.226845 214.14515 273.312 214.14515 
C 272.397155 214.14515 271.519657 214.508622 270.872764 215.155514 
C 270.225872 215.802407 269.8624 216.679905 269.8624 217.59475 
C 269.8624 218.509595 270.225872 219.387093 270.872764 220.033986 
C 271.519657 220.680878 272.397155 221.04435 273.312 221.04435 
z
" clip-path="url(#p938f641909)" style="fill: #ff5722"/>
   </g>
   <g id="patch_52">
    <path d="M 184.608 191.47635 
C 185.522845 191.47635 186.400343 191.112878 187.047236 190.465986 
C 187.694128 189.819093 188.0576 188.941595 188.0576 188.02675 
C 188.0576 187.111905 187.694128 186.234407 187.047236 185.587514 
C 186.400343 184.940622 185.522845 184.57715 184.608 184.57715 
C 183.693155 184.57715 182.815657 184.940622 182.168764 185.587514 
C 181.521872 186.234407 181.1584 187.111905 181.1584 188.02675 
C 181.1584 188.941595 181.521872 189.819093 182.168764 190.465986 
C 182.815657 191.112878 183.693155 191.47635 184.608 191.47635 
z
" clip-path="url(#p938f641909)" style="fill: #ff5722"/>
   </g>
   <g id="text_6">
    <!-- OVOCYTE -->
    <g style="fill: #5d4037" transform="translate(419.1975 281.65875) scale(0.12 -0.12)">
     <defs>
      <path id="DejaVuSans-Bold-4f" d="M 2719 3878 
Q 2169 3878 1866 3472 
Q 1563 3066 1563 2328 
Q 1563 1594 1866 1187 
Q 2169 781 2719 781 
Q 3272 781 3575 1187 
Q 3878 1594 3878 2328 
Q 3878 3066 3575 3472 
Q 3272 3878 2719 3878 
z
M 2719 4750 
Q 3844 4750 4481 4106 
Q 5119 3463 5119 2328 
Q 5119 1197 4481 553 
Q 3844 -91 2719 -91 
Q 1597 -91 958 553 
Q 319 1197 319 2328 
Q 319 3463 958 4106 
Q 1597 4750 2719 4750 
z
" transform="scale(0.015625)"/>
      <path id="DejaVuSans-Bold-56" d="M 31 4666 
L 1241 4666 
L 2478 1222 
L 3713 4666 
L 4922 4666 
L 3194 0 
L 1759 0 
L 31 4666 
z
" transform="scale(0.015625)"/>
      <path id="DejaVuSans-Bold-59" d="M -63 4666 
L 1253 4666 
L 2316 3003 
L 3378 4666 
L 4697 4666 
L 2919 1966 
L 2919 0 
L 1716 0 
L 1716 1966 
L -63 4666 
z
" transform="scale(0.015625)"/>
      <path id="DejaVuSans-Bold-54" d="M 31 4666 
L 4331 4666 
L 4331 3756 
L 2784 3756 
L 2784 0 
L 1581 0 
L 1581 3756 
L 31 3756 
L 31 4666 
z
" transform="scale(0.015625)"/>
      <path id="DejaVuSans-Bold-45" d="M 588 4666 
L 3834 4666 
L 3834 3756 
L 1791 3756 
L 1791 2888 
L 3713 2888 
L 3713 1978 
L 1791 1978 
L 1791 909 
L 3903 909 
L 3903 0 
L 588 0 
L 588 4666 
z
" transform="scale(0.015625)"/>
     </defs>
     <use xlink:href="#DejaVuSans-Bold-4f"/>
     <use xlink:href="#DejaVuSans-Bold-56" transform="translate(82.384766 0)"/>
     <use xlink:href="#DejaVuSans-Bold-4f" transform="translate(158.027344 0)"/>
     <use xlink:href="#DejaVuSans-Bold-43" transform="translate(243.037109 0)"/>
     <use xlink:href="#DejaVuSans-Bold-59" transform="translate(316.425781 0)"/>
     <use xlink:href="#DejaVuSans-Bold-54" transform="translate(388.837891 0)"/>
     <use xlink:href="#DejaVuSans-Bold-45" transform="translate(457.050781 0)"/>
    </g>
   </g>
   <g id="text_7">
    <!-- Noyau -->
    <g style="fill: #5d4037" transform="translate(370.533469 160.476281) scale(0.07 -0.07)">
     <defs>
      <path id="DejaVuSans-4e" d="M 628 4666 
L 1478 4666 
L 3547 763 
L 3547 4666 
L 4159 4666 
L 4159 0 
L 3309 0 
L 1241 3903 
L 1241 0 
L 628 0 
L 628 4666 
z
" transform="scale(0.015625)"/>
      <path id="DejaVuSans-79" d="M 2059 -325 
Q 1816 -950 1584 -1140 
Q 1353 -1331 966 -1331 
L 506 -1331 
L 506 -850 
L 844 -850 
Q 1081 -850 1212 -737 
Q 1344 -625 1503 -206 
L 1606 56 
L 191 3500 
L 800 3500 
L 1894 763 
L 2988 3500 
L 3597 3500 
L 2059 -325 
z
" transform="scale(0.015625)"/>
     </defs>
     <use xlink:href="#DejaVuSans-4e"/>
     <use xlink:href="#DejaVuSans-6f" transform="translate(74.804688 0)"/>
     <use xlink:href="#DejaVuSans-79" transform="translate(135.986328 0)"/>
     <use xlink:href="#DejaVuSans-61" transform="translate(195.166016 0)"/>
     <use xlink:href="#DejaVuSans-75" transform="translate(256.445312 0)"/>
    </g>
    <!-- (antéro-dorsal) -->
    <g style="fill: #5d4037" transform="translate(355.535422 168.31475) scale(0.07 -0.07)">
     <defs>
      <path id="DejaVuSans-2d" d="M 313 2009 
L 1997 2009 
L 1997 1497 
L 313 1497 
L 313 2009 
z
" transform="scale(0.015625)"/>
      <path id="DejaVuSans-64" d="M 2906 2969 
L 2906 4863 
L 3481 4863 
L 3481 0 
L 2906 0 
L 2906 525 
Q 2725 213 2448 61 
Q 2172 -91 1784 -91 
Q 1150 -91 751 415 
Q 353 922 353 1747 
Q 353 2572 751 3078 
Q 1150 3584 1784 3584 
Q 2172 3584 2448 3432 
Q 2725 3281 2906 2969 
z
M 947 1747 
Q 947 1113 1208 752 
Q 1469 391 1925 391 
Q 2381 391 2643 752 
Q 2906 1113 2906 1747 
Q 2906 2381 2643 2742 
Q 2381 3103 1925 3103 
Q 1469 3103 1208 2742 
Q 947 2381 947 1747 
z
" transform="scale(0.015625)"/>
     </defs>
     <use xlink:href="#DejaVuSans-28"/>
     <use xlink:href="#DejaVuSans-61" transform="translate(39.013672 0)"/>
     <use xlink:href="#DejaVuSans-6e" transform="translate(100.292969 0)"/>
     <use xlink:href="#DejaVuSans-74" transform="translate(163.671875 0)"/>
     <use xlink:href="#DejaVuSans-e9" transform="translate(202.880859 0)"/>
     <use xlink:href="#DejaVuSans-72" transform="translate(264.404297 0)"/>
     <use xlink:href="#DejaVuSans-6f" transform="translate(303.267578 0)"/>
     <use xlink:href="#DejaVuSans-2d" transform="translate(366.324219 0)"/>
     <use xlink:href="#DejaVuSans-64" transform="translate(402.408203 0)"/>
     <use xlink:href="#DejaVuSans-6f" transform="translate(465.884766 0)"/>
     <use xlink:href="#DejaVuSans-72" transform="translate(527.066406 0)"/>
     <use xlink:href="#DejaVuSans-73" transform="translate(568.179688 0)"/>
     <use xlink:href="#DejaVuSans-61" transform="translate(620.279297 0)"/>
     <use xlink:href="#DejaVuSans-6c" transform="translate(681.558594 0)"/>
     <use xlink:href="#DejaVuSans-29" transform="translate(709.341797 0)"/>
    </g>
   </g>
   <g id="text_8">
    <!-- ARNm bicoid -->
    <g style="fill: #e53935" transform="translate(371.872 242.23475) scale(0.07 -0.07)">
     <defs>
      <path id="DejaVuSans-BoldOblique-41" d="M 3144 850 
L 1281 850 
L 819 0 
L -416 0 
L 2222 4666 
L 3597 4666 
L 4422 0 
L 3278 0 
L 3144 850 
z
M 1734 1697 
L 2988 1697 
L 2706 3494 
L 1734 1697 
z
" transform="scale(0.015625)"/>
      <path id="DejaVuSans-BoldOblique-52" d="M 2350 2597 
Q 2759 2597 2970 2787 
Q 3181 2978 3181 3347 
Q 3181 3578 3036 3686 
Q 2891 3794 2578 3794 
L 2081 3794 
L 1844 2597 
L 2350 2597 
z
M 1684 1766 
L 1338 0 
L 134 0 
L 1044 4666 
L 2822 4666 
Q 3591 4666 3987 4378 
Q 4384 4091 4384 3531 
Q 4384 2966 4071 2600 
Q 3759 2234 3225 2181 
Q 3469 2131 3631 1932 
Q 3794 1734 3916 1325 
L 4313 0 
L 3116 0 
L 2766 1159 
Q 2659 1506 2507 1636 
Q 2356 1766 2069 1766 
L 1684 1766 
z
" transform="scale(0.015625)"/>
      <path id="DejaVuSans-BoldOblique-4e" d="M 1044 4666 
L 2388 4666 
L 3456 1434 
L 4084 4666 
L 5222 4666 
L 4313 0 
L 2969 0 
L 1900 3231 
L 1275 0 
L 134 0 
L 1044 4666 
z
" transform="scale(0.015625)"/>
      <path id="DejaVuSans-BoldOblique-6d" d="M 4013 2919 
Q 4272 3241 4601 3412 
Q 4931 3584 5288 3584 
Q 5756 3584 6026 3326 
Q 6297 3069 6297 2619 
Q 6297 2525 6283 2404 
Q 6269 2284 6241 2131 
L 5825 0 
L 4697 0 
L 5050 1825 
L 5059 1872 
Q 5141 2259 5141 2369 
Q 5141 2541 5042 2641 
Q 4944 2741 4775 2741 
Q 4453 2741 4229 2477 
Q 4006 2213 3909 1722 
L 3572 0 
L 2444 0 
L 2803 1825 
Q 2850 2059 2869 2179 
Q 2888 2300 2888 2369 
Q 2888 2544 2791 2642 
Q 2694 2741 2522 2741 
Q 2213 2741 1980 2467 
Q 1747 2194 1656 1722 
L 1319 0 
L 197 0 
L 878 3500 
L 2003 3500 
L 1900 2988 
Q 2163 3284 2459 3434 
Q 2756 3584 3078 3584 
Q 3441 3584 3700 3398 
Q 3959 3213 4013 2919 
z
" transform="scale(0.015625)"/>
      <path id="DejaVuSans-BoldOblique-20" transform="scale(0.015625)"/>
      <path id="DejaVuSans-BoldOblique-62" d="M 2597 2772 
Q 2166 2772 1892 2373 
Q 1619 1975 1619 1338 
Q 1619 1050 1773 886 
Q 1928 722 2203 722 
Q 2625 722 2900 1114 
Q 3175 1506 3175 2119 
Q 3175 2438 3026 2605 
Q 2878 2772 2597 2772 
z
M 1422 506 
L 1319 0 
L 197 0 
L 1141 4863 
L 2266 4863 
L 1900 2988 
Q 2156 3294 2437 3439 
Q 2719 3584 3053 3584 
Q 3644 3584 3987 3209 
Q 4331 2834 4331 2188 
Q 4331 1784 4211 1403 
Q 4091 1022 3866 709 
Q 3581 316 3223 112 
Q 2866 -91 2456 -91 
Q 2097 -91 1845 54 
Q 1594 200 1422 506 
z
" transform="scale(0.015625)"/>
      <path id="DejaVuSans-BoldOblique-69" d="M 878 3500 
L 2003 3500 
L 1319 0 
L 197 0 
L 878 3500 
z
M 1141 4863 
L 2266 4863 
L 2088 3950 
L 959 3950 
L 1141 4863 
z
" transform="scale(0.015625)"/>
      <path id="DejaVuSans-BoldOblique-63" d="M 3719 3391 
L 3541 2478 
Q 3316 2628 3097 2706 
Q 2878 2784 2669 2784 
Q 2122 2784 1775 2417 
Q 1428 2050 1428 1478 
Q 1428 1113 1643 911 
Q 1859 709 2253 709 
Q 2516 709 2769 787 
Q 3022 866 3250 1019 
L 3078 103 
Q 2800 6 2519 -42 
Q 2238 -91 1953 -91 
Q 1128 -91 683 279 
Q 238 650 238 1331 
Q 238 1759 402 2162 
Q 566 2566 872 2888 
Q 1213 3241 1653 3412 
Q 2094 3584 2669 3584 
Q 2934 3584 3196 3536 
Q 3459 3488 3719 3391 
z
" transform="scale(0.015625)"/>
      <path id="DejaVuSans-BoldOblique-6f" d="M 2400 2784 
Q 1966 2784 1684 2390 
Q 1403 1997 1403 1388 
Q 1403 1056 1554 882 
Q 1706 709 1997 709 
Q 2431 709 2712 1104 
Q 2994 1500 2994 2113 
Q 2994 2441 2842 2612 
Q 2691 2784 2400 2784 
z
M 2491 3584 
Q 3272 3584 3719 3187 
Q 4166 2791 4166 2106 
Q 4166 1709 4025 1336 
Q 3884 963 3616 653 
Q 3297 284 2862 96 
Q 2428 -91 1894 -91 
Q 1122 -91 676 306 
Q 231 703 231 1388 
Q 231 1781 375 2157 
Q 519 2534 788 2847 
Q 1100 3209 1533 3396 
Q 1966 3584 2491 3584 
z
" transform="scale(0.015625)"/>
      <path id="DejaVuSans-BoldOblique-64" d="M 1966 722 
Q 2397 722 2667 1119 
Q 2938 1516 2938 2156 
Q 2938 2447 2786 2609 
Q 2634 2772 2363 2772 
Q 1938 2772 1663 2380 
Q 1388 1988 1388 1375 
Q 1388 1056 1536 889 
Q 1684 722 1966 722 
z
M 3144 2988 
L 3506 4863 
L 4634 4863 
L 3688 0 
L 2559 0 
L 2663 506 
Q 2406 200 2125 54 
Q 1844 -91 1509 -91 
Q 919 -91 575 284 
Q 231 659 231 1306 
Q 231 1709 351 2090 
Q 472 2472 697 2784 
Q 981 3178 1339 3381 
Q 1697 3584 2106 3584 
Q 2466 3584 2717 3439 
Q 2969 3294 3144 2988 
z
" transform="scale(0.015625)"/>
     </defs>
     <use xlink:href="#DejaVuSans-BoldOblique-41"/>
     <use xlink:href="#DejaVuSans-BoldOblique-52" transform="translate(77.392578 0)"/>
     <use xlink:href="#DejaVuSans-BoldOblique-4e" transform="translate(154.394531 0)"/>
     <use xlink:href="#DejaVuSans-BoldOblique-6d" transform="translate(238.085938 0)"/>
     <use xlink:href="#DejaVuSans-BoldOblique-20" transform="translate(342.285156 0)"/>
     <use xlink:href="#DejaVuSans-BoldOblique-62" transform="translate(377.099609 0)"/>
     <use xlink:href="#DejaVuSans-BoldOblique-69" transform="translate(448.681641 0)"/>
     <use xlink:href="#DejaVuSans-BoldOblique-63" transform="translate(482.958984 0)"/>
     <use xlink:href="#DejaVuSans-BoldOblique-6f" transform="translate(542.236328 0)"/>
     <use xlink:href="#DejaVuSans-BoldOblique-69" transform="translate(610.9375 0)"/>
     <use xlink:href="#DejaVuSans-BoldOblique-64" transform="translate(645.214844 0)"/>
    </g>
   </g>
   <g id="text_9">
    <!-- ARNm oskar -->
    <g style="fill: #7b1fa2" transform="translate(524.64 278.748281) scale(0.07 -0.07)">
     <defs>
      <path id="DejaVuSans-BoldOblique-73" d="M 3584 3391 
L 3419 2522 
Q 3091 2678 2766 2759 
Q 2441 2841 2150 2841 
Q 1819 2841 1639 2755 
Q 1459 2669 1459 2509 
Q 1459 2416 1559 2359 
Q 1659 2303 1953 2241 
L 2156 2203 
Q 2834 2059 3106 1832 
Q 3378 1606 3378 1203 
Q 3378 594 2900 251 
Q 2422 -91 1563 -91 
Q 1203 -91 828 -34 
Q 453 22 63 134 
L 231 1013 
Q 534 834 879 743 
Q 1225 653 1588 653 
Q 1941 653 2119 737 
Q 2297 822 2297 984 
Q 2297 1097 2197 1159 
Q 2097 1222 1784 1288 
L 1581 1325 
Q 981 1450 725 1694 
Q 469 1938 469 2369 
Q 469 2953 911 3268 
Q 1353 3584 2175 3584 
Q 2534 3584 2882 3536 
Q 3231 3488 3584 3391 
z
" transform="scale(0.015625)"/>
      <path id="DejaVuSans-BoldOblique-6b" d="M 1141 4863 
L 2266 4863 
L 1753 2228 
L 3263 3500 
L 4581 3500 
L 2547 1881 
L 4025 0 
L 2747 0 
L 1613 1509 
L 1319 0 
L 197 0 
L 1141 4863 
z
" transform="scale(0.015625)"/>
      <path id="DejaVuSans-BoldOblique-61" d="M 2106 1575 
Q 1688 1575 1473 1445 
Q 1259 1316 1259 1063 
Q 1259 872 1386 762 
Q 1513 653 1734 653 
Q 2078 653 2309 861 
Q 2541 1069 2619 1447 
L 2644 1575 
L 2106 1575 
z
M 3853 1997 
L 3463 0 
L 2344 0 
L 2438 519 
Q 2163 206 1856 57 
Q 1550 -91 1191 -91 
Q 694 -91 401 167 
Q 109 425 109 863 
Q 109 1531 626 1886 
Q 1144 2241 2119 2241 
L 2778 2241 
L 2791 2328 
Q 2800 2372 2801 2390 
Q 2803 2409 2803 2425 
Q 2803 2631 2608 2736 
Q 2413 2841 2028 2841 
Q 1681 2841 1356 2769 
Q 1031 2697 728 2553 
L 897 3406 
Q 1247 3494 1614 3539 
Q 1981 3584 2375 3584 
Q 3153 3584 3531 3317 
Q 3909 3050 3909 2503 
Q 3909 2397 3895 2270 
Q 3881 2144 3853 1997 
z
" transform="scale(0.015625)"/>
      <path id="DejaVuSans-BoldOblique-72" d="M 3291 2547 
Q 3175 2613 3034 2647 
Q 2894 2681 2731 2681 
Q 2303 2681 2020 2406 
Q 1738 2131 1638 1613 
L 1319 0 
L 197 0 
L 878 3500 
L 2003 3500 
L 1881 2900 
Q 2103 3231 2436 3407 
Q 2769 3584 3175 3584 
Q 3234 3584 3309 3578 
Q 3384 3572 3488 3559 
L 3291 2547 
z
" transform="scale(0.015625)"/>
     </defs>
     <use xlink:href="#DejaVuSans-BoldOblique-41"/>
     <use xlink:href="#DejaVuSans-BoldOblique-52" transform="translate(77.392578 0)"/>
     <use xlink:href="#DejaVuSans-BoldOblique-4e" transform="translate(154.394531 0)"/>
     <use xlink:href="#DejaVuSans-BoldOblique-6d" transform="translate(238.085938 0)"/>
     <use xlink:href="#DejaVuSans-BoldOblique-20" transform="translate(342.285156 0)"/>
     <use xlink:href="#DejaVuSans-BoldOblique-6f" transform="translate(377.099609 0)"/>
     <use xlink:href="#DejaVuSans-BoldOblique-73" transform="translate(445.800781 0)"/>
     <use xlink:href="#DejaVuSans-BoldOblique-6b" transform="translate(505.322266 0)"/>
     <use xlink:href="#DejaVuSans-BoldOblique-61" transform="translate(571.826172 0)"/>
     <use xlink:href="#DejaVuSans-BoldOblique-72" transform="translate(639.306641 0)"/>
    </g>
    <!-- ARNm nanos -->
    <g style="fill: #7b1fa2" transform="translate(524.64 286.58675) scale(0.07 -0.07)">
     <defs>
      <path id="DejaVuSans-BoldOblique-6e" d="M 4128 2131 
L 3713 0 
L 2591 0 
L 2944 1825 
Q 2981 2003 3001 2126 
Q 3022 2250 3022 2322 
Q 3022 2522 2911 2631 
Q 2800 2741 2597 2741 
Q 2250 2741 2001 2470 
Q 1753 2200 1656 1722 
L 1319 0 
L 197 0 
L 878 3500 
L 2003 3500 
L 1900 2988 
Q 2209 3291 2521 3437 
Q 2834 3584 3175 3584 
Q 3659 3584 3921 3331 
Q 4184 3078 4184 2619 
Q 4184 2519 4170 2397 
Q 4156 2275 4128 2131 
z
" transform="scale(0.015625)"/>
     </defs>
     <use xlink:href="#DejaVuSans-BoldOblique-41"/>
     <use xlink:href="#DejaVuSans-BoldOblique-52" transform="translate(77.392578 0)"/>
     <use xlink:href="#DejaVuSans-BoldOblique-4e" transform="translate(154.394531 0)"/>
     <use xlink:href="#DejaVuSans-BoldOblique-6d" transform="translate(238.085938 0)"/>
     <use xlink:href="#DejaVuSans-BoldOblique-20" transform="translate(342.285156 0)"/>
     <use xlink:href="#DejaVuSans-BoldOblique-6e" transform="translate(377.099609 0)"/>
     <use xlink:href="#DejaVuSans-BoldOblique-61" transform="translate(448.291016 0)"/>
     <use xlink:href="#DejaVuSans-BoldOblique-6e" transform="translate(515.771484 0)"/>
     <use xlink:href="#DejaVuSans-BoldOblique-6f" transform="translate(586.962891 0)"/>
     <use xlink:href="#DejaVuSans-BoldOblique-73" transform="translate(655.664062 0)"/>
    </g>
   </g>
   <g id="text_10">
    <!-- ARNm gurken -->
    <g style="fill: #2e7d32" transform="translate(381.728 143.67475) scale(0.07 -0.07)">
     <defs>
      <path id="DejaVuSans-Oblique-41" d="M 2356 4666 
L 3072 4666 
L 3938 0 
L 3278 0 
L 3084 1197 
L 984 1197 
L 325 0 
L -341 0 
L 2356 4666 
z
M 2584 4044 
L 1275 1722 
L 2988 1722 
L 2584 4044 
z
" transform="scale(0.015625)"/>
      <path id="DejaVuSans-Oblique-52" d="M 1613 4147 
L 1294 2491 
L 2106 2491 
Q 2584 2491 2879 2755 
Q 3175 3019 3175 3444 
Q 3175 3784 2976 3965 
Q 2778 4147 2406 4147 
L 1613 4147 
z
M 2772 2241 
Q 2972 2194 3105 2009 
Q 3238 1825 3413 1275 
L 3809 0 
L 3144 0 
L 2778 1197 
Q 2638 1659 2453 1815 
Q 2269 1972 1888 1972 
L 1191 1972 
L 806 0 
L 172 0 
L 1081 4666 
L 2503 4666 
Q 3150 4666 3495 4373 
Q 3841 4081 3841 3531 
Q 3841 3044 3547 2687 
Q 3253 2331 2772 2241 
z
" transform="scale(0.015625)"/>
      <path id="DejaVuSans-Oblique-4e" d="M 1081 4666 
L 1931 4666 
L 3219 666 
L 4000 4666 
L 4616 4666 
L 3706 0 
L 2853 0 
L 1569 4025 
L 788 0 
L 172 0 
L 1081 4666 
z
" transform="scale(0.015625)"/>
      <path id="DejaVuSans-Oblique-6d" d="M 5747 2113 
L 5338 0 
L 4763 0 
L 5166 2094 
Q 5191 2228 5203 2325 
Q 5216 2422 5216 2491 
Q 5216 2772 5059 2928 
Q 4903 3084 4622 3084 
Q 4203 3084 3875 2770 
Q 3547 2456 3450 1953 
L 3066 0 
L 2491 0 
L 2900 2094 
Q 2925 2209 2937 2307 
Q 2950 2406 2950 2484 
Q 2950 2769 2794 2926 
Q 2638 3084 2363 3084 
Q 1938 3084 1609 2770 
Q 1281 2456 1184 1953 
L 800 0 
L 225 0 
L 909 3500 
L 1484 3500 
L 1375 2956 
Q 1609 3263 1923 3423 
Q 2238 3584 2597 3584 
Q 2978 3584 3223 3384 
Q 3469 3184 3519 2828 
Q 3781 3197 4126 3390 
Q 4472 3584 4856 3584 
Q 5306 3584 5551 3325 
Q 5797 3066 5797 2591 
Q 5797 2488 5784 2364 
Q 5772 2241 5747 2113 
z
" transform="scale(0.015625)"/>
      <path id="DejaVuSans-Oblique-20" transform="scale(0.015625)"/>
      <path id="DejaVuSans-Oblique-67" d="M 3816 3500 
L 3219 434 
Q 3047 -456 2561 -893 
Q 2075 -1331 1253 -1331 
Q 950 -1331 690 -1286 
Q 431 -1241 206 -1147 
L 313 -588 
Q 525 -725 762 -790 
Q 1000 -856 1269 -856 
Q 1816 -856 2167 -557 
Q 2519 -259 2631 300 
L 2681 563 
Q 2441 288 2122 144 
Q 1803 0 1434 0 
Q 903 0 598 351 
Q 294 703 294 1319 
Q 294 1803 478 2267 
Q 663 2731 997 3091 
Q 1219 3328 1514 3456 
Q 1809 3584 2131 3584 
Q 2484 3584 2746 3420 
Q 3009 3256 3138 2956 
L 3238 3500 
L 3816 3500 
z
M 2950 2216 
Q 2950 2641 2750 2872 
Q 2550 3103 2181 3103 
Q 1953 3103 1747 3012 
Q 1541 2922 1394 2759 
Q 1156 2491 1023 2127 
Q 891 1763 891 1375 
Q 891 944 1092 712 
Q 1294 481 1672 481 
Q 2219 481 2584 976 
Q 2950 1472 2950 2216 
z
" transform="scale(0.015625)"/>
      <path id="DejaVuSans-Oblique-75" d="M 428 1388 
L 838 3500 
L 1416 3500 
L 1006 1409 
Q 975 1256 961 1147 
Q 947 1038 947 966 
Q 947 700 1109 554 
Q 1272 409 1569 409 
Q 2031 409 2368 721 
Q 2706 1034 2809 1563 
L 3194 3500 
L 3769 3500 
L 3091 0 
L 2516 0 
L 2631 550 
Q 2388 244 2052 76 
Q 1716 -91 1338 -91 
Q 878 -91 622 161 
Q 366 413 366 863 
Q 366 956 381 1097 
Q 397 1238 428 1388 
z
" transform="scale(0.015625)"/>
      <path id="DejaVuSans-Oblique-72" d="M 2853 2969 
Q 2766 3016 2653 3041 
Q 2541 3066 2413 3066 
Q 1953 3066 1609 2717 
Q 1266 2369 1153 1784 
L 800 0 
L 225 0 
L 909 3500 
L 1484 3500 
L 1375 2956 
Q 1603 3259 1920 3421 
Q 2238 3584 2597 3584 
Q 2691 3584 2781 3573 
Q 2872 3563 2963 3538 
L 2853 2969 
z
" transform="scale(0.015625)"/>
      <path id="DejaVuSans-Oblique-6b" d="M 1172 4863 
L 1747 4863 
L 1197 2028 
L 3169 3500 
L 3916 3500 
L 1716 1825 
L 3322 0 
L 2625 0 
L 1131 1709 
L 800 0 
L 225 0 
L 1172 4863 
z
" transform="scale(0.015625)"/>
      <path id="DejaVuSans-Oblique-65" d="M 3078 2063 
Q 3088 2113 3092 2166 
Q 3097 2219 3097 2272 
Q 3097 2653 2873 2875 
Q 2650 3097 2266 3097 
Q 1838 3097 1509 2826 
Q 1181 2556 1013 2059 
L 3078 2063 
z
M 3578 1613 
L 903 1613 
Q 884 1494 878 1425 
Q 872 1356 872 1306 
Q 872 872 1139 634 
Q 1406 397 1894 397 
Q 2269 397 2603 481 
Q 2938 566 3225 728 
L 3116 159 
Q 2806 34 2476 -28 
Q 2147 -91 1806 -91 
Q 1078 -91 686 257 
Q 294 606 294 1247 
Q 294 1794 489 2264 
Q 684 2734 1063 3103 
Q 1306 3334 1642 3459 
Q 1978 3584 2356 3584 
Q 2950 3584 3301 3228 
Q 3653 2872 3653 2272 
Q 3653 2128 3634 1964 
Q 3616 1800 3578 1613 
z
" transform="scale(0.015625)"/>
      <path id="DejaVuSans-Oblique-6e" d="M 3566 2113 
L 3156 0 
L 2578 0 
L 2988 2091 
Q 3016 2238 3031 2350 
Q 3047 2463 3047 2528 
Q 3047 2791 2881 2937 
Q 2716 3084 2419 3084 
Q 1956 3084 1622 2776 
Q 1288 2469 1184 1941 
L 800 0 
L 225 0 
L 903 3500 
L 1478 3500 
L 1363 2950 
Q 1603 3253 1940 3418 
Q 2278 3584 2650 3584 
Q 3113 3584 3367 3334 
Q 3622 3084 3622 2631 
Q 3622 2519 3608 2391 
Q 3594 2263 3566 2113 
z
" transform="scale(0.015625)"/>
     </defs>
     <use xlink:href="#DejaVuSans-Oblique-41"/>
     <use xlink:href="#DejaVuSans-Oblique-52" transform="translate(68.408203 0)"/>
     <use xlink:href="#DejaVuSans-Oblique-4e" transform="translate(137.890625 0)"/>
     <use xlink:href="#DejaVuSans-Oblique-6d" transform="translate(212.695312 0)"/>
     <use xlink:href="#DejaVuSans-Oblique-20" transform="translate(310.107422 0)"/>
     <use xlink:href="#DejaVuSans-Oblique-67" transform="translate(341.894531 0)"/>
     <use xlink:href="#DejaVuSans-Oblique-75" transform="translate(405.371094 0)"/>
     <use xlink:href="#DejaVuSans-Oblique-72" transform="translate(468.75 0)"/>
     <use xlink:href="#DejaVuSans-Oblique-6b" transform="translate(509.863281 0)"/>
     <use xlink:href="#DejaVuSans-Oblique-65" transform="translate(567.773438 0)"/>
     <use xlink:href="#DejaVuSans-Oblique-6e" transform="translate(629.296875 0)"/>
    </g>
   </g>
  </g>
 </g>
 <defs>
  <clipPath id="p938f641909">
   <rect x="7.2" y="40.18675" width="616" height="443.52"/>
  </clipPath>
 </defs>
</svg>
